<?xml version="1.0" encoding="utf-8"?>
<!-- Generator: Adobe Illustrator 22.1.0, SVG Export Plug-In . SVG Version: 6.00 Build 0)  -->
<svg version="1.1" id="Layer_1" xmlns="http://www.w3.org/2000/svg" xmlns:xlink="http://www.w3.org/1999/xlink" x="0px" y="0px"
	 viewBox="0 0 300 300" style="enable-background:new 0 0 300 300;" xml:space="preserve">
<style type="text/css">
	.st0{fill:#030100;}
	.st1{fill:#D38AA1;}
	.st2{fill:#F191C6;}
	.st3{fill:#869592;}
	.st4{fill:#030101;}
	.st5{fill:#374858;}
	.st6{fill:#2A3538;}
	.st7{fill:#0F3A33;}
	.st8{fill:#3B2E46;}
	.st9{fill:#A1837F;}
	.st10{fill:#A6505D;}
	.st11{fill:#8A4909;}
	.st12{fill:#711C31;}
	.st13{fill:#BCC9C7;}
	.st14{fill:#868B85;}
	.st15{fill:#5F737B;}
	.st16{fill:#919D9B;}
	.st17{fill:#5B6D63;}
	.st18{fill:#738A8D;}
	.st19{fill:#949F9A;}
	.st20{fill:#D4DEE0;}
	.st21{fill:#C4CDE4;}
	.st22{fill:#6A3133;}
	.st23{fill:#69334D;}
	.st24{fill:#8B4969;}
	.st25{fill:#FAB8DF;}
	.st26{fill:#A9658C;}
	.st27{fill:#879BA7;}
	.st28{fill:#DCDFEA;}
	.st29{fill:#DFE7F2;}
	.st30{fill:#ADB9AF;}
	.st31{fill:#909DA3;}
	.st32{fill:none;}
</style>
<g>
	<g id="XMLID_1_">
		<g>
			<path class="st0" d="M155.1,279.1c4.4-1.1,7.8-0.3,8.6,3.8c-1-1.1-2.1-1.6-3.3-1.4c0,0-0.1-0.1-0.1-0.1c-0.1,0.1-0.3,0.1-0.4,0.2
				c0,0,0,0,0,0c-1.7,0.7-3.2,0.6-4.4-0.2C154.6,280.1,154.6,279.5,155.1,279.1z"/>
			<path class="st1" d="M158.5,284.3c-10.8-0.9-21-1.3-29.3,0c-7.3-5.2-16.7-9.8-27.1-14c2-1.8,3.9-2,5.9-0.8
				c11.3,5.4,26.5,7,47,9.5c-0.5,0.4-0.5,1.1,0.3,2.3c1.3,0.8,2.8,0.9,4.4,0.2c0,0,0,0,0,0c0.2,0,0.4-0.1,0.5-0.1
				C160.8,281.9,160.8,282.6,158.5,284.3z"/>
			<path class="st2" d="M69.7,132.7c2.6,1.8,5.1-0.9,8.3-6c0.7,1.8,1.8,3.2,3.1,4.4c-8.8,9.5-16.7,21.9-24.3,35.3
				c2.5,9.9,2.9,19.1,2,28c-1.7,4.7,0.8,14.9,3.1,24.6c-2.9-8.5-6.6-16.6-11.6-23.3c-5.5-12.8-11.9-25.5,2.7-38.7
				C60.6,148.4,68.1,139.8,69.7,132.7z"/>
			<path class="st3" d="M243.7,226.3c-4.5,1.9-12.6-2.7-21.1-8.1c-6-7.4-9.7-15.9-5.9-30.6h0.7c6.6,0.2,10.9,4.5,12,14.3
				c6.9-17,18-25.5,36.9-18.5c1.1,1.3,2,2.6,2.8,4c-5,0.6-10.8,0-16.8-1.2c-6.8-1.8-10.5,6.3-14.2,14.8c8.1,3.1,15.4,6.7,18.3,13.3
				c7,0.6,12.4-1.1,15.8-5.7c-1.1,5.9-3.5,12.4-7.5,19.6c-3.9-1.9-7.9-2.7-12-2C249.5,228.4,246.4,228.7,243.7,226.3z M240.2,221.2
				c0.9,1.6,2.7,2.7,4.9,2.7c3,0,5.4-2.1,5.4-4.7c0-1.6-0.9-3-2.3-3.8c0,0-0.1-0.1-0.1-0.1c-2.1-1.3-4.1-2.4-6.1-3.3
				c-2.2-0.4-4.4-0.6-5.7,1.5C236.3,216.8,237.8,219.3,240.2,221.2z"/>
			<path class="st4" d="M250.5,219.1c0,2.6-2.4,4.7-5.4,4.7c-2.2,0-4-1.1-4.9-2.7c-0.3-0.6-0.5-1.3-0.5-2c0-2.6,2.4-4.7,5.4-4.7
				c1.1,0,2.2,0.3,3,0.8c0,0,0.1,0,0.1,0.1C249.6,216.2,250.5,217.6,250.5,219.1z M244.5,222.2c0.9,0,1.6-0.7,1.6-1.6
				s-0.7-1.6-1.6-1.6c-0.9,0-1.6,0.7-1.6,1.6S243.6,222.2,244.5,222.2z"/>
			<path class="st5" d="M239.7,219.1c0,0.7,0.2,1.4,0.5,2c-2.4-1.9-3.9-4.3-3.9-7.7c1.3-2.1,3.4-1.9,5.7-1.5c2,0.9,4.1,1.9,6.1,3.3
				c-0.9-0.5-1.9-0.8-3-0.8C242.1,214.5,239.7,216.6,239.7,219.1z"/>
			<path class="st6" d="M259.3,263.6c3.9,1.2,7.3,0.4,9.5-4.9c0.7,12-0.5,19.6-4.1,21.6C263.4,277,261.7,271,259.3,263.6z"/>
			<path class="st7" d="M238,201.2c3.6-8.5,7.4-16.6,14.2-14.8c6.1,1.2,11.8,1.8,16.8,1.2c3.4,5.9,4.7,12.9,3.1,21.2
				c-3.4,4.6-8.8,6.4-15.8,5.7C253.4,207.9,246.1,204.3,238,201.2z"/>
			<path class="st8" d="M260.8,231.8c1.1,2.3,1.5,4.9,1.9,7.7c-2.3,0.7-4.5,0.3-6.3-2.2c-3.5-2.3-6-2.7-8.1-2.1
				c-1.4-2.9-2.9-5.9-4.6-8.9c2.8,2.4,5.8,2.1,9,0c4.1-0.7,8.1,0.1,12,2C262.4,229,260.9,230.1,260.8,231.8z"/>
			<path class="st9" d="M258.8,247.5c0.7-3.6-0.3-5.6-1.7-7.2c2.5,1.3,4.3,2.9,3.3,5.5L258.8,247.5z"/>
			<path class="st10" d="M257.2,240.3c1.4,1.6,2.4,3.6,1.7,7.2l1.7-1.7C261.5,243.2,259.7,241.7,257.2,240.3z M259.3,263.6
				c-2.5-7.6-5.7-16.7-10.1-26.2c0,0,0,0,0,0c-0.3-0.7-0.6-1.4-1-2.1c2.1-0.6,4.6-0.2,8.1,2.1c1.9,2.5,4,2.9,6.3,2.2
				c-0.4-2.7-0.8-5.4-1.9-7.7c0.1-1.8,1.6-2.8,3.9-3.5c2.2,12,3.6,22.2,4.1,30.3C266.6,264,263.2,264.8,259.3,263.6z"/>
			<path class="st0" d="M254.5,268.1c1.9,0.5,3.6-0.7,4.8-4.5c2.4,7.5,4.1,13.4,5.4,16.8c-1.5,3-3.2,5-6.3,0
				C257.2,276.1,255.9,272,254.5,268.1z"/>
			<path class="st11" d="M248.5,253.2c-1.4-8.8-2.1-15.9,0.7-15.9c0,0,0,0,0,0c4.4,9.6,7.6,18.7,10.1,26.2c-1.2,3.8-2.8,5.1-4.8,4.5
				C252.7,262.8,250.7,257.9,248.5,253.2L248.5,253.2z"/>
			<path class="st12" d="M249.2,237.3c-2.8,0-2.2,7.1-0.7,15.9h0c-2.7-5.7-5.6-11-8.8-15.9c3.5-2.4,5.3-5.9,4-11
				c1.6,3,3.2,6,4.6,8.9C248.6,235.9,248.9,236.6,249.2,237.3z"/>
			<circle class="st13" cx="244.5" cy="220.6" r="1.6"/>
			<path class="st14" d="M222.6,218.3c8.5,5.4,16.6,10,21.1,8.1c1.3,5.1-0.5,8.6-4,11C234.2,229.8,227.6,224.4,222.6,218.3z"/>
			<path class="st15" d="M216.7,187.7c-0.6-13,7.4-20.1,21.3-21.3c12.3,4.3,22.2,9.8,28.2,17.2c-18.9-7-30,1.5-36.9,18.5
				c-1.1-9.8-5.4-14.2-12-14.3H216.7z"/>
			<path class="st16" d="M238,166.3c-13.9,1.3-21.9,8.4-21.3,21.3c-1.4-5.5-5.5-10.2-13.3-13.7c3.1-7.6,4.3-15.3-1.2-23.5
				c8.8,3.8,16,8.7,19.7,15.8C226.1,165.2,231.9,165.6,238,166.3z"/>
			<path class="st13" d="M221.8,166.3c-3.7-7.2-10.9-12-19.7-15.8c0.2-4.3-2-10.2-4.8-16.5c6,9,31.2,16,40.7,32.3
				C231.9,165.6,226.1,165.2,221.8,166.3z"/>
			<path class="st17" d="M202.1,150.5c5.5,8.2,4.2,15.9,1.2,23.5c-5.2,1.8-10.3,1.3-15-3c-4.3,0.6-8-0.2-11-3
				c11.1-10.4,19.8-21.3,20-34C200.2,140.3,202.3,146.2,202.1,150.5z"/>
			<path class="st18" d="M150.8,122.2c0.7-9.7,3.9-18.4,9.4-26.2c0.9-4.5,1.5-9.1,1.7-13.8c0.1-2.7,0.1-5.4-0.1-8.2
				c-1.4-12.3-3.6-23.6-8.2-32.3c3.2-4.4,4.4-9.5,3.7-15.3c48.4,23.4,49.8,63.5,40,107.7c-0.2,12.8-8.9,23.6-20,34
				c-31.3,6.2-55.8,4.1-57.3-25.7C130.5,131.6,140.9,123,150.8,122.2z"/>
			<path class="st19" d="M139.2,92.3c4,1.1,5.7,2.8,6.2,4.8c6.3,0.3,11.5-7.2,16.6-15c-0.2,4.7-0.8,9.3-1.7,13.8
				c-5.6,7.8-8.7,16.5-9.4,26.2c-9.9,0.8-20.3,9.4-30.8,20.2c-7.4,5.8-16.4,7.4-23.8,6.2c-1.7-0.3-3.2-0.7-4.7-1.3
				c-1.7-0.7-3.2-1.6-4.5-2.6c-0.2-0.2-0.5-0.4-0.7-0.6c-1-2.5,0.3-5.2,3-8c-3.1-1.4-6-2.9-8.3-4.9c-1.3-1.2-2.4-2.7-3.1-4.4
				c-2.7-11-5.1-21.8-4-30.5L80.3,66c21.6-14.6,40.5-8.1,58.4,6.7c-7,1.5-12.6,4.4-16.8,8.8c-0.7,4.1,0.7,7.8,6.4,10.8
				C132.4,93.5,136.2,93.9,139.2,92.3z"/>
			<path class="st0" d="M141.8,289.8c-2.1-0.9-2.5-1.9-1.8-3.2c2.7-0.2,5.1,0.7,6.6,4.4C144.6,289.7,143,289,141.8,289.8z"/>
			<path class="st20" d="M161.9,82.2c-5.1,7.8-10.3,15.3-16.6,15c-0.4-2.1-2.2-3.8-6.2-4.8c-3,1.5-6.8,1.1-10.8,0
				c-5.7-3-7-6.8-6.4-10.8c4.2-4.4,9.8-7.4,16.8-8.8c-7.1-12.4-13.2-24.1-15.4-32.7c-1.1-5.9,1.2-10.2,9-11.8
				c8.5,0.5,16-0.8,21.8-4.5h0c1.1,0.9,2.2,1.7,3.2,2.7c0.8,5.9-0.5,10.9-3.7,15.3c4.6,8.8,6.8,20.1,8.2,32.3
				C162,76.8,162.1,79.5,161.9,82.2z"/>
			<path class="st21" d="M80.3,66c-4.1-16-13.8-27.2-27.7-34.7C83.3,8.1,117.5,8,154.1,23.7c-5.8,3.8-13.2,5-21.8,4.5
				c-7.8,1.6-10.1,5.9-9,11.8c2.2,8.6,8.3,20.2,15.4,32.7C120.9,57.9,101.9,51.4,80.3,66z"/>
			<path class="st0" d="M116.7,293.8c-0.5-1.6-0.4-3,0.9-4c3.5,0.2,6.3,0.9,8.2,2.2c-3.5,0.2-6.4,0.8-8.7,2c-0.1,0-0.2,0-0.3,0
				L116.7,293.8z"/>
			<path class="st22" d="M80,170.8c4.1-5.9,7.9-13.9,11.6-23.7c1.5,0.6,3,1,4.7,1.3v0c-5.7,7.9-9.8,17-10.8,28.5
				C84.3,174.1,82.8,171.6,80,170.8z"/>
			<path class="st23" d="M102.2,270.3c-11.1-17.7-19.9-37.9-27.1-60.1c3.5-2.6,6.4-6.8,8.6-12.9c6.1,28.4,13.5,54,24.4,72.3
				C106.1,268.3,104.1,268.6,102.2,270.3z"/>
			<path class="st24" d="M83.7,197.3c-2.2,6.1-5.1,10.3-8.6,12.9c-0.4-1.3-0.8-2.6-1.2-3.9c-1.5-15.8-2.8-31.1-2.2-40
				c6.2-7.4,11.9-14.8,15.3-21.8c1.3,1,2.8,1.9,4.5,2.6c-3.6,9.7-7.4,17.8-11.6,23.7c2.8,0.8,4.3,3.2,5.5,6.2
				C86,184.5,84.9,190.9,83.7,197.3z"/>
			<path class="st25" d="M116.7,294c-16.1,2-27.9-8.5-40.8-20.5c0.9-7.3,5.8-11.4,16.4-10.9c2,3.9,3.3,7.8,2.5,11.5
				c8.5,5,16.5,10.1,22.8,15.7c-1.3,1.1-1.4,2.4-0.9,4L116.7,294z"/>
			<path class="st26" d="M102.2,270.3c10.3,4.3,19.7,8.8,27.1,14c1.6,1.2,5.3,1.9,10.7,2.3c-0.7,1.2-0.3,2.3,1.8,3.2
				c-6.3,1.4-23.3-1.4-24.2,0c-6.2-5.5-14.3-10.6-22.8-15.7c0.8-3.8-0.5-7.6-2.5-11.5c-10.7-0.5-15.5,3.6-16.4,10.9
				c-0.2-0.2-0.4-0.4-0.6-0.5c-4.1-9.3-6.2-32.8-13.4-54c-2.2-9.8-4.8-19.9-3.1-24.6c0.9-8.9,0.5-18.1-2-28
				c7.5-13.4,15.4-25.7,24.3-35.3c2.2,2.1,5.2,3.5,8.3,4.9c-2.7,2.8-4,5.5-3,8c0.2,0.2,0.4,0.4,0.7,0.6c-3.4,7-9.1,14.3-15.3,21.8
				c-0.6,8.9,0.7,24.2,2.2,40c0.4,1.3,0.8,2.6,1.2,3.9C82.2,232.4,91.1,252.7,102.2,270.3z"/>
			<path class="st27" d="M80.3,66L74,96.2c-1.4-4-4.8-5.8-8.5-7.2c-8.7-4.3-16.8-6.2-23.8-4.7c-6.5-5-9.1-11.8-7.8-20.6
				C44.7,60,51.1,49.4,52.7,31.3C66.5,38.8,76.2,50,80.3,66z"/>
			<path class="st28" d="M52.7,31.3c3.6-19.5,59.8-40.3,101.4-7.7C117.5,8,83.3,8.1,52.7,31.3z"/>
			<path class="st29" d="M52.7,31.3c-1.6,18-8,28.6-18.8,32.4c0-0.4,0.1-0.7,0.2-1.1C27.3,59.3,37.3,28.3,52.7,31.3z"/>
			<path class="st30" d="M69.7,132.7c-24.8-12.4-40-27.1-28-48.3c0.8,21.8,15.1,34.4,36.3,42.3C74.7,131.7,72.3,134.5,69.7,132.7z"
				/>
			<path class="st31" d="M74,96.2c-1.1,8.7,1.3,19.5,4,30.5c-21.2-8-35.6-20.6-36.3-42.3c7-1.5,15.1,0.4,23.8,4.7
				C69.2,90.3,72.6,92.1,74,96.2z"/>
		</g>
		<g>
		</g>
	</g>
</g>
<rect class="st32" width="300" height="300"/>
</svg>