<?xml version="1.0" encoding="utf-8"?>
<!-- Generator: Adobe Illustrator 22.0.0, SVG Export Plug-In . SVG Version: 6.00 Build 0)  -->
<svg version="1.1" id="Layer_1" xmlns="http://www.w3.org/2000/svg" xmlns:xlink="http://www.w3.org/1999/xlink" x="0px" y="0px"
	 viewBox="0 0 600 300" style="enable-background:new 0 0 600 300;" xml:space="preserve">
<style type="text/css">
	.st0{fill:#E4F4F6;}
	.st1{fill:#FFFFFF;}
</style>
<g>
	<g id="XMLID_4_">
		<g>
			<path class="st0" d="M471.2,170.5c118-31.4,174.5,58.5,40.2,76.6c-261-41.6-478.2,53.4-497.3-6.3c-8.3-49.1-5-83.9,49-56.5
				c9.8-26.5,23-42.5,39.6-48.4v0.1c-23.5,46.1,1.9,99.8,78.5,63.4c24.3,19.7,47.4,16.9,69.1-12.6c49.8,36.8,109.2,28.7,109.2-31.8
				c60.9,18.6,100.5-32.2,61.2-89.3C461.1,86.1,486.9,123.8,471.2,170.5z"/>
			<path class="st1" d="M420.6,65.7c39.3,57.1-0.3,107.9-61.2,89.3c0,60.5-59.5,68.6-109.2,31.8c-21.7,29.4-44.8,32.3-69.1,12.6
				C104.5,235.8,79.2,182,102.7,136v-0.1c18-6.3,40-0.6,65.9,17c9.2-31,27-37.4,55.2-13.8C249.6,44.8,354.5,32.2,420.6,65.7z"/>
		</g>
		<g>
		</g>
	</g>
</g>
</svg>
