<?xml version="1.0" encoding="utf-8"?>
<!-- Generator: Adobe Illustrator 22.1.0, SVG Export Plug-In . SVG Version: 6.00 Build 0)  -->
<svg version="1.1" id="Layer_2" xmlns="http://www.w3.org/2000/svg" xmlns:xlink="http://www.w3.org/1999/xlink" x="0px" y="0px"
	 viewBox="0 0 300 300" style="enable-background:new 0 0 300 300;" xml:space="preserve">
<style type="text/css">
	.st0{fill:#E0CBBE;}
	.st1{fill:url(#SVGID_1_);}
	.st2{fill:#FAE2D2;}
	.st3{fill:#FEFFFE;}
	.st4{fill:#CDA286;}
	.st5{fill:#DCB499;}
	.st6{fill:#FFF7EC;}
	.st7{fill:#FBE3CC;}
	.st8{fill:#F6C9AB;}
	.st9{fill:#EFB47F;}
	.st10{fill:#F9B98C;}
	.st11{fill:#F4CBB0;}
	.st12{fill:#EFB68C;}
	.st13{fill:#FDC697;}
	.st14{fill:#E1AC7A;}
	.st15{fill:#F6E4D3;}
	.st16{fill:#EFBC95;}
	.st17{fill:#FFF7EB;}
	.st18{fill:#FF9592;}
	.st19{fill:#FEBCB1;}
	.st20{fill:#EAB292;}
	.st21{fill:#F93D7D;}
	.st22{fill:#FF7EDB;}
	.st23{fill:#FDD7AC;}
	.st24{fill:#FCEAD6;}
	.st25{fill:#FF4D93;}
	.st26{fill:#FD51CD;}
	.st27{fill:#FFB6B2;}
	.st28{fill:#FFDFE1;}
	.st29{fill:#FFFEF5;}
	.st30{fill:#E0C7B4;}
	.st31{fill:#FF87E0;}
	.st32{fill:#FC75D4;}
	.st33{fill:#FCA6D4;}
	.st34{fill:#FB98DC;}
	.st35{fill:#FEEAFA;}
	.st36{fill:#FF84C1;}
	.st37{fill:#FFE5F9;}
	.st38{fill:#FF6E81;}
</style>
<g id="XMLID_1_">
	<g>
		<path class="st0" d="M277,176.3c16.9-1.6,19.1,7.4,17.5,19.3c-33.8,46.6-66.4,54.8-98.4,45.1c-22.7-2.6-45.5-4.6-68.8,9.5
			c-12.6,4.2-22.9,6.7-31.4,7.9c31.3-11.2,55.3-23.4,53.4-39.3c-5.8-14.6-13-25-27-14.8c1.2-2.7,2.5-5.5,3.9-8.4
			c0.9-10.5-0.3-19.9-3.3-27.9c4.7,7.6,9.4,11.1,14.1,10.6c3.1,12.8,12.6,22.9,25.2,31.8c6,30,62.9,31.3,92.1-3c0,0,0,0,0,0
			C263.2,200,271.1,190.1,277,176.3L277,176.3z"/>
		<linearGradient id="SVGID_1_" gradientUnits="userSpaceOnUse" x1="162.1808" y1="165.0846" x2="282.3752" y2="165.0846">
			<stop  offset="0" style="stop-color:#FFFFFF"/>
			<stop  offset="0.3308" style="stop-color:#FBEADF"/>
			<stop  offset="0.4615" style="stop-color:#FAE2D2"/>
		</linearGradient>
		<path class="st1" d="M261.9,121.5c14.3,9.1,22.3,21.8,20.2,40.3c-1.5,5.2-3.2,10.1-5.1,14.5h0c-5.9,13.7-13.8,23.7-22.7,30.8
			c0,0,0,0,0,0c-28.1,22.5-65.9,16.3-80.1,10.5c-4.2-2.4-8.2-4.9-11.9-7.5c0.9-46.6,6.2-89.7,50.1-102.5v-0.5
			C228.4,107.2,245.5,111.6,261.9,121.5z M270.2,141.1c0-10.8-8.8-19.6-19.6-19.6c-10.8,0-19.6,8.8-19.6,19.6s8.8,19.6,19.6,19.6
			C261.4,160.7,270.2,151.9,270.2,141.1z"/>
		<circle class="st2" cx="250.6" cy="141.1" r="19.6"/>
		<path class="st3" d="M137.5,157.3c2.4-8.3,6.6-15.8,12.1-22.5c2.9-3.5,6.1-6.7,9.7-9.6c3.8-3.1,7.9-5.8,12.4-8.2l0,0v0
			c1.1-0.6,2.3-1.2,3.5-1.8c3.2-1.5,6.6-2.9,10.1-4c8.4-2.7,17.5-4.2,26.9-4.2v0.5c-43.9,12.7-49.1,55.9-50.1,102.5
			c-12.7-8.8-22.1-19-25.2-31.8c-0.8-3.3-1.2-6.9-1.1-10.6c0-1.5,0.2-3.1,0.4-4.7C136.5,161.1,137,159.2,137.5,157.3z"/>
		<path class="st4" d="M174.1,217.6c14.2,5.9,52,12,80.1-10.5c-29.2,34.3-86.1,33-92.1,3C165.9,212.7,169.9,215.2,174.1,217.6z"/>
		<path class="st5" d="M188.5,94.5c0.7,5.7,0,11.3-3.2,16.8c-3.5,1.1-6.9,2.5-10.1,4l2.4-5.6l3.6-1.2l2.4-1.2l1.2-3.6L188.5,94.5z"
			/>
		<path class="st6" d="M188.5,94.5l-3.7,9.3l-1.2,3.6l-2.4,1.2l-3.6,1.2l-2.4,5.6c-1.2,0.6-2.3,1.1-3.5,1.8
			c0-17.1-5.5-34.5-17.8-52.4c11.6,11.6,23.2,22.8,34.4,28.5C188.4,93.5,188.5,94,188.5,94.5z"/>
		<path class="st7" d="M154,64.6c12.3,17.9,17.8,35.3,17.8,52.4h0c-17.4-17.3-31.9-34.7-22.1-53.4C151,63.9,152.5,64.3,154,64.6z"/>
		<path class="st8" d="M171.8,117c-4.4,2.4-8.6,5.1-12.4,8.2c-1.1-1.2-2.2-2.2-3.3-3.2c-12.9-13.1-20.4-30.2-25.9-48.8
			c5.8-4.2,12.3-7.4,19.4-9.7C139.8,82.3,154.4,99.7,171.8,117z"/>
		<path class="st9" d="M156.1,122.1c1,1.1,2.1,2.1,3.3,3.2c-3.6,2.9-6.8,6.1-9.7,9.6l-5.2-2.6c0.1,1.1-2.7,0.2-4.5-1.1v0
			c-0.6-0.4-1.1-0.8-1.4-1.3c-0.7-1-3.6-1.2-2.4-2.4c1.2-1.2-1.2-1.2,0-3.6c1.2-2.4-2.4-2.4-2.4-2.4s-2.4,1.2-4.7,1.2
			c-2.4,0-3.6,0-3.6,0c-0.6,0.4-1.4,0.5-2.3,0.4h0c-2.2-0.3-5.2-1.9-8.3-3.9C128.8,112.1,142.6,110.1,156.1,122.1z"/>
		<path class="st10" d="M127.3,159.9c-2.9,0.1-5.7-0.2-8.6-0.8c-1.2-2.1-2.6-4-4.1-5.9c11.1-4.4,20.5-10.7,25.3-22.1
			c1.9,1.3,4.6,2.2,4.5,1.1l5.2,2.6c-5.5,6.6-9.7,14.2-12.1,22.5C134.1,159,130.7,159.8,127.3,159.9z"/>
		<path class="st11" d="M149.2,218.8c1.9,15.9-22,28.2-53.4,39.3c-19.4,2.7-29.6-1.3-37.6-7c7.2,1.1,14,1.2,20.4,0c0,0,0,0,0,0
			c31.2,0.8,77.2-31.1,40.9-41.4c0.9-1.9,1.7-3.8,2.6-5.8C136.3,193.8,143.4,204.2,149.2,218.8z"/>
		<path class="st12" d="M114.6,102.4c0-0.3,0.1-0.7,0.2-1c-1.6-1.7-3.2-3.5-4.7-5.2c5.4-9.6,12.2-17.2,20.1-22.9
			c5.5,18.6,13.1,35.7,25.9,48.8c-13.6-12-27.4-10-41.3-2.9C113.9,113.5,113.8,107.9,114.6,102.4
			C114.6,102.4,114.6,102.4,114.6,102.4z"/>
		<path class="st13" d="M139.9,131.1L139.9,131.1c-4.8,11.4-14.2,17.7-25.3,22.1c-2.1-2.6-4.3-4.9-6.8-6.9c3-10,6.4-19.5,15.3-23.3
			h0c0.9,0.1,1.7,0,2.3-0.4c0,0,1.2,0,3.6,0c2.4,0,4.7-1.2,4.7-1.2s3.6,0,2.4,2.4c-1.2,2.4,1.2,2.4,0,3.6c-1.2,1.2,1.7,1.4,2.4,2.4
			C138.9,130.3,139.4,130.7,139.9,131.1z"/>
		<path class="st14" d="M137.5,157.3c-0.5,1.9-1,3.8-1.4,5.8c-0.2,1.6-0.3,3.2-0.4,4.7c-4-0.1-6.9-2.3-8.5-7.9
			C130.7,159.8,134.1,159,137.5,157.3z"/>
		<path class="st15" d="M136.9,178.4c-4.7,0.6-9.4-3-14.1-10.6c-0.6-1.6-1.2-3.1-1.9-4.5c-0.7-1.4-1.4-2.8-2.2-4.2
			c2.9,0.6,5.7,1,8.6,0.8c1.6,5.5,4.5,7.8,8.5,7.9C135.7,171.5,136.1,175,136.9,178.4z"/>
		<path class="st16" d="M130.2,73.3c-8,5.7-14.7,13.3-20.1,22.9c-2-2.2-3.9-4.4-5.7-6.6c-6.9-8.4-12.2-16.8-13.3-25
			c3.7,2.3,6.5,1.8,8.3-1.2c2.1,5.7,6.7,7.7,13,7.1c6.2,0.6,11.1-2.9,15.4-8.3c6.6-1.2,14-0.2,21.7,1.4
			C142.5,65.9,136.1,69.1,130.2,73.3z"/>
		<path class="st17" d="M122.8,167.8c2.9,8,4.2,17.4,3.3,27.9c-1.4,2.9-2.7,5.7-3.9,8.4c-0.9,2-1.8,3.9-2.6,5.8c-0.1,0-0.1,0-0.2,0
			c2-5.9,3.5-11.5,2.6-14.7c-2.7-16.3-10.1-26.9-19.7-33.2c-1.4-3.8,11.5-3.4,16.2-0.9h0c0.5,0.4,1,0.9,1.5,1.3
			c0.3,0.3,0.7,0.6,1,0.9h0C121.6,164.7,122.3,166.2,122.8,167.8z"/>
		<path class="st18" d="M113,188.1c-20-35.8-85.2-28.8-95.2,13.4c-0.4,1.8-0.7,3.6-1,5.6v0c-0.3,2.7-0.4,5.6-0.2,8.5h0
			c-2.5,1.3-3.4,0-2.5-4l-0.9-0.1c0.1-0.2,0.2-0.3,0.3-0.5c-1.6-6.8-1-14.3,2.6-22.7c7.6-10.6,15.1-20.1,21.7-23
			c16-11.2,44.8-16.4,64.5-3.5c9.6,6.3,17,16.9,19.7,33.2c0.9,3.2-0.6,8.7-2.6,14.7c-0.2-0.1-0.4-0.1-0.6-0.2
			c-0.1-1.5-0.2-3-0.4-4.4C117.6,198.6,115.7,193,113,188.1z M107.9,171.1c0.7-1.1-0.9-3.4-3.7-5.2c-2.7-1.8-5.5-2.4-6.3-1.3
			c-0.7,1.1,0.9,3.4,3.7,5.2C104.4,171.6,107.2,172.1,107.9,171.1z"/>
		<path class="st19" d="M120.9,163.3L120.9,163.3c-0.4-0.3-0.7-0.6-1-0.9c-0.2-0.5-0.8-0.9-1.5-1.3h0c-25.6-22.3-52.9-22.6-82-1.1
			c10-14.7,23.4-22.3,36.9-23.9c7.1-0.8,14.2,0.1,20.8,2.5c4.9,1.8,9.5,4.4,13.7,7.8c2.5,2,4.7,4.3,6.8,6.9c1.5,1.8,2.8,3.8,4.1,5.9
			C119.5,160.4,120.3,161.8,120.9,163.3z"/>
		<path class="st20" d="M119.6,209.8c36.3,10.3-9.7,42.2-40.9,41.4c10.6-1.9,20-7.3,27.8-16.9c1.8-2.7,3.5-5.5,5-8.3
			c2.5-4.6,4.8-9.3,7.2-14.4C119,210.9,119.3,210.3,119.6,209.8z"/>
		<path class="st17" d="M119.6,209.8c-0.3,0.6-0.5,1.1-0.8,1.7c0.2-0.6,0.4-1.2,0.6-1.7C119.4,209.7,119.5,209.8,119.6,209.8z"/>
		<path class="st18" d="M118.7,209.5c0.2,0.1,0.4,0.1,0.6,0.2c-0.2,0.6-0.4,1.1-0.6,1.7C118.8,210.8,118.8,210.2,118.7,209.5z"/>
		<path class="st21" d="M111.4,224.1c-0.2-1.5-0.7-2.9-1.5-4.1c4-3.2,6.7-8.1,8.4-14.9c0.2,1.4,0.3,2.9,0.4,4.4c0,0.6,0,1.3,0.1,1.9
			c-2.4,5.1-4.7,9.9-7.2,14.4C111.6,225.3,111.5,224.7,111.4,224.1z"/>
		<path class="st22" d="M118.3,205.1c-1.6,6.8-4.4,11.7-8.4,14.9c-1.5-2.3-4.1-3.9-8.2-4.8c5.2-11.2-0.1-17.9-13-21.3
			c-4.3-8.8-9.1-8.6-14.2-2.4c-10.4,4.3-22.2,19.4-19,30.8c-2.5-4-7.1-5-13.9,1.7c-0.8-7.1-2.2-13.9-6.3-19.5
			c-0.7-1.9-0.2-3.2,1-4.1c0.4-0.3,0.8-0.5,1.3-0.7c-0.1-0.2-0.2-0.5-0.3-0.7c11.5-15.2,25-25.6,42.6-26.6l0.1-0.7
			c12,2.7,22.5,9.1,32.8,16.2C115.7,193,117.6,198.6,118.3,205.1z M88.7,183.2c0-2-0.8-3.6-1.8-3.6s-1.8,1.6-1.8,3.6
			s0.8,3.6,1.8,3.6S88.7,185.2,88.7,183.2z"/>
		<path class="st23" d="M114.8,119.2c3.1,2,6.1,3.7,8.3,3.9c-8.9,3.7-12.3,13.3-15.3,23.3c-4.1-3.4-8.8-6-13.7-7.8
			c6.9-7.4,13.8-17.4,20.4-36.1C113.8,107.9,113.9,113.5,114.8,119.2z"/>
		<path class="st24" d="M114.8,101.4c-0.1,0.3-0.1,0.7-0.2,1c0,0,0,0,0,0c-6.6,18.6-13.5,28.7-20.4,36.1
			c2.2-19.4,2.9-42.4,10.2-48.9c1.8,2.2,3.7,4.4,5.7,6.6C111.6,97.9,113.2,99.7,114.8,101.4z"/>
		<path class="st25" d="M111.4,224.1c0.1,0.6,0.1,1.2,0.1,1.8c-1.6,2.8-3.2,5.6-5,8.3c-7.9,9.7-17.2,15-27.8,16.9c0,0,0,0,0,0
			c-6.4,1.2-13.2,1.1-20.4,0c-1.4-0.2-2.9-0.5-4.4-0.8c0,0-0.1,0-0.1,0c-6-1.6-11.1-3.5-14.4-6.6C65.8,249.4,91.5,251.2,111.4,224.1
			z"/>
		<path class="st26" d="M110,220c0.8,1.2,1.3,2.6,1.5,4.1c-19.9,27.1-45.6,25.3-72.1,19.6c-3-2.8-4.5-6.5-4-11.8
			c0.3-0.5,0.7-1,1-1.5c1.9-2.6,3.6-4.7,5.3-6.3v0c6.7-6.7,11.4-5.7,13.9-1.7c-3.2-11.4,8.6-26.6,19-30.8c5.1-6.2,9.9-6.4,14.2,2.4
			c13,3.4,18.2,10.2,13,21.3C105.9,216.1,108.5,217.7,110,220z M87.5,198.6c0-1.3-1.3-2.4-3-2.4s-3,1.1-3,2.4s1.3,2.4,3,2.4
			S87.5,199.9,87.5,198.6z M50.3,239.9c0.9-0.3,1.1-2.1,0.4-3.9c-0.7-1.9-2-3.1-2.9-2.7c-0.9,0.3-1.1,2.1-0.4,3.9
			C48,239,49.3,240.3,50.3,239.9z"/>
		<path class="st27" d="M118.4,161c-4.7-2.5-17.6-2.9-16.2,0.9c-19.7-12.9-48.5-7.6-64.5,3.5c-6.6,2.9-14.1,12.4-21.7,23
			c3.4-7.8,9.4-16.4,18.7-26c0.5-0.9,1.1-1.7,1.6-2.5c0,0,0,0,0,0C65.5,138.4,92.8,138.7,118.4,161z"/>
		<path class="st28" d="M104.3,165.8c2.7,1.8,4.4,4.1,3.7,5.2c-0.7,1.1-3.5,0.5-6.3-1.3c-2.7-1.8-4.4-4.1-3.7-5.2
			C98.7,163.4,101.5,164,104.3,165.8z"/>
		<path class="st29" d="M91.1,64.6c1.1,8.2,6.4,16.6,13.3,25c-7.4,6.5-8.1,29.5-10.2,48.9c-6.6-2.4-13.7-3.3-20.8-2.5l0-0.3
			c-3.8-24.4-7.4-48.7,9.5-73.5l1.5-0.5l2-0.7l2.4-1.2l1,0.4l4.9,2l4.7,1.2C97.6,66.4,94.8,66.9,91.1,64.6z"/>
		<polygon class="st30" points="92.3,57.5 94.7,62.2 89.7,60.3 		"/>
		<polygon class="st30" points="89.7,60.3 88.7,59.9 86.4,61.1 84.3,61.7 86.4,57.5 		"/>
		<ellipse class="st31" cx="87" cy="183.2" rx="1.8" ry="3.6"/>
		<ellipse class="st32" cx="84.6" cy="198.6" rx="3" ry="2.4"/>
		<path class="st33" d="M113,188.1c-10.3-7.1-20.8-13.6-32.8-16.2C71.9,170,63,170,53,172.7c-4.2,0.6-7.5,1.9-9.3,4.6
			c-0.2,0.4-0.5,0.7-0.6,1.1c-9.4,1.7-16.9,11.7-25.3,23.2C27.7,159.3,92.9,152.3,113,188.1z"/>
		<path class="st34" d="M80.2,171.9l-0.1,0.7c-17.6,1-31.1,11.3-42.6,26.6c-2.2-5-5.3-6.6-9.2-5.2c-2.1,2.5-2.3,5.9,0,10.7
			c-0.8,7.4,0.7,13.3,4.7,17.8c-10.6,2.7-14.3-6.8-15.2-20.8c8.3-11.5,15.9-21.5,25.3-23.2c-1.2,2.5-0.4,4.9,0.6,7.2
			c0.8-7,5.1-10.7,10.7-13c-0.5,0-0.9,0.1-1.4,0.2C63,170,71.9,170,80.2,171.9z"/>
		<path class="st35" d="M53,172.7c0.5-0.1,0.9-0.1,1.4-0.2c-5.6,2.4-9.8,6-10.7,13c-1-2.3-1.8-4.7-0.6-7.2c0.2-0.4,0.4-0.7,0.6-1.1
			C45.4,174.6,48.8,173.3,53,172.7z"/>
		<path class="st32" d="M50.7,236c0.7,1.8,0.5,3.6-0.4,3.9c-0.9,0.3-2.2-0.9-2.9-2.7c-0.7-1.8-0.5-3.6,0.4-3.9
			C48.7,232.9,50,234.1,50.7,236z"/>
		<path class="st36" d="M53.8,250.3c-3.7-0.8-7.4-1.8-11.3-3c-7.8-2.1-14.9-6.7-21.4-12.9v0l-2.3-4.8c-1.3-4.9-2-9.5-2.2-13.8
			c-0.2-3-0.1-5.8,0.2-8.5c0.3,13.6,6.8,21.4,19.6,23.3c-0.3,0.5-0.7,0.9-1,1.5c-0.5,5.3,1,9.1,4,11.8
			C42.6,246.8,47.7,248.7,53.8,250.3z"/>
		<path class="st37" d="M41.7,224.1L41.7,224.1c-1.6,1.6-3.4,3.7-5.3,6.3c-12.8-1.9-19.3-9.7-19.6-23.3v0c0.2-1.9,0.5-3.8,1-5.6
			c1,14,4.6,23.5,15.2,20.8c-4-4.5-5.5-10.4-4.7-17.8c-2.3-4.8-2.1-8.2,0-10.7c3.9-1.3,7,0.2,9.2,5.2c-0.3,0.5-0.7,0.9-1,1.4
			c-1.3,0.9-1.8,2.2-1,4.1C39.4,210.2,40.9,217,41.7,224.1z"/>
		<path class="st38" d="M18.8,229.5l2.3,4.8c-1.8-1.7-3.5-3.5-5.2-5.4c-6.3-5.7-6.2-11.5-2.7-17.3l0.9,0.1c-0.8,4,0,5.3,2.5,4h0
			C16.8,220,17.5,224.6,18.8,229.5z"/>
	</g>
	<g>
	</g>
</g>
</svg>
