<?xml version="1.0" encoding="utf-8"?>
<!-- Generator: Adobe Illustrator 22.1.0, SVG Export Plug-In . SVG Version: 6.00 Build 0)  -->
<svg version="1.1" id="Layer_2" xmlns="http://www.w3.org/2000/svg" xmlns:xlink="http://www.w3.org/1999/xlink" x="0px" y="0px"
	 viewBox="0 0 300 300" style="enable-background:new 0 0 300 300;" xml:space="preserve">
<style type="text/css">
	.st0{fill:url(#SVGID_1_);}
	.st1{fill:url(#SVGID_2_);}
	.st2{fill:url(#SVGID_3_);}
	.st3{fill:url(#SVGID_4_);}
	.st4{fill:url(#SVGID_5_);}
	.st5{fill:url(#SVGID_6_);}
	.st6{fill:url(#SVGID_7_);}
	.st7{fill:url(#SVGID_8_);}
	.st8{fill:url(#SVGID_9_);}
	.st9{fill:url(#SVGID_10_);}
	.st10{fill:url(#SVGID_11_);}
	.st11{fill:url(#SVGID_12_);}
	.st12{fill:url(#SVGID_13_);}
	.st13{fill:url(#SVGID_14_);}
	.st14{fill:url(#SVGID_15_);}
	.st15{fill:url(#SVGID_16_);}
	.st16{fill:url(#SVGID_17_);}
	.st17{fill:url(#SVGID_18_);}
	.st18{fill:url(#SVGID_19_);}
	.st19{fill:url(#SVGID_20_);}
	.st20{fill:url(#SVGID_21_);}
</style>
<g>
	<g>
		<g id="XMLID_4_">
			<g>
				<linearGradient id="SVGID_1_" gradientUnits="userSpaceOnUse" x1="254.9511" y1="89.2828" x2="282.7899" y2="99.5282">
					<stop  offset="3.846154e-02" style="stop-color:#ED9B65"/>
					<stop  offset="0.9615" style="stop-color:#E3A26C"/>
				</linearGradient>
				<path class="st0" d="M276.5,89.2c3,1.1,5.9,2.2,8.8,3.4c-9.5,3.9-18.5,6.4-26.1,6.3c-2.6-2-3.4-5.1-4.2-8.3c0-0.4,0-0.9-0.1-1.3
					l0,0C262.2,89.3,269.3,89.3,276.5,89.2L276.5,89.2z"/>
				<linearGradient id="SVGID_2_" gradientUnits="userSpaceOnUse" x1="219.8327" y1="64.858" x2="286.5175" y2="89.3996">
					<stop  offset="3.333334e-02" style="stop-color:#980012"/>
					<stop  offset="1" style="stop-color:#E4001B"/>
				</linearGradient>
				<path class="st1" d="M282.1,81.1c2.2,2.7,3.2,6.6,3.3,11.5c-2.9-1.2-5.8-2.3-8.8-3.4l0,0c-9.4-3.5-19-6.6-29-9.5
					c-8.1-2.3-16.3-4.5-24.8-6.4c-1.4-4.2-1.4-8.4-1.3-12.9c0,0,0,0,0,0C243.5,66.1,263.6,73,282.1,81.1z"/>
				<linearGradient id="SVGID_3_" gradientUnits="userSpaceOnUse" x1="246.666" y1="82.179" x2="275.2499" y2="92.6985">
					<stop  offset="3.846154e-02" style="stop-color:#E9764A"/>
					<stop  offset="0.9615" style="stop-color:#E3A26C"/>
				</linearGradient>
				<path class="st2" d="M247.6,79.7c9.9,2.9,19.6,6,29,9.5c-7.2,0.1-14.4,0.1-21.6,0L247.6,79.7z"/>
				<linearGradient id="SVGID_4_" gradientUnits="userSpaceOnUse" x1="178.4708" y1="31.7442" x2="285.7304" y2="71.2183">
					<stop  offset="0" style="stop-color:#DD0021"/>
					<stop  offset="1" style="stop-color:#FF7E6D"/>
				</linearGradient>
				<path class="st3" d="M282.1,81.1c-18.5-8.1-38.6-15.1-60.6-20.7l0-0.2c-4.2-11.6-15.9-24.1-39.5-38
					C229.1,33.2,268.3,56.9,282.1,81.1z"/>
				<linearGradient id="SVGID_5_" gradientUnits="userSpaceOnUse" x1="207.6693" y1="84.2561" x2="253.4666" y2="101.1106">
					<stop  offset="0" style="stop-color:#DC001E"/>
					<stop  offset="0.9667" style="stop-color:#D2001D"/>
					<stop  offset="1" style="stop-color:#E4001B"/>
				</linearGradient>
				<path class="st4" d="M206.6,87c16.1,1.2,32.2,1.9,48.3,2.2l0,0c0,0.4,0,0.9,0.1,1.3c0.2,4.3,0,7.7-1.1,8.7
					c-14.6,1.6-29.6,0.9-45-2.1c-1.3-1.8-1.9-5.4-2.3-9.8C206.6,87.3,206.6,87.2,206.6,87z"/>
				<linearGradient id="SVGID_6_" gradientUnits="userSpaceOnUse" x1="202.4992" y1="69.4628" x2="255.1185" y2="88.828">
					<stop  offset="3.333334e-02" style="stop-color:#980012"/>
					<stop  offset="1" style="stop-color:#E4001B"/>
				</linearGradient>
				<path class="st5" d="M255,89.2c-16.1-0.2-32.3-0.9-48.3-2.2l-4.7-16c5.1,0.5,10.2,1,15.1,1.5c2.4-3.3,4-7.3,4.5-12.2
					c-0.1,4.5-0.1,8.7,1.3,12.9c8.4,2,16.7,4.1,24.8,6.4L255,89.2z"/>
				<linearGradient id="SVGID_7_" gradientUnits="userSpaceOnUse" x1="103.4492" y1="20.0728" x2="220.4823" y2="63.1437">
					<stop  offset="0" style="stop-color:#FFF3E4"/>
					<stop  offset="0.9615" style="stop-color:#FFDABF"/>
				</linearGradient>
				<path class="st6" d="M221.5,60.2l0,0.2c0,0,0,0,0,0C184.9,51,143.2,45.1,94.9,43.7l0-0.2c3.9-14.8,19.1-23.4,41.8-27.6
					c15.5,0.7,30.8,2.9,45.3,6.3C205.6,36.1,217.3,48.6,221.5,60.2z"/>
				<linearGradient id="SVGID_8_" gradientUnits="userSpaceOnUse" x1="157.0692" y1="80.4736" x2="204.0876" y2="97.7775">
					<stop  offset="3.846154e-02" style="stop-color:#ED9B65"/>
					<stop  offset="0.9615" style="stop-color:#E3A26C"/>
				</linearGradient>
				<path class="st7" d="M206.6,87.4c-0.7,4.4-1.5,8.4-2.6,10.3c-14.5-0.4-29.9-2.2-46.2-5.3c-1.8-1.8-1.7-6.1-1.2-10.7
					c16.6,2.3,33.3,4.1,49.9,5.3C206.6,87.2,206.6,87.3,206.6,87.4z"/>
				<linearGradient id="SVGID_9_" gradientUnits="userSpaceOnUse" x1="97.8732" y1="35.6085" x2="215.5888" y2="78.9306">
					<stop  offset="3.846154e-02" style="stop-color:#FFC395"/>
					<stop  offset="0.9615" style="stop-color:#FFA769"/>
				</linearGradient>
				<path class="st8" d="M201.9,71.1c-14.4-1.5-29.7-3.4-45.5-5.6c-13.8-1.9-28.1-4-42.8-6.2c-4.4-0.7-8.9-1.4-13.4-2.1
					c-3.1-2.8-4.6-7.6-5.3-13.4c0,0,0,0,0,0c48.2,1.4,90,7.2,126.5,16.7c-0.5,4.9-2.1,8.9-4.5,12.2C212.1,72.1,207,71.6,201.9,71.1z
					"/>
				<linearGradient id="SVGID_10_" gradientUnits="userSpaceOnUse" x1="108.1211" y1="74.1325" x2="154.0375" y2="91.0309">
					<stop  offset="0" style="stop-color:#DC001E"/>
					<stop  offset="0.9667" style="stop-color:#D2001D"/>
					<stop  offset="1" style="stop-color:#E4001B"/>
				</linearGradient>
				<path class="st9" d="M156.5,81.7c-0.5,4.5-1.5,8.1-3.5,9.9c-16.1-0.8-31.3-2.6-44.2-6.9c-1.5-2.2-1.1-5.8-0.9-9.4
					c0.1-0.6,0.3-1.1,0.4-1.7C124.4,76.7,140.4,79.5,156.5,81.7z"/>
				<linearGradient id="SVGID_11_" gradientUnits="userSpaceOnUse" x1="155.5587" y1="67.6745" x2="206.8278" y2="86.5427">
					<stop  offset="3.846154e-02" style="stop-color:#E9764A"/>
					<stop  offset="0.9615" style="stop-color:#E3A26C"/>
				</linearGradient>
				<path class="st10" d="M156.5,81.7l-0.1-16.2c15.9,2.2,31.1,4,45.5,5.6l4.7,16c0,0-0.1,0-0.1,0c-16.7-1.3-33.3-3-49.9-5.3
					C156.6,81.7,156.5,81.7,156.5,81.7z"/>
				<linearGradient id="SVGID_12_" gradientUnits="userSpaceOnUse" x1="112.5083" y1="62.2116" x2="157.5618" y2="78.7923">
					<stop  offset="3.333334e-02" style="stop-color:#980012"/>
					<stop  offset="1" style="stop-color:#E4001B"/>
				</linearGradient>
				<path class="st11" d="M156.4,65.5l0.1,16.2c-16.1-2.2-32.1-4.9-48.2-8.2l5.2-14.3C128.3,61.5,142.6,63.6,156.4,65.5z"/>
				<linearGradient id="SVGID_13_" gradientUnits="userSpaceOnUse" x1="59.8187" y1="64.6475" x2="106.1021" y2="81.6809">
					<stop  offset="3.846154e-02" style="stop-color:#ED9B65"/>
					<stop  offset="0.9615" style="stop-color:#E3A26C"/>
				</linearGradient>
				<path class="st12" d="M107.9,75.2c-1.3,5.2-2.6,9.6-3.7,9.1C90.3,82,74.5,78,57.5,72.8c-0.2-2.5,1.5-6.1,3.6-9.9l0,0
					c0-0.1,0.1-0.1,0.1-0.2c15.7,4.1,31.4,7.7,47.1,10.8C108.2,74.1,108.1,74.7,107.9,75.2z"/>
				<linearGradient id="SVGID_14_" gradientUnits="userSpaceOnUse" x1="66.327" y1="48.8988" x2="111.3146" y2="65.4553">
					<stop  offset="3.846154e-02" style="stop-color:#E9764A"/>
					<stop  offset="0.9615" style="stop-color:#E3A26C"/>
				</linearGradient>
				<path class="st13" d="M95.2,58.1c1.2-4,0.2-9.2-0.3-14.4c0.7,5.9,2.2,10.6,5.3,13.4c4.5,0.7,9,1.4,13.4,2.1l-5.2,14.3
					c-15.7-3.1-31.4-6.7-47.1-10.8l3-3.8C77,59.1,87.9,58.9,95.2,58.1z"/>
				<linearGradient id="SVGID_15_" gradientUnits="userSpaceOnUse" x1="27.1458" y1="39.0315" x2="93.2543" y2="63.361">
					<stop  offset="3.333334e-02" style="stop-color:#980012"/>
					<stop  offset="1" style="stop-color:#E4001B"/>
				</linearGradient>
				<path class="st14" d="M94.9,43.7c0.5,5.2,1.4,10.4,0.3,14.4c-7.3,0.7-18.1,0.9-30.9,0.8c-5.8-0.1-12-0.2-18.5-0.4
					c-7.2-0.2-14.8-0.4-22.5-0.7c-0.2-5.8,0.2-10.7,2.1-13.3C49.9,43.3,73.1,43.1,94.9,43.7z"/>
				<linearGradient id="SVGID_16_" gradientUnits="userSpaceOnUse" x1="36.6701" y1="13.9139" x2="125.435" y2="46.5815">
					<stop  offset="0" style="stop-color:#DD0021"/>
					<stop  offset="1" style="stop-color:#FF7E6D"/>
				</linearGradient>
				<path class="st15" d="M94.9,43.6l0,0.2c0,0,0,0,0,0c-21.8-0.6-44.9-0.4-69.5,0.9c33.3-22.5,73-30.3,111.3-28.7
					C114,20.2,98.9,28.7,94.9,43.6z"/>
				<linearGradient id="SVGID_17_" gradientUnits="userSpaceOnUse" x1="46.8053" y1="55.7032" x2="63.2336" y2="61.7492">
					<stop  offset="0.7974" style="stop-color:#980012"/>
					<stop  offset="1" style="stop-color:#E4001B"/>
				</linearGradient>
				<path class="st16" d="M64.3,58.9l-3,3.8c-5.2-1.3-10.3-2.7-15.5-4.2C52.2,58.7,58.5,58.8,64.3,58.9z"/>
				<linearGradient id="SVGID_18_" gradientUnits="userSpaceOnUse" x1="24.1917" y1="55.4402" x2="59.1806" y2="68.317">
					<stop  offset="0" style="stop-color:#DC001E"/>
					<stop  offset="0.9667" style="stop-color:#D2001D"/>
					<stop  offset="1" style="stop-color:#E4001B"/>
				</linearGradient>
				<path class="st17" d="M61.2,62.7c0,0.1-0.1,0.1-0.1,0.2c-2.7,4.2-5.3,7.6-7.7,8.4C38.2,68,28.5,63.5,23.3,57.9
					c7.7,0.3,15.2,0.5,22.5,0.7C50.9,60,56.1,61.4,61.2,62.7z"/>
			</g>
			<g>
			</g>
		</g>
	</g>
	<g>
		<g id="XMLID_3_">
			<g>
				<linearGradient id="SVGID_19_" gradientUnits="userSpaceOnUse" x1="92.2825" y1="186.5782" x2="174.4271" y2="216.8094">
					<stop  offset="0.4359" style="stop-color:#EFE6E6"/>
					<stop  offset="1" style="stop-color:#7F797B"/>
				</linearGradient>
				<path class="st18" d="M157,121.9l-11.3,172.9l-6.2-2.3l10.7-168.6C152.9,122.1,155.2,121.4,157,121.9z"/>
				<linearGradient id="SVGID_20_" gradientUnits="userSpaceOnUse" x1="129.51" y1="85.4231" x2="165.5227" y2="98.6766">
					<stop  offset="0.5282" style="stop-color:#7F797B"/>
					<stop  offset="1" style="stop-color:#EFE6E6"/>
				</linearGradient>
				<path class="st19" d="M160.6,66.1l-3.6,55.8c-1.8-0.4-4.1,0.2-6.7,2l3.7-58.6C155.4,65.5,157.8,65.7,160.6,66.1z"/>
				<linearGradient id="SVGID_21_" gradientUnits="userSpaceOnUse" x1="157.037" y1="10.6264" x2="193.0497" y2="23.88">
					<stop  offset="5.641026e-02" style="stop-color:#EFE6E6"/>
					<stop  offset="0.6769" style="stop-color:#7F797B"/>
				</linearGradient>
				<path class="st20" d="M163.7,18.6l0,0.2c-1.6-0.5-4-0.8-6.5-1l-0.1,0l0-0.3l0.7-8.2c1.1-7.3,6.5-4.4,6.5,0.1L163.7,18.6z"/>
			</g>
			<g>
			</g>
		</g>
	</g>
</g>
</svg>
