<?xml version="1.0" encoding="utf-8"?>
<!-- Generator: Adobe Illustrator 22.1.0, SVG Export Plug-In . SVG Version: 6.00 Build 0)  -->
<svg version="1.1" id="Layer_2" xmlns="http://www.w3.org/2000/svg" xmlns:xlink="http://www.w3.org/1999/xlink" x="0px" y="0px"
	 viewBox="0 0 300 300" style="enable-background:new 0 0 300 300;" xml:space="preserve">
<style type="text/css">
	.st0{fill:url(#SVGID_1_);}
	.st1{fill:url(#SVGID_2_);}
	.st2{fill:url(#SVGID_3_);}
	.st3{fill:url(#SVGID_4_);}
	.st4{fill:url(#SVGID_5_);}
	.st5{fill:url(#SVGID_6_);}
	.st6{fill:url(#SVGID_7_);}
	.st7{fill:url(#SVGID_8_);}
	.st8{fill:url(#SVGID_9_);}
	.st9{fill:url(#SVGID_10_);}
	.st10{fill:url(#SVGID_11_);}
	.st11{fill:url(#SVGID_12_);}
	.st12{fill:url(#SVGID_13_);}
	.st13{fill:url(#SVGID_14_);}
	.st14{fill:url(#SVGID_15_);}
	.st15{fill:url(#SVGID_16_);}
	.st16{fill:url(#SVGID_17_);}
	.st17{fill:url(#SVGID_18_);}
	.st18{fill:url(#SVGID_19_);}
	.st19{fill:url(#SVGID_20_);}
	.st20{fill:url(#SVGID_21_);}
</style>
<g>
	<g>
		<g id="XMLID_1_">
			<g>
				<linearGradient id="SVGID_1_" gradientUnits="userSpaceOnUse" x1="252.5939" y1="67.923" x2="282.3311" y2="70.2802">
					<stop  offset="3.846154e-02" style="stop-color:#ED9B65"/>
					<stop  offset="0.9615" style="stop-color:#E3A26C"/>
				</linearGradient>
				<path class="st0" d="M273.5,62c3.2,0.3,6.3,0.5,9.4,0.9c-8.2,6.3-16.1,11.2-23.6,13.2c-3-1.2-4.7-4-6.3-7
					c-0.1-0.4-0.3-0.8-0.4-1.3C259.6,66,266.5,64,273.5,62L273.5,62z"/>
				<linearGradient id="SVGID_2_" gradientUnits="userSpaceOnUse" x1="211.9461" y1="53.8137" x2="283.1887" y2="59.4609">
					<stop  offset="3.333334e-02" style="stop-color:#980012"/>
					<stop  offset="1" style="stop-color:#E4001B"/>
				</linearGradient>
				<path class="st1" d="M276.6,52.6c2.8,2.1,4.9,5.5,6.3,10.2c-3.1-0.3-6.3-0.6-9.4-0.9c-10-0.8-20.2-1.2-30.6-1.3l0,0
					c-8.5-0.1-17,0.1-25.7,0.5c-2.5-3.7-3.7-7.8-4.8-12.2C235.2,48.5,256.6,49.8,276.6,52.6z"/>
				<linearGradient id="SVGID_3_" gradientUnits="userSpaceOnUse" x1="242.6451" y1="63.2976" x2="273.1783" y2="65.7178">
					<stop  offset="3.846154e-02" style="stop-color:#E9764A"/>
					<stop  offset="0.9615" style="stop-color:#E3A26C"/>
				</linearGradient>
				<path class="st2" d="M273.5,62c-6.9,2-13.9,4-20.9,5.8l-9.7-7.1C253.2,60.8,263.4,61.2,273.5,62L273.5,62z"/>
				<linearGradient id="SVGID_4_" gradientUnits="userSpaceOnUse" x1="205.4335" y1="75.903" x2="254.3653" y2="79.7817">
					<stop  offset="0" style="stop-color:#DC001E"/>
					<stop  offset="0.9667" style="stop-color:#D2001D"/>
					<stop  offset="1" style="stop-color:#E4001B"/>
				</linearGradient>
				<path class="st3" d="M253,69.1c1.3,4.1,2.1,7.5,1.3,8.8c-13.7,5.5-28.5,8.9-44.2,10.2c-1.7-1.4-3.3-4.7-4.9-8.9
					c0-0.1,0-0.2,0-0.3l0,0c15.9-3.2,31.7-6.9,47.4-11C252.7,68.3,252.9,68.7,253,69.1z"/>
				<linearGradient id="SVGID_5_" gradientUnits="userSpaceOnUse" x1="196.4123" y1="62.9807" x2="252.6324" y2="67.4371">
					<stop  offset="3.333334e-02" style="stop-color:#980012"/>
					<stop  offset="1" style="stop-color:#E4001B"/>
				</linearGradient>
				<path class="st4" d="M252.6,67.8c-15.7,4.2-31.5,7.8-47.4,11l-8.9-14.2c5.1-0.9,10.1-1.7,15-2.6c1.4-3.8,1.9-8.1,1-13
					c1.1,4.4,2.3,8.5,4.8,12.2c8.7-0.4,17.3-0.6,25.7-0.5l0,0L252.6,67.8z"/>
				<linearGradient id="SVGID_6_" gradientUnits="userSpaceOnUse" x1="162.8873" y1="32.9865" x2="277.4867" y2="42.0705">
					<stop  offset="0" style="stop-color:#DD0021"/>
					<stop  offset="1" style="stop-color:#FF7E6D"/>
				</linearGradient>
				<path class="st5" d="M276.6,52.6c-20.1-2.8-41.5-4.1-64.3-3.6l0-0.2c-7.3-10.1-21.9-19.1-48.6-26.1
					C212.3,20.7,256.7,32.9,276.6,52.6z"/>
				<linearGradient id="SVGID_7_" gradientUnits="userSpaceOnUse" x1="87.0775" y1="42.0647" x2="212.0919" y2="51.9742">
					<stop  offset="0" style="stop-color:#FFF3E4"/>
					<stop  offset="0.9615" style="stop-color:#FFDABF"/>
				</linearGradient>
				<path class="st6" d="M212.3,48.9l0,0.2c-37.9,0.8-80,6.5-127.1,18.2l0-0.2C85,51.7,97.3,39.3,118.2,29c0,0,0,0,0,0
					c15.2-3.6,30.6-5.6,45.5-6.2C190.4,29.8,205.1,38.8,212.3,48.9z"/>
				<linearGradient id="SVGID_8_" gradientUnits="userSpaceOnUse" x1="155.4114" y1="85.9861" x2="205.6434" y2="89.9678">
					<stop  offset="3.846154e-02" style="stop-color:#ED9B65"/>
					<stop  offset="0.9615" style="stop-color:#E3A26C"/>
				</linearGradient>
				<path class="st7" d="M205.2,79.2c0.5,4.5,0.8,8.5,0.3,10.7c-14.1,3.6-29.6,6-46.2,7.4c-2.2-1.3-3.2-5.4-4.1-10
					c16.7-2.3,33.3-5.1,49.8-8.4C205.2,79,205.2,79.1,205.2,79.2z"/>
				<linearGradient id="SVGID_9_" gradientUnits="userSpaceOnUse" x1="85.8989" y1="58.6238" x2="211.6617" y2="68.5926">
					<stop  offset="3.846154e-02" style="stop-color:#FFC395"/>
					<stop  offset="0.9615" style="stop-color:#FFA769"/>
				</linearGradient>
				<path class="st8" d="M196.3,64.7c-14.4,2.4-29.7,4.8-45.6,7c-13.9,1.9-28.3,3.8-43.1,5.6c-4.5,0.5-9,1.1-13.5,1.6
					c-3.8-1.9-6.6-6.1-8.8-11.6c0,0,0,0,0,0c47.1-11.7,89.1-17.4,127.1-18.2c0.9,4.9,0.4,9.2-1,13C206.4,63,201.4,63.8,196.3,64.7z"
					/>
				<linearGradient id="SVGID_10_" gradientUnits="userSpaceOnUse" x1="106.2891" y1="93.1468" x2="155.3438" y2="97.0352">
					<stop  offset="0" style="stop-color:#DC001E"/>
					<stop  offset="0.9667" style="stop-color:#D2001D"/>
					<stop  offset="1" style="stop-color:#E4001B"/>
				</linearGradient>
				<path class="st9" d="M155.2,87.3c0.7,4.5,0.7,8.2-0.7,10.5c-15.8,3.6-31,6-44.7,5.3c-2-1.7-2.7-5.3-3.4-8.9c0-0.6,0-1.2-0.1-1.8
					C122.7,91.2,139,89.5,155.2,87.3z"/>
				<linearGradient id="SVGID_11_" gradientUnits="userSpaceOnUse" x1="150.471" y1="74.0045" x2="205.2399" y2="78.3459">
					<stop  offset="3.846154e-02" style="stop-color:#E9764A"/>
					<stop  offset="0.9615" style="stop-color:#E3A26C"/>
				</linearGradient>
				<path class="st10" d="M155.2,87.3l-4.5-15.6c16-2.2,31.2-4.5,45.6-7l8.9,14.2c0,0,0,0-0.1,0c-16.5,3.3-33.1,6.1-49.8,8.4
					C155.3,87.3,155.2,87.3,155.2,87.3z"/>
				<linearGradient id="SVGID_12_" gradientUnits="userSpaceOnUse" x1="107.2988" y1="80.4088" x2="155.4316" y2="84.2242">
					<stop  offset="3.333334e-02" style="stop-color:#980012"/>
					<stop  offset="1" style="stop-color:#E4001B"/>
				</linearGradient>
				<path class="st11" d="M150.7,71.7l4.5,15.6c-16.2,2.2-32.5,3.9-48.8,5.2l1.2-15.2C122.4,75.5,136.8,73.6,150.7,71.7z"/>
				<linearGradient id="SVGID_13_" gradientUnits="userSpaceOnUse" x1="56.9382" y1="97.0832" x2="106.385" y2="101.0027">
					<stop  offset="3.846154e-02" style="stop-color:#ED9B65"/>
					<stop  offset="0.9615" style="stop-color:#E3A26C"/>
				</linearGradient>
				<path class="st12" d="M106.4,94.3c0.2,5.4,0.1,10-1.1,9.9c-14.1,1.5-30.5,1.9-48.4,1.5c-0.9-2.4-0.2-6.3,0.8-10.6l0,0
					c0-0.1,0-0.1,0.1-0.2l0,0c16.3-0.3,32.5-1.1,48.5-2.3C106.4,93.1,106.4,93.7,106.4,94.3z"/>
				<linearGradient id="SVGID_14_" gradientUnits="userSpaceOnUse" x1="58.9662" y1="80.0648" x2="107.0241" y2="83.8742">
					<stop  offset="3.846154e-02" style="stop-color:#E9764A"/>
					<stop  offset="0.9615" style="stop-color:#E3A26C"/>
				</linearGradient>
				<path class="st13" d="M85.2,67.3c2.3,5.5,5,9.7,8.8,11.6c4.5-0.5,9.1-1.1,13.5-1.6l-1.2,15.2c-16.1,1.2-32.3,2-48.5,2.3l1.9-4.5
					c12.4-3.3,22.8-6.4,29.7-9.2C89.4,77,87.1,72.1,85.2,67.3z"/>
				<linearGradient id="SVGID_15_" gradientUnits="userSpaceOnUse" x1="18.3399" y1="81.1547" x2="88.9663" y2="86.7531">
					<stop  offset="3.333334e-02" style="stop-color:#980012"/>
					<stop  offset="1" style="stop-color:#E4001B"/>
				</linearGradient>
				<path class="st14" d="M85.2,67.3c1.9,4.8,4.2,9.7,4.2,13.9c-6.9,2.7-17.3,5.8-29.7,9.2C54,91.8,48,93.4,41.7,95l0,0
					c-7.1,1.8-14.5,3.6-21.9,5.4C18,94.8,17,90,18.1,87C41.6,79.1,63.9,72.6,85.2,67.3z"/>
				<linearGradient id="SVGID_16_" gradientUnits="userSpaceOnUse" x1="20.7379" y1="54.2463" x2="115.5653" y2="61.763">
					<stop  offset="0" style="stop-color:#DD0021"/>
					<stop  offset="1" style="stop-color:#FF7E6D"/>
				</linearGradient>
				<path class="st15" d="M85.2,67.3C63.9,72.6,41.6,79.1,18.1,87c26.2-30.9,62.5-49.2,100-58C97.3,39.3,85,51.7,85.2,67.1
					L85.2,67.3C85.2,67.3,85.2,67.3,85.2,67.3z"/>
				<linearGradient id="SVGID_17_" gradientUnits="userSpaceOnUse" x1="41.9152" y1="91.9582" x2="59.4576" y2="93.3487">
					<stop  offset="0.7974" style="stop-color:#980012"/>
					<stop  offset="1" style="stop-color:#E4001B"/>
				</linearGradient>
				<path class="st16" d="M59.7,90.3l-1.9,4.5C52.4,94.9,47.1,95,41.7,95C48,93.4,54,91.8,59.7,90.3z"/>
				<linearGradient id="SVGID_18_" gradientUnits="userSpaceOnUse" x1="19.9368" y1="97.8484" x2="57.3216" y2="100.8117">
					<stop  offset="0" style="stop-color:#DC001E"/>
					<stop  offset="0.9667" style="stop-color:#D2001D"/>
					<stop  offset="1" style="stop-color:#E4001B"/>
				</linearGradient>
				<path class="st17" d="M41.7,95c5.4,0,10.8-0.1,16.1-0.2l0,0c0,0.1,0,0.1-0.1,0.2c-1.5,4.8-3.1,8.8-5.2,10.2
					c-15.6,1-26.2-0.8-32.8-4.8C27.2,98.6,34.6,96.8,41.7,95L41.7,95z"/>
			</g>
			<g>
			</g>
		</g>
	</g>
	<g>
		<g id="XMLID_2_">
			<g>
				<linearGradient id="SVGID_19_" gradientUnits="userSpaceOnUse" x1="121.5025" y1="206.3377" x2="209.2615" y2="213.2941">
					<stop  offset="0.4359" style="stop-color:#EFE6E6"/>
					<stop  offset="1" style="stop-color:#7F797B"/>
				</linearGradient>
				<path class="st18" d="M166.6,126.1l36.1,170.5l-6.6-0.5l-35.4-166.2C162.7,127.4,164.7,126.2,166.6,126.1z"/>
				<linearGradient id="SVGID_20_" gradientUnits="userSpaceOnUse" x1="130.0686" y1="98.271" x2="168.5427" y2="101.3208">
					<stop  offset="0.5282" style="stop-color:#7F797B"/>
					<stop  offset="1" style="stop-color:#EFE6E6"/>
				</linearGradient>
				<path class="st19" d="M154.9,71.1l11.6,55c-1.9,0.1-3.9,1.3-5.9,3.8l-12.3-57.7C149.7,71.9,152.1,71.5,154.9,71.1L154.9,71.1z"
					/>
				<linearGradient id="SVGID_21_" gradientUnits="userSpaceOnUse" x1="136.4032" y1="18.3578" x2="174.8772" y2="21.4075">
					<stop  offset="5.641026e-02" style="stop-color:#EFE6E6"/>
					<stop  offset="0.6769" style="stop-color:#7F797B"/>
				</linearGradient>
				<path class="st20" d="M138.3,25.1l-1.6-8.1c-1-7.4,5.1-6,6.3-1.7l1.9,9l0,0.2c-1.7-0.1-4,0.3-6.5,0.8l-0.1,0L138.3,25.1z"/>
			</g>
			<g>
			</g>
		</g>
	</g>
</g>
</svg>
