<?xml version="1.0" encoding="utf-8"?>
<!-- Generator: Adobe Illustrator 22.1.0, SVG Export Plug-In . SVG Version: 6.00 Build 0)  -->
<svg version="1.1" id="Layer_1" xmlns="http://www.w3.org/2000/svg" xmlns:xlink="http://www.w3.org/1999/xlink" x="0px" y="0px"
	 viewBox="0 0 300 300" style="enable-background:new 0 0 300 300;" xml:space="preserve">
<style type="text/css">
	.st0{fill:#EE8354;}
	.st1{fill:#E16531;}
	.st2{fill:#C63229;}
	.st3{fill:#F7A150;}
	.st4{fill:#DA3625;}
	.st5{fill:#D45E45;}
	.st6{fill:#F8A163;}
	.st7{fill:#FDFDF8;}
	.st8{fill:#DD9674;}
	.st9{fill:#FBCC7E;}
	.st10{fill:#000101;}
	.st11{fill:#C5614F;}
	.st12{fill:#E87830;}
	.st13{fill:#282831;}
	.st14{fill:#974732;}
	.st15{fill:#A60304;}
	.st16{fill:#F7D8CC;}
	.st17{fill:#E86E59;}
	.st18{fill:#EB6657;}
	.st19{fill:#C5210E;}
	.st20{fill:#BB2726;}
	.st21{fill:#E96032;}
	.st22{fill:#3D3F47;}
	.st23{fill:#CD2F0E;}
	.st24{fill:#A5230E;}
	.st25{fill:#E07451;}
	.st26{fill:#D3322F;}
	.st27{fill:#925B54;}
	.st28{fill:#FCD6C4;}
	.st29{fill:#A10F03;}
	.st30{fill:#870000;}
	.st31{fill:#A55435;}
	.st32{fill:#E5DAC2;}
	.st33{fill:#FCE5D9;}
	.st34{fill:#F7AE8E;}
	.st35{fill:#D85137;}
	.st36{fill:#E57154;}
	.st37{fill:#ECCEC3;}
	.st38{fill:#C16E69;}
	.st39{fill:#E47D49;}
	.st40{fill:#E3B177;}
	.st41{fill:#E3533B;}
	.st42{fill:#FBAC78;}
	.st43{fill:#F07F4F;}
	.st44{fill:#EC5D48;}
	.st45{fill:#F6866C;}
	.st46{fill:#B769A8;}
	.st47{fill:#C17CB7;}
	.st48{fill:#E8CDE4;}
</style>
<g>
	<g id="XMLID_1_">
		<g>
			<path class="st0" d="M292.9,129.8c2.3,3.9,3.3,10.9,3,19.2v0c-9.8,14-19.7,18.7-29.4,9.6c0.4-2.1,0.5-4.2,0.3-6.1
				c3.1-0.6,5.3-2.5,1.3-12.3c-1.3-4.8,0.2-7.3,6.2-6.2c7.3,1.6,10.7,0.5,9.6-3.9c4.9,6,7.3,3,7.3-9.2
				C291.8,123.7,292.4,126.7,292.9,129.8z"/>
			<path class="st1" d="M291.2,120.9c0.1,12.1-2.4,15.2-7.3,9.2c-0.4-1.7-1.6-3.8-3.4-6.5c-4.9-6.7-14.6-7.5-24.8-7.7
				c9.2-2.3,13.3-9.5,10.4-23.4c-5.7-8.6-15.4-10.8-27.2-11.2c0.2-0.7,0.3-1.5,0.2-2.2c5.4,3.3,17.6-5.2,35.2,3.4h0
				C281.8,91.6,287.5,104.2,291.2,120.9z"/>
			<path class="st2" d="M283.9,130.1c1.2,4.4-2.3,5.5-9.6,3.9c-6-1.1-7.5,1.4-6.2,6.2c4,9.8,1.8,11.7-1.3,12.3
				c-0.6-7.2-4.9-13.3-12.1-18.5c-22.7-5.8-42.2-12.9-54.8-22.7c-0.3-0.1-0.6-0.2-1-0.3c-1.4-1.4-2.1-2.9-2.1-4.8h0
				c8.2,4.3,14.6,2.9,19.2-4.2c11.2,5.9,23.7,10.7,37.6,14.5c0.7-0.1,1.4-0.3,2-0.4h0c10.2,0.2,19.9,1,24.8,7.7
				C282.4,126.3,283.5,128.4,283.9,130.1z"/>
			<path class="st3" d="M266.5,158.6c9.8,9.1,19.6,4.5,29.4-9.6c-3.6,44.1-54.6,67.7-93.2,86c5.1-7.4,2.3-12.6-8.2-15.6
				c24.3-12.8,46.1-24.9,55.9-33.9C260,175.3,265.1,166.4,266.5,158.6z"/>
			<path class="st4" d="M295.9,149c-0.7,19.5-8.7,46.5-24.7,59.3c-4.1,7.2-78.6,43.4-91.7,53.6c-2.9-3.3-5.8-6.7-8.8-10
				c7.9-5.4,19.3-10.9,32.1-17C241.3,216.8,292.3,193.1,295.9,149z"/>
			<path class="st5" d="M266.1,92.6c2.9,13.8-1.1,21-10.4,23.4h0c-0.7,0.2-1.3,0.3-2,0.4c-13.9-3.8-26.4-8.6-37.6-14.5
				c-2.8-1.5-5.6-3-8.2-4.7l0-0.1c4.6,0.5,9.6-3.2,14.8-10.8c9.6,3.9,15.1-0.2,16.2-5C250.6,81.7,260.3,84,266.1,92.6z"/>
			<path class="st6" d="M274.4,82.5c-17.6-8.5-29.8-0.1-35.2-3.4c-0.1-4.9-4.5-9.6-13.4-7.2c-0.9-1-2.7-1.3-5.2-1
				c1.1-2.3,1-4.1-0.5-5.3c7.5-2.7,16.6-2,26.4,0.2C257.4,67.8,266.8,73.3,274.4,82.5z"/>
			<path class="st7" d="M239.1,79.1c0,0.7-0.1,1.5-0.2,2.2c-1.2,4.9-6.7,8.9-16.2,5c-5.3,7.6-10.2,11.3-14.8,10.8
				c-1.3-0.2-2.6-0.6-3.8-1.5c-8.8-7.6-16.6-1.9-24.8,0c5.6-6.9,12-12.5,20.7-13.8c1,0.5,2,1,3.1,1.4c-18-10.5-35.4-16.8-50.7-9.3
				c2.2-3.6,3.5-6.6,2.7-8.5c-0.3-0.7-0.9-1.2-1.8-1.5c11.5-6.6,26.6-5,42.5-1.4c9.1-1.4,17.3-1,23.8,3.1c0.2-0.1,0.3-0.1,0.5-0.2
				c1.5,1.2,1.6,3,0.5,5.3c2.5-0.2,4.3,0,5.2,1C234.6,69.5,239,74.2,239.1,79.1z M230.4,86.4c3.7,0,6.7-2.8,6.7-6.2s-3-6.2-6.7-6.2
				s-6.7,2.8-6.7,6.2S226.7,86.4,230.4,86.4z M192.1,70.4c-9.5-3.5-17.9-4.9-23.8-2.1C176.3,68,184.2,68.6,192.1,70.4z"/>
			<path class="st8" d="M237.1,80.2c0,3.4-3,6.2-6.7,6.2s-6.7-2.8-6.7-6.2s3-6.2,6.7-6.2S237.1,76.8,237.1,80.2z M235,80.7
				c0-2.6-2.1-4.7-4.7-4.7c-2.6,0-4.7,2.1-4.7,4.7c0,2.6,2.1,4.7,4.7,4.7C233,85.3,235,83.3,235,80.7z"/>
			<path class="st9" d="M230.4,76c2.6,0,4.7,2.1,4.7,4.7c0,2.6-2.1,4.7-4.7,4.7c-2.6,0-4.7-2.1-4.7-4.7
				C225.7,78.1,227.8,76,230.4,76z M231.9,79.1c0-0.6-0.5-1-1-1c-0.6,0-1,0.5-1,1c0,0.6,0.5,1,1,1C231.5,80.2,231.9,79.7,231.9,79.1
				z"/>
			<circle class="st10" cx="230.9" cy="79.1" r="1"/>
			<path class="st11" d="M207.8,97.2c2.6,1.6,5.4,3.2,8.2,4.7c-4.5,7.1-10.9,8.5-19.2,4.2h0c0-2.1,1-4.5,3.1-7.3
				c-0.3-0.3-0.6-0.6-0.9-0.8c-5.5-4.8-12.6-2.5-19.5-1.6c-0.1-0.2-0.2-0.5-0.3-0.7c8.2-1.9,16-7.6,24.8,0
				C205.3,96.5,206.5,97,207.8,97.2L207.8,97.2z"/>
			<path class="st12" d="M194.6,219.5c10.5,3,13.3,8.2,8.2,15.6c-12.8,6.1-24.2,11.5-32.1,17c-4.2-4.6-8.7-9-13.6-13
				C169.4,232.5,182.3,225.9,194.6,219.5L194.6,219.5z"/>
			<path class="st13" d="M203,83.3c-1-0.5-2-1-3.1-1.4c-16.7-7.7-32.4-12.3-44.5-5.8c-6,7.6-7.4,13.8-4.1,18.6
				c0.1,0.1,0.3,0.1,0.4,0.2c3.6,1.7,4.8,4.9,3.9,9.4c-5.4,2.2-11.1,4.1-16.9,7.1c-0.9-7.3-3-14.1-6.3-20.6h0
				c7-12.2,14.5-21.2,22.7-25.2c0.8,1.8-0.5,4.9-2.7,8.5C167.6,66.5,185,72.8,203,83.3z"/>
			<path class="st14" d="M199,97.9c0.3,0.3,0.6,0.5,0.9,0.8c-2.1,2.8-3,5.2-3.1,7.3c0,1.8,0.7,3.4,2.1,4.8
				c-4.6-1.4-10.3-0.8-17.6-1.7c0-1.4,0-2.8-0.1-4.1C185.1,100.5,191,98.1,199,97.9z"/>
			<path class="st15" d="M190.9,274.9c0.2,0.2,0.5,0.5,0.7,0.7c0,1.7-10.9,3.1-24.3,3.1c-11.1,0-20.5-1-23.4-2.3
				c-0.6-0.3-0.9-0.5-0.9-0.8c0-0.1,0-0.1,0.1-0.2c0.3,0.1,0.6,0.1,1,0.2c-0.1-0.2-0.3-0.4-0.5-0.7c2.4-1.4,12.1-2.4,23.7-2.4
				C178.7,272.5,188.3,273.5,190.9,274.9z"/>
			<path class="st16" d="M179.5,96.4c6.9-1,14-3.2,19.5,1.6c-8,0.2-13.9,2.5-17.8,7.1C181.1,102,180.6,99.1,179.5,96.4z"/>
			<path class="st17" d="M199.9,81.8c-30-1.6-44.5,3.4-48.2,13c-0.1-0.1-0.3-0.1-0.4-0.2c-3.2-4.8-1.8-11,4.1-18.6
				C167.5,69.5,183.2,74.2,199.9,81.8z"/>
			<path class="st18" d="M151.7,94.8c3.7-9.6,18.2-14.5,48.2-13c-8.7,1.4-15.1,6.9-20.7,13.8c0.1,0.2,0.2,0.5,0.3,0.7
				C172,89.7,162.6,89.8,151.7,94.8z"/>
			<path class="st19" d="M190.9,274.9c-2.6-1.4-12.2-2.4-23.6-2.4c-11.6,0-21.3,1-23.7,2.4c-2.9-4.4-6.4-8.3-10.3-11.7
				c-13.2-11.4-32.2-17.5-57.4-17.6c-22.4-1-40.5-14.3-55.8-35.2C8.4,194.4,0.3,175.6,8.8,143c0.5,0.6,3.1-0.6,6.4-2.8v0
				c-2.3,7.6,1.1,11,9.8,10.4c-3.1,13.8,1.5,31.6,10.5,40.3v0c-11.7,42.9,101.2,41.8,146.3,73.8
				C184.8,268.1,187.8,271.5,190.9,274.9z"/>
			<path class="st20" d="M181.2,105c0.1,1.4,0.1,2.7,0.1,4.1c-7.8-3.5-13.8-8-18.6-8.3c-2.3,1.3-4.6,2.4-7.1,3.4
				c0.9-4.5-0.2-7.8-3.9-9.4c10.9-5,20.3-5.1,27.8,1.5C180.6,99.1,181.1,102,181.2,105z"/>
			<path class="st21" d="M179.5,262c0.8,0.9,1.5,1.7,2.3,2.6c-45.1-31.9-158-30.8-146.3-73.8c4.2,4,9.3,6.1,15,4.8l0,0
				c0.5,0.5,1,1,1.6,1.4c10.8,11.2,24.7,19.6,45.5,20.7c27.8,1,45.6,9.7,59.6,21.3c4.9,4.1,9.3,8.5,13.6,13
				C173.7,255.3,176.6,258.6,179.5,262z"/>
			<path class="st22" d="M153.2,64c1,0.3,1.6,0.8,1.8,1.5c-8.2,4-15.7,13-22.7,25.2h0c-0.2-0.4-0.4-0.8-0.7-1.3c0,0,0,0,0,0
				c4.5-9.3,10.2-17.1,17.6-22.7C150.5,65.7,151.8,64.8,153.2,64z"/>
			<path class="st23" d="M143.6,274.9c-0.3,0.1-0.4,0.3-0.5,0.5c-7.2-1.6-13.7-2-18.3,0.1c-0.1,0.1-0.2,0.1-0.3,0.2
				c1-4.1,3.9-8.2,8.9-12.3C137.2,266.7,140.7,270.6,143.6,274.9z"/>
			<path class="st24" d="M143.1,275.4c0,0.1-0.1,0.1-0.1,0.2c0,0.3,0.3,0.6,0.9,0.8c-2,2.3-15.1,2.3-19.2-1
				C129.4,273.3,135.8,273.8,143.1,275.4z"/>
			<path class="st10" d="M138.6,111.3c1,8.3,0.5,17-1.3,26.2c-1.9,4.5-4.3,7.6-8.3,5.2c-3.6-8.1-9.3-15.2-16.5-21.7l2.6,0.5h1
				c0,0,1,0,2.1,0s3.1-4.1,3.1-4.1s-1-1,0-1c1,0,2.1,1,2.1,0c0-0.7,0-1.7,0.3-2.4c0.2-0.4,0.4-0.7,0.8-0.7c1,0,1,0,1,0v-2.1
				c0,0,0,0,0-1s-1-3.1,0-2.1c1,1,0,1,1,1c1,0,1-1,1-1s0.5-0.1,1-1c0.1-0.6,0.1-1.1,0.1-1.6c0.9-18.2-16.1-21.6-29-15.9
				c-0.7,0.3-1.4,0.7-2.1,1c0.3-0.5,0.6-1,0.9-1.4c1.2-1.5,2.8-2.5,5.3-2.7c5.8-2.9,10.1-8.1,21.1-2.6c1.6,0.8,3.3,1.8,5.2,3.1h0
				c0.5,0.9,1,1.7,1.5,2.6c0,0,0,0,0,0c0.2,0.4,0.5,0.8,0.7,1.3C135.7,97.2,137.7,104.1,138.6,111.3z"/>
			<path class="st25" d="M99.6,89.5c12.9-5.7,29.9-2.3,29,15.9c-8-14.1-17.5-17.7-28.6-10.6C99.6,93.1,99.4,91.3,99.6,89.5z"/>
			<path class="st26" d="M128.7,105.4c0,0.5-0.1,1.1-0.1,1.6c-0.5,0.9-1,1-1,1s0,1-1,1c-1,0,0,0-1-1c-1-1,0,1,0,2.1s0,1,0,1v2.1
				c0,0,0,0-1,0c-0.4,0-0.6,0.3-0.8,0.7c-5.6-9-12.7-13.8-21.6-14.5c-0.9-1.6-1.6-3.1-2-4.7C111.2,87.7,120.7,91.3,128.7,105.4z"/>
			<path class="st27" d="M124.9,83.8c1.5-0.1,1.8-1.1,0.8-3.2l0,0c1.6,2,3.1,4.1,4.4,6.3C128.2,85.6,126.5,84.6,124.9,83.8z"/>
			<path class="st28" d="M100.9,79.7c0.4-0.1,0.7-0.1,1.1-0.2v0c3.4,0.6,7.5-0.5,12-1.4c-3.9-1.1-7.9-0.9-11.8,0.4v0
				c-0.7-3.8,0.3-6.7,5.1-7.5c0,0,0,0,0,0c7,1,12.7,4.1,17.6,8.6c0.3,0.3,0.5,0.6,0.8,0.9l0,0c1,2.1,0.7,3.1-0.8,3.2
				c-11-5.5-15.4-0.3-21.1,2.6c-2.5,0.2-4.1,1.2-5.3,2.7C96.2,83.6,97.1,80.5,100.9,79.7z"/>
			<path class="st29" d="M123.6,113.9c-0.3,0.7-0.3,1.8-0.3,2.4c0,1-1,0-2.1,0c-1,0,0,1,0,1s-2.1,4.1-3.1,4.1s-2.1,0-2.1,0h-1
				l-2.6-0.5c-1.8-1.6-3.7-3.2-5.7-4.8l0,0c1.4-2.5,3-5.1,2.3-7.5c-0.1-0.2-0.1-0.5-0.2-0.7c-1.2-1.2-2.3-2.4-3.3-3.7
				c-1.4-1.6-2.6-3.3-3.5-4.9C110.9,100.1,118.1,104.9,123.6,113.9z"/>
			<path class="st30" d="M102.2,78.5c3.9-1.4,7.9-1.5,11.8-0.4c-4.5,0.9-8.7,2-12,1.4c-0.5-0.1-1-0.2-1.4-0.4
				C101.2,78.9,101.7,78.7,102.2,78.5z"/>
			<path class="st31" d="M109.2,108.8c0.7,2.4-1,4.9-2.3,7.5l0,0c-0.2-0.1-0.3-0.3-0.5-0.4c-4,3.5-8.9,4.5-14.5,3.1
				c-0.2,0.1-0.4,0.2-0.6,0.4c4-4.4,5.6-8.7,3.2-12.9c0.3,0.1,0.5,0.2,0.8,0.3h0C100.9,111.9,104.2,118.2,109.2,108.8z"/>
			<path class="st32" d="M108.9,108.1c0.1,0.2,0.2,0.5,0.2,0.7c-4.9,9.5-8.3,3.1-13.9-2.1h0c-0.5-0.4-0.9-0.8-1.4-1.2
				c1.8-1.8,5.7-2.2,11.8-1.1C106.6,105.7,107.7,106.9,108.9,108.1z"/>
			<path class="st33" d="M91.3,71.9c6-1.3,11.3-1.6,16-0.8c-4.8,0.8-5.8,3.7-5.1,7.5v0c-0.5,0.2-1.1,0.4-1.6,0.6
				c0.5,0.2,0.9,0.3,1.4,0.4v0c-0.4,0-0.8,0.1-1.1,0.2L91.3,76l-5,0.3c-0.2-0.2-0.6-0.3-1.2-0.3c-8.4-2.1-11.4-4.2-9.7-6.5
				C80.6,67.5,85.9,68.3,91.3,71.9z"/>
			<path class="st34" d="M102,99.5c1,1.7,2.2,3.3,3.5,4.9c-6-1.1-10-0.7-11.8,1.1c-0.1-0.2-0.3-0.3-0.4-0.5
				c-3.2-1.5-5.6-5.2-7.2-10.3c1.8,0.3,3.2-0.2,4.1-2.1c1.2-5.1,0.7-9.5-1-13.4c-0.7-1.5-1.8-2.2-3-2.8l0,0l5-0.3l9.6,3.6
				c-3.8,0.8-4.7,3.9-2.5,9.4c-0.3,0.4-0.6,0.9-0.9,1.4c0.7-0.4,1.4-0.7,2.1-1c-0.2,1.8-0.1,3.6,0.4,5.3
				C100.5,96.4,101.1,97.9,102,99.5z"/>
			<path class="st35" d="M94.4,106.5c2.5,4.2,0.8,8.5-3.2,12.9c-14,8.7-30.1,13.4-47.5,15.7c-3.2,2.5-5.6,6.1-7.1,10.3
				c-0.3-3.8-0.4-7.5-0.1-11c1.1-13.3,7.3-23.1,26-24.6v0c5.5,3,11.8,1.7,16.6-2.6h0C84.2,105.1,89.3,104.9,94.4,106.5z"/>
			<path class="st36" d="M93.8,105.5c0.2,0.3,0.4,0.6,0.6,1c-5.1-1.6-10.2-1.3-15.3,0.7c3.3-2.9,5.9-7.2,7-12.4c0,0,0,0,0,0
				c1.7,5.1,4,8.8,7.2,10.3C93.5,105.2,93.7,105.3,93.8,105.5z"/>
			<path class="st37" d="M89.3,79.1c1.7,3.9,2.2,8.3,1,13.4c-0.9,1.9-2.3,2.4-4.1,2.1c0,0,0,0,0,0c-0.1,0-0.2,0-0.4,0c0,0,0,0-0.1,0
				c-0.6-0.1-1.3-0.1-2.2-0.4c2.3-0.6,4.2-1.7,4.7-4.7c0.3-2.9,1-6.2-1-9.3c-2.1-1.7-4.4-1.6-6.9-0.5c1.4-2.3,3.4-3.2,5.9-2.6
				c0.2-0.4,0.3-0.6,0.1-0.8C87.5,76.9,88.6,77.6,89.3,79.1z"/>
			<path class="st38" d="M87.2,80.2c2.1,3.1,1.4,6.4,1,9.3c-0.4,3-2.3,4.1-4.7,4.7c-0.5-0.1-1-0.3-1.5-0.6c-1.9-1.4-3.5-3-4-5.1
				c-0.4-1.6-0.3-3.5,0.7-5.8c0.3-0.8,0.8-1.6,1.3-2.5c0.1-0.2,0.2-0.3,0.3-0.5C82.8,78.6,85.1,78.5,87.2,80.2z M86.1,86.4
				c0.4-2.5-0.6-4.8-2.3-5.1c-1.7-0.3-3.4,1.5-3.8,4.1c-0.4,2.5,0.6,4.8,2.3,5.1C84,90.7,85.7,88.9,86.1,86.4z"/>
			<path class="st39" d="M86.3,76.3L86.3,76.3c0.1,0.2,0.1,0.4-0.1,0.8c-2.5-0.6-4.5,0.3-5.9,2.6C80.1,79.8,80,80,80,80.2
				c-0.5,0.9-1,1.7-1.3,2.5c-18.9-5.6-23.8-10.5-14.7-14.9h0c3.5,0.3,7.1,0.9,10.8,2c0.2-0.1,0.4-0.2,0.6-0.3
				c-1.7,2.2,1.3,4.4,9.7,6.5C85.7,76,86.1,76.1,86.3,76.3z"/>
			<path class="st40" d="M83.8,81.3c1.7,0.3,2.7,2.6,2.3,5.1c-0.4,2.5-2.2,4.4-3.8,4.1c-1.7-0.3-2.7-2.6-2.3-5.1
				C80.4,82.8,82.2,81,83.8,81.3z M84.1,86.4c0-0.6-0.5-1-1-1s-1,0.5-1,1c0,0.6,0.5,1,1,1S84.1,87,84.1,86.4z"/>
			<path class="st41" d="M85.8,94.6c0.1,0,0.2,0.1,0.3,0.1c-1.2,5.2-3.7,9.5-7,12.4h0c-4.8,4.3-11,5.6-16.6,2.6
				c-4.2-2.3-7.9-7-10.3-14.9c3.6-12.6,19.6-14.4,25.7-6.3c0.6,2.1,2.1,3.7,4,5.1c0.5,0.3,1.1,0.5,1.5,0.6
				C84.4,94.5,85.2,94.5,85.8,94.6C85.8,94.6,85.8,94.6,85.8,94.6z"/>
			<circle class="st10" cx="83.1" cy="86.4" r="1"/>
			<path class="st42" d="M78.7,82.7c-1,2.3-1.1,4.2-0.7,5.8c-6.2-8.1-22.1-6.3-25.7,6.3c-0.1,0.3-0.2,0.6-0.2,0.9
				c-4-8.2-27,7.7-20.7,18.6c4.7,8.1-7.9,20.3-16.2,25.9c-3.3,2.2-5.9,3.4-6.4,2.8c1.5-5.7,3.5-11.8,6-18.4c0.4-2.3,0.7-4.5,1.1-6.8
				c7.5-9.4,13.5-19.5,12.5-32.5v0c2.5-3,5.5-5.8,9.1-8.3c7.4-7.2,16.3-10,26.4-9.2C54.9,72.2,59.8,77.1,78.7,82.7z"/>
			<path class="st43" d="M62.6,109.7L62.6,109.7c-18.7,1.6-25,11.4-26,24.6l-0.2,0c-6.1,3.1-9.8,9.1-11.4,16.2
				c-8.7,0.6-12.1-2.8-9.8-10.4v0c8.3-5.6,20.9-17.8,16.2-25.9C25,103.4,48,87.5,52,95.7c0.1-0.3,0.2-0.6,0.2-0.9
				C54.6,102.7,58.4,107.4,62.6,109.7z"/>
			<path class="st44" d="M50.5,195.6L50.5,195.6c-5.7,1.3-10.8-0.7-15-4.7v0c-8.9-8.6-13.6-26.5-10.5-40.3
				c1.6-7.1,5.2-13.1,11.4-16.2l0.2,0c-0.3,3.5-0.2,7.1,0.1,11C31.4,159.7,35.8,181.7,50.5,195.6z"/>
			<path class="st45" d="M28.4,85.4c1,13-5,23.1-12.5,32.5C18,105.9,21,94.5,28.4,85.4z"/>
		</g>
		<g>
		</g>
	</g>
</g>
<g>
	<g>
		<g>
			<g id="XMLID_2_">
				<g>
					<path class="st46" d="M135.7,43.5c0.5,1.1,0.6,2.2,0.4,3.3c-0.2,0.8-0.5,1.6-0.9,2.3c-0.4,0.8-0.9,1.6-1.4,2.3
						c-0.6,1-1.2,1.9-1.7,3c-0.3,0.6-0.6,1.3-0.8,1.9c0,0,0,0.1,0,0.1c-0.2-0.1-0.4-0.3-0.5-0.4c-0.8-0.6-1.7-1.1-2.7-1.6
						c-1-0.5-2-0.9-2.9-1.4c-0.8-0.4-1.5-0.7-2.2-1.2c-0.9-0.6-1.6-1.4-2-2.5c-0.4-0.9-0.5-1.7-0.4-2.7c0.3-1.4,1.1-2.4,2.4-3
						c1.7-0.8,3.6-0.3,4.8,1.1c0,0,0.1,0.1,0.1,0.1c0-0.2,0.1-0.3,0.1-0.5c0.4-1.7,1.5-2.8,3.2-3.1C133,40.9,134.9,41.8,135.7,43.5z
						"/>
				</g>
				<g>
				</g>
			</g>
		</g>
		<g>
			<g id="XMLID_3_">
				<g>
					<path class="st47" d="M160.1,30c-0.3,1.5-1,2.8-2.1,3.8c-0.8,0.7-1.7,1.3-2.7,1.8c-1.1,0.5-2.1,0.9-3.2,1.4
						c-1.4,0.6-2.7,1.1-4.1,1.8c-0.8,0.4-1.6,0.9-2.3,1.4c0,0-0.1,0-0.1,0.1c-0.1-0.3-0.2-0.5-0.3-0.8c-0.4-1.3-1-2.5-1.6-3.7
						c-0.7-1.2-1.3-2.5-2-3.7c-0.5-1-1-1.9-1.3-3c-0.4-1.3-0.6-2.7-0.2-4.1c0.3-1.2,0.7-2.2,1.7-3.1c1.4-1.2,2.9-1.7,4.7-1.3
						c2.4,0.5,4,2.4,4.2,4.8c0,0.1,0,0.1,0,0.2c0.2-0.2,0.3-0.3,0.5-0.4c1.7-1.4,3.7-1.8,5.8-0.8C159.3,25.3,160.6,27.7,160.1,30z"
						/>
				</g>
				<g>
				</g>
			</g>
		</g>
	</g>
	<g id="XMLID_4_">
		<g>
			<path class="st48" d="M155,26c3.3,0.3,3.4,2.5,3,5C157.4,29,156.3,27.4,155,26z"/>
		</g>
		<g>
		</g>
	</g>
	<g id="XMLID_5_">
		<g>
			<path class="st48" d="M122.7,48.3c-0.9-2.1,0.4-2.9,2.1-3.5C123.7,45.8,123.1,47,122.7,48.3z"/>
		</g>
		<g>
		</g>
	</g>
</g>
</svg>
