<?xml version="1.0" encoding="utf-8"?>
<!-- Generator: Adobe Illustrator 22.1.0, SVG Export Plug-In . SVG Version: 6.00 Build 0)  -->
<svg version="1.1" id="Layer_4" xmlns="http://www.w3.org/2000/svg" xmlns:xlink="http://www.w3.org/1999/xlink" x="0px" y="0px"
	 viewBox="0 0 300 300" style="enable-background:new 0 0 300 300;" xml:space="preserve">
<style type="text/css">
	.st0{fill:#F16B5E;}
	.st1{fill:#DB4842;}
	.st2{fill:#C6524F;}
	.st3{fill:#F05645;}
	.st4{fill:#FFFFFF;}
	.st5{fill:#631516;}
	.st6{fill:#F1644E;}
	.st7{fill:#F16A57;}
	.st8{fill:#F1634F;}
	.st9{fill:#EF5043;}
	.st10{fill:#C14F49;}
</style>
<g>
	<ellipse class="st0" cx="210.9" cy="120.6" rx="13.8" ry="2.4"/>
	<g id="XMLID_1_">
		<g>
			<path class="st1" d="M264,247.9c45.4-26.8,51.3-92.3-33.2-125.7c0.9,0.2,1.9,0.3,2.9,0.4C307.2,147,319.3,219.2,264,247.9z"/>
			<path class="st2" d="M93.6,56.1c45.9,0.6,131,48.7,143.7,39.3c-1.1,8-34.7,0.7-40.9-1.7c0,0,0,0,0,0c-0.3-0.2-0.6-0.4-1-0.5
				c-0.2-0.1-0.4-0.2-0.6-0.3C177,84.4,160.1,78.1,145,75.5c-3.5-2.2-7.6-4.4-12-6.3c-9.3-3.9-18.3-5.9-24.8-5.7c0,0,0,0-0.1,0
				C103.1,63.2,91.4,56.6,93.6,56.1z"/>
			<path class="st3" d="M228.7,121.4c-1.1-0.4-2.1-0.8-3.2-1.2c2.8,0.7,5.5,1.6,8.1,2.4c-1-0.1-2-0.3-2.9-0.4c0,0,0,0,0,0
				C230.1,121.9,229.4,121.6,228.7,121.4z"/>
			<path class="st3" d="M225.5,120.2c1.1,0.4,2.1,0.8,3.2,1.2c0.3,0.2,0.6,0.3,0.9,0.5C228.1,121.5,226.8,120.9,225.5,120.2
				C225.6,120.2,225.5,120.2,225.5,120.2z"/>
			<path class="st1" d="M229.6,121.9c63.3,37,66.5,71.5,50.3,105.1c19.4-43.6-5.7-77.7-54.3-106.8
				C226.8,120.9,228.1,121.5,229.6,121.9z"/>
			<path class="st1" d="M225.5,120.2c-0.1,5.9,5.7,10.8,12.9,15.5c-11.5-5.5-23.9-10-37.6-13.2C208.8,122,217.1,121.2,225.5,120.2z"
				/>
			<path class="st4" d="M191.6,98.8c0.6,0.5,0.5,1.2,0.2,1.6c-0.4,0.5-1.8,0.6-3.4,0c-1.4-0.5-2.4-1.3-2.5-2c0-0.1,0-0.2,0-0.3
				c0.2-0.6,1.6-0.1,3.4,0C190.5,98.2,191.2,98.5,191.6,98.8z"/>
			<path class="st5" d="M185.9,98.1c0,0.1,0,0.2,0,0.3l-2,0.5l-1.8-5.7l5.6,2.1l4.9-3.4l-0.3,6l0,0l-0.7,1c-0.4-0.3-1.1-0.6-2.4-0.7
				C187.5,98.1,186.1,97.5,185.9,98.1z"/>
			<path class="st5" d="M197.1,101.4l-5.8,1.6l-1.9,5.7l-3.3-5l-6-0.1l3.7-4.7l2-0.5c0.1,0.6,1.2,1.4,2.5,2c1.6,0.6,3,0.6,3.4,0
				c0.3-0.4,0.4-1.1-0.2-1.6l0.7-1L197.1,101.4z"/>
			<path class="st3" d="M189.4,108.7l1.9-5.7l5.8-1.6l-4.8-3.6l0,0l0.3-6l-4.9,3.4l-5.6-2.1l1.8,5.7l-3.7,4.7l6,0.1L189.4,108.7z
				 M198.3,122.6c-59.7,3.2-105.1-10.8-118.9-63c-0.2-0.7-0.4-1.5-0.6-2.3c2.3-0.4,4.6-0.7,7-0.9c2.5-0.3,5.1-0.5,7.9-0.4
				c-2.2,0.5,9.5,7.2,14.5,7.5c-4.8,0.2-8.2,1.5-9.2,4c-2.5,6,8.7,16.4,25,23.3c16.3,6.9,31.6,7.6,34.1,1.6c1.8-4.3-3.6-11-12.9-17
				c15.1,2.6,31.9,8.9,49.8,17.3c0.2,0.1,0.4,0.2,0.6,0.3c0.1,0.1,0.4,0.3,1,0.5c0,0,0,0,0,0c19.4,10.7,38.5,21.2,47.2,29.1
				c-3.5,0.1-6.9,0.2-10-0.2c-2.6-0.9-5.3-1.7-8.1-2.4c-9.2,1-18.3,1.8-27.1,2.5C198.3,122.6,198.3,122.6,198.3,122.6z M223.6,117.2
				c-36.5-6.5-66.7-15.5-66.2-11.8c-10,13.7,21.4,5.6,66.1,11.8C223.5,117.2,223.5,117.2,223.6,117.2z"/>
			<path class="st6" d="M157.4,105.4c-0.5-3.7,29.7,5.2,66.2,11.8c-0.1,0-0.1,0-0.2,0C178.8,111,147.4,119.1,157.4,105.4z"/>
			<path class="st1" d="M171.2,123.9c9.8,2.4,18.8,6.4,27.1,11.8c-9.6-4.8-21.4-8.5-34-11.7C166.5,124,168.8,124,171.2,123.9z"/>
			<path class="st1" d="M164.3,124L164.3,124c9.1,4,17.7,8.7,25.4,14.5c-9.1-6.2-19.7-10.8-31.1-14.6
				C160.5,123.9,162.3,124,164.3,124z"/>
			<path class="st1" d="M158.6,123.9c10.6,5,19.3,11.9,26.5,20.3c-9.2-10.4-20.4-16.7-32.8-20.5
				C154.4,123.8,156.5,123.8,158.6,123.9z"/>
			<path class="st1" d="M131.2,200c8.5-10.9,18.9-16.9,30.3-20.1l-3.2,2.4C147.6,185.3,139,192.5,131.2,200z"/>
			<path class="st7" d="M145,75.5c9.4,6,14.8,12.7,12.9,17c-2.5,6-17.8,5.2-34.1-1.6c-16.3-6.9-27.5-17.3-25-23.3
				c1.1-2.5,4.5-3.9,9.2-4c0,0,0,0,0.1,0c6.5-0.2,15.5,1.7,24.8,5.7C137.4,71.1,141.5,73.3,145,75.5z"/>
			<path class="st1" d="M173.4,165.3c-15.4,4.6-31,17.5-46.6,32.5c15.5-17.3,31.2-32.5,48.8-34.9
				C174.9,163.6,174.2,164.4,173.4,165.3z"/>
			<path class="st1" d="M177.8,152.2c-16,5.3-34.1,22.3-52.7,41.4c17.5-20.3,35.1-37.6,53.3-43.7
				C178.3,150.6,178.1,151.4,177.8,152.2z"/>
			<path class="st8" d="M171.9,172.3l-10.3,7.6c-11.4,3.2-21.8,9.1-30.3,20.1c7.7-7.5,16.4-14.7,27.1-17.7
				c-6.5,8.9-15.2,17.4-25.2,24.7h0c-8.3,2.5-14.4,2.2-16.8-3.1c-8.8-2.4-13.1-6.1-0.6-14.6c11-17.9,25.4-37.1,58.1-50.3
				c5,0.9,6.3,4.7,4.7,10.9c-18.3,6.1-35.9,23.4-53.3,43.7c18.5-19.1,36.7-36.2,52.7-41.4c3.7,1.4,2.7,5.1-2.2,10.7
				c-17.6,2.4-33.4,17.6-48.8,34.9c15.6-15,31.2-28,46.6-32.5C175.6,167.6,175.3,169.9,171.9,172.3z"/>
			<path class="st1" d="M115.7,206c-9.1-1.4-19.4-10.7,0-16.6c-12.5,8.5-8.2,12.1,0.6,14.6c2.4,5.3,8.6,5.5,16.8,3.1
				c-0.3,0.2-0.6,0.4-0.9,0.7C122.3,212.3,117.1,211.4,115.7,206z"/>
			<path class="st1" d="M101.3,110.6c-0.2,4.1-1.5,7.4-3.5,10c-4.6,5.9-13,8.1-20.5,6.2C86.8,125.4,96.1,123.4,101.3,110.6z"/>
			<path class="st2" d="M81.3,182.2c-3.6-2-7.2-4.3-10.7-6.6c0.6-1.7,1.1-3.4,1.3-5c3-1.9,6.5-3.3,10.3-4.6c4-0.5,8.1-0.1,11.7,1.2
				c-4,0.6-7.9,1.2-9.3,3.4C84.4,174.8,83.4,178.7,81.3,182.2z"/>
			<path class="st2" d="M125.1,166.4c-2.2-25.1-11.7-32.9-23.8-34.8c8.4,5.9,11.7,15,12.3,25.7c-2.2-22.2-24.5-26-36.3-30.5
				c7.6,1.8,15.9-0.3,20.5-6.2c2.2,1.4,4.2,3.3,5.9,6.2C121.3,135.9,126.2,150,125.1,166.4z"/>
			<path class="st9" d="M79.3,59.7c13.8,52.1,59.2,66.2,118.9,63c-9.4,0.7-18.4,1.1-27.1,1.3c-2.3,0-4.6,0.1-6.9,0h0h0
				c-1.9,0-3.8,0-5.6-0.1c-2.1-0.1-4.2-0.1-6.3-0.2c-21.1-1.1-38.9-4.8-51-13.1C90.6,97.4,84.3,79.3,79.3,59.7z"/>
			<path class="st1" d="M79.3,59.7c5,19.6,11.2,37.8,21.9,50.9c-13.4-5.5-18.2-28.9-22.5-53.1C78.9,58.2,79.1,58.9,79.3,59.7z"/>
			<path class="st10" d="M112.6,166.4c-3.9-13.1-9.1-24.1-20.2-24.9c-5.5,4.2-12.3,2.7-19.1,1.1c6.1-2.1,7.6-9.2,3.9-15.8l14.6,7.9
				c14.6,6,17.8,17.4,20.2,29.2C112.2,164.8,112.4,165.6,112.6,166.4z"/>
			<path class="st10" d="M64.7,158.6c5.1-1.4,8.3-12.1,2.2-15.5c2.5,0.3,4.7,0.1,6.4-0.5c3.1,0.8,6.1,1.7,7.9,4
				c18.2-3.2,23.5,9.5,26.3,25.2c-0.1-0.2-0.1-0.5-0.2-0.7c-5.6-20-13.7-25.3-23.8-17.8l-2.3,3c13.1-1.7,20.9,3.7,24.4,15.3
				c0.4,1.4,0.8,3,1.1,4.6c-0.2-0.5-0.4-0.9-0.7-1.4c-4.6-13.3-12.9-19.1-25.7-15.8v3c4-4.1,21.1,5,25.7,12.8
				c0.3,0.9,0.6,1.9,0.9,2.9c-0.1-0.5-0.2-1-0.3-1.6c0.5,1.4,0.6,2.7,0.1,3.8c-2.2-6.2-7.1-10.5-12.9-12.6h0
				c-3.7-1.3-7.7-1.7-11.7-1.2c-3.5,0.5-7,1.6-10.2,3.6C72.4,164.9,70.5,161,64.7,158.6z"/>
			<path class="st7" d="M52.9,73.1c0.5-2.6,4.4-6.3,9.9-9.2c2.3-1.2,4.5-2.1,6.6-2.6c3.9-1,6.9-0.8,7.7,0.8
				c1.3,2.4-3.1,7.2-9.7,10.6c-6.6,3.4-13,4.3-14.3,1.8C52.8,74.1,52.8,73.6,52.9,73.1z"/>
			<path class="st3" d="M62.6,225.5c11.5-11,18.9-24.6,18.7-43.3c9.9,5.5,20.6,9.3,34.4,7.1c-19.4,5.9-9.1,15.3,0,16.6
				c1.4,5.4,6.6,6.3,16.5,1.6C112,221.9,86.5,230.6,62.6,225.5z"/>
			<path class="st3" d="M17.5,193.6c7.2-6.5,19.3-12.8,53.1-18c3.5,2.3,7,4.6,10.7,6.6v0c-2.9,19.2-11,32.6-22.2,42.4
				c-6.3-1.7-12.5-4.5-18.4-8.3C31.2,209.9,23.5,202.1,17.5,193.6L17.5,193.6z"/>
			<path class="st1" d="M81.3,182.3c0.2,18.6-7.1,32.3-18.7,43.3c-1.2-0.3-2.4-0.5-3.5-0.9C70.3,214.9,78.3,201.4,81.3,182.3z"/>
			<path class="st3" d="M50.9,72.9c0.4-2.8,1.1-5.5,2.1-8c4.9-2.2,10.2-4,15.8-5.4l0.5,1.9c-2,0.5-4.3,1.4-6.6,2.6
				c-5.5,2.8-9.4,6.6-9.9,9.2L50.9,72.9z"/>
			<path class="st3" d="M77.2,126.8c-20-18.5-28.3-38.1-26.3-54l1.9,0.2c-0.1,0.5,0,1,0.2,1.4c1.3,2.4,7.7,1.6,14.3-1.8
				c6.6-3.4,11-8.2,9.7-10.6c-0.8-1.6-3.9-1.8-7.7-0.8l-0.5-1.9c3.2-0.8,6.5-1.5,9.9-2c4.3,24.2,9.1,47.7,22.5,53.1
				C96.1,123.4,86.8,125.4,77.2,126.8z"/>
			<path class="st1" d="M53,64.8c-1,2.5-1.7,5.2-2.1,8c-2.1,15.9,6.3,35.5,26.3,54C58.8,114.4,46.8,96.4,48,67.2
				C49.6,66.4,51.3,65.6,53,64.8z"/>
			<path class="st3" d="M38.8,90.1c4.6-5.9,6.6-12,4.4-13.7c-2.2-1.7-7.6,1.7-12.2,7.6c-4.6,5.9-6.6,12-4.4,13.7S34.2,96,38.8,90.1z
				 M66.9,143.1C41.7,129.5,25.7,112,18.5,91.9C25.9,82,35.8,73.5,48,67.2c-1.2,29.2,10.8,47.1,29.2,59.6c3.7,6.6,2.2,13.7-3.9,15.8
				C71.6,143.2,69.4,143.4,66.9,143.1z"/>
			<path class="st7" d="M26.6,97.8c-2.2-1.7-0.2-7.8,4.4-13.7c4.6-5.9,10.1-9.3,12.2-7.6c2.2,1.7,0.2,7.8-4.4,13.7
				C34.2,96,28.7,99.5,26.6,97.8z"/>
			<path class="st1" d="M66.9,143.1C48,137.4,31,120.9,15.3,96.3v0c1-1.5,2-3,3.1-4.5C25.7,112,41.7,129.5,66.9,143.1z"/>
			<path class="st1" d="M70.6,175.6c-33.8,5.2-45.9,11.5-53.1,18l0,0c-0.8-1.1-1.5-2.2-2.2-3.3C35.3,178.3,52.8,175.5,70.6,175.6z"
				/>
			<path class="st7" d="M18.2,109.2c3,1.2,2.9,8.7-0.3,16.9c-3.2,8.2-8.1,13.9-11.1,12.8S3.9,130.2,7,122
				C10.2,113.8,15.1,108,18.2,109.2z"/>
			<path class="st3" d="M15.3,96.3C31,120.9,48,137.4,66.9,143.1c6,3.5,2.9,14.2-2.2,15.5c-23.4,0.1-44.6-4.7-63.1-15.5
				C1.5,126.7,6.2,110.3,15.3,96.3z M17.9,126.1c3.2-8.2,3.3-15.8,0.3-16.9c-3-1.2-8,4.6-11.1,12.8c-3.2,8.2-3.3,15.8-0.3,16.9
				S14.7,134.3,17.9,126.1z"/>
			<path class="st1" d="M1.5,143.1c18.5,10.8,39.7,15.6,63.1,15.5c-22.8,1.5-43.9-2.1-63-11.8C1.6,145.6,1.5,144.3,1.5,143.1z"/>
			<path class="st3" d="M70.6,175.6c-17.8-0.2-35.3,2.6-55.3,14.7C6.8,177,2.3,161.9,1.6,146.8c19.1,9.7,40.2,13.3,63,11.8
				c5.9,2.4,7.7,6.3,7.3,11.1c0,0.3-0.1,0.6-0.1,1C71.6,172.2,71.2,173.9,70.6,175.6z"/>
		</g>
		<g>
		</g>
	</g>
</g>
<circle class="st4" cx="185.8" cy="96.6" r="1.2"/>
</svg>
