<?xml version="1.0" encoding="utf-8"?>
<!-- Generator: Adobe Illustrator 22.0.0, SVG Export Plug-In . SVG Version: 6.00 Build 0)  -->
<svg version="1.1" xmlns="http://www.w3.org/2000/svg" xmlns:xlink="http://www.w3.org/1999/xlink" x="0px" y="0px"
	 viewBox="0 0 200 200" style="enable-background:new 0 0 200 200;" xml:space="preserve">
<style type="text/css">
	.st0{fill:#6A4384;stroke:#20897A;stroke-width:2;stroke-miterlimit:10;}
	.st1{fill:#CCE9EA;}
	.st2{fill:#9ED8D9;}
	.st3{fill:#B38EC1;}
	.st4{fill:#9866AA;}
	.st5{fill:#6A4384;}
	.st6{fill:#6B9554;}
	.st7{fill:#6DA8A2;}
	.st8{fill:#FFFFFF;}
	.st9{fill:#282324;}
	.st10{fill:none;stroke:#20897A;stroke-width:2;stroke-miterlimit:10;}
</style>
<g id="Layer_2">
	<ellipse class="st0" cx="123.1" cy="119.3" rx="62.9" ry="67.3"/>
</g>
<g id="Layer_1">
	<g>
		<g id="XMLID_3_">
			<g>
				<path class="st1" d="M189.6,147.8c4.4-2.5,5.5-0.7,5.1,3.1c0,3.4-1.4,7.7-3.7,12.6C192.5,157.8,193,148.1,189.6,147.8z"/>
				<path class="st2" d="M99.6,97.2c-0.1,24.3-8.1,39.6-4.9,50.2c0,0.1,0,0.3-0.1,0.4c0,0.3-0.1,0.7-0.1,1.1v0.1c0,0.6,0,1.1,0,1.7
					c0,0.3,0,0.5,0,0.8c-0.1,1.6-0.1,3.2,0,4.8c0.6,12.8,7.1,21.5,28.6,19.8c0.5,0,1,0,1.5,0c5.5-0.2,11.8-1.7,19-5.1
					c0,0,0-0.1,0-0.2c0,0,0.1,0,0.1,0c0.3-2.1-1.2-4.1-3.8-6.4c2.1-0.1,4.2-0.2,6.3-0.2c0,0,0.1,0.1,0.1,0.1c0.1,0,0.2,0,0.3,0
					c0.1,0.1,0.1,0.1,0.2,0.2c0.3-0.1,0.7-0.1,1.1-0.2c0.1,0,0.1,0,0.2,0c0.4-0.1,0.8-0.1,1.2-0.2c8.9-0.2,17.7-0.6,26.7-5.4
					c0-0.1,0.1-0.1,0.1-0.1c4.5-2.2,9-5.7,13.6-10.7c3.4,0.3,2.9,10,1.4,15.7c-2,4.2-4.5,8.8-7.3,13.5c-0.3,9.2-36.4,15.6-73,14.4
					c-0.2,0-0.4-0.1-0.5-0.1c0.2,0,0.4,0,0.5,0c-31.4-6.9-82.2-5.3-72.4-61.3c16.1-24.7,21.1-68.4-6.2-81c0.2,0.1,0.3,0.3,0.5,0.4
					c-0.2-0.1-0.4-0.2-0.6-0.3c-0.2-0.2-0.5-0.4-0.8-0.6c0,0-0.1,0-0.1,0c0.1,0,0.2-0.1,0.3-0.1c-16.2,2.4-18.9-2.6-20.5-8.1H10
					C7.1,38.9,5.6,35,8.8,29.2c0.2-0.4,0.5-0.9,0.8-1.3c1.5-2.3,3.7-4.8,6.7-7.5c0.5-0.3,1.1-0.5,1.6-0.8c4.8-0.6,8.7-0.2,11.7,1.2
					c0.2,0.1,0.5,0.2,0.7,0.4c0.4,0.2,0.8,0.5,1.2,0.7c0.2,0.1,0.3,0.2,0.5,0.3c0.3,0.2,0.5,0.4,0.7,0.6c0.2,0.2,0.4,0.3,0.6,0.5
					c0.2,0.2,0.4,0.4,0.5,0.5c0.2,0.2,0.3,0.4,0.5,0.6c0.2,0.2,0.3,0.4,0.5,0.6c0.1,0.2,0.3,0.4,0.4,0.6c0.2,0.2,0.3,0.4,0.5,0.7
					c0.1,0.1,0.2,0.3,0.3,0.4c0.4,0.6,0.7,1.2,1,1.9c1,2.2,1.8,4.8,2.2,7.6c9.3,3.7,14.3,26.8,19.7,48.5c0,0,0,0.1-0.1,0.1
					c0.5,1.8,0.9,3.7,1.4,5.5c3.7,2.8,7.1,4.3,10.4,4.4c0.4,0,0.7,0,1,0c5-0.2,9.6-3.6,13.6-10.7c0.5-8.1,0.1-15.5-1.4-21.9
					c-2.2-9.2-6.4-16.6-13-22.2c-17.1-0.5-20.1-4.3-20.8-8.7c-5.7-9.6-1.1-15.7,7-20.7c0.1,0,0.3,0,0.4,0c-0.1,0-0.3,0.1-0.4,0.1
					c19.5,1.2,23.7,11.5,25.8,23.2l0-0.2c0,0,0,0,0,0C96.1,60,99.7,80.7,99.6,97.2z M70.2,119.5l-3,12l-0.2,0.7
					c2.7,0.9,5.1,1.3,7.2,1.4c0.7,0,1.4,0,2,0c5.8-0.3,9.8-3.4,12.7-8.1l0-0.1c0,0,0,0,0,0l0,0.1c4.2-6.7,6.2-16.8,8-27.1
					c0,0.1-0.1,0.1-0.1,0.2c0,0,0-0.1,0-0.1c-3,5.4-6.1,9.8-9.5,13.2c-0.5,0.5-1,1-1.5,1.4c-0.3,0.2-0.5,0.5-0.8,0.7v0
					c0,0-0.1,0.1-0.1,0.1c-1.7,1.4-3.4,2.6-5.2,3.5c-0.3,0.2-0.7,0.3-1,0.5c0,0,0,0-0.1,0c-2.6,1.1-5.2,1.7-7.9,1.7
					C70.6,119.5,70.4,119.5,70.2,119.5z M70.2,119.5L70.2,119.5c-2.6-0.2-5.3-0.8-8-2c-0.3-0.1-0.6-0.3-1-0.4
					c-0.3-0.2-0.7-0.3-1-0.5c0,0,0,0-0.1,0c-1.4,1.2-2.2,2.8-2.3,4.9c0,0.5,0,1,0,1.5c0.1,1.7,0.5,3.6,1.3,5.8
					c2.9,1.5,5.5,2.6,7.9,3.4l0.2-0.7L70.2,119.5z M98.5,94.3c1.3,0,1.3-2,0-2C97.2,92.3,97.2,94.3,98.5,94.3z M74.8,23.3
					C74.8,23.3,74.8,23.2,74.8,23.3c-0.2-0.2-0.4-0.3-0.6-0.4c-4.8-2-10.3-2.8-17.1-1.3c-0.2,0-0.5,0.1-0.7,0.2
					c-1.2,0.3-2.5,0.6-3.8,1.1c-0.4,0.1-0.8,0.2-1.2,0.4c-0.3,1-0.5,1.9-0.6,2.8c-0.1,0.6,0,1.2,0,1.8c1,9.1,16.6,11.1,22.1,1.8
					c0,0,0,0,0,0c0,0,0,0,0.1,0C74,27.8,74.6,25.7,74.8,23.3L74.8,23.3z M35,34.9c-0.6-0.5-1.1-0.9-1.7-1.2
					c-0.5-0.3-1.1-0.6-1.7-0.9c-1.7-0.8-3.3-1.3-5-1.6l0,0.1c-0.4,0-0.7-0.1-1-0.1c-0.4,0-0.7-0.1-1.1,0c-2.4,0-4.9,0.4-7.6,1.4
					c-0.1,0.1-0.3,0.1-0.4,0.2c-1.9,0.7-3.7,1.7-5.6,2.9c-0.7,0.4-1.4,0.9-2.1,1.3C14,45.2,29.4,51.2,35,34.9z"/>
				<path class="st3" d="M94.7,56.5c57.9-22,113.1,28.1,86.5,91.3C190.5,104.9,180.3,47.1,94.7,56.5z"/>
				<path class="st4" d="M156.1,145.4C156.1,145.4,156.1,145.4,156.1,145.4c-10.3-8.1-17.7-19.1-7.3-47.3c5.5-2.8,10.6-1.2,15.2,4.6
					c0.3,0.3,0.5,0.7,0.8,1.1c0.3,0.4,0.5,0.7,0.8,1.1c0.3,0.4,0.5,0.8,0.8,1.2c0.2,0.4,0.5,0.8,0.7,1.3c0,0,0,0,0,0
					c0,0.1,0,0.2,0,0.3c0-0.1-0.1-0.2-0.1-0.3c-0.3,5.3-0.9,9.7-1.9,13.1c-1,3.4-2.3,6-3.8,8c0,0,0,0-0.1,0c0,0,0,0,0,0
					c-0.3-0.2-0.6-0.4-0.9-0.6c0,0-0.1-0.1-0.1-0.1c-4.3-3.3-5.9-8.4-5.8-14.5c1.9,0.2,3.1,1.2,3.7,3c0-0.1,0-0.2,0-0.3
					c0.1,0.1,0.1,0.2,0.2,0.3c0.3-2.9-0.2-4.2-1.4-4.2c-0.7,0-1.6,0.4-2.7,1.2c-1.3,5.4-1.1,10.6,3.6,15.3c0.6,0.2,1.1,0.3,1.7,0.3
					c0.6,0,1.2-0.1,1.8-0.3c0,0,0,0,0,0c0,0,0,0,0.1,0c0,0,0,0,0,0c0,0,0,0,0.1-0.1c0.1,0,0.2-0.1,0.3-0.2c0.1,0,0.1-0.1,0.2-0.1
					c4.3-2.1,8.2-9.9,5.3-21c-0.3-1.1-0.6-2.3-1.1-3.5c-4.5-8.7-9.6-13-15.9-7.1c-0.3,0.3-0.5,0.5-0.8,0.8c-0.2,0.2-0.4,0.4-0.6,0.6
					c-0.1,0.1-0.1,0.1-0.2,0.2c0-0.1,0.1-0.2,0.1-0.3c-8.6,8.3-10.9,30.6-1.7,42.7c2,3,5.3,4.6,9,4.7c0,0,0,0,0,0
					C156,145.4,156.1,145.4,156.1,145.4L156.1,145.4L156.1,145.4z M156.1,145.4C156.2,145.4,156.2,145.4,156.1,145.4
					c0.1,0,0.2,0,0.3,0c-0.1,0-0.3,0.1-0.4,0.1c1.9,0,4-0.4,6-1.2c0.2-0.1,0.3-0.1,0.5-0.2c5.4-2.4,10.4-8.3,11.9-18.2
					c0.8-4.9,0.8-10.9-0.4-17.8c-4.1-18.4-13.3-28.5-24.2-26.4c-0.2,0.1-0.5,0.1-0.7,0.2c-3.7,0.8-7.6,3.1-11.6,6.9
					c-0.7,0.8-1.4,1.5-2,2.3c0.1,0,0.1-0.1,0.2-0.1c0,0-0.1,0.1-0.1,0.1c7.2-4.5,13.9-7,19.6-6.1c0.2,0,0.3,0.1,0.5,0.1l1.9,0.5
					c0.3,0.1,0.5,0.2,0.8,0.3c7.8,3.4,13.4,14.8,15.7,38.8c0,0.1,0,0.1,0,0.2c0,0,0-0.1,0-0.1c-1.9,4.2-3.9,7.9-6,11
					c-0.2,0.3-0.4,0.6-0.6,0.9c-0.5,0.7-1.1,1.4-1.6,2C162.9,142.2,159.7,144.5,156.1,145.4z M94.7,56.6
					c85.4-9.2,95.5,48.5,86.2,91.3c-3,4.6-7.5,8-13.1,10.6c-0.6,0.3-1.3,0.6-1.9,0.8c-5,2-10.7,3.5-16.9,4.6c-0.2,0-0.4,0-0.7,0
					c-0.4,0.1-0.9,0.2-1.3,0.2c-0.1,0-0.2,0-0.3,0c-0.1-0.1-0.1-0.1-0.2-0.2c0,0-0.1,0-0.1,0c-21.6-24.5-20.2-48-12.1-71.3
					c0,0.1-0.1,0.1-0.1,0.2c0,0,0-0.1,0-0.1c-14.9,20.2-8.5,45,5.4,71.6c2.6,2.1,4.2,4.3,3.9,6.3c-7.2,3.3-13.5,4.8-18.9,5.1
					c-0.6,0.1-1.2,0.1-1.7,0.1c-0.1,0-0.1,0-0.2,0c-11.5,0-18.8-5.5-21.8-9.7c-5-5.9-6.6-11.6-6.3-17.4c0,0.5-0.1,1.1-0.1,1.6
					c0-0.6,0.1-1.1,0.1-1.7v-0.1c0-0.3,0.1-0.7,0.1-1.1c0-0.1,0-0.1,0-0.2c0-0.1,0-0.1,0-0.2c0,0.2,0.1,0.3,0.1,0.5
					c1.7-17,18.9-34.4,11.2-57.4C103.6,79.1,99.7,67.8,94.7,56.6C94.7,56.6,94.7,56.6,94.7,56.6z"/>
				<path class="st5" d="M181.2,147.8c-1.5,3.6-3.3,7.1-5.2,10.7c0,0-0.1,0-0.1,0c-8.8,4.5-17.5,5.1-26.1,5.4
					c5.9-1.1,11.3-2.6,16-4.5c0.7-0.3,1.3-0.5,1.9-0.8C173.6,155.9,178.2,152.4,181.2,147.8z"/>
				<path class="st5" d="M176,158.5c0,0-0.1,0.1-0.1,0.1c-9,4.7-17.8,5.2-26.7,5.4c0.2,0,0.4-0.1,0.6-0.1
					C158.5,163.6,167.1,163,176,158.5C176,158.5,176,158.5,176,158.5z"/>
				<path class="st5" d="M174.2,125.8c0.9-4.9,0.8-10.8-0.4-17.8c-4.1-18.3-13.1-28.3-24-26.4c10.9-2.1,20,7.9,24.2,26.4
					c1.2,6.9,1.2,12.9,0.4,17.8c-1.6,10-6.6,15.8-11.9,18.2c5.3-2.5,10.2-8.4,11.8-18.1c0-0.4-0.1-0.7-0.1-1.1
					C174.2,125.1,174.2,125.4,174.2,125.8z"/>
				<path class="st3" d="M173.8,108c1.2,7,1.3,12.9,0.4,17.8c0-0.3-0.1-0.6-0.1-1v0c0-0.1,0.1-0.1,0.1-0.2c-2.3-24-8-35.4-15.8-38.8
					c-0.3-0.1-0.5-0.2-0.8-0.3l-1.9-0.5c-0.2,0-0.3-0.1-0.5-0.1c-0.8-0.1-1.7-0.2-2.5-0.2c-5.1,0-10.8,2.4-17,6.2
					c0.6-0.7,1.1-1.4,2-2.2c3.9-3.8,7.8-6,11.4-6.9c0.3-0.1,0.5-0.1,0.7-0.2C160.7,79.7,169.7,89.7,173.8,108z"/>
				<path class="st3" d="M174.2,124.6c0,0.1-0.1,0.1-0.1,0.2c0-0.1,0-0.1,0-0.2c-2.3-24-8-35.3-15.7-38.8
					C166.2,89.2,171.9,100.6,174.2,124.6z"/>
				<path class="st5" d="M174.1,124.8c0,0.4,0.1,0.7,0.1,1.1c-1.6,9.8-6.4,15.6-11.8,18.1c-0.2,0.1-0.3,0.2-0.5,0.2
					c-1.9,0.8-3.8,1.1-5.6,1.1c4.1-1.1,7.8-4.2,11.1-8.8c0.2-0.3,0.4-0.6,0.6-0.9C170.3,132.6,172.2,129,174.1,124.8z"/>
				<path class="st5" d="M174.1,124.8L174.1,124.8c-1.9,4.2-3.9,7.8-6,10.9C170.2,132.6,172.2,128.9,174.1,124.8
					C174.1,124.7,174.1,124.8,174.1,124.8z"/>
				<path class="st5" d="M167.2,107.3c2.9,11.1-0.9,18.9-5.3,21c4.1-2.2,7.8-9.8,5.1-20.6c0-0.1,0-0.2,0-0.3
					c-0.3-1.2-0.7-2.3-1.1-3.5c-4.6-8.7-9.6-13-15.8-7.2c6.3-5.9,11.4-1.6,15.9,7.1C166.6,105,166.9,106.2,167.2,107.3z"/>
				<path class="st5" d="M167.1,107.7c2.7,10.8-1,18.3-5.1,20.6c-0.1,0-0.1,0.1-0.2,0.1c-0.1,0-0.2,0.1-0.3,0.1c0,0,0,0,0,0
					C164.5,124.6,166.6,118.3,167.1,107.7z"/>
				<path class="st3" d="M167.1,107.4C167.1,107.4,167.1,107.4,167.1,107.4c-0.3-0.5-0.5-0.9-0.8-1.3c-0.3-0.4-0.5-0.8-0.8-1.2
					c-0.3-0.4-0.5-0.8-0.8-1.1c-0.3-0.4-0.5-0.7-0.8-1.1c-4.6-5.9-9.7-7.5-15.2-4.6c0,0,0.1-0.1,0.1-0.1c0.2-0.2,0.3-0.3,0.5-0.5
					c0.3-0.3,0.6-0.6,0.8-0.8c6.3-5.8,11.3-1.4,15.8,7.2C166.4,105.1,166.8,106.2,167.1,107.4z"/>
				<path class="st5" d="M167,107.4c0,0.1,0.1,0.2,0.1,0.3c-0.5,10.5-2.6,16.8-5.6,20.8c0,0-0.1,0-0.1,0.1c0,0,0,0,0,0
					c1.5-2,2.8-4.6,3.8-8C166.1,117.1,166.8,112.8,167,107.4z"/>
				<path class="st3" d="M166.4,106.1c0.2,0.4,0.5,0.8,0.7,1.3C166.9,106.9,166.6,106.5,166.4,106.1z"/>
				<path class="st5" d="M165.9,138.6c0.5-0.6,1.1-1.3,1.6-2c-3.3,4.6-7,7.7-11.1,8.8h0c-0.1,0-0.1,0-0.2,0c0,0-0.1,0-0.1,0
					C159.7,144.5,162.9,142.2,165.9,138.6z"/>
				<path class="st3" d="M164.8,103.8c0.3,0.4,0.5,0.7,0.8,1.1C165.4,104.5,165.1,104.2,164.8,103.8z"/>
				<path class="st5" d="M161.5,128.5c0.1,0,0.2-0.1,0.3-0.1C161.7,128.4,161.6,128.5,161.5,128.5
					C161.5,128.5,161.5,128.5,161.5,128.5C161.5,128.5,161.5,128.5,161.5,128.5z"/>
				<path class="st5" d="M161.5,128.5C161.5,128.5,161.5,128.5,161.5,128.5c0,0-0.1,0.1-0.1,0.1c0,0,0,0,0,0
					C161.4,128.6,161.4,128.5,161.5,128.5z"/>
				<path class="st4" d="M161.5,128.5C161.5,128.6,161.4,128.6,161.5,128.5C161.4,128.6,161.4,128.6,161.5,128.5
					C161.4,128.6,161.4,128.6,161.5,128.5z"/>
				<path class="st5" d="M161.4,128.6C161.4,128.6,161.3,128.6,161.4,128.6C161.3,128.6,161.3,128.6,161.4,128.6L161.4,128.6
					C161.4,128.6,161.4,128.6,161.4,128.6z"/>
				<path class="st5" d="M161.4,128.6C161.4,128.6,161.4,128.6,161.4,128.6L161.4,128.6C161.4,128.6,161.4,128.6,161.4,128.6z"/>
				<path class="st5" d="M161.4,128.6C161.4,128.6,161.4,128.6,161.4,128.6c-0.6,0.3-1.2,0.3-1.8,0.3
					C160.2,128.9,160.7,128.8,161.4,128.6C161.3,128.5,161.3,128.5,161.4,128.6z"/>
				<path class="st5" d="M161.3,128.5C161.3,128.5,161.3,128.5,161.3,128.5c-0.3-0.2-0.6-0.4-0.9-0.6
					C160.7,128.1,161,128.3,161.3,128.5z"/>
				<path class="st5" d="M160.4,127.9c0.3,0.2,0.6,0.4,0.9,0.6c-0.6,0.2-1.1,0.4-1.7,0.4c-0.5,0-1-0.1-1.5-0.3
					c-4.5-4.5-4.9-9.4-3.8-14.5c0.1,5.8,1.8,10.6,6,13.7C160.3,127.8,160.4,127.8,160.4,127.9z"/>
				<path class="st5" d="M159.6,128.9c-0.6,0-1.1-0.1-1.7-0.3c-4.7-4.7-4.9-9.9-3.6-15.3c0,0.3,0,0.6,0,0.8
					c-1.1,5.1-0.7,10,3.8,14.5C158.6,128.8,159.1,128.9,159.6,128.9z"/>
				<path class="st5" d="M157,112.1c1.2-0.1,1.7,1.3,1.4,4.2c-0.1-0.1-0.1-0.2-0.2-0.3C158.6,113.4,158.1,112.2,157,112.1z"/>
				<path class="st5" d="M157,112.1c1.1,0.1,1.5,1.3,1.2,3.8c-0.7-1.6-2-2.5-3.7-2.7C155.5,112.6,156.4,112.2,157,112.1z"/>
				<path class="st5" d="M158.3,116c0,0.1,0,0.2,0,0.3c-0.6-1.7-1.8-2.7-3.7-3c0,0,0,0,0,0C156.3,113.5,157.6,114.4,158.3,116z"/>
				<path class="st3" d="M157.6,85.5c0.3,0.1,0.5,0.2,0.8,0.3C158.1,85.7,157.9,85.6,157.6,85.5z"/>
				<path class="st5" d="M156.4,145.4c1.8,0,3.7-0.4,5.6-1.1c-2,0.9-4,1.3-6,1.2C156.1,145.5,156.3,145.4,156.4,145.4L156.4,145.4z"
					/>
				<path class="st5" d="M154.3,113.3c1.1-0.8,2-1.2,2.7-1.2c-0.6,0-1.5,0.4-2.5,1.2c0,0,0,0,0,0
					C154.5,113.3,154.4,113.3,154.3,113.3z"/>
				<path class="st5" d="M160.3,127.8c-4.1-3.1-5.8-7.9-6-13.7c0.1-0.3,0.1-0.5,0.2-0.8h0C154.4,119.4,156.1,124.5,160.3,127.8z"/>
				<path class="st4" d="M156.1,145.4C156.1,145.4,156.1,145.4,156.1,145.4L156.1,145.4L156.1,145.4z"/>
				<path class="st5" d="M156.1,145.4c0,0-0.1,0-0.1,0c-10.3-8.1-17.5-19-7.4-47.1c0.1-0.1,0.1-0.1,0.2-0.2
					C138.4,126.3,145.8,137.3,156.1,145.4z"/>
				<path class="st5" d="M156,145.4C156,145.4,156,145.4,156,145.4c-3.7-0.1-7-1.7-9-4.7c-9.2-12.1-6.9-34.4,1.7-42.7
					c0,0.1-0.1,0.2-0.1,0.3c-8.3,8.4-10.5,30.3-1.4,42.4C149.2,143.6,152.4,145.2,156,145.4z"/>
				<path class="st5" d="M154.5,113.3C154.5,113.3,154.5,113.3,154.5,113.3L154.5,113.3C154.5,113.3,154.5,113.3,154.5,113.3z"/>
				<path class="st5" d="M154.3,113.3c0.1,0,0.1,0,0.2,0c-0.1,0.3-0.1,0.5-0.2,0.8C154.3,113.9,154.3,113.6,154.3,113.3z"/>
				<path class="st3" d="M148.8,98.1c5.6-2.8,10.6-1.3,15.2,4.6C159.4,96.9,154.4,95.3,148.8,98.1z"/>
				<path class="st5" d="M156,145.4c-3.6-0.1-6.8-1.8-8.8-4.7c-9.1-12.1-7-34,1.4-42.4C138.5,126.4,145.8,137.3,156,145.4z"/>
				<path class="st5" d="M165.9,159.3c-4.7,2-10.1,3.4-16,4.5c-0.3,0-0.6,0-0.9,0C155.2,162.8,160.9,161.3,165.9,159.3z"/>
				<path class="st5" d="M149,163.9c0.3,0,0.6,0,0.9,0c-0.2,0-0.4,0.1-0.6,0.1c-0.3,0-0.6,0-0.9,0C148.5,164,148.8,163.9,149,163.9z
					"/>
				<path class="st3" d="M149.4,97.5c-0.1,0.2-0.3,0.3-0.5,0.5c0,0-0.1,0.1-0.1,0.1C149,97.9,149.2,97.7,149.4,97.5z"/>
				<path class="st2" d="M149.3,164c-0.4,0.1-0.8,0.2-1.2,0.2c-0.1,0-0.1,0-0.2,0c0.2,0,0.3-0.1,0.5-0.1c-0.4,0-0.9,0-1.3,0
					c0.4-0.1,0.9-0.2,1.3-0.2c0.2,0,0.4,0,0.7,0c-0.2,0-0.4,0.1-0.7,0.1C148.6,164,148.9,164,149.3,164z"/>
				<path class="st2" d="M148.3,164.1c-0.2,0-0.3,0.1-0.5,0.1c-0.4,0-0.7,0-1.1,0c0.1,0,0.2,0,0.3-0.1
					C147.5,164.1,147.9,164.1,148.3,164.1z"/>
				<path class="st2" d="M146.7,164.2c0.4,0,0.7,0,1.1,0c-0.4,0.1-0.8,0.1-1.1,0.2c-0.1-0.1-0.1-0.1-0.2-0.2
					C146.6,164.2,146.7,164.2,146.7,164.2z"/>
				<path class="st6" d="M147,164.1c-0.1,0-0.2,0-0.3,0.1c0,0,0,0,0,0C146.8,164.2,146.9,164.1,147,164.1z"/>
				<path class="st6" d="M146.7,164.2c-0.1,0-0.1,0-0.2,0C146.6,164.2,146.6,164.2,146.7,164.2C146.7,164.2,146.7,164.2,146.7,164.2
					z"/>
				<path class="st2" d="M146.7,164.2c-0.1,0-0.1,0-0.2,0c-0.1,0-0.2,0-0.3,0c0,0-0.1-0.1-0.1-0.1c0.1,0,0.3,0,0.4,0
					c0,0-0.1-0.1-0.1-0.1c0,0,0.1,0,0.1,0C146.6,164.1,146.6,164.1,146.7,164.2z"/>
				<path class="st2" d="M146.4,164c0,0,0.1,0.1,0.1,0.1c-0.1,0-0.3,0-0.4,0c0,0-0.1-0.1-0.1-0.1C146.2,164,146.3,164,146.4,164z"/>
				<path class="st5" d="M146.4,164c-0.1,0-0.3,0-0.4,0c-21.2-24.5-19.8-48-11.8-71.1c0-0.1,0.1-0.1,0.1-0.2
					C126.2,116,124.8,139.5,146.4,164z"/>
				<path class="st5" d="M146.1,164C146.1,164,146.1,164.1,146.1,164c-2,0.1-4.1,0.2-6.2,0.3c0,0-0.1-0.1-0.1-0.1
					C141.9,164.1,143.9,164,146.1,164z"/>
				<path class="st5" d="M139.8,164.3c2.6,2.3,4.1,4.3,3.8,6.4c0,0-0.1,0-0.1,0c0.3-2.1-1.3-4.2-3.9-6.3
					c-13.9-26.6-20.3-51.4-5.4-71.6c0,0,0,0,0,0.1c-14.7,20.2-8.3,45,5.5,71.4C139.8,164.3,139.8,164.3,139.8,164.3z"/>
				<path class="st4" d="M143.5,170.7c0,0,0,0.1,0,0.2c-7.2,3.4-13.5,4.9-19,5.1c-0.5,0-1,0-1.5,0c0.5,0,1-0.1,1.6-0.1
					c-0.6,0-1.2,0.1-1.7,0.1c0.6,0,1.1-0.1,1.7-0.1C130,175.5,136.4,174,143.5,170.7z"/>
				<path class="st5" d="M146.1,164c-2.1,0-4.2,0.1-6.3,0.2c0,0,0.1,0.1,0.1,0.1c0,0-0.1,0-0.1,0c-13.9-26.4-20.3-51.3-5.5-71.4
					C126.2,116,124.9,139.5,146.1,164z"/>
				<path class="st3" d="M149.1,81.8c-3.6,0.9-7.5,3.2-11.4,6.9c-0.9,0.8-1.4,1.5-2,2.2c-0.1,0-0.1,0.1-0.2,0.1
					c0.6-0.8,1.3-1.5,2-2.3C141.5,84.9,145.4,82.6,149.1,81.8z"/>
				<path class="st1" d="M124.6,175.9c-0.5,0.1-1.1,0.1-1.6,0.1c-0.4,0-0.8,0-1.3,0c0.3,0,0.6,0,0.9-0.1c0.1,0,0.1,0,0.2,0
					C123.5,175.9,124,175.9,124.6,175.9z"/>
				<path class="st1" d="M121.8,176c0.4,0,0.8,0,1.3,0c-21.5,1.7-27.9-7.1-28.6-19.8C95.1,168.7,101.4,177.2,121.8,176z"/>
				<path class="st1" d="M122.7,176c-0.3,0-0.6,0-0.9,0.1c-11-0.3-18-5.6-21-9.6c-4.5-5.3-6.2-10.4-6.3-15.6c0,0,0,0,0-0.1
					c0-0.1,0-0.1,0-0.2c0-0.5,0.1-1,0.1-1.6c-0.3,5.8,1.3,11.5,6.3,17.4C104,170.5,111.2,176,122.7,176z"/>
				<path class="st1" d="M121.8,176c-20.4,1.2-26.7-7.4-27.3-19.8c-0.1-1.5-0.1-3.1,0-4.8c0-0.2,0-0.5,0-0.7
					c0.1,5.2,1.8,10.3,6.3,15.6C103.8,170.4,110.8,175.7,121.8,176z"/>
				<path class="st7" d="M110.7,191.3c-0.2,0-0.4,0-0.5,0c-31.2-6.8-80.9-5.5-72.1-60c0.1-0.4,0.2-0.8,0.3-1.3
					C28.5,186,79.3,184.4,110.7,191.3z"/>
				<path class="st1" d="M106,90.3c7.7,23-9.5,40.4-11.2,57.4c0-0.2-0.1-0.3-0.1-0.5c1.6-13.7,13.1-27.7,13.1-44.8
					c0-3.8-0.6-7.9-2-12c-2.4-11.2-6.3-22.4-11.4-33.8c0.1,0,0.2,0,0.3,0c0,0,0,0,0,0C99.7,67.8,103.6,79.1,106,90.3z"/>
				<path class="st1" d="M99.7,97.4c0.1-16.5-3.5-37.2-16.7-63.5c4.4,7.6,8.3,15.1,11.7,22.7c-0.1,0-0.2,0-0.3,0
					c5.1,11.4,9,22.6,11.4,33.8c1.4,4.2,2,8.2,2,12c0,17-11.5,31.1-13.1,44.8C91.8,136.6,99.6,121.4,99.7,97.4z"/>
				<path class="st2" d="M99.6,97.2c0,0.1,0.1,0.1,0.1,0.2c-0.1,24-7.9,39.2-5,49.9c0,0.1,0,0.1,0,0.2
					C91.5,136.7,99.5,121.5,99.6,97.2z"/>
				<path class="st2" d="M98.5,92.3c1.3,0,1.3,2,0,2C97.2,94.3,97.2,92.3,98.5,92.3z"/>
				<path class="st8" d="M96.8,98.5c0-0.1,0.1-0.1,0.1-0.2c-1.8,10.3-3.8,20.4-8,27.1l0-0.1C93,118.7,95,108.7,96.8,98.5z"/>
				<path class="st2" d="M96.8,98.4c0,0,0,0.1,0,0.1c-3,5.4-6.2,9.8-9.4,13.1C90.7,108.2,93.8,103.8,96.8,98.4z"/>
				<path class="st4" d="M94.7,147.4c0,0.1,0,0.1,0,0.2c0,0.4-0.1,0.8-0.1,1.1v0.1c-0.1,0.6-0.1,1.1-0.1,1.7c0,0.1,0,0.1,0,0.2
					c0-0.6,0-1.1,0-1.7v-0.1c0-0.4,0.1-0.8,0.1-1.1C94.6,147.7,94.7,147.5,94.7,147.4z"/>
				<path class="st8" d="M96.8,98.5c-1.8,10.2-3.8,20.2-7.9,26.8h0l-3.8-11.6c0.3-0.2,0.5-0.4,0.8-0.7c0.5-0.4,1-0.9,1.5-1.4
					C90.6,108.3,93.8,103.9,96.8,98.5z"/>
				<polygon class="st2" points="88.9,125.3 88.9,125.4 88.9,125.3 				"/>
				<path class="st8" d="M88.9,125.4l0,0.1c-2.9,4.7-6.9,7.8-12.7,8.1c1.8-0.1,3.5-0.5,5-1.2c3.1-1.4,5.6-3.8,7.6-6.9
					C88.8,125.5,88.9,125.4,88.9,125.4z"/>
				<path class="st2" d="M85.1,113.7l3.8,11.6l-0.9-2.8L85.1,113.7c0,0.1-0.1,0.1-0.1,0.2L85.1,113.7
					C85.1,113.8,85.1,113.7,85.1,113.7z"/>
				<path class="st2" d="M88,122.6l0.9,2.8c0,0,0,0,0,0L88,122.6z"/>
				<path class="st8" d="M88,122.6l0.9,2.8c0,0,0,0.1-0.1,0.1c-2,3.2-4.4,5.6-7.6,6.9l0-0.1l-1.3-15.1c1.8-0.9,3.4-2.1,5.1-3.4
					L88,122.6z"/>
				<path class="st8" d="M88,122.6l-2.9-8.7c0,0,0.1,0,0.1-0.1L88,122.6z"/>
				<path class="st8" d="M85.1,113.7c0.3-0.2,0.5-0.4,0.8-0.7C85.6,113.3,85.4,113.5,85.1,113.7L85.1,113.7z"/>
				<path class="st4" d="M83.8,62.2c1.5,6.5,1.9,13.8,1.4,21.9c-4,7-8.5,10.5-13.5,10.7c-0.3,0-0.7,0-1,0c-3.3-0.2-6.7-1.7-10.3-4.4
					c-0.5-1.8-1-3.6-1.4-5.5c0,0,0-0.1,0-0.1C64.8,73.6,73.7,66.9,83.8,62.2z"/>
				<path class="st2" d="M85,113.8L85,113.8c-1.7,1.4-3.3,2.6-5.1,3.5c-0.4,0.2-0.7,0.3-1.1,0.5c0.3-0.2,0.7-0.3,1-0.5
					C81.6,116.4,83.3,115.2,85,113.8z"/>
				<path class="st1" d="M82.9,33.8l0,0.2c-2.1-11.7-6.3-22-25.8-23.2c0.1,0,0.2-0.1,0.4-0.1c9.5,0.7,15.4,3.5,19.1,7.7
					C80.3,22.5,81.9,28,82.9,33.8z"/>
				<path class="st1" d="M82.1,20.4l0.8,13.4c-1-5.8-2.6-11.3-6.3-15.5c-3.7-4.1-9.6-7-19.1-7.7C65.9,8.9,76.4,11.1,82.1,20.4z"/>
				<path class="st8" d="M81.2,132.4L81.2,132.4c-1.5,0.7-3.2,1.1-5,1.2c-0.6,0.1-1.3,0.1-2,0c-2.2-0.1-4.6-0.6-7.2-1.4l0.2-0.7
					l3-12c0.2,0,0.4,0,0.6,0c2.8,0,5.4-0.5,7.9-1.7c0,0,0,0,0.1,0c0.4-0.2,0.7-0.3,1.1-0.5L81.2,132.4z"/>
				<path class="st9" d="M74.8,23.3L74.8,23.3c-0.2,2.4-0.8,4.5-1.8,6.2c0,0-0.1,0-0.1,0c0,0,0-0.1,0.1-0.1
					C74,27.7,74.6,25.8,74.8,23.3z"/>
				<path class="st9" d="M74.2,23c0.2,0.1,0.4,0.2,0.6,0.3c-0.2,2.5-0.8,4.4-1.8,6.1c-10.3,2.2-15.7,0.7-16.2-4.5c0-0.4,0-0.8,0-1.2
					c0-0.6,0.1-1.2,0.3-1.9C63.9,20.1,69.4,20.9,74.2,23z M69.5,25.3l1.5-1.5l-2.1-0.3L68,21.6l-1,1.9l-2.1,0.3l1.5,1.5l-0.3,2.1
					l1.9-1l1.8,1l0-0.1l0.1,0.1L69.5,25.3z"/>
				<path class="st8" d="M73,29.4c0,0-0.1,0.1-0.1,0.1c0,0,0,0,0,0c-10.3,2.2-15.7,0.6-16.1-4.7C57.3,30.1,62.7,31.6,73,29.4z"/>
				<path class="st8" d="M78.8,117.8c-2.5,1.1-5.1,1.7-7.9,1.7C73.6,119.5,76.2,118.9,78.8,117.8z"/>
				<polygon class="st8" points="71,23.8 69.5,25.3 69.8,27.3 68,26.4 66.1,27.4 66.5,25.3 65,23.8 67.1,23.5 68,21.6 68.9,23.5 
									"/>
				<path class="st8" d="M70.2,119.4L70.2,119.4c-2.6,0-5.3-0.7-8-1.9C65,118.7,67.6,119.3,70.2,119.4z"/>
				<path class="st8" d="M57.8,122.9c0-0.5,0-1,0-1.5c0.2-2.1,1-3.7,2.4-4.8c0.3,0.2,0.7,0.3,1,0.5c0.3,0.2,0.6,0.3,1,0.4
					c2.8,1.2,5.4,1.9,8,2l-3,11.9l-0.2,0.7c-2.4-0.8-5-1.9-7.9-3.4C58.3,126.6,57.9,124.6,57.8,122.9z"/>
				<polygon class="st8" points="69.8,27.3 69.8,27.4 68,26.4 				"/>
				<polygon class="st8" points="68,21.6 67.1,23.5 65,23.8 66.5,25.3 66.1,27.4 66.4,25.3 64.9,23.8 67,23.5 				"/>
				<path class="st7" d="M110.2,191.3c-32.4-1.1-65.1-8.2-73.5-24.3c-3.3-4.7-2.8-17.5,1.3-35.7C29.3,185.8,79,184.5,110.2,191.3z"
					/>
				<path class="st8" d="M56.9,24.9c0.4,5.3,5.8,6.8,16.1,4.7c-5.6,9.2-21,7.3-22.1-1.8c-0.1-0.6-0.1-1.2,0-1.8
					c0.1-0.8,0.3-1.7,0.6-2.7c0.4-0.2,0.8-0.3,1.2-0.5c1.3-0.4,2.6-0.8,3.8-1.1c0.2-0.1,0.5-0.1,0.7-0.2c-0.2,0.7-0.2,1.4-0.3,2
					C56.8,24.1,56.8,24.5,56.9,24.9z"/>
				<path class="st8" d="M61.2,117.1c0.3,0.2,0.6,0.3,1,0.4C61.9,117.4,61.5,117.2,61.2,117.1z"/>
				<path class="st2" d="M60.2,116.6c0.3,0.2,0.7,0.3,1,0.5C60.9,116.9,60.6,116.8,60.2,116.6z"/>
				<path class="st4" d="M60.3,90.3c3.6,2.8,7.1,4.3,10.3,4.4c-3.3-0.1-6.7-1.7-10.4-4.4c-0.5-1.8-0.9-3.7-1.4-5.5
					c0,0,0-0.1,0.1-0.1c0,0,0,0.1,0,0.1C59.3,86.7,59.8,88.5,60.3,90.3z"/>
				<path class="st2" d="M60.2,116.6C60.2,116.6,60.2,116.6,60.2,116.6c-1.3,1.2-2.1,2.8-2.3,4.9C58,119.4,58.8,117.7,60.2,116.6z"
					/>
				<path class="st7" d="M70.9,40c-16.9,5.2-21.8,0.6-20.8-8.7C50.8,35.7,53.8,39.5,70.9,40z"/>
				<path class="st8" d="M51.4,23.2c0.4-0.1,0.8-0.2,1.2-0.4C52.2,23,51.8,23.1,51.4,23.2c-0.3,1-0.5,1.9-0.6,2.8
					C50.9,25.1,51.1,24.2,51.4,23.2z"/>
				<path class="st7" d="M47.3,98.7c3.9-20.3,0.2-37.2-14.7-49.3C46,56,51.4,70.2,51.4,85.8c0,15.3-5.2,32-13.1,44.1
					C40.4,120.7,43.4,110.2,47.3,98.7z"/>
				<path class="st7" d="M57.1,10.6c-8.1,5-12.7,11.1-7,20.7C39,22.1,46.3,13,57.1,10.6z"/>
				<path class="st1" d="M17.9,19.5c12.9-5.8,23,2.1,21.3,16.6c-0.5-2.8-1.2-5.3-2.2-7.5c-0.3-0.7-0.6-1.3-1-1.9
					c-0.1-0.1-0.2-0.3-0.3-0.4c-0.1-0.2-0.3-0.5-0.5-0.7c-0.1-0.2-0.3-0.4-0.4-0.6c-0.2-0.2-0.3-0.4-0.5-0.6
					c-0.2-0.2-0.3-0.4-0.5-0.6c-0.2-0.2-0.4-0.4-0.5-0.5c-0.2-0.2-0.4-0.3-0.6-0.5c-0.2-0.2-0.5-0.4-0.7-0.6
					c-0.1-0.1-0.3-0.2-0.5-0.3c-0.4-0.3-0.8-0.5-1.2-0.7c-0.2-0.1-0.5-0.2-0.7-0.4C26.6,19.4,22.7,18.9,17.9,19.5z"/>
				<path class="st7" d="M32.1,49c27.3,12.6,22.3,56.3,6.2,81c0,0,0-0.1,0-0.1c7.9-12.1,13.1-28.8,13.1-44.1
					c0-15.6-5.4-29.9-18.8-36.4C32.4,49.3,32.3,49.1,32.1,49z"/>
				<path class="st2" d="M38.2,130.1c0-0.1,0.1-0.1,0.1-0.2c0,0,0,0.1,0,0.1c-0.1,0.4-0.2,0.9-0.3,1.3
					C38.1,130.9,38.2,130.5,38.2,130.1z"/>
				<path class="st1" d="M36,26.7c-0.1-0.1-0.2-0.3-0.3-0.4C35.8,26.4,35.9,26.6,36,26.7z"/>
				<path class="st1" d="M35.3,25.6c-0.1-0.2-0.3-0.4-0.4-0.6C35,25.2,35.1,25.4,35.3,25.6z"/>
				<path class="st1" d="M34.8,25c-0.2-0.2-0.3-0.4-0.5-0.6C34.5,24.6,34.7,24.8,34.8,25z"/>
				<path class="st1" d="M33.8,23.9c-0.2-0.2-0.4-0.4-0.5-0.5C33.5,23.5,33.7,23.7,33.8,23.9z"/>
				<path class="st8" d="M33.3,33.7c0.6,0.3,1.1,0.7,1.7,1.2C34.4,34.5,33.9,34.1,33.3,33.7z"/>
				<path class="st8" d="M33.3,33.7c0.6,0.4,1.1,0.8,1.7,1.2C29.4,51.2,14,45.2,8.8,37c0.7-0.5,1.4-0.9,2.1-1.3
					c1.9-1.2,3.8-2.2,5.6-2.9c0.1-0.1,0.3-0.1,0.4-0.2c-0.2,1.9,0.2,3.6,0.9,4.9c0.1,0.2,0.2,0.4,0.4,0.6c0,0,0,0,0,0
					c2.4,3.4,7.4,4.3,11.2,1.3C31,38.2,32.4,36.3,33.3,33.7z"/>
				<path class="st1" d="M33.3,23.3c-0.2-0.2-0.4-0.3-0.6-0.5C32.9,23,33.1,23.1,33.3,23.3z"/>
				<path class="st9" d="M31.7,32.8c0.5,0.3,1.1,0.6,1.7,0.9c-0.9,2.6-2.3,4.5-3.9,5.7l-1.1-1.1v0l-0.4-2l1.6-1.5l-0.2,0l0.1-0.1
					l-2-0.3l-0.5-0.9l-0.5-1l0.2-1.2C28.3,31.5,30,32,31.7,32.8z"/>
				<path class="st1" d="M32,22.2c-0.1-0.1-0.3-0.2-0.5-0.3C31.7,22,31.8,22.1,32,22.2z"/>
				<path class="st7" d="M31.4,48.4c-0.1,0-0.2,0.1-0.3,0.1c-16.1,2.3-18.8-2.6-20.4-8.1H10c0,0,0-0.1,0-0.1h0.9
					C12.5,45.8,15.2,50.8,31.4,48.4z"/>
				<polygon class="st8" points="29.5,34.8 27.9,36.3 27.9,36.2 29.4,34.8 				"/>
				<path class="st9" d="M28.3,38.3l1.1,1.1c-3.8,2.9-8.9,2.1-11.2-1.3c0,0,0,0,0,0c-0.1-0.2-0.3-0.4-0.4-0.6
					c-0.7-1.3-1.1-3-0.9-4.9c2.6-0.9,5.1-1.4,7.6-1.4c0.4,0,0.7,0,1.1,0c0.4,0,0.7,0,1,0.1l-0.2,1.2l0,0l0,0.1l-0.9,1.9l-2.1,0.3
					l1.5,1.5l-0.4,2.1l1.9-1L28.3,38.3z"/>
				<polygon class="st8" points="29.4,34.8 27.9,36.2 27.9,36.3 27.9,36.3 28.3,38.3 28.3,38.3 26.4,37.4 24.6,38.3 24.9,36.3 
					23.4,34.8 25.5,34.5 26.4,32.6 26.9,33.5 27.3,34.4 27.4,34.4 27.4,34.5 				"/>
				<path class="st9" d="M26.6,31.2c1.7,0.3,3.4,0.8,5,1.6C30,32,28.3,31.5,26.6,31.2C26.6,31.3,26.6,31.3,26.6,31.2L26.6,31.2z"/>
				<polygon class="st8" points="26.9,33.5 27.4,34.4 27.3,34.4 				"/>
				<path class="st9" d="M26.6,31.3l-0.2,1.2l0,0L26.6,31.3C26.6,31.3,26.6,31.3,26.6,31.3z"/>
				<path class="st9" d="M25.6,31.2c-0.4,0-0.7,0-1.1,0C24.8,31.1,25.2,31.2,25.6,31.2z"/>
				<path class="st7" d="M10.7,40.4c1.6,5.5,4.3,10.4,20.4,8.1C19.9,53,12,52,10,40.4H10.7z"/>
				<path class="st9" d="M16.9,32.6c2.6-1,5.1-1.5,7.6-1.4C22,31.2,19.5,31.7,16.9,32.6z"/>
				<path class="st7" d="M11.7,23.2c1.5-1.2,3.1-2.1,4.6-2.9c-3.1,2.8-5.2,5.3-6.7,7.6c-0.3,0.5-0.6,0.9-0.8,1.3
					C5.5,35,7,38.8,9.8,40.3C-0.1,39.9-1.2,35.1,11.7,23.2z"/>
				<path class="st8" d="M16.5,32.8c-1.8,0.7-3.7,1.7-5.6,2.9C12.8,34.5,14.6,33.5,16.5,32.8z"/>
				<path class="st2" d="M10,40.3c0,0,0,0.1,0,0.1h0c-0.1,0-0.1-0.1-0.2-0.1C9.9,40.3,10,40.3,10,40.3z"/>
				<path class="st7" d="M10,40.3c-0.1,0-0.1,0-0.2,0C7,38.8,5.5,35,8.8,29.2C5.6,35,7.1,38.9,10,40.3z"/>
			</g>
			<g>
				<path class="st10" d="M61.1,103c-1.6,6.2-4.6,8.3-8,8.8c2.4,2,4.8,3.6,7,4.8c0,0,0.1,0,0.1,0c0.3,0.2,0.7,0.3,1,0.5
					c0.3,0.2,0.6,0.3,1,0.4c2.8,1.2,5.4,1.9,8,2c0,0,0,0,0,0c0.2,0,0.4,0,0.6,0c2.8,0,5.4-0.5,7.9-1.7c0,0,0,0,0.1,0
					c0.3-0.2,0.7-0.3,1-0.5c1.8-0.9,3.5-2.1,5.2-3.5c0,0,0.1-0.1,0.1-0.1c0.3-0.2,0.5-0.4,0.8-0.7c0.5-0.4,1-0.9,1.5-1.4
					c3.3-3.4,6.5-7.8,9.5-13.2c0,0,0,0.1,0,0.1c-1.8,10.2-3.8,20.2-7.9,26.8h0c0,0,0,0,0,0c0,0,0,0.1-0.1,0.1
					c-2,3.2-4.4,5.6-7.6,6.9c-1.5,0.6-3.2,1.1-5,1.2c-0.6,0.1-1.3,0.1-2,0c-2.2-0.1-4.6-0.6-7.3-1.4c-2.4-0.8-5-1.9-7.9-3.4
					c-1.9-1-3.9-2.1-6-3.4c-1.3,3.6,0.1,8.4,3.8,14"/>
				<path class="st10" d="M60.2,116.5C60.2,116.5,60.2,116.5,60.2,116.5c-1.5,1.2-2.2,2.9-2.4,4.9c0,0.5,0,1,0,1.5
					c0.1,1.7,0.5,3.6,1.3,5.7"/>
				<polyline class="st10" points="70.2,119.4 70.2,119.5 67.2,131.4 				"/>
				<line class="st10" x1="79.9" y1="117.3" x2="81.2" y2="132.4"/>
				<polyline class="st10" points="85,113.8 85,113.9 88,122.6 88.9,125.3 88.9,125.4 				"/>
				<path class="st10" d="M93,94.6c2.7,0,5.3,0.3,6.6,2.6c0,0.1,0.1,0.1,0.1,0.2c0.2,0.3,0.3,0.6,0.4,0.9"/>
			</g>
		</g>
	</g>
</g>
</svg>
