<?xml version="1.0" encoding="utf-8"?>
<!-- Generator: Adobe Illustrator 22.0.0, SVG Export Plug-In . SVG Version: 6.00 Build 0)  -->
<svg version="1.1" id="Layer_1" xmlns="http://www.w3.org/2000/svg" xmlns:xlink="http://www.w3.org/1999/xlink" x="0px" y="0px"
	 viewBox="0 0 200 150" style="enable-background:new 0 0 200 150;" xml:space="preserve">
<style type="text/css">
	.st0{fill:#F16B5E;}
	.st1{fill:#DB4842;}
	.st2{fill:#F05645;}
	.st3{fill:#631516;}
	.st4{fill:#FFFFFF;}
	.st5{fill:#F1634F;}
	.st6{fill:#F1644E;}
	.st7{fill:#C6524F;}
	.st8{fill:#F16A57;}
	.st9{fill:#EF5043;}
	.st10{fill:#C14F49;}
</style>
<g>
	<ellipse class="st0" cx="140.9" cy="62.7" rx="8.8" ry="1.6"/>
	<g id="XMLID_1_">
		<g>
			<path class="st1" d="M155.4,64c47.2,15.6,54.9,61.9,19.4,80.3c29.1-17.2,32.9-59.2-21.3-80.6C154.2,63.8,154.8,63.9,155.4,64z"/>
			<path class="st2" d="M155.4,64c-0.7-0.1-1.3-0.2-1.9-0.3c-0.4-0.2-0.8-0.3-1.3-0.5c-0.2-0.1-0.5-0.3-0.7-0.4
				C152.9,63.2,154.2,63.5,155.4,64z"/>
			<path class="st2" d="M151.6,62.8c0.2,0.1,0.5,0.3,0.7,0.4c-0.7-0.3-1.4-0.5-2.1-0.8C150.7,62.5,151.2,62.7,151.6,62.8z"/>
			<path class="st2" d="M152.8,63.5c-0.9-0.2-1.8-0.6-2.6-1.1c0,0,0,0-0.1,0c0.7,0.3,1.4,0.5,2.1,0.8
				C152.5,63.3,152.7,63.4,152.8,63.5z"/>
			<path class="st1" d="M152.8,63.5c40.6,23.7,42.7,45.8,32.2,67.4c12.4-28-3.6-49.8-34.8-68.5C151,62.9,151.9,63.3,152.8,63.5z"/>
			<path class="st1" d="M150.2,62.4c-0.1,3.8,3.6,6.9,8.3,10c-7.4-3.5-15.3-6.4-24.1-8.5C139.5,63.6,144.8,63.1,150.2,62.4z"/>
			<path class="st3" d="M132,50.4l-3.7,1l-1.2,3.6l-2.1-3.2l-3.8-0.1l2.4-3l1.3-0.3c0.1,0.4,0.7,0.9,1.6,1.3c1,0.4,1.9,0.4,2.2,0
				c0.2-0.3,0.3-0.7-0.1-1l0.5-0.6L132,50.4z"/>
			<path class="st4" d="M128.5,48.7c0.4,0.3,0.3,0.8,0.1,1c-0.2,0.4-1.1,0.4-2.2,0c-0.9-0.3-1.6-0.9-1.6-1.3c0-0.1,0-0.1,0-0.2
				c0.2-0.4,1-0.1,2.2,0C127.8,48.3,128.2,48.5,128.5,48.7z"/>
			<path class="st3" d="M129.1,44.3l-0.2,3.8l-0.5,0.6c-0.3-0.2-0.7-0.4-1.5-0.4c-1.1-0.1-2-0.4-2.2,0c0,0.1,0,0.1,0,0.2l-1.3,0.3
				l-1.1-3.7l3.6,1.3L129.1,44.3z"/>
			<path class="st1" d="M85.9,109.5c11.2-13,22.5-24.1,34.2-28c-0.1,0.5-0.3,1-0.4,1.5C109.4,86.3,97.8,97.3,85.9,109.5z"/>
			<path class="st1" d="M86.9,112.2c9.9-11.1,20-20.8,31.3-22.4c-0.4,0.5-0.9,1-1.4,1.5C106.9,94.3,96.9,102.6,86.9,112.2z"/>
			<path class="st1" d="M111,64.8c1.5,0,2.9,0,4.4,0c6.3,1.5,12,4.1,17.4,7.5C126.6,69.3,119.1,66.9,111,64.8z"/>
			<path class="st1" d="M111,64.8c5.8,2.6,11.3,5.6,16.3,9.3c-5.8-4-12.6-6.9-19.9-9.3C108.5,64.8,109.7,64.8,111,64.8L111,64.8z"/>
			<path class="st5" d="M79.8,106.7c7.1-11.5,16.3-23.8,37.2-32.2c3.2,0.6,4,3,3,7h0c-11.7,3.9-23,15-34.2,28
				c11.9-12.2,23.5-23.2,33.8-26.6c2.4,0.9,1.7,3.3-1.4,6.9c-11.3,1.6-21.4,11.3-31.3,22.4c10-9.6,20-17.9,29.9-20.9
				c1.4,1.5,1.2,3-0.9,4.5l-6.6,4.9c-7.3,2-14,5.8-19.4,12.9c5-4.8,10.5-9.4,17.4-11.3c-4.2,5.7-9.8,11.2-16.2,15.8
				c-5.3,1.6-9.3,1.4-10.8-2C74.6,114.5,71.8,112.2,79.8,106.7z"/>
			<path class="st6" d="M148.9,60.5c-28.6-4-48.8,1.2-42.4-7.5c-0.3-2.4,19,3.4,42.5,7.6C149,60.5,148.9,60.5,148.9,60.5z"/>
			<path class="st1" d="M124.3,77.8c-5.9-6.7-13.1-10.7-21-13.2c1.3,0.1,2.7,0.1,4,0.1C114.2,68,119.7,72.4,124.3,77.8z"/>
			<path class="st2" d="M123.5,48.8l-2.4,3l3.8,0.1l2.1,3.2l1.2-3.6l3.7-1l-3.1-2.3l0.2-3.8l-3.1,2.2l-3.6-1.3L123.5,48.8z
				 M149,60.5c-23.4-4.2-42.8-10-42.5-7.6c-6.4,8.8,13.7,3.6,42.4,7.5C148.9,60.5,149,60.5,149,60.5z M60.6,21.6
				c1.6-0.2,3.3-0.3,5-0.3c-1.4,0.3,6.1,4.6,9.3,4.8c-3.1,0.1-5.2,0.9-5.9,2.6c-1.6,3.8,5.6,10.5,16,14.9
				c10.5,4.4,20.2,4.9,21.9,1.1c1.2-2.8-2.3-7.1-8.3-10.9c9.7,1.7,20.5,5.7,31.9,11.1c0.1,0.1,0.3,0.1,0.4,0.2
				c0,0.1,0.3,0.2,0.6,0.3c12.5,6.8,24.7,13.6,30.3,18.6c-2.2,0.1-4.4,0.1-6.4-0.1c-1.2-0.4-2.5-0.8-3.8-1.2
				c-0.5-0.1-0.9-0.3-1.4-0.4c-5.4,0.6-10.7,1.1-15.9,1.5h0c-0.5,0-1,0.1-1.5,0.1c0,0-0.1,0-0.1,0C94.5,66,65.4,57,56.5,23.6
				c-0.1-0.5-0.3-1-0.4-1.5C57.6,21.9,59.1,21.7,60.6,21.6z"/>
			<path class="st7" d="M65.7,21.3c29.4,0.4,84,31.2,92.2,25.2c-0.7,5.2-22.2,0.4-26.3-1.1c-0.2-0.1-0.4-0.2-0.6-0.3
				c-0.1-0.1-0.3-0.1-0.4-0.2c-11.5-5.4-22.3-9.4-31.9-11.1c-2.3-1.4-4.9-2.8-7.7-4c-6-2.5-11.8-3.8-15.9-3.6c0,0,0,0,0,0
				C71.8,25.9,64.2,21.6,65.7,21.3z"/>
			<path class="st1" d="M107.2,102.2c-6.9,1.9-12.4,6.5-17.4,11.3c5.5-7,12.1-10.8,19.4-12.9L107.2,102.2z"/>
			<path class="st8" d="M69.1,28.7c0.7-1.6,2.9-2.5,5.9-2.6c0,0,0,0,0,0c4.1-0.1,9.9,1.1,15.9,3.6c2.9,1.2,5.5,2.6,7.7,4
				c6,3.8,9.5,8.1,8.3,10.9c-1.6,3.8-11.4,3.4-21.9-1.1C74.6,39.2,67.4,32.5,69.1,28.7z"/>
			<path class="st2" d="M45.8,129.9c7.4-7,12.1-15.8,12-27.7c6.3,3.6,13.2,6,22.1,4.5c-12.4,3.8-5.9,9.8,0,10.7
				c0.9,3.5,4.2,4,10.6,1.1C77.4,127.6,61.1,133.2,45.8,129.9z"/>
			<path class="st1" d="M79.8,106.7c-8,5.4-5.3,7.8,0.4,9.3c1.5,3.4,5.5,3.5,10.8,2c-0.2,0.1-0.4,0.3-0.6,0.4
				c-6.3,3-9.6,2.4-10.6-1.1C74,116.5,67.4,110.5,79.8,106.7z"/>
			<path class="st9" d="M70.6,56.2c-6.9-8.4-10.9-20.1-14.1-32.6C65.4,57,94.5,66,132.8,64c-6,0.4-11.8,0.7-17.4,0.8
				c-1.5,0-3,0-4.4,0h0h0c-1.2,0-2.4,0-3.6-0.1c-1.4,0-2.7-0.1-4-0.1C89.8,64,78.4,61.5,70.6,56.2z"/>
			<path class="st7" d="M51.7,94.8c1.9-1.2,4.2-2.1,6.6-2.9c2.6-0.3,5.2-0.1,7.5,0.8c-2.6,0.4-5.1,0.8-5.9,2.1
				c-0.1,2.7-0.8,5.1-2.2,7.4c-2.3-1.3-4.6-2.8-6.8-4.2C51.3,96.9,51.6,95.8,51.7,94.8z"/>
			<path class="st1" d="M68.3,62.7c-2.9,3.8-8.3,5.2-13.2,4c6.1-0.9,12.1-2.2,15.4-10.4C70.5,58.9,69.6,61,68.3,62.7z"/>
			<path class="st7" d="M78.5,86.3C77,72,62.7,69.6,55.2,66.7c4.8,1.2,10.2-0.2,13.2-4c1.4,0.9,2.7,2.1,3.8,4
				C83.4,72.5,86.6,81.5,85.9,92c-1.4-16.1-7.5-21.1-15.3-22.3C76,73.6,78.1,79.4,78.5,86.3z"/>
			<path class="st1" d="M70.6,56.2C62,52.7,58.9,37.7,56.2,22.2c0.1,0.5,0.2,1,0.4,1.5C59.7,36.2,63.7,47.8,70.6,56.2z"/>
			<path class="st10" d="M52.7,76.8c3.9-1.4,4.9-5.9,2.5-10.1l9.4,5.1c9.4,3.8,11.4,11.2,13,18.8c0.1,0.5,0.2,1,0.3,1.5
				c-2.5-8.4-5.8-15.4-12.9-15.9C61.4,78.8,57,77.8,52.7,76.8z"/>
			<path class="st1" d="M57.7,102.2c0.2,11.9-4.6,20.7-12,27.7c-0.8-0.2-1.5-0.3-2.3-0.5C50.7,123.1,55.9,114.5,57.7,102.2z"/>
			<path class="st8" d="M55,25.2c0.8,1.6-2,4.6-6.2,6.8s-8.3,2.7-9.2,1.2c-0.1-0.3-0.2-0.6-0.1-0.9c0.3-1.7,2.8-4.1,6.3-5.9
				c1.5-0.8,2.9-1.3,4.2-1.7C52.6,24,54.5,24.2,55,25.2z"/>
			<path class="st2" d="M55.2,66.7C42.4,54.8,37,42.3,38.3,32.1l1.2,0.2c-0.1,0.3,0,0.7,0.1,0.9c0.8,1.6,4.9,1,9.2-1.2
				s7-5.3,6.2-6.8c-0.5-1-2.5-1.1-5-0.5l-0.3-1.2c2-0.5,4.2-1,6.4-1.3c2.8,15.5,5.9,30.6,14.4,34.1C67.3,64.4,61.3,65.8,55.2,66.7z"
				/>
			<path class="st10" d="M47.1,87.1c3.3-0.9,5.3-7.7,1.4-10c1.6,0.2,3,0.1,4.1-0.3h0c2,0.5,3.9,1.1,5.1,2.6
				c11.7-2,15.1,6.1,16.9,16.1c0-0.2-0.1-0.3-0.1-0.5c-3.6-12.8-8.8-16.2-15.3-11.4l-1.5,1.9c8.4-1.1,13.4,2.4,15.6,9.8
				c0.3,0.9,0.5,1.9,0.7,2.9c-0.1-0.3-0.3-0.6-0.4-0.9c-3-8.5-8.3-12.3-16.5-10.1v1.9c2.6-2.6,13.6,3.2,16.5,8.2
				c0.2,0.6,0.4,1.2,0.6,1.9c-0.1-0.3-0.1-0.7-0.2-1c0.3,0.9,0.4,1.7,0.1,2.4c-1.4-4-4.5-6.8-8.3-8.1h0c-2.3-0.8-4.9-1.1-7.5-0.8
				c-2.3,0.3-4.5,1-6.5,2.3C52,91.1,50.9,88.6,47.1,87.1z"/>
			<path class="st2" d="M49.8,23.5l0.3,1.2c-1.3,0.3-2.7,0.9-4.2,1.7c-3.5,1.8-6,4.2-6.3,5.9l-1.2-0.2c0.2-1.8,0.7-3.5,1.3-5.1v0
				C42.8,25.6,46.2,24.4,49.8,23.5z"/>
			<path class="st2" d="M16.9,109.5c4.6-4.2,12.4-8.2,34-11.5c2.2,1.5,4.5,2.9,6.8,4.2c-1.9,12.3-7,20.9-14.2,27.2
				c-4-1.1-8-2.9-11.8-5.3C25.7,119.9,20.7,115,16.9,109.5z"/>
			<path class="st2" d="M47.1,87.1c-15,0-28.6-3-40.5-10c0-10.5,3-21,8.8-30c10,15.8,20.9,26.4,33.1,30
				C52.4,79.3,50.4,86.2,47.1,87.1z M10,74.4c1.9,0.7,5.1-2.9,7.1-8.2c2-5.3,2.1-10.1,0.2-10.9c-1.9-0.7-5.1,2.9-7.1,8.2
				C8.1,68.8,8.1,73.7,10,74.4z"/>
			<path class="st1" d="M55.2,66.7c-11.8-8-19.5-19.5-18.7-38.2v0c1-0.5,2.1-1,3.2-1.5c-0.6,1.6-1.1,3.3-1.3,5.1
				C37,42.3,42.4,54.8,55.2,66.7z"/>
			<path class="st2" d="M33.3,34.4c-1.4-1.1-4.9,1.1-7.8,4.9S21.3,47,22.7,48c1.4,1.1,4.9-1.1,7.8-4.9
				C33.4,39.4,34.7,35.4,33.3,34.4z M17.5,44.3c4.8-6.3,11.1-11.8,18.9-15.8c-0.8,18.7,6.9,30.2,18.7,38.2c2.4,4.2,1.4,8.8-2.5,10.1
				h0c-1.1,0.4-2.5,0.5-4.1,0.3C32.4,68.4,22.1,57.2,17.5,44.3L17.5,44.3z"/>
			<path class="st8" d="M33.3,34.4c1.4,1.1,0.1,5-2.8,8.8c-2.9,3.8-6.4,6-7.8,4.9c-1.4-1.1-0.1-5,2.8-8.8S31.9,33.3,33.3,34.4z"/>
			<path class="st1" d="M6.6,77.1c11.9,6.9,25.5,10,40.5,10c-14.6,1-28.2-1.3-40.4-7.6C6.7,78.7,6.6,77.9,6.6,77.1z"/>
			<path class="st1" d="M50.9,98c-21.7,3.3-29.4,7.4-34,11.5c-0.5-0.7-1-1.4-1.4-2.1l0,0C28.3,99.6,39.5,97.9,50.9,98z"/>
			<path class="st1" d="M17.5,44.3c4.6,12.9,14.9,24.1,31,32.8c-12.1-3.6-23-14.2-33.1-30C16.1,46.2,16.8,45.2,17.5,44.3z"/>
			<path class="st8" d="M17.1,66.2c-2,5.3-5.2,8.9-7.1,8.2c-1.9-0.7-1.8-5.6,0.2-10.9c2-5.3,5.2-8.9,7.1-8.2
				C19.2,56.1,19.1,61,17.1,66.2z"/>
			<path class="st2" d="M6.7,79.5c12.3,6.2,25.8,8.6,40.4,7.6c3.8,1.5,4.9,4,4.7,7.1c0,0.2,0,0.4-0.1,0.6c-0.1,1-0.4,2.1-0.8,3.2
				c-11.4-0.1-22.6,1.7-35.4,9.4l0,0C10,98.8,7.1,89.2,6.7,79.5z"/>
		</g>
		<g>
		</g>
	</g>
</g>
<circle class="st4" cx="124.8" cy="47.3" r="0.8"/>
</svg>
