<?xml version="1.0" encoding="utf-8"?>
<!-- Generator: Adobe Illustrator 22.1.0, SVG Export Plug-In . SVG Version: 6.00 Build 0)  -->
<svg version="1.1" id="Layer_3" xmlns="http://www.w3.org/2000/svg" xmlns:xlink="http://www.w3.org/1999/xlink" x="0px" y="0px"
	 viewBox="0 0 300 300" style="enable-background:new 0 0 300 300;" xml:space="preserve">
<style type="text/css">
	.st0{fill:#3A0C37;}
	.st1{fill:#9B85A6;}
	.st2{fill:#E4DED9;}
	.st3{fill:#4F2E64;}
	.st4{fill:#5F3B76;}
	.st5{fill:#511723;}
	.st6{fill:#210131;}
	.st7{fill:#240034;}
	.st8{fill:#956C7D;}
	.st9{fill:#CC658F;}
	.st10{fill:#FBB7BA;}
	.st11{fill:#AA4777;}
	.st12{fill:#D699AB;}
	.st13{fill:#E0CECF;}
	.st14{fill:#190029;}
	.st15{fill:#FFE2EC;}
	.st16{fill:#B595A6;}
	.st17{fill:#E2A2AB;}
	.st18{fill:#FFF5F4;}
	.st19{fill:#C56692;}
	.st20{fill:#B7276D;}
	.st21{fill:#DB89AB;}
	.st22{fill:#EF91A7;}
	.st23{fill:#DB6EA0;}
	.st24{fill:#CA5684;}
	.st25{fill:#A77082;}
	.st26{fill:#DCC7C4;}
	.st27{fill:#DCC273;}
	.st28{fill:#CD7B7C;}
	.st29{fill:#020B0A;}
	.st30{fill:#FFB6B8;}
	.st31{fill:#E4779E;}
	.st32{fill:#DE81A9;}
	.st33{fill:#E081A4;}
	.st34{fill:#AB4E89;}
	.st35{fill:#AD4880;}
	.st36{fill:#BE5D8E;}
</style>
<g>
	<g id="XMLID_1_">
		<g>
			<path class="st0" d="M252,116c7.3,10.8,4.9,29.9-0.7,51.9c-0.5-9.2,0.1-19-0.5-28.2C252.7,132.8,253.8,125.4,252,116z"/>
			<path class="st1" d="M252,116c1.9,9.4,0.7,16.8-1.2,23.7c-0.6-9.5-2.4-18.4-8-25.1c-0.1-0.3-0.2-0.5-0.3-0.7
				c0.2-0.3,0.2-0.6,0.2-0.6l1.2-1.2h1.2l1.2,1.2l2.3,1.2l1.8-0.9c0.2,0.3,0.3,0.6,0.5,0.9C251.2,114.9,251.6,115.4,252,116z"/>
			<path class="st2" d="M242.5,113.8c-7.1-15.4-16.2-31.4-38.5-40.7c2.6-0.5,5.3-1.3,8.1-2.3c17.6,15,30.9,29.3,38.2,42.7l-1.8,0.9
				l-2.3-1.2L245,112h-1.2l-1.2,1.2C242.7,113.2,242.7,113.5,242.5,113.8z"/>
			<path class="st3" d="M238.1,115.5V112l2.3,1.2c0,0,0,1.2,1.2,1.2c0.4,0,0.7-0.1,0.8-0.3c0.2,0.2,0.3,0.4,0.5,0.6
				c5.5,6.7,7.4,15.6,8,25.1c0.6,9.2,0,19,0.5,28.2c-3,12-7,24.8-10.9,37.6c-3.5,10.7-7.9,13.4-12.7,13.8c12.8-39.7,30-75,9.5-104.7
				C237.5,114.9,237.8,115.2,238.1,115.5z"/>
			<path class="st4" d="M235.2,119.2c11.5,15.9,10,35.7,4.1,56.8c2.2-22.3,1.8-42.2-6.4-54.7c0.9,0,1.7,0,1.7,0l1.2-1.2
				C235.6,119.8,235.4,119.5,235.2,119.2z"/>
			<path class="st5" d="M235.8,110.9c-0.1-0.1-0.2-0.2-0.3-0.3c-9.9-8.8-20.6-16.7-26.7-24.3h0c-0.2-0.3-0.4-0.5-0.6-0.8
				C223.4,93,233.5,101.3,235.8,110.9z"/>
			<path class="st6" d="M224.3,219c3.2-33.8,15.3-74.7-6.3-88.5c0.8,0,1.6,0,1.6,0s1.2,0,1.2-1.2c0-1.2,0-1.2,0-1.2l3.5-2.3
				c0,0,0,0,1.2,0c1.2,0,3.5-2.3,3.5-2.3c1.2-1.2,1.2-4.6,1.2-4.6s0.4-0.2,0.8-0.3c0.7-0.2,1.5-0.4,1.5,0.3c0,0.4-0.1,0.8-0.3,1.1v0
				c-0.3,0.7-0.5,1.2,0.3,1.2c0.2,0,0.4,0,0.6,0c8.2,12.5,8.6,32.4,6.4,54.7C235.4,190,229.5,204.6,224.3,219z"/>
			<path class="st7" d="M224.3,219c-9.5-3.9,1.6-41.2-15.1-72.4l-1.4-1.6l3.7-1.9v-3.5l-1.2-2.3l1.2-1.2c0,0,2.3,1.2,2.3,0
				c0-1.2,1.2-2.3,1.2-3.5c0-1.2,0-1.2,0-1.2s0-1.2,1.2-1.2c0.5,0,1.2,0,1.9,0C239.6,144.3,227.5,185.2,224.3,219z"/>
			<path class="st8" d="M188.5,105.1c0-1.2,0,0,2.3-1.2c0.1-0.1,0.3-0.1,0.4-0.2c13.3,8.7,23.9,17.5,26.9,26.7c-0.7,0-1.4,0-1.9,0
				c-1.2,0-1.2,1.2-1.2,1.2s0,0,0,1.2c0,1.2-1.2,2.3-1.2,3.5c0,1.2-2.3,0-2.3,0l-1.2,1.2l1.2,2.3v3.5l-3.7,1.9l-11.4-13.1v0
				c1.6-5.3-1.9-12.5-9.3-21.1c0.1,0,0.1,0,0.2,0l1.2-1.2v-1.2l1.2-1.2C189.6,107.4,188.5,106.3,188.5,105.1z"/>
			<path class="st9" d="M210.4,69.4c0.6,0.5,1.1,0.9,1.7,1.4c-2.8,1-5.5,1.8-8.1,2.3c-5,1-9.5,0.9-13.2-1.4c-1.4,0-2.8-0.3-4-0.8
				l0,0l0,0c-2.6-1.1-4.9-3.1-7-5.8c-0.9-1.1-1.8-2.4-2.6-3.8c4.3-0.8,6.5-3.1,4.9-8.2c9.6,10.9,18.9,14.2,27.8,8.2
				C211.1,64.1,211.3,66.8,210.4,69.4z"/>
			<path class="st10" d="M209.9,61.3c-9,6-18.3,2.8-27.8-8.2v0c-0.9-1-1.8-2.2-2.8-3.4c-4.9-5.4-9.9-10.1-15-14.2
				c-14.5-11.4-29.9-17.6-45.9-20.2c-9.1-1.5-18.5-1.8-27.9-1.2c20.3-17.2,46-14,75,2C187.9,37.6,205.4,50.8,209.9,61.3z"/>
			<path class="st11" d="M187.1,110.8c7.4,8.6,11,15.8,9.3,21.1l-2.2-2.6c-12.6-15.6-53.9-2.4-75-13.8c-11.5-8.5-15-5-10.4,10.4
				c6.1,11.6,12.1,22.6,17.9,33.3c-14.8-7-28.8-16.5-39.8-35c-2.9-4.9-5.6-10.4-8.1-16.7c-0.8-16.5,2.2-28.9,18.9-26.5
				c3.4,0.5,7.5,1.6,12.2,3.5C127.7,99.2,157.1,105.3,187.1,110.8z"/>
			<path class="st12" d="M196.5,89l-1.2,1.2l-1.2-1.2l-1.2-1.2c0,0,0,0,0-1.2s0-1.2,0-1.2l-1.2-1.2h-2.3c0,0,0,0-1.2-1.2
				c-1.2-1.2,0-1.2,0-1.2s0,0-2.3-2.3c-2.3-2.3,0-1.2-1.2-2.3c-1.2-1.2,1.2-1.2,0-1.2s-1.2-2.3-1.2-2.3l-1.2-2.3l4-0.8c0,0,0,0,0,0
				l0.6,0.8c0,0,1.2,1.2,2.3,2.3c1.2,1.2,1.2,2.3,1.2,3.5c0,1.2,1.2,0,2.3,1.2c1.2,1.2,2.3,1.2,2.3,1.2l3.3,5.8v0
				c-0.2,0.4-0.2,0.7,0.2,1.2c0.4,0.4,0.7,0.7,0.9,0.9c0.3,0.3,0.3,0.3,0.3,0.3L196.5,89z"/>
			<path class="st13" d="M191.9,92.4h1.2v-1.2c0,0,0,0,1.2,0s1.2,0,1.2,0v-1.2l1.2-1.2l3.5-1.2c0,0,0,0-0.3-0.3
				c-0.2-0.2-0.4-0.4-0.9-0.9c-0.4-0.4-0.4-0.8-0.2-1.2v0c0.4-0.7,1.3-1.1,1.3-1.1l8.7,1.9h0c6.1,7.6,16.8,15.5,26.7,24.3l-1.2,1.3
				C224.5,104,209,97.9,191.9,92.4z"/>
			<path class="st14" d="M193,94c-0.4-0.1-0.7-0.3-1.1-0.4v-1.2c17.1,5.5,32.6,11.5,42.3,19.5c1.1,0.9,2.1,1.8,3,2.7
				c20.5,29.7,3.3,64.9-9.5,104.7c-0.8,0.1-1.5,0.1-2.3,0c-0.4-0.1-0.7-0.1-1.1-0.3c5.2-14.4,11.1-29,15-43.1
				c5.9-21.1,7.4-40.8-4.1-56.8C227.7,108,211.8,100.4,193,94z"/>
			<path class="st15" d="M230.8,118.6c-5.9-9.1-21.3-15.8-41.1-21.5h0c-0.1-0.7-0.1-1.2-0.1-1.2L193,94
				c18.8,6.4,34.6,14.1,42.1,25.2c0.2,0.3,0.4,0.6,0.6,0.9l-1.2,1.2c0,0-0.8,0-1.7,0c-0.3-0.4-0.5-0.8-0.8-1.2v0
				c0.1-0.3,0.3-0.7,0.3-1.1C232.3,118.3,231.5,118.4,230.8,118.6z"/>
			<path class="st16" d="M218,130.5c-3-9.2-13.6-18-26.9-26.7c1.4-0.7,0.2-0.1-0.9-0.6c-0.2-0.1-0.4-0.3-0.6-0.4c-1.2-1.2,0,0,0-2.3
				c0-1.3,0.3-1.5,0.7-1.4c0.1,0.2,0.3,0.3,0.5,0.3c0,0-0.2-0.2-0.5-0.3c-0.3-0.4-0.5-1.2-0.6-1.9h0c19.8,5.7,35.2,12.4,41.1,21.5
				c-0.4,0.1-0.8,0.3-0.8,0.3s0,3.5-1.2,4.6c0,0-2.3,2.3-3.5,2.3c-1.2,0-1.2,0-1.2,0l-3.5,2.3c0,0,0,0,0,1.2c0,1.2-1.2,1.2-1.2,1.2
				S218.9,130.5,218,130.5z"/>
			<path class="st17" d="M187.3,110.9c-0.1,0-0.1,0-0.2,0c-0.3-0.4-0.6-0.7-1-1.1c-0.7-7.4,0-14.9-1.5-22c0.1,0,0.2,0.1,0.4,0.1
				l2.3,2.3l4.6,2.3v1.2c0.4,0.1,0.7,0.3,1.1,0.4l-3.4,1.9c0,0,0,0.6,0.1,1.2c0.1,0.7,0.3,1.5,0.6,1.9c-0.3-0.1-0.7,0.2-0.7,1.4
				c0,2.3-1.2,1.2,0,2.3c0.2,0.2,0.4,0.3,0.6,0.4c0.3,0.2,0.6,0.4,0.9,0.6c-0.1,0.1-0.2,0.1-0.4,0.2c-2.3,1.2-2.3,0-2.3,1.2
				c0,1.2,1.2,2.3,1.2,2.3l-1.2,1.2v1.2L187.3,110.9z"/>
			<path class="st18" d="M189.6,74c-1.2-1.2-2.3-2.3-2.3-2.3l-0.6-0.8c1.3,0.5,2.6,0.8,4,0.8c3.7,2.3,8.2,2.4,13.2,1.4
				c22.3,9.4,31.4,25.3,38.5,40.7c0,0.1-0.1,0.1-0.1,0.2c-0.2,0.2-0.4,0.3-0.8,0.3c-1.2,0-1.2-1.2-1.2-1.2l-2.3-1.2v3.5
				c-0.3-0.3-0.6-0.6-0.9-0.9c-0.9-0.9-1.9-1.8-3-2.7l1.2-1.3c0.1,0.1,0.2,0.2,0.3,0.3c-2.3-9.6-12.3-17.9-27.7-25.4
				c0.2,0.3,0.4,0.5,0.6,0.8l-8.7-1.9c0,0-1,0.5-1.3,1.1l-3.3-5.8c0,0-1.2,0-2.3-1.2c-1.2-1.2-2.3,0-2.3-1.2
				C190.8,76.3,190.8,75.1,189.6,74z"/>
			<path class="st19" d="M186.2,109.7c0.3,0.4,0.7,0.7,1,1.1c-30.1-5.6-59.5-11.6-77.1-26.5c-4.7-1.8-8.7-3-12.2-3.5
				c-2.1-7.9-2.2-14.3,0.4-18.8c3.1-5.3,10-7.8,22.2-6.6c15.4,13.6,38.9,23.3,64.2,32.2C186.2,94.8,185.4,102.4,186.2,109.7z"/>
			<path class="st20" d="M183,290c1.3,0.6,1.9,1.3,1.9,1.9c-0.2,3.5-23,5.1-51,3.5c-28-1.5-50.5-5.6-50.3-9.1c0,0,0,0,0-0.1
				c0.3-2.5,12.4-4,29.6-4.1c6.5,0,13.8,0.2,21.4,0.6C157.7,284,177,287,183,290z"/>
			<path class="st21" d="M184.5,86.9c0.1,0.2,0.1,0.5,0.2,0.7c-25.3-8.8-48.8-18.5-64.2-32.2c-12.1-1.3-19.1,1.3-22.2,6.6l-0.9-0.8
				c-1.8-12.8-11.3-14.9-33.3,0c19.2-26.5,44.1-37,65.6-25.8c7.2,11.2,15.1,19.8,25.6,20.1c-0.4,1.6-0.4,3.6-0.3,5.8
				c4,7.4,9.3,8,15,6.9c0.3,0.2,0.6,0.4,0.9,0.6c3.4,2.2,6,4.5,8,6.9C181.9,79.3,183.5,83,184.5,86.9L184.5,86.9z"/>
			<path class="st22" d="M183.9,289.6c-0.1-0.1-0.1-0.1-0.2-0.2c-23.1-25.7-44.8-50.6-62.6-73.8v0c-13.4-17.4-24.7-33.8-32.8-48.7
				c-13.5-24.8-18.1-45.3-9.4-59.5c2.5,6.3,5.2,11.8,8.1,16.7c13.7,49,37.2,82.1,72.1,96.3h0C170.9,244.7,179.8,267.2,183.9,289.6z"
				/>
			<path class="st23" d="M183,290c-6-3-25.3-6-48.4-7.3c-7.6-0.4-14.9-0.6-21.4-0.6c-9.2-20-20.1-40.5-29.8-60.6
				c17.8,19.3,37,15.1,37.6-5.9c17.8,23.1,39.5,48.1,62.6,73.8L183,290z"/>
			<path class="st24" d="M182,53.1c1.6,5.1-0.6,7.4-4.9,8.2c-0.5-0.7-0.9-1.5-1.3-2.3c-3.6-5.6-8-9.3-13.8-9.2
				c-2.8,0.1-4.7,1.3-5.8,3.4c-14.6-8.3-23.9-18.7-27.7-31c9,0.3,21.8,5.8,35.8,13.5c5.1,4,10.1,8.7,15,14.2
				C180.2,50.9,181.1,52.1,182,53.1L182,53.1z"/>
			<path class="st25" d="M182.7,71.7l1.2,2.3c0,0,0,2.3,1.2,2.3s-1.2,0,0,1.2c1.2,1.2-1.2,0,1.2,2.3c2.3,2.3,2.3,2.3,2.3,2.3
				s-1.2,0,0,1.2c1.2,1.2,1.2,1.2,1.2,1.2h2.3l1.2,1.2c0,0,0,0,0,1.2s0,1.2,0,1.2l1.2,1.2l1.2,1.2v1.2c0,0,0,0-1.2,0s-1.2,0-1.2,0
				v1.2h-1.2l-4.6-2.3l-2.3-2.3l-0.5-0.9l0,0c-0.9-3.9-2.6-7.7-5.5-11.2l0.3-0.6c0,0,0,0,0-1.2c0-1.2,1.2,0,1.2-1.2
				c0-1.2,0-1.2-1.2-2.3c-1.2-1.2,1.2,0,2.3,0S182.7,71.7,182.7,71.7z"/>
			<path class="st26" d="M179.7,65c2.1,2.7,4.4,4.7,7,5.8l-4,0.8c0,0,0-1.2-1.2-1.2s-3.5-1.2-2.3,0c1.2,1.2,1.2,1.2,1.2,2.3
				c0,1.2-1.2,0-1.2,1.2c0,1.2,0,1.2,0,1.2l-0.3,0.6c-2-2.4-4.6-4.7-8-6.9c2.9-1.4,3.7-3.9,2.5-7.5C175.4,63.8,177.5,65,179.7,65z"
				/>
			<path class="st27" d="M166,61.3c1,0,1.7-0.8,1.7-1.7c0-1-0.8-1.7-1.7-1.7s-1.7,0.8-1.7,1.7C164.2,60.5,165,61.3,166,61.3z
				 M171.2,58.4c0,3.5-2.8,6.3-6.3,6.3s-6.3-2.8-6.3-6.3c0-3.5,2.8-6.3,6.3-6.3S171.2,54.9,171.2,58.4z"/>
			<path class="st28" d="M171.2,58.4c0-3.5-2.8-6.3-6.3-6.3s-6.3,2.8-6.3,6.3c0,3.5,2.8,6.3,6.3,6.3S171.2,61.9,171.2,58.4z
				 M161.9,49.8c5.8-0.1,10.2,3.6,13.8,9.2c0.4,0.8,0.9,1.6,1.3,2.3c0.8,1.3,1.7,2.6,2.6,3.8c-2.2-0.1-4.3-1.2-6.2-3.8
				c1.2,3.6,0.4,6.1-2.5,7.5c-0.3-0.2-0.6-0.4-0.9-0.6c-5.7,1.1-11,0.5-15-6.9c-0.1-2.2-0.1-4.1,0.3-5.8c0.2-0.9,0.5-1.7,0.9-2.4
				C157.3,51.1,159.1,49.9,161.9,49.8z"/>
			<circle class="st29" cx="166" cy="59.6" r="1.7"/>
			<path class="st30" d="M126.8,159.1c12,22,23.1,42.1,32.3,61.3c-34.9-14.2-58.4-47.2-72.1-96.3C98,142.6,111.9,152.2,126.8,159.1z
				"/>
			<path class="st31" d="M128.5,22.1c3.8,12.4,13.1,22.7,27.7,31c-0.4,0.7-0.7,1.5-0.9,2.4c-10.4-0.3-18.4-8.8-25.6-20.1
				c-3.9-6.2-7.6-13.2-11.4-20c16,2.5,31.4,8.7,45.9,20.2C150.3,27.9,137.5,22.4,128.5,22.1z"/>
			<path class="st32" d="M121,215.6L121,215.6c-0.6,20.9-19.9,25.2-37.6,5.9l0,0c-8.8-18.4-16.7-36.4-21.5-53.6
				c10.1,12.2,22.5,10.7,26.4-0.9C96.3,181.8,107.6,198.2,121,215.6z"/>
			<path class="st33" d="M118.4,15.4c3.7,6.9,7.4,13.9,11.4,20c-21.6-11.2-46.4-0.7-65.6,25.8c-9.7,13.3-17.9,30.7-23.6,51.3
				c4.9-43.1,15.8-80.1,47.7-96.3c0.7-0.7,1.5-1.4,2.3-2C99.9,13.7,109.2,14,118.4,15.4z"/>
			<path class="st34" d="M97.4,61.3l0.9,0.8c-2.6,4.5-2.5,10.9-0.4,18.8c-16.7-2.4-19.8,10-18.9,26.5c-5.7-3.3-10.6-3.6-14.8-1.4
				c-11,5.7-17.4,28-22,56.6h0c-3.7-15.5-5.1-29.8-2.4-42.6c0.2-2.5,0.5-5,0.8-7.5c0,0,0,0,0,0c5.7-20.7,14-38,23.6-51.3
				C86,46.4,95.5,48.5,97.4,61.3z"/>
			<path class="st35" d="M83.4,221.5c9.7,20.1,20.6,40.6,29.8,60.6c-17.2,0-29.3,1.5-29.6,4.1l-0.1,0
				c-9.8-41.7-32.4-85.8-41.4-123.5h0c4.6-28.6,11-51,22-56.6c-9.4,18.1-8.5,39.2-2.2,61.9C66.7,185.1,74.5,203.2,83.4,221.5
				L83.4,221.5z"/>
			<path class="st36" d="M88.3,167c-3.8,11.7-16.3,13.1-26.4,0.9c-6.3-22.6-7.2-43.7,2.2-61.9c4.2-2.2,9.1-1.9,14.8,1.4
				C70.1,121.6,74.8,142.2,88.3,167z"/>
		</g>
		<g>
		</g>
	</g>
</g>
</svg>
