<svg id="Layer_5" data-name="Layer 5" xmlns="http://www.w3.org/2000/svg" viewBox="0 0 197.39 286.87"><defs><style>.cls-1{fill:#9cfff3;}.cls-2{fill:#a367a0;}.cls-3{fill:#e682f4;}.cls-4{fill:#3a3a3a;}.cls-5{fill:#fbb03b;}.cls-6{fill:#eb5e46;}.cls-7{fill:none;stroke:#fff;stroke-miterlimit:10;}</style></defs><title>fire</title><path class="cls-1" d="M177.79,199.68l-3.88,1.12-1.29,3.83-2.26-3.35-3.25,0a7.57,7.57,0,0,1,6.77-4.19,4.92,4.92,0,0,1,.67,0v.17Z" transform="translate(-55.6 -5.67)"/><path class="cls-2" d="M172.05,229.35c-10.93,21.11-22.55,27.52-35.71,0Z" transform="translate(-55.6 -5.67)"/><path class="cls-3" d="M127.86,201.9c2.06,4.8,5.47,8.23,8.64,9.09a7.33,7.33,0,0,1-4.08,1.21,7.57,7.57,0,0,1-7.58-7.57,7.49,7.49,0,0,1,2.11-5.24A22.43,22.43,0,0,0,127.86,201.9Z" transform="translate(-55.6 -5.67)"/><path class="cls-1" d="M132.56,196.4l.64-4,2.78,2.93,4-.62-1.93,3.56,1.82,3.62-.45-.08a7.55,7.55,0,0,0-7-4.76,7.9,7.9,0,0,0-1.63.18Z" transform="translate(-55.6 -5.67)"/><path class="cls-1" d="M167.11,201.24l-.81,0,2.5-3.19-1.21-3.85,3.8,1.38,3.3-2.34-.14,3.87a4.92,4.92,0,0,0-.67,0A7.57,7.57,0,0,0,167.11,201.24Z" transform="translate(-55.6 -5.67)"/><path class="cls-1" d="M133,204l-.52-4-3.6-1.84,1.87-.9h0a7.9,7.9,0,0,1,1.63-.18,7.55,7.55,0,0,1,7,4.76l-3.52-.67Z" transform="translate(-55.6 -5.67)"/><path class="cls-4" d="M170.85,204.69a1.21,1.21,0,1,0,1.2,1.2A1.19,1.19,0,0,0,170.85,204.69Zm7.94-3.13c-2.53,5.05-6.53,8.42-9.95,8.72a7.53,7.53,0,0,1-1.73-9l3.25,0,2.26,3.35,1.29-3.83,3.88-1.12,1.57.63C179.18,200.72,179,201.14,178.79,201.56Z" transform="translate(-55.6 -5.67)"/><path class="cls-3" d="M168.84,210.28c3.42-.3,7.42-3.67,9.95-8.72.21-.42.39-.84.57-1.25.09-.22.17-.43.25-.64a7.58,7.58,0,0,1-10.77,10.61Z" transform="translate(-55.6 -5.67)"/><path class="cls-5" d="M136.34,229.35c13.16,27.52,24.78,21.11,35.71,0Zm41.52-42.79c-3.54-1.76-8.77,1.49-12,7.31-.19.32-.36.64-.52,1-3.2,6.42-2.78,13.14.93,15a4.68,4.68,0,0,0,2.59.46,7.57,7.57,0,0,0,10.77-10.61C181.87,193.86,181.21,188.23,177.86,186.56Zm-38,24.3c3.82-1.63,4.6-8.31,1.77-14.9s-8.23-10.61-12-9c-3.32,1.43-4.36,6.71-2.67,12.41a7.49,7.49,0,0,0-2.11,5.24,7.57,7.57,0,0,0,7.58,7.57A7.33,7.33,0,0,0,136.5,211,4.94,4.94,0,0,0,139.9,210.86Zm49.65-66.93c29.2,36,58.22,65.58,23,107.24-39.36,38.83-75.55,31.44-110.34,4-25.36-29.48-30.51-61-8-95.28-.35,30.52,5.55,40.27,12,48.3-19.48-50.85,41.21-71.34,13.73-106.8,21,8.45,33.18,27.18,39.45,52.74,1.11-22.92,6.88-26.72,12.85-29.7.17,20.73,4.61,39.15,17.28,53.18C186.51,162,185.5,149.34,189.55,143.93Z" transform="translate(-55.6 -5.67)"/><path class="cls-4" d="M135.19,204.76a1.14,1.14,0,1,0,1.15,1.13A1.13,1.13,0,0,0,135.19,204.76Zm4.79-.13A7.53,7.53,0,0,1,136.5,211c-3.17-.86-6.58-4.29-8.64-9.09a22.43,22.43,0,0,1-.91-2.51,7.42,7.42,0,0,1,3.83-2.16l-1.87.9,3.6,1.84.52,4,2.87-2.85,3.52.67A7.2,7.2,0,0,1,140,204.63Z" transform="translate(-55.6 -5.67)"/><path class="cls-4" d="M177.86,186.56c3.35,1.67,4,7.3,1.75,13.11a7.49,7.49,0,0,0-5.06-2.58l.14-3.87-3.3,2.34-3.8-1.38-1.75-.31C169.09,188.05,174.32,184.8,177.86,186.56Z" transform="translate(-55.6 -5.67)"/><path class="cls-4" d="M136.5,211a7.53,7.53,0,0,0,3.48-6.36,7.2,7.2,0,0,0-.56-2.82l.45.08-1.82-3.62,1.93-3.56-4,.62-2.78-2.93-.64,4-1.77.83h0a7.42,7.42,0,0,0-3.83,2.16c-1.69-5.7-.65-11,2.67-12.41,3.82-1.63,9.2,2.38,12,9s2.05,13.27-1.77,14.9A4.94,4.94,0,0,1,136.5,211Z" transform="translate(-55.6 -5.67)"/><path class="cls-4" d="M169.64,205.89a1.21,1.21,0,1,1,1.21,1.21A1.19,1.19,0,0,1,169.64,205.89Z" transform="translate(-55.6 -5.67)"/><path class="cls-4" d="M134.06,205.89a1.14,1.14,0,1,1,1.13,1.14A1.13,1.13,0,0,1,134.06,205.89Z" transform="translate(-55.6 -5.67)"/><path class="cls-4" d="M166.3,204.63a7.59,7.59,0,0,0,2.54,5.65,4.68,4.68,0,0,1-2.59-.46c-3.71-1.84-4.13-8.56-.93-15,.16-.33.33-.65.52-1l1.75.31L168.8,198l-2.5,3.19.81,0A7.6,7.6,0,0,0,166.3,204.63Z" transform="translate(-55.6 -5.67)"/><path class="cls-4" d="M179.36,200.31l-1.57-.63-3.24-2.42v-.17a7.49,7.49,0,0,1,5.06,2.58C179.53,199.88,179.45,200.09,179.36,200.31Z" transform="translate(-55.6 -5.67)"/><path class="cls-6" d="M91.62,263.57C43.07,202,48.9,142.56,77.88,84.1c-3.63,33.17.28,52.31,7.09,66-9.9-43.34,62.39-104.5,12.85-144.46,32.44,4.84,49.58,35.57,64.26,70.46C163.14,59.6,173,39.65,184.68,19c-6.43,31-1.72,59.94,12,87.3Q188,83.61,201.07,58.4c2.74,14.73,14.26,31.86,31.46,55.84,24,38,30.35,82.48,0,140.47C205.33,300,124.84,306.67,91.62,263.57Zm121-12.4c35.18-41.66,6.16-71.27-23-107.24-4.05,5.41-3,18.06,0,33.67-12.67-14-17.11-32.45-17.28-53.18-6,3-11.74,6.78-12.85,29.7C153.15,128.56,141,109.83,120,101.38c27.48,35.46-33.21,56-13.73,106.8-6.41-8-12.31-17.78-12-48.3-22.54,34.3-17.39,65.8,8,95.28C137,282.61,173.23,290,212.59,251.17Z" transform="translate(-55.6 -5.67)"/><path class="cls-7" d="M134.06,205.89a1.14,1.14,0,1,0,1.13-1.13A1.13,1.13,0,0,0,134.06,205.89Z" transform="translate(-55.6 -5.67)"/><path class="cls-7" d="M172.05,205.89a1.21,1.21,0,1,1-1.2-1.2A1.2,1.2,0,0,1,172.05,205.89Z" transform="translate(-55.6 -5.67)"/></svg>