<?xml version="1.0" encoding="utf-8"?>
<!-- Generator: Adobe Illustrator 22.1.0, SVG Export Plug-In . SVG Version: 6.00 Build 0)  -->
<svg version="1.1" id="Layer_4" xmlns="http://www.w3.org/2000/svg" xmlns:xlink="http://www.w3.org/1999/xlink" x="0px" y="0px"
	 viewBox="0 0 300 300" style="enable-background:new 0 0 300 300;" xml:space="preserve">
<style type="text/css">
	.st0{fill:#FFFFFF;}
	.st1{fill:#EDD364;}
	.st2{fill:#724B30;}
	.st3{fill:#F29141;}
	.st4{fill:#A87756;}
	.st5{fill:#845635;}
	.st6{fill:#BA965D;}
	.st7{fill:#F3D8B7;}
	.st8{fill:#DD4B37;}
	.st9{fill:#512A10;}
	.st10{fill:#AF6C3E;}
	.st11{fill:#EFEBC7;}
	.st12{fill:#545351;}
	.st13{fill:#F9F6E4;}
	.st14{fill:#423726;}
	.st15{fill:#AF2020;}
	.st16{fill:#D1CE52;}
</style>
<circle class="st0" cx="185.8" cy="96.6" r="1.2"/>
<g>
	<path class="st1" d="M231.3,113.5c17.1,10.5,19,34.8,8.9,46.7C247.2,141.6,237.2,123.5,231.3,113.5z"/>
	<path class="st2" d="M237.3,220.9c7.3,3.3,1,30.9-4.5,28.5c-9.7-1.2-20.1-5.3-31-11.7c6.7-5.4,12-12.3,15.5-20.1
		C217.3,217.6,236.4,220.4,237.3,220.9z"/>
	<path class="st3" d="M218.4,203.2c8-4.8,14.4-11.4,17.4-22.3c3.7,5.7,2,15-18.5,36.7c-3.5,7.8-8.8,14.7-15.5,20.1
		c-6.2,4.8-13.3,8.1-20.9,9.9c-3.7,0.9-7.6,1.5-11.4,1.8l-4.2-3.4l-4-3.2c-16.3,4.6-31.7,8.4-40.2,6.5c-7.3,2.1-14.2,3.7-18.5,0l0,0
		c-6.2-4.3-11.7-9.5-16.2-15.5c-5.3-7.3-9.4-15.4-11.9-24.1c-2.3-7.8-3.8-15.8-4.5-23.9c-1-5.1,4.2,1,11.4,10.9l-0.5-9.8l4.9,6.5
		l-1.6-12.5c-2.3-5.7,1.6-3.3,7.6,2.2c-6.6-15.8-31.5-27.5-21.2-46.2c0.6,11.1,5.7,16.5,13.6,18.5l-1.1-8.1
		c2.9-7.2-7.4-23.9-15.8-39.1c8.1,5.4,14.5,12.9,18.5,21.7c1.5-8.9-0.1-18.1-4.3-26.1c8.2,7.7,12.9,19.2,16.3,32.1l1.6-12.5
		c1.9,5.3,5.1,7.6,8.7,8.7c-15.2-23.4-19.6-39-16.3-48.9c1.3,7.6,3.8,13.2,8.2,15.8c4.3-5,3.6-18.8,1.6-34.8
		c6.1,11.1,9.8,22.8,6,36.1l-0.6,2c0.5,13.1,3.7,25.1,10.9,35.3c-11.6,18.5-12.8,29.4-6.3,34.8c0.4,21.4,2.7,37.5,10.1,37.5
		c-2.3-16.7-1.5-23.2,2.7-19c1,22.5,2.1,45.2,9.8,38l3.6-9.8c1,3.3,2.1,6.6,3.5,9.8c11.1,21.2,3.3-28.5-3.5-35.3
		c6.7-0.7,12,6.4,13.8,33.1c0.6,5.9,3.4,4.1,12-17.4v9.8c-5,15.1-0.5,11.9,10.3-3.8c0,0-5.3,17.6-6,20.6c-2.3,10.1,12.4-7.6,19-22.8
		c1.9,5.8,1.1,12.2-2.2,17.4c-4.2,11.7,2,5.2,14.1-11.4c14.6,6.3-7.2-23-2.2-36.4c7.3,26.9,9.8,0.5,2.2-17.9
		c10.9-15.8,13.9-28.9,11.4,1.1c10.6-13.5,14.1-37,14.7-64.7c3,33.9,11.1,68-15.2,94.6c1.1,2.3,8.2-1.5,11.8-5.7
		C220.2,195.2,218.6,202.3,218.4,203.2z M110.3,235.8c3.6-11.2,0-22.5-10.9-33.7C98.7,213.3,102.3,224.6,110.3,235.8z"/>
	<path class="st4" d="M220.3,262.4c6.3,12-19.7,28-29.1,11.4C193.4,258.6,210.7,254,220.3,262.4z M208.4,277.5
		c5.3-1.7,8.6-6,7.4-9.6s-6.4-5.2-11.7-3.5s-8.6,6-7.4,9.6S203.1,279.2,208.4,277.5z"/>
	<path class="st5" d="M201.8,237.7l18.5,24.7c-9.5-8.4-26.9-3.8-29.1,11.4l-10.3-26.3C188.5,245.9,195.6,242.5,201.8,237.7z"/>
	<path class="st6" d="M215.8,267.9c1.1,3.6-2.2,7.9-7.4,9.6s-10.5,0.2-11.7-3.5s2.2-7.9,7.4-9.6S214.6,264.2,215.8,267.9z
		 M206.7,271.5c2.4-0.9,4-2.3,3.7-3.1s-2.5-0.8-4.9,0.1s-4,2.3-3.7,3.1S204.3,272.4,206.7,271.5z"/>
	<path class="st3" d="M208.6,89.1c2-4.1,3.4-1.6,4.4,5.4c-5.7,2-6.4,12.4-6.5,23.9C202.4,108.7,203.1,98.9,208.6,89.1z"/>
	<path class="st7" d="M210.5,268.4c0.3,0.8-1.4,2.2-3.7,3.1s-4.6,1-4.9,0.1s1.3-2.3,3.7-3.1S210.1,267.5,210.5,268.4z"/>
	<path class="st8" d="M196.6,182.5c-5,13.4,16.8,42.7,2.2,36.4c-12.1,16.6-18.4,23.1-14.1,11.4c3.2-5.2,4-11.6,2.2-17.4
		c-6.6,15.2-21.4,32.9-19,22.8c0.7-3.1,6-20.6,6-20.6c-10.9,15.7-15.3,18.9-10.3,3.8v-9.8c-8.5,21.5-11.3,23.3-12,17.4
		c-1.8-26.8-7.1-33.8-13.8-33.2c6.8,6.8,14.5,56.6,3.5,35.3c-1.3-3.2-2.5-6.5-3.5-9.8l-3.6,9.8c-7.7,7.2-8.7-15.5-9.8-38
		c-4.2-4.2-5.1,2.3-2.7,19c-7.4,0-9.6-16.1-10.1-37.5c-6.5-5.3-5.4-16.3,6.3-34.8c-7.2-10.3-10.4-22.2-10.9-35.3
		c0.2-0.7,0.4-1.3,0.6-2l10.3-33.9c0,0-0.6-28.8-0.6-41.8s11.4,32,12.5,35.3s-0.5-54.3-0.5-54.3l8.5,31l6.7-6c1.9-5.4,3.8-6.2,5.4,0
		c-1,8.8-2.5,17.1-8.7,21.8c-6.7,7.7-7.1,50.2,0,42.9c1.2-1.2,3.8-15.8,3.8-15.8c1.7,10.3,4.6,13.9,7.9,15.2
		c7.3-12.9,10.9-24.9-3.5-33.2c0.5-7.8,1.5-10.9,3.5-4.9l8.4,2.7c2.2-1.9,3.5-6.2,3.3-15.2c-5.5-34.4-3.8-33,4.4,0l-0.5,16.8
		l6.6-8.7c-3.4,16.4,0.1,29.3,3.3,42.4l4.3-13.6l1.6,23.4l5.4-6c1.9-13.1,3.9-11.6,6,0c-7.6,17.8-8.1,32.7-4.3,45.6
		c2.2-0.1,3.5-2.5,3.8-8.1c3.9-23,5.2-18.6,4.9,1.6c-3.9,9.3-4.4,18.4-1.1,27.2C206.4,183.1,203.9,209.4,196.6,182.5z M177.1,204.3
		c3.5,5,5,3.3,3.8-8.7l-7.1-20.1L177.1,204.3z M162.4,195.6c11.8-19.7-5-62.1,0-93.5c-7.6,5.5-13.3,14.4-9.5,41.3
		c-2.5-3.8-4.9-6.7-6.8-5.4c4.9,4,5.6,8.9,5.4,14.1l-7.6-4.9C160.1,166.6,160.6,177.8,162.4,195.6z M141.2,134.2h-7.1
		c7.5-13.4,1.9-19.4-2.6-26.1c1.8,10.7,0.6,19.2-5.6,23.9l-4.1,2.2c3.6,14.1,8.8,23,15.8,26.1C134.8,148.7,133.1,138,141.2,134.2z
		 M129.3,184.7c2.2-6.2,0-12.3-6.5-18.5C120.6,172.4,122.7,178.5,129.3,184.7z"/>
	<path class="st1" d="M180.9,35.8c8.6,14.3,14.9,27.4,11.4,35.3c-0.9,1.5-1.9,2.9-4.9,0C184.5,66.6,182.6,52.1,180.9,35.8z"/>
	<path class="st1" d="M180.9,195.6c1.3,12-0.3,13.7-3.8,8.7l-3.3-28.8L180.9,195.6z"/>
	<path class="st4" d="M180.9,285c0,13.9-31.7,21.5-31.7,0c0-11.4,23.4-12.6,30-4.8C180.1,282.9,180.7,284.8,180.9,285z M173.8,288.1
		c0-3.9-4.1-7.1-9.3-7.1s-9.3,3.1-9.3,7.1s4.1,7.2,9.2,7.2S173.8,292.1,173.8,288.1z"/>
	<path class="st6" d="M164.6,280.9c5.1,0,9.3,3.2,9.3,7.1s-4.1,7.2-9.3,7.2s-9.3-3.2-9.3-7.1S159.5,280.9,164.6,280.9z M167.2,288.3
		c0-1.9-1.5-3.3-3.4-3.3s-3.3,1.5-3.3,3.4c0,1.9,1.5,3.3,3.4,3.3S167.2,290.2,167.2,288.3L167.2,288.3z"/>
	<path class="st5" d="M169.5,249.4c0,0,6.6,21.1,9.7,30.8c-6.6-7.8-30-6.6-30,4.8v-22.4l4,5.3c1.5,5.4,3.2,4.7,4.9,0l-4.8-7.8
		l-1.7-2.8c5.6-1.9,9.7-0.5,10.9,6.8c1.9,2.4,3.9,2.1,6-0.6C166.6,256.5,166.9,251.7,169.5,249.4z"/>
	<path class="st9" d="M165.3,246l4.2,3.4c-2.6,2.3-2.9,7.1-1.1,14.1c-2,2.7-4,3-6,0.6c-1.2-7.3-5.3-8.7-10.9-6.8l1.7,2.8l-4.1,2.5
		l-8-10.7L165.3,246z"/>
	<path class="st7" d="M163.9,285c1.9,0,3.3,1.5,3.3,3.4c0,1.9-1.5,3.3-3.4,3.3c-1.9,0-3.3-1.5-3.3-3.4
		C160.5,286.5,162,285,163.9,285C163.9,285,163.9,285,163.9,285z"/>
	<path class="st10" d="M165.3,246l-24.1,5.8l-22.3,5.4l-7.3,5.2l0,0l-12.3,8.7c-2.8,0.9-4.8,0.8-4.1-1.8c0.1-0.5,0.3-1,0.5-1.4
		l9.8-10.3l-19.7-11.1c0,0-2.2-1.9-1.4-2.7c0.4-0.3,0.9-0.4,1.4-0.3c3.4,0,16,5.6,16.8,6l0,0c4.3,3.7,11.2,2.1,18.5,0
		c8.5,1.9,23.9-2,40.2-6.5L165.3,246z"/>
	<path class="st11" d="M162.4,102.1c-5,31.4,11.8,73.7,0,93.5c-1.8-17.7-2.4-29-18.5-48.4l7.6,4.9c0.2-5.2-0.5-10.1-5.4-14.1
		c1.9-1.2,4.3,1.6,6.8,5.4C149.1,116.5,154.9,107.6,162.4,102.1z"/>
	<path class="st9" d="M153.3,260l4.8,7.8c-1.7,4.7-3.4,5.4-4.9,0l-4-5.3l0,0L153.3,260z"/>
	<path class="st5" d="M141.2,251.9l-9.6,33.1c-1.5-9.2-15.3-15.8-27.9-9.2l7.9-13.3l0,0l7.3-5.2L141.2,251.9z"/>
	<path class="st3" d="M134.2,134.2h7.1c-8.1,3.8-6.4,14.5-3.5,26.1c-7-3.1-12.2-12-15.8-26.1l4.1-2.2c6.2-4.7,7.4-13.2,5.6-23.9
		C136,114.8,141.7,120.8,134.2,134.2z"/>
	<path class="st1" d="M122.8,166.2c6.5,6.1,8.7,12.3,6.5,18.5C122.8,178.5,120.6,172.4,122.8,166.2z"/>
	<path class="st6" d="M115,280.9c4.4,0,8,3.2,8,7s-3.6,7-8,7s-8-3.2-8-7S110.6,280.9,115,280.9z M118.3,288.3c0-1.8-1.5-3.3-3.3-3.3
		s-3.3,1.5-3.3,3.3s1.5,3.3,3.3,3.3h0C116.8,291.7,118.3,290.2,118.3,288.3z"/>
	<circle class="st7" cx="114.9" cy="288.3" r="3.3"/>
	<path class="st4" d="M103.7,275.7c12.5-6.5,26.4,0,27.9,9.2C120.3,310.8,92,296.4,103.7,275.7z M123,288c0-3.9-3.6-7-8-7
		s-8,3.2-8,7s3.6,7,8,7S123,291.9,123,288z"/>
	<path class="st11" d="M99.4,202.1c10.9,11.2,14.5,22.5,10.9,33.7C102.3,224.6,98.6,213.3,99.4,202.1z"/>
	<path class="st5" d="M105.5,257.5l-9.8,10.3c-0.2,0.5-0.4,0.9-0.5,1.4l-12.6,4.5c3.9-10.1-2.3-24.4-17.1-24.4l14.9-4.7l4-1.3
		l0.2,0.3c-0.8,0.8,1.4,2.7,1.4,2.7L105.5,257.5z"/>
	<path class="st9" d="M102.6,249.4c-0.8-0.4-13.4-6-16.8-6c-0.5-0.1-1,0.1-1.4,0.3l-0.2-0.3l-4,1.3l-10.5-2.4c-2.9-3.1-3.6-6,0-8.5
		h16.7C90.9,239.8,96.4,245.1,102.6,249.4z"/>
	<path class="st2" d="M86.4,233.8H57.5c-4-8.1-3.9-16.9,2.4-24.1c5.3-1.3,10.3-1.6,14.5,0C77.1,218.4,81.1,226.5,86.4,233.8z"/>
	<path class="st4" d="M65.4,249.4c14.9,0,21,14.3,17.1,24.4C60,288.5,45.4,261.1,65.4,249.4z M78.3,264.2c0-4.6-3.8-8.3-8.4-8.3
		s-8.3,3.8-8.3,8.4c0,4.6,3.7,8.3,8.3,8.3C74.5,272.6,78.3,268.9,78.3,264.2C78.3,264.3,78.3,264.3,78.3,264.2z"/>
	<path class="st6" d="M70,255.9c4.6,0,8.4,3.7,8.4,8.3c0,4.6-3.7,8.4-8.3,8.4c-4.6,0-8.4-3.7-8.4-8.3c0,0,0,0,0,0
		C61.6,259.6,65.4,255.9,70,255.9z M72.1,264.8c0-1.3-1.1-2.4-2.4-2.4s-2.4,1.1-2.4,2.4c0,1.3,1.1,2.4,2.4,2.4
		C71,267.2,72.1,266.1,72.1,264.8C72.1,264.8,72.1,264.8,72.1,264.8z"/>
	<circle class="st7" cx="69.7" cy="264.8" r="2.4"/>
	<path class="st1" d="M52.7,148.8c1.1-23,10.3-32.1,6-14.7C58,146.1,62,157.6,67.4,169C61.1,164.4,54,161.2,52.7,148.8z"/>
	<path class="st12" d="M167,202.9c-0.1,0-0.2-0.1-0.3-0.1C166.9,202.8,167,202.8,167,202.9z"/>
	<path class="st12" d="M162,202.1c0.3,0,0.6,0,0.9,0C162.7,202.1,162.3,202.1,162,202.1z"/>
	<path class="st12" d="M167.3,203c0.4,0.1,0.8,0.3,1.2,0.6C168.1,203.3,167.7,203.1,167.3,203z"/>
	<path class="st13" d="M163.6,202.1c0.5,0,1.1,0.1,1.6,0.2c0.3,0.1,0.6,0.1,0.9,0.2c0.1,0,0.2,0.1,0.3,0.1l0.3,0.1
		c0.1,0,0.2,0.1,0.3,0.1h0.1l0.1,0.1c0.4,0.2,0.8,0.4,1.2,0.6c0,0,0.1,0,0.1,0.1l-1.2,5.8c-0.9,0.8-1.9,0.6-3.1,0L163.6,202.1z"/>
	<path class="st14" d="M154.7,219.5c0.1,0.2,0.3,0.3,0.4,0.5C154.9,219.9,154.8,219.7,154.7,219.5z"/>
	<path class="st12" d="M165.3,202.3c-0.5-0.1-1.1-0.2-1.6-0.2l0,0C164.2,202.1,164.8,202.2,165.3,202.3z"/>
	<path class="st14" d="M156,220.9c-0.4-0.3-0.7-0.6-0.9-0.9C155.4,220.3,155.7,220.6,156,220.9z"/>
	<path class="st12" d="M174.5,152.5c4.4,0.7,6.9,7.7,5.7,15.7s-5.9,13.9-10.2,13.3s-6.9-7.7-5.7-15.8S170.1,151.8,174.5,152.5z"/>
	<path class="st12" d="M160.8,202.4l-0.8,0.2L160.8,202.4z"/>
	<path class="st12" d="M167.1,202.9H167H167.1z"/>
	<path class="st14" d="M164.3,209.4c1.1,0.6,2.2,0.8,3.1,0l1.2-5.8c5.1,3,6.8,9.6,3.8,14.7c-0.1,0.2-0.3,0.4-0.4,0.7
		c-2.3-1.8-4.9-2.7-8.9,0c-3.1-2.8-6.1-2.8-8.9,0c-3.4-4.9-2.1-11.6,2.8-14.9c0.3-0.2,0.6-0.4,0.9-0.5v5.9c1.6,0.6,3.1,0.8,4.4,0
		l0.9-7.3c0.2,0,0.4,0,0.6,0L164.3,209.4z"/>
	<path class="st12" d="M166.1,202.5c-0.3-0.1-0.6-0.2-0.9-0.2L166.1,202.5z"/>
	<path class="st14" d="M171.8,219c-3.4,4.8-10,6-14.9,2.6c-0.3-0.2-0.7-0.5-1-0.8C160.4,224.7,167.3,224.6,171.8,219z"/>
	<path class="st12" d="M144.3,165.1c2,7.9,0.1,15.1-4.2,16.2s-9.4-4.4-11.3-12.3c-2-7.9-0.1-15.1,4.2-16.2S142.3,157.2,144.3,165.1z
		"/>
	<path class="st15" d="M171.9,218.9c0,0-0.1,0.1-0.1,0.1c-4.6,5.5-11.4,5.7-15.8,1.9c-0.3-0.3-0.6-0.6-0.9-0.9
		c-0.1-0.1-0.3-0.3-0.4-0.5c-0.1-0.2-0.3-0.4-0.4-0.6c2.8-2.8,5.7-2.8,8.9,0C167,216.2,169.6,217.2,171.9,218.9z"/>
	<path class="st14" d="M159.1,202.9c-0.2,0.1-0.3,0.1-0.5,0.2C158.7,203,158.9,202.9,159.1,202.9z"/>
	<path class="st13" d="M163.1,202.1l-0.9,7.3c-1.2,0.8-2.7,0.6-4.4,0v-5.9c0,0,0,0,0.1-0.1c0.2-0.1,0.4-0.2,0.6-0.3
		c0.2-0.1,0.3-0.2,0.5-0.2c0.3-0.1,0.6-0.2,0.9-0.3l0.8-0.2l0.3-0.1l0.7-0.1h0.3c0.3,0,0.6,0,0.9,0L163.1,202.1z"/>
	<path class="st12" d="M157.9,203.4C157.9,203.4,157.9,203.4,157.9,203.4L157.9,203.4C157.9,203.5,157.9,203.4,157.9,203.4z"/>
	<path class="st12" d="M166.5,202.7l0.3,0.1L166.5,202.7z"/>
	<path class="st12" d="M161.8,202.2l-0.7,0.1C161.3,202.3,161.5,202.2,161.8,202.2z"/>
	<polygon class="st16" points="135,160.5 137.6,163.3 141.3,162.7 139.5,166 141.1,169.5 137.4,168.7 134.7,171.3 134.2,167.6 
		130.9,165.8 134.3,164.2 	"/>
	<polygon class="st16" points="173.2,159.4 174.4,163 178.1,164 175.1,166.3 175.3,170.1 172.1,167.9 168.6,169.3 169.7,165.6 
		167.3,162.7 171.1,162.6 	"/>
	<circle cx="172.9" cy="165" r="1.2"/>
	<circle cx="136.7" cy="166.1" r="1.3"/>
	<ellipse transform="matrix(0.2677 -0.9635 0.9635 0.2677 -58.7921 246.7418)" class="st0" cx="132.9" cy="162" rx="1.4" ry="0.7"/>
	<ellipse transform="matrix(0.9703 -0.2418 0.2418 0.9703 -33.636 47.2004)" class="st0" cx="175.5" cy="160.7" rx="0.6" ry="1.9"/>
</g>
</svg>
