<?xml version="1.0" encoding="utf-8"?>
<!-- Generator: Adobe Illustrator 22.1.0, SVG Export Plug-In . SVG Version: 6.00 Build 0)  -->
<svg version="1.1" id="Layer_2" xmlns="http://www.w3.org/2000/svg" xmlns:xlink="http://www.w3.org/1999/xlink" x="0px" y="0px"
	 viewBox="0 0 300 300" style="enable-background:new 0 0 300 300;" xml:space="preserve">
<style type="text/css">
	.st0{fill:#A4A2AC;}
	.st1{fill:#050302;}
	.st2{fill:#909BA7;}
	.st3{fill:#AE6864;}
	.st4{fill:#744A46;}
	.st5{fill:#EF6E6B;}
	.st6{fill:#C4BECA;}
	.st7{fill:#BA5B5B;}
	.st8{fill:#BC3426;}
	.st9{fill:#D1CFD6;}
	.st10{fill:#AB2516;}
	.st11{fill:#9E9C9D;}
	.st12{fill:#CE383C;}
	.st13{fill:#98715D;}
	.st14{fill:#B5AFB5;}
	.st15{fill:#BE544A;}
	.st16{fill:#FF7976;}
	.st17{fill:#C38C8A;}
	.st18{fill:#D0B157;}
	.st19{fill:#FF998C;}
	.st20{fill:#040000;}
	.st21{fill:#FB7066;}
	.st22{fill:#FC5651;}
	.st23{fill:#8C2C2C;}
	.st24{fill:#B33838;}
	.st25{fill:#E24C44;}
	.st26{fill:#C2342E;}
	.st27{fill:#FB3F39;}
	.st28{fill:#AA372F;}
	.st29{fill:#DB463A;}
	.st30{fill:#F5636E;}
</style>
<g>
	<g id="XMLID_1_">
		<g>
			<path class="st0" d="M264.4,127.3c14.8,23,17.8,35,16.9,43.6c0,0,0,0.1,0,0.1c-0.1,0.5-0.8,2.3-6.5-3.4c-6.5-6.5,1.3,0,0-3.9
				c0,0,1.3,0,0-2.6c-1.3-2.6,0,0-2.6-2.6l-2.6-2.6c0,0,0,0-2.6,0s-1.3,1.3-1.3,1.3v5.2c-1.8-16.7,1.7-30.3-23.4-61.1
				c-2.4-2.8-4.6-3.5-6.5-2.6c-0.7-0.1-1.2,0.1-1.5,0.5c-2.7-8-11.1-11.2-20.6-13.5c0,0.3,0,0.6,0,0.9v-5.9c3,1.6,6,2.4,9.1,2.5
				c8.6,2,15.3,2.4,16.2-1.7c0.2,0.6,0.5,1.1,0.7,1.7C251.3,99,259,113.5,264.4,127.3z M276,158.4c0.4-0.1,0.4-1,0.1-2.1
				c-0.3-1-0.8-1.8-1.2-1.7c-0.4,0.1-0.4,1-0.1,2.1C275.2,157.8,275.7,158.5,276,158.4z M272.2,151.3c0-1.1-0.3-2-0.7-2
				c-0.4,0-0.7,0.9-0.7,2s0.3,2,0.7,2C271.9,153.3,272.2,152.4,272.2,151.3z"/>
			<path class="st1" d="M274.8,163.7c1.3,3.9-6.5-2.6,0,3.9c5.7,5.7,6.4,3.9,6.5,3.4c-0.7,6.3-3.5,10.7-5.2,16.1
				c-24.9,56.8-33.3,63.7-41.6,70.2c-9.5,8.8-13.6,5.4-15.6-2.6c2.1-22,3.9-43.4,3.1-61.1l3.4-2.6l2.6,2.6h1.3h1.3h1.3l1.3-2.6
				l2.6,1.3c0,0-1.3-3.9,0-3.9h2.6c0,0,0,2.6,2.6,2.6c2.6,0,3.9,0,3.9,0c2.6-1.3,3.9-1.3,3.9-2.6c0-1.3,0-3.9,0-3.9
				c1.3-0.7,2-1.6,2.3-2.4c0,0.5,0.3,0.5,1.6-1.5c2.6-3.9,3.9-5.2,2.6-6.5s0-3.9,0-3.9c-0.9-9.1-5.5-17.9-12.4-26.7
				c-7.8-9.9-18.5-19.5-29.9-29c-0.2-0.2-0.3-0.5-0.5-0.7c23.1,14.1,42,30.2,49.3,51.1l3.9-2.6v-5.2c0,0-1.3-1.3,1.3-1.3
				s2.6,0,2.6,0l2.6,2.6c2.6,2.6,1.3,0,2.6,2.6C276.1,163.7,274.8,163.7,274.8,163.7z"/>
			<path class="st1" d="M276.1,156.4c0.3,1,0.3,2-0.1,2.1c-0.3,0.1-0.9-0.7-1.2-1.7c-0.3-1-0.3-2,0.1-2.1
				C275.3,154.6,275.8,155.3,276.1,156.4z"/>
			<ellipse class="st1" cx="271.6" cy="151.3" rx="0.7" ry="2"/>
			<path class="st2" d="M265.7,162.4l-3.9,2.6c-7.2-20.9-26.1-37-49.3-51.1c-3.1-4.6-6.2-7.3-9.3-8.1l0.1-0.3
				c-4.6-6.6-5-10-4.2-12.5c0.1-0.3,0.2-0.5,0.3-0.8c7.3,1.2,13.6-1.6,14.3-5.6c0-0.3,0.1-0.6,0-0.9c9.5,2.3,18,5.5,20.6,13.5v0
				c-1.1,1.3-0.3,5,1.5,9.9C255.3,112.7,262.7,142.6,265.7,162.4z M260.5,157.2c-1.7-10-4.2-19.4-10.4-26c-3-6.6-8.6-11.2-14.3-15.6
				C235.8,126.1,257.1,135.3,260.5,157.2z"/>
			<path class="st3" d="M242.3,101.3c25.1,30.9,21.6,44.4,23.4,61.1c-3-19.7-10.4-49.7-29.9-53.3c-1.7-4.9-2.5-8.5-1.5-9.9v0
				c0.3-0.4,0.8-0.6,1.5-0.5C237.7,97.8,239.9,98.5,242.3,101.3z"/>
			<path class="st4" d="M250.1,131.2c6.2,6.6,8.7,16,10.4,26c-3.5-21.9-24.7-31-24.7-41.6C241.5,120,247.1,124.6,250.1,131.2z"/>
			<path class="st5" d="M255.3,174.1c1.3,1.3,0,2.6-2.6,6.5c-1.3,2-1.6,2-1.6,1.5c0.3-0.8,0.3-1.5,0.3-1.5s-0.3,1-0.3,1.5
				c-0.3,0.8-1,1.8-2.3,2.4c0,0,0,2.6,0,3.9c0,1.3-1.3,1.3-3.9,2.6c0,0-1.3,0-3.9,0c-2.6,0-2.6-2.6-2.6-2.6h-2.6c-1.3,0,0,3.9,0,3.9
				l-2.6-1.3l-1.3,2.6h-1.3h-1.3H228l-2.6-2.6l-3.4,2.6c-0.3-6.9-1.1-13.3-2.4-18.9L215,163v-7.2v-7.8v-3.9h1.3l-1.3-3.9v-3.9v-1.3
				v-6.5h2.6l2.6,3.9v2.6l3.9,1.3l2.6-2.6h1.3v2.6v3.9h3.9h3.9l2.6,2.6l2.6,1.3l1.9-0.7l0,0c6.9,8.7,11.5,17.6,12.4,26.7
				C255.3,170.2,254,172.8,255.3,174.1z"/>
			<path class="st6" d="M213,114.6c11.4,9.4,22.1,19.1,29.9,29l0,0l-1.9,0.7l-2.6-1.3l-2.6-2.6h-3.9H228v-3.9v-2.6h-1.3l-2.6,2.6
				l-3.9-1.3v-2.6l-2.6-3.9H215v6.5v1.3c-7.6-5.4-13.2-16.3-18-29.9v0c2.1-1.1,4.1-1.3,6.2-0.7c3.1,0.8,6.2,3.6,9.3,8.1
				c-0.5-0.3-1-0.6-1.4-0.9C211.8,113.5,212.4,114,213,114.6z"/>
			<path class="st7" d="M239,81.4L239,81.4c-0.9,4.2-7.6,3.7-16.2,1.7c-3.1-0.1-6.2-0.8-9.1-2.5v0c4-3.2-1-15.9-6.7-22.5
				c2.8-9.6,7.9-13.3,16.2-8.4C228.7,58.7,234,69.2,239,81.4z"/>
			<path class="st8" d="M223.2,49.7c-8.4-4.9-13.5-1.2-16.2,8.4c-0.8-0.9-1.6-1.7-2.4-2.3c-1.7-1.5-3.6-2.7-5.5-3.5
				c-9.7-4.2-20.7,0-21.8,8.7c0.8,12.9,3.3,15.7,6,17.7c0.8,1.1,1.8,2.1,3.1,3.1c0.6,0.4,1.2,0.9,1.7,1.4c-7.3,2.8-14,2.7-18.6-9.2
				c-7.3-3.4-12.6-3.9-10.4,6.5c6.1,12.5,1.6,18.6-5.9,22.8c-2.9-2.5-5.8-5.1-8.8-7.7c-5.2-35.5,3-50.3,22.5-47.6
				c11.8,1.1,17.1-1.6,11.5-10.5c2.6-0.2,5.3-1.6,8-3.8c0-0.4,0-0.9,0-1.3c18.3,10.2,31.1,14.7,18.3-6.5
				C211.1,32.2,217.3,40.1,223.2,49.7z"/>
			<path class="st9" d="M215,140.3l1.3,3.9H215v3.9v7.8v7.2l-4.6-11.7c-1.4-4.6-3.3-8.3-5.8-11.1c-1.3-2.9-2.5-7-6.6-13
				c-0.7-7-0.1-12,0-15.6l-1.1-5.2c4.7,13.6,10.3,24.6,18,29.9V140.3z"/>
			<path class="st10" d="M207,58.1c5.7,6.6,10.7,19.3,6.7,22.5v0c-1.8-1-3.5-2.3-5.2-4c-0.3-0.7-0.6-1.4-0.9-2
				c-2.3-5.1-5-8.6-7.9-10.7v0c4.8,0.7,6.2-4.2-0.7-11.5c1.9,0.8,3.8,2,5.5,3.5C205.4,56.4,206.2,57.2,207,58.1z"/>
			<path class="st11" d="M213.7,80.6v5.9c-0.6,4-7,6.8-14.3,5.6c-0.1,0.2-0.2,0.5-0.3,0.8l-5.9-2h0c-1.1-2.6-2.4-4.9-4-6.7
				c11.4,3.2,17.5,0,18.4-9.7c0.3,0.7,0.6,1.3,0.9,2C210.2,78.3,211.9,79.6,213.7,80.6z"/>
			<path class="st12" d="M204.7,25.9c12.8,21.2,0.1,16.6-18.3,6.5c0.3-9.7,2.6-15.7,9.7-13.8C199.1,20.7,201.9,23.2,204.7,25.9
				C204.7,25.9,204.7,25.9,204.7,25.9z"/>
			<path class="st13" d="M204.6,74c0.7,5.4-4.5,9.9-13,9.1c-8.3-3.2-11.1-11.2-5.2-16.9C193.5,60.8,201.9,65.3,204.6,74z
				 M200.7,72.7c0-3.6-3.5-6.5-7.8-6.5c-4.3,0-7.8,2.9-7.8,6.5s3.5,6.5,7.8,6.5C197.2,79.2,200.7,76.3,200.7,72.7z"/>
			<path class="st14" d="M203.3,105.4l-0.1,0.3c-2.1-0.6-4.1-0.4-6.2,0.7l-1.5-7.7c-0.6-2.8-1.3-5.4-2.3-7.7l5.9,2
				C198.3,95.4,198.8,98.9,203.3,105.4z"/>
			<path class="st15" d="M204.7,140.3c-0.7-0.7-1.3-1.4-2-2c-15.2-7.4-32-20-49.4-35.1c7.5-4.2,11.9-10.3,5.9-22.8
				c-2.2-10.4,3.1-9.9,10.4-6.5c4.6,11.8,11.4,12,18.6,9.2c0.4,0.3,0.7,0.7,1.1,1.1c1.7,1.8,3,4.1,4,6.7h0c0.9,2.3,1.7,4.9,2.3,7.7
				l1.5,7.7v0l1.1,5.2c-0.1,3.6-0.7,8.6,0,15.6C202.3,133.3,203.4,137.4,204.7,140.3z"/>
			<path class="st16" d="M199.1,52.3c6.8,7.4,5.4,12.2,0.7,11.5v0c-5.6-4.1-11.8-3.1-15.9,1c-2.8,5-3.6,9.7-0.5,13.8
				c-2.6-2-5.1-4.8-6-17.7C178.4,52.3,189.4,48.2,199.1,52.3z"/>
			<path class="st17" d="M199.8,63.9c2.9,2.1,5.6,5.6,7.9,10.7c-0.9,9.7-7.1,12.9-18.4,9.7c-0.3-0.4-0.7-0.7-1.1-1.1
				c-0.5-0.5-1.1-1-1.7-1.4c-1.3-1-2.4-2-3.1-3.1c-3.1-4.1-2.2-8.8,0.5-13.8C187.9,60.8,194.1,59.7,199.8,63.9z M191.6,83.1
				c8.5,0.8,13.7-3.7,13-9.1c-2.7-8.7-11.1-13.2-18.2-7.8C180.5,71.9,183.3,79.9,191.6,83.1z"/>
			<path class="st18" d="M192.9,66.2c4.3,0,7.8,2.9,7.8,6.5s-3.5,6.5-7.8,6.5c-4.3,0-7.8-2.9-7.8-6.5S188.6,66.2,192.9,66.2z
				 M194.2,73.3c0-1.1-0.9-2-2-2s-2,0.9-2,2c0,1.1,0.9,2,2,2S194.2,74.4,194.2,73.3z"/>
			<path class="st19" d="M196.2,18.6c-7.1-1.9-9.5,4.1-9.7,13.8C151.1,2.7,111.3,11.5,73.8,47.5l0,0C62.2,58.7,50.9,72.4,39.9,88.3
				C59.7,40,101.5,1.5,161.7,5.1C173.7,6.2,185.3,10.4,196.2,18.6z"/>
			<circle class="st20" cx="192.3" cy="73.3" r="2"/>
			<path class="st21" d="M186.4,32.4c0,0.4,0,0.9,0,1.3c-2.7,2.3-5.4,3.6-8,3.8c-3.1,0.3-6-0.9-8.9-3.8
				c-28.9-4.8-42.5,10.6-36.2,51.8c-2.2-2.1-4.5-4.2-6.7-6.3c-2.6-3.5-5.6-5.6-8.7-6.5c-7.6-11.5-17.5-11.1-28.8-2.3
				c10.7-11.3-1.5-28.9-15.3-22.9C111.3,11.5,151.1,2.7,186.4,32.4z"/>
			<path class="st22" d="M178.4,37.5c5.6,8.9,0.3,11.5-11.5,10.5c-19.5-2.7-27.7,12.1-22.5,47.6c-3.7-3.3-7.4-6.6-11.1-10.1
				c-6.3-41.2,7.2-56.5,36.2-51.8C172.4,36.6,175.4,37.8,178.4,37.5z"/>
			<path class="st23" d="M162.4,290.3c0.2,0.3,0.4,0.5,0.6,0.8c0,2.2-12.8,3.9-28.6,3.9s-28.6-1.7-28.6-3.9c0-1.3,4.8-2.5,12.1-3.2
				c4.7-0.4,10.4-0.7,16.5-0.7c1.3,0,2.6,0,3.9,0C150.3,287.5,160,288.7,162.4,290.3z"/>
			<path class="st24" d="M162.4,290.3c-2.4-1.6-12.1-2.8-24.1-3.1c-9.9-25.6-23.2-51-39.8-76.3c6.1,2.8,13,8.1,20.3,16.3
				C131.6,247.8,146.2,269,162.4,290.3z"/>
			<path class="st25" d="M138.3,287.2c-1.3,0-2.6,0-3.9,0c-6.2,0-11.9,0.3-16.5,0.7c-16.9-19-31.1-42.9-43.6-69.7v0
				c3.7-9.1,12.6-12.5,24.2-7.2C115.1,236.2,128.4,261.7,138.3,287.2z"/>
			<path class="st26" d="M92.4,180.5c7.7,15.1,16.5,30.7,26.5,46.7c-7.3-8.2-14.2-13.4-20.3-16.3c-11.6-5.3-20.5-1.9-24.2,7.2v0
				c-2.4,5.9-2.6,14.1,0,23.8l-12.7-19.8c-3.3-5.9-6.6-11.8-9.6-17.7c8.2,6.9,14.2,0.8,18.7-13.5C76.3,174.7,84,175.5,92.4,180.5z"
				/>
			<path class="st27" d="M117.9,287.9c-7.3,0.7-12.1,1.9-12.1,3.2L74.3,242c-2.6-9.7-2.4-17.9,0-23.8
				C86.8,245.1,101,268.9,117.9,287.9z"/>
			<path class="st28" d="M117.9,72.7c-6-1.8-12.8,0.5-19.9,3.9c-23.4,14.3-25.4,59.9-15.6,83.2c2.1,4.7,4.3,9.4,6.7,14.1
				c-11.9-19.4-22.3-30.2-28.8-20.6c-0.1-31-0.7-62.3,26-80.6c0.9-0.8,1.9-1.6,2.8-2.3C100.4,61.6,110.2,61.2,117.9,72.7z"/>
			<path class="st29" d="M89.1,173.9c1.1,2.2,2.1,4.3,3.3,6.5c-8.3-5-16.1-5.8-21.6,10.5c-4.5,14.3-10.5,20.3-18.7,13.5
				c-8.3-16-15.4-32.4-18.9-49.7c7.4,17.7,16.6,15.2,27.2-1.5C66.8,143.7,77.2,154.5,89.1,173.9L89.1,173.9z"/>
			<path class="st30" d="M73.8,47.5c13.8-6,25.9,11.6,15.3,22.9c-0.9,0.7-1.8,1.5-2.8,2.3c-26.7,18.3-26.1,49.6-26,80.6
				c-10.6,16.7-19.9,19.1-27.2,1.5c-3.4-17.1-3.4-35.1,2.5-54.8c1.3-3.9,2.7-7.8,4.3-11.7C50.9,72.4,62.2,58.7,73.8,47.5L73.8,47.5z
				"/>
		</g>
		<g>
		</g>
	</g>
</g>
</svg>
