<?xml version="1.0" encoding="utf-8"?>
<!-- Generator: Adobe Illustrator 22.1.0, SVG Export Plug-In . SVG Version: 6.00 Build 0)  -->
<svg version="1.1" id="Layer_2" xmlns="http://www.w3.org/2000/svg" xmlns:xlink="http://www.w3.org/1999/xlink" x="0px" y="0px"
	 viewBox="0 0 300 300" style="enable-background:new 0 0 300 300;" xml:space="preserve">
<style type="text/css">
	.st0{fill:#EF649E;}
	.st1{fill:#FADCE8;}
</style>
<path class="st0" d="M7.9-33.1"/>
<g>
	<g>
		<g id="XMLID_5_">
			<g>
				<path class="st0" d="M83.2,17.4c-5.3,7.5-1.8,9.6,4.9,9.9c2.3,4.1,5.8,5,10.9,2.1c5.2,3,12.4-1.7,9.7-10.3
					c0.9,6.5-2.7,11.5-10.4,8.4c-3.4,2.2-6.4,2.1-9-2C83,26.5,81.2,23.6,83.2,17.4z"/>
				<path class="st0" d="M83.9,114.1c1.2,2.7,6.2,2,6.9-0.1C88.8,115.4,86.4,115.1,83.9,114.1z"/>
				<path class="st1" d="M84.7,276.1c8.7-6.6,18-18.6,36.2,13.2c1.6-6.3,1.9-12.4-1.6-18c-2-1.2-5.4-6.3-11.4-10
					c9.9,3.2,15.6,10.2,20.5,18c0.4-4.5-0.8-9.1-4.7-13.7c-4.1-4.1-10.7-6.8-17.3-9.4c10.5,1.4,18.7,5.1,24.4,11.1
					c-6-23.2-36.6-9-41.2-11.2c-0.6-0.9-1.4-0.8-2.3-0.1L92,113.4c2.6-8,3-14.5-0.5-24.6c-0.8-19.8,1.8-39.3,7.1-58.5l0.4-0.8
					c-5.1,2.8-8.6,2-10.9-2.1l-0.7,4.6c-3.2,20.8-5.1,40-5.3,57.3c-3.7,9.5-2.7,17.6,0.5,25.1l0.1,145.2c-0.8,1.6-0.6,3.1,0.6,4.7
					c1.2,0.5,2.1,0.3,2.9-0.4C81.8,272.7,81.2,276.9,84.7,276.1z M90.8,113.9c-0.8,2.1-5.7,2.9-6.9,0.1
					C86.4,115.1,88.8,115.4,90.8,113.9z"/>
				<path class="st0" d="M107.9,261.4c6,3.8,9.5,8.8,11.4,10l9.1,8C123.5,271.6,117.8,264.5,107.9,261.4z"/>
				<path class="st0" d="M106.4,256.3c6.6,2.6,13.1,5.2,17.3,9.4l7.1,1.7C125.1,261.4,116.9,257.7,106.4,256.3z"/>
			</g>
			<g>
			</g>
		</g>
	</g>
</g>
<g>
	<g>
		<g id="XMLID_1_">
			<g>
				<path class="st0" d="M197.6,17.4c5.3,7.5,1.8,9.6-4.9,9.9c-2.3,4.1-5.8,5-10.9,2.1c-5.2,3-12.4-1.7-9.7-10.3
					c-0.9,6.5,2.7,11.5,10.4,8.4c3.4,2.2,6.4,2.1,9-2C197.8,26.5,199.6,23.6,197.6,17.4z"/>
				<path class="st0" d="M196.9,114.1c-1.2,2.7-6.2,2-6.9-0.1C192,115.4,194.4,115.1,196.9,114.1z"/>
				<path class="st1" d="M182.2,30.3l-0.4-0.8c5.1,2.8,8.6,2,10.9-2.1l0.7,4.6c3.2,20.8,5.1,40,5.3,57.3c3.7,9.5,2.7,17.6-0.5,25.1
					l-0.1,145.2c0.8,1.6,0.6,3.1-0.6,4.7c-1.2,0.5-2.1,0.3-2.9-0.4c4.3,9,4.9,13.2,1.4,12.3c-8.7-6.6-18-18.5-36.2,13.2
					c-1.6-6.3-1.9-12.4,1.6-18c2-1.2,5.4-6.3,11.4-10c-9.9,3.2-15.6,10.2-20.5,18c-0.4-4.5,0.8-9.1,4.7-13.7
					c4.1-4.1,10.7-6.8,17.3-9.4c-10.5,1.4-18.7,5.1-24.4,11.1c6-23.1,36.6-9,41.2-11.2c0.6-0.9,1.4-0.8,2.3-0.1l-4.6-142.7
					c-2.6-8-3-14.5,0.5-24.6C190.1,69.1,187.5,49.6,182.2,30.3z M190,113.9c0.8,2.1,5.7,2.9,6.9,0.1
					C194.4,115.1,192,115.4,190,113.9z"/>
				<path class="st0" d="M172.9,261.4c-6,3.8-9.5,8.8-11.4,10l-9.1,8C157.3,271.6,163,264.5,172.9,261.4z"/>
				<path class="st0" d="M174.4,256.3c-6.6,2.6-13.1,5.2-17.3,9.4l-7.1,1.7C155.7,261.4,163.9,257.7,174.4,256.3z"/>
			</g>
			<g>
			</g>
		</g>
	</g>
</g>
</svg>
