<svg xmlns="http://www.w3.org/2000/svg" xmlns:xlink="http://www.w3.org/1999/xlink" viewBox="0 0 1920 1080"><defs><style>.cls-1{fill:url(#linear-gradient);}.cls-2{fill:url(#linear-gradient-2);}.cls-3{fill:url(#linear-gradient-3);}.cls-4{fill:url(#linear-gradient-4);}.cls-5{fill:url(#linear-gradient-5);}.cls-6{fill:url(#linear-gradient-6);}.cls-7{fill:url(#linear-gradient-7);}.cls-8{fill:url(#linear-gradient-8);}.cls-9{fill:url(#linear-gradient-9);}.cls-10{fill:url(#linear-gradient-10);}.cls-11{fill:url(#linear-gradient-11);}.cls-12{fill:url(#linear-gradient-12);}.cls-13{fill:url(#linear-gradient-13);}.cls-14{fill:url(#linear-gradient-14);}.cls-15{fill:url(#linear-gradient-15);}.cls-16{fill:url(#linear-gradient-16);}.cls-17{fill:url(#linear-gradient-17);}.cls-18{fill:url(#linear-gradient-18);}.cls-19{fill:url(#linear-gradient-19);}.cls-20{fill:url(#linear-gradient-20);}.cls-21{fill:url(#linear-gradient-21);}.cls-22{fill:url(#linear-gradient-22);}.cls-23{fill:url(#linear-gradient-23);}.cls-24{fill:url(#linear-gradient-24);}.cls-25{fill:url(#linear-gradient-25);}.cls-26{fill:url(#linear-gradient-26);}.cls-27{fill:url(#linear-gradient-27);}.cls-28{fill:url(#linear-gradient-28);}.cls-29{fill:url(#linear-gradient-29);}.cls-30{fill:url(#linear-gradient-30);}.cls-31{fill:url(#linear-gradient-31);}.cls-32{fill:url(#linear-gradient-32);}.cls-33{fill:url(#linear-gradient-33);}.cls-34{fill:url(#linear-gradient-34);}.cls-35{fill:url(#linear-gradient-35);}.cls-36{fill:url(#linear-gradient-36);}.cls-37{fill:url(#linear-gradient-37);}.cls-38{fill:url(#linear-gradient-38);}.cls-39{fill:url(#linear-gradient-39);}.cls-40{fill:url(#linear-gradient-40);}.cls-41{fill:url(#linear-gradient-41);}.cls-42{fill:url(#linear-gradient-42);}.cls-43{fill:url(#linear-gradient-43);}.cls-44{fill:url(#linear-gradient-44);}.cls-45{fill:url(#linear-gradient-45);}.cls-46{fill:url(#linear-gradient-46);}.cls-47{fill:url(#linear-gradient-47);}.cls-48{fill:url(#linear-gradient-48);}.cls-49{fill:url(#linear-gradient-49);}.cls-50{fill:url(#linear-gradient-50);}.cls-51{fill:url(#linear-gradient-51);}.cls-52{fill:url(#linear-gradient-52);}.cls-53{fill:url(#linear-gradient-53);}.cls-54{fill:url(#linear-gradient-54);}.cls-55{fill:url(#linear-gradient-55);}.cls-56{fill:url(#linear-gradient-56);}.cls-57{fill:url(#linear-gradient-57);}.cls-58{fill:url(#linear-gradient-58);}.cls-59{fill:url(#linear-gradient-59);}.cls-60{fill:url(#linear-gradient-60);}.cls-61{fill:url(#linear-gradient-61);}.cls-62{fill:url(#linear-gradient-62);}.cls-63{fill:url(#linear-gradient-63);}.cls-64{fill:#ffdbc2;}.cls-65{fill:#77a323;}.cls-66{fill:#8eb72a;}</style><linearGradient id="linear-gradient" x1="455.11" y1="565.7" x2="565.19" y2="574.43" gradientUnits="userSpaceOnUse"><stop offset="0.03" stop-color="#980012"/><stop offset="1" stop-color="#e4001b"/></linearGradient><linearGradient id="linear-gradient-2" x1="517.91" y1="587.5" x2="563.86" y2="591.15" gradientUnits="userSpaceOnUse"><stop offset="0.04" stop-color="#ed9b65"/><stop offset="0.96" stop-color="#e3a26c"/></linearGradient><linearGradient id="linear-gradient-3" x1="502.53" y1="580.35" x2="549.72" y2="584.09" gradientUnits="userSpaceOnUse"><stop offset="0.04" stop-color="#e9764a"/><stop offset="0.96" stop-color="#e3a26c"/></linearGradient><linearGradient id="linear-gradient-4" x1="379.3" y1="533.52" x2="556.38" y2="547.56" gradientUnits="userSpaceOnUse"><stop offset="0" stop-color="#dd0021"/><stop offset="1" stop-color="#ff7e6d"/></linearGradient><linearGradient id="linear-gradient-5" x1="445.04" y1="599.83" x2="520.65" y2="605.83" gradientUnits="userSpaceOnUse"><stop offset="0" stop-color="#dc001e"/><stop offset="0.97" stop-color="#d2001d"/><stop offset="1" stop-color="#e4001b"/></linearGradient><linearGradient id="linear-gradient-6" x1="431.1" y1="579.87" x2="517.97" y2="586.75" xlink:href="#linear-gradient"/><linearGradient id="linear-gradient-7" x1="260.34" y1="573.14" x2="454.66" y2="588.54" gradientUnits="userSpaceOnUse"><stop offset="0.04" stop-color="#ffc395"/><stop offset="0.96" stop-color="#ffa769"/></linearGradient><linearGradient id="linear-gradient-8" x1="262.16" y1="547.55" x2="455.33" y2="562.86" gradientUnits="userSpaceOnUse"><stop offset="0" stop-color="#fff3e4"/><stop offset="0.96" stop-color="#ffdabf"/></linearGradient><linearGradient id="linear-gradient-9" x1="367.75" y1="615.42" x2="445.37" y2="621.57" xlink:href="#linear-gradient-2"/><linearGradient id="linear-gradient-10" x1="360.12" y1="596.9" x2="444.74" y2="603.61" xlink:href="#linear-gradient-3"/><linearGradient id="linear-gradient-11" x1="291.85" y1="626.48" x2="367.65" y2="632.49" xlink:href="#linear-gradient-5"/><linearGradient id="linear-gradient-12" x1="293.41" y1="606.79" x2="367.78" y2="612.69" xlink:href="#linear-gradient"/><linearGradient id="linear-gradient-13" x1="215.59" y1="632.56" x2="292" y2="638.62" xlink:href="#linear-gradient-2"/><linearGradient id="linear-gradient-14" x1="218.72" y1="606.27" x2="292.98" y2="612.15" xlink:href="#linear-gradient-3"/><linearGradient id="linear-gradient-15" x1="159.65" y1="566.37" x2="306.19" y2="577.98" xlink:href="#linear-gradient-4"/><linearGradient id="linear-gradient-16" x1="155.95" y1="607.95" x2="265.08" y2="616.6" xlink:href="#linear-gradient"/><linearGradient id="linear-gradient-17" x1="192.36" y1="624.64" x2="219.48" y2="626.79" gradientUnits="userSpaceOnUse"><stop offset="0.8" stop-color="#980012"/><stop offset="1" stop-color="#e4001b"/></linearGradient><linearGradient id="linear-gradient-18" x1="158.42" y1="633.75" x2="216.18" y2="638.32" xlink:href="#linear-gradient-5"/><linearGradient id="linear-gradient-19" x1="315.35" y1="801.38" x2="450.96" y2="812.13" gradientUnits="userSpaceOnUse"><stop offset="0.44" stop-color="#efe6e6"/><stop offset="1" stop-color="#7f797b"/></linearGradient><linearGradient id="linear-gradient-20" x1="328.59" y1="634.4" x2="388.04" y2="639.11" gradientUnits="userSpaceOnUse"><stop offset="0.53" stop-color="#7f797b"/><stop offset="1" stop-color="#efe6e6"/></linearGradient><linearGradient id="linear-gradient-21" x1="338.38" y1="510.92" x2="397.83" y2="515.63" gradientUnits="userSpaceOnUse"><stop offset="0.06" stop-color="#efe6e6"/><stop offset="0.68" stop-color="#7f797b"/></linearGradient><linearGradient id="linear-gradient-22" x1="1626.55" y1="662.68" x2="1671.24" y2="679.12" xlink:href="#linear-gradient-2"/><linearGradient id="linear-gradient-23" x1="1570.17" y1="623.47" x2="1677.22" y2="662.87" xlink:href="#linear-gradient"/><linearGradient id="linear-gradient-24" x1="1613.25" y1="651.27" x2="1659.13" y2="668.16" xlink:href="#linear-gradient-3"/><linearGradient id="linear-gradient-25" x1="1550.64" y1="654.61" x2="1624.16" y2="681.66" xlink:href="#linear-gradient-5"/><linearGradient id="linear-gradient-26" x1="1542.34" y1="630.86" x2="1626.82" y2="661.95" xlink:href="#linear-gradient"/><linearGradient id="linear-gradient-27" x1="1503.76" y1="570.31" x2="1675.96" y2="633.68" xlink:href="#linear-gradient-4"/><linearGradient id="linear-gradient-28" x1="1383.34" y1="551.57" x2="1571.19" y2="620.71" xlink:href="#linear-gradient-8"/><linearGradient id="linear-gradient-29" x1="1469.41" y1="648.54" x2="1544.89" y2="676.31" xlink:href="#linear-gradient-2"/><linearGradient id="linear-gradient-30" x1="1374.39" y1="576.51" x2="1563.36" y2="646.06" xlink:href="#linear-gradient-7"/><linearGradient id="linear-gradient-31" x1="1390.84" y1="638.36" x2="1464.55" y2="665.48" xlink:href="#linear-gradient-5"/><linearGradient id="linear-gradient-32" x1="1466.99" y1="627.99" x2="1549.29" y2="658.28" xlink:href="#linear-gradient-3"/><linearGradient id="linear-gradient-33" x1="1397.88" y1="619.22" x2="1470.21" y2="645.83" xlink:href="#linear-gradient"/><linearGradient id="linear-gradient-34" x1="1313.3" y1="623.13" x2="1387.6" y2="650.47" xlink:href="#linear-gradient-2"/><linearGradient id="linear-gradient-35" x1="1323.74" y1="597.85" x2="1395.96" y2="624.43" xlink:href="#linear-gradient-3"/><linearGradient id="linear-gradient-36" x1="1260.85" y1="582.01" x2="1366.97" y2="621.06" xlink:href="#linear-gradient"/><linearGradient id="linear-gradient-37" x1="1276.14" y1="541.69" x2="1418.63" y2="594.13" xlink:href="#linear-gradient-4"/><linearGradient id="linear-gradient-38" x1="1292.41" y1="608.77" x2="1318.78" y2="618.48" xlink:href="#linear-gradient-17"/><linearGradient id="linear-gradient-39" x1="1256.1" y1="608.35" x2="1312.27" y2="629.02" xlink:href="#linear-gradient-5"/><linearGradient id="linear-gradient-40" x1="1365.41" y1="818.87" x2="1497.28" y2="867.4" xlink:href="#linear-gradient-19"/><linearGradient id="linear-gradient-41" x1="1425.17" y1="656.49" x2="1482.98" y2="677.76" xlink:href="#linear-gradient-20"/><linearGradient id="linear-gradient-42" x1="1469.36" y1="536.41" x2="1527.17" y2="557.68" xlink:href="#linear-gradient-21"/><linearGradient id="linear-gradient-43" x1="1108.34" y1="539.58" x2="1173.63" y2="557.24" xlink:href="#linear-gradient-2"/><linearGradient id="linear-gradient-44" x1="1023.67" y1="491.19" x2="1180.05" y2="533.49" xlink:href="#linear-gradient"/><linearGradient id="linear-gradient-45" x1="1088.1" y1="525.12" x2="1155.13" y2="543.25" xlink:href="#linear-gradient-3"/><linearGradient id="linear-gradient-46" x1="999.95" y1="537.69" x2="1107.35" y2="566.74" xlink:href="#linear-gradient-5"/><linearGradient id="linear-gradient-47" x1="985.23" y1="505.14" x2="1108.63" y2="538.51" xlink:href="#linear-gradient"/><linearGradient id="linear-gradient-48" x1="923.05" y1="424.33" x2="1174.6" y2="492.36" xlink:href="#linear-gradient-4"/><linearGradient id="linear-gradient-49" x1="750.35" y1="412.94" x2="1024.76" y2="487.15" xlink:href="#linear-gradient-8"/><linearGradient id="linear-gradient-50" x1="884.29" y1="539.3" x2="994.55" y2="569.12" xlink:href="#linear-gradient-2"/><linearGradient id="linear-gradient-51" x1="740.82" y1="449.34" x2="1016.87" y2="524" xlink:href="#linear-gradient-7"/><linearGradient id="linear-gradient-52" x1="771.85" y1="534.76" x2="879.53" y2="563.88" xlink:href="#linear-gradient-5"/><linearGradient id="linear-gradient-53" x1="878.28" y1="510.54" x2="998.5" y2="543.05" xlink:href="#linear-gradient-3"/><linearGradient id="linear-gradient-54" x1="779.41" y1="506.8" x2="885.07" y2="535.37" xlink:href="#linear-gradient"/><linearGradient id="linear-gradient-55" x1="660.25" y1="522.95" x2="768.79" y2="552.3" xlink:href="#linear-gradient-2"/><linearGradient id="linear-gradient-56" x1="671.85" y1="485.88" x2="777.35" y2="514.41" xlink:href="#linear-gradient-3"/><linearGradient id="linear-gradient-57" x1="580.89" y1="471.36" x2="735.92" y2="513.29" xlink:href="#linear-gradient"/><linearGradient id="linear-gradient-58" x1="597.46" y1="412.41" x2="805.62" y2="468.7" xlink:href="#linear-gradient-4"/><linearGradient id="linear-gradient-59" x1="628.89" y1="505.26" x2="667.42" y2="515.68" xlink:href="#linear-gradient-17"/><linearGradient id="linear-gradient-60" x1="577.49" y1="509.23" x2="659.54" y2="531.42" xlink:href="#linear-gradient-5"/><linearGradient id="linear-gradient-61" x1="758.54" y1="793.31" x2="951.17" y2="845.41" xlink:href="#linear-gradient-19"/><linearGradient id="linear-gradient-62" x1="822.7" y1="556.1" x2="907.15" y2="578.94" xlink:href="#linear-gradient-20"/><linearGradient id="linear-gradient-63" x1="870.14" y1="380.69" x2="954.59" y2="403.53" xlink:href="#linear-gradient-21"/></defs><title>beach</title><g id="Layer_3" data-name="Layer 3"><path class="cls-1" d="M555.08,563.89c4.4,3.16,7.61,8.48,9.69,15.81q-7.24-.78-14.59-1.36h0q-23.24-1.86-47.32-2-19.62-.15-39.76.78c-3.84-5.71-5.64-12-7.4-18.78A620.1,620.1,0,0,1,555.08,563.89Z"/><path class="cls-2" d="M550.18,578.34q7.34.58,14.59,1.36c-12.66,9.78-24.95,17.27-36.48,20.35-4.64-1.85-7.29-6.17-9.73-10.74-.2-.63-.41-1.28-.63-1.93h0q16.17-4.29,32.25-9Z"/><path class="cls-3" d="M502.85,576.33q24.07.15,47.32,2-16.08,4.75-32.25,9Z"/><path class="cls-4" d="M555.08,563.89a620.1,620.1,0,0,0-99.39-5.56l0-.27c-11.2-15.63-33.91-29.44-75.16-40.32C455.65,514.5,524.28,533.39,555.08,563.89Z"/><path class="cls-5" d="M518.56,589.31c2,6.36,3.22,11.58,2,13.55a234.77,234.77,0,0,1-68.26,15.79c-2.67-2.14-5.15-7.31-7.53-13.7,0-.17,0-.33-.06-.51h0q36.85-7.41,73.24-17.07h0C518.15,588,518.36,588.68,518.56,589.31Z"/><path class="cls-6" d="M502.85,576.33l15.07,11q-36.39,9.68-73.24,17.07l-13.79-21.91q11.85-2,23.21-4.08a38,38,0,0,0,1.59-20.12c1.76,6.77,3.56,13.07,7.4,18.78Q483.24,576.19,502.85,576.33Z"/><path class="cls-7" d="M455.69,558.33a38,38,0,0,1-1.59,20.12q-11.36,2.07-23.21,4.08c-22.25,3.76-45.82,7.35-70.49,10.78-21.42,3-43.67,5.86-66.61,8.63q-10.37,1.26-20.91,2.49c-5.8-2.93-10.12-9.41-13.6-17.89l.07,0C332.09,568.39,397.05,559.59,455.69,558.33Z"/><path class="cls-8" d="M455.71,558.06l0,.27c-58.64,1.26-123.6,10.06-196.34,28.19l-.07-.27c-.32-23.83,18.71-43,50.92-58.91a380.41,380.41,0,0,1,70.35-9.6C421.8,528.62,444.51,542.43,455.71,558.06Z"/><path class="cls-9" d="M444.75,605c.8,6.93,1.29,13.17.46,16.55-21.85,5.55-45.74,9.28-71.33,11.44-3.44-2-5-8.38-6.29-15.51q38.75-5.29,77-13C444.62,604.63,444.68,604.79,444.75,605Z"/><path class="cls-10" d="M444.56,604.46q-38.24,7.69-77,13a1.08,1.08,0,0,1-.19,0l-7-24.15c24.67-3.43,48.24-7,70.49-10.78l13.79,21.91Z"/><path class="cls-11" d="M367.4,617.46c1.08,6.89,1.1,12.71-1.11,16.25-24.43,5.59-47.9,9.24-69,8.21-3.1-2.71-4.14-8.26-5.25-13.73,0-.89-.05-1.8-.08-2.71h0Q329.9,622.57,367.4,617.46Z"/><path class="cls-12" d="M360.4,593.31l7,24.15q-37.5,5.12-75.47,8l1.86-23.53C316.73,599.17,339,596.3,360.4,593.31Z"/><path class="cls-13" d="M292,628.19c.24,8.3.2,15.51-1.7,15.23-21.79,2.37-47.09,2.93-74.72,2.28-1.4-3.7-.27-9.8,1.29-16.31l-.06,0,.09-.31q37.74-.73,75-3.59h0C292,626.39,292,627.3,292,628.19Z"/><path class="cls-14" d="M293.79,601.94l-1.86,23.53q-37.29,2.87-75,3.59l3-7c19.14-5.14,35.28-10,45.9-14.14,0-6.47-3.53-13.93-6.48-21.42,3.48,8.48,7.8,15,13.6,17.89Q283.43,603.2,293.79,601.94Z"/><path class="cls-15" d="M155.64,617C196.05,569.29,252.2,541,310.2,527.34,278,543.28,259,562.42,259.28,586.25l.07.27-.07,0Q209.92,598.84,155.64,617Z"/><path class="cls-16" d="M259.28,586.54c3,7.49,6.52,15,6.48,21.42-10.62,4.19-26.76,9-45.9,14.14-8.75,2.35-18.11,4.77-27.87,7.23-10.92,2.75-22.33,5.56-33.89,8.39-2.74-8.63-4.15-16.07-2.46-20.71Q210,598.76,259.28,586.54Z"/><path class="cls-17" d="M219.86,622.1l-3,7q-12.43.26-24.92.27C201.75,626.87,211.11,624.45,219.86,622.1Z"/><path class="cls-18" d="M216.91,629.06l-.09.31c-2.29,7.37-4.8,13.56-8,15.79-24.17,1.59-40.56-1.18-50.7-7.44,11.56-2.83,23-5.64,33.89-8.39Q204.47,629.32,216.91,629.06Z"/><path class="cls-19" d="M385,677.4l55.75,263.43-10.2-.81L375.85,683.2Q380.64,677.59,385,677.4Z"/><path class="cls-20" d="M367,592.39l18,85q-4.36.18-9.16,5.8l-19-89.21Z"/><path class="cls-21" d="M351.71,520.07l.07.36a47.83,47.83,0,0,0-10.11,1.24l-.22.05-.09-.42-2.43-12.5c-1.49-11.4,7.91-9.29,9.78-2.64Z"/><path class="cls-22" d="M1661.2,662.56q7.14,2.64,14.13,5.43c-15.32,6.19-29.63,10.21-42,10.06-4.09-3.14-5.52-8.17-6.67-13.39,0-.69,0-1.39-.09-2.11h0q17.26.24,34.59,0Z"/><path class="cls-23" d="M1670.11,649.56c3.49,4.38,5.19,10.56,5.22,18.43q-7-2.79-14.13-5.43h0q-22.59-8.34-46.5-15.2-19.49-5.61-39.76-10.32c-2.23-6.75-2.26-13.51-2.12-20.74A641,641,0,0,1,1670.11,649.56Z"/><path class="cls-24" d="M1614.69,647.36q23.89,6.87,46.5,15.2-17.31.24-34.59,0Z"/><path class="cls-25" d="M1626.69,664.66c.26,6.89,0,12.41-1.81,14a242.41,242.41,0,0,1-72.3-3.34c-2-2.88-3.08-8.71-3.67-15.72,0-.18.06-.35.08-.53h0q38.71,2.92,77.61,3.47h0C1626.64,663.27,1626.66,664,1626.69,664.66Z"/><path class="cls-26" d="M1626.6,662.55q-38.89-.54-77.61-3.47l-7.6-25.63q12.34,1.31,24.22,2.41a39.19,39.19,0,0,0,7.2-19.56c-.14,7.23-.11,14,2.12,20.74q20.28,4.73,39.76,10.32Z"/><path class="cls-27" d="M1572.9,616c-6.78-18.68-25.51-38.75-63.5-61.08,75.6,17.74,138.59,55.67,160.71,94.6a641,641,0,0,0-97.3-33.26Z"/><path class="cls-28" d="M1572.9,616l-.09.26c-58.67-15.12-125.74-24.48-203.15-26.75v-.29c6.33-23.79,30.6-37.51,67.09-44.38A393.6,393.6,0,0,1,1509.4,555C1547.39,577.29,1566.12,597.36,1572.9,616Z"/><path class="cls-29" d="M1548.91,659.62c-1.13,7.1-2.38,13.46-4.15,16.59-23.29-.58-48.08-3.55-74.14-8.53-2.86-2.95-2.66-9.74-1.93-17.19q40,5.55,80.18,8.58C1548.88,659.26,1548.9,659.44,1548.91,659.62Z"/><path class="cls-30" d="M1565.61,635.86q-11.86-1.1-24.22-2.41c-23.18-2.47-47.62-5.48-73.12-9-22.13-3-45.07-6.36-68.65-10q-10.66-1.63-21.49-3.36c-5-4.52-7.45-12.18-8.54-21.58h.07c77.41,2.27,144.48,11.63,203.15,26.75A39.19,39.19,0,0,1,1565.61,635.86Z"/><path class="cls-31" d="M1468.5,650.47c-.85,7.16-2.46,12.95-5.64,15.86-25.86-1.27-50.23-4.18-70.94-11.11-2.34-3.55-1.82-9.36-1.4-15.12.23-.89.45-1.8.67-2.72h0Q1429.78,645.09,1468.5,650.47Z"/><path class="cls-32" d="M1548.87,659.07q-40.17-3-80.18-8.58l-.19,0-.23-26c25.5,3.47,49.94,6.48,73.12,9l7.6,25.63Z"/><path class="cls-33" d="M1468.27,624.5l.23,26q-38.73-5.37-77.3-13.09l8.42-22.89C1423.2,618.14,1446.14,621.49,1468.27,624.5Z"/><path class="cls-34" d="M1315.41,620.3c0-.09.12-.19.18-.28q37.73,9.79,75.61,17.36h0c-.22.92-.44,1.83-.67,2.72-2.08,8.33-4.12,15.48-5.94,14.67-22.34-3.71-47.65-10.22-74.95-18.58-.36-4.06,2.47-9.82,5.84-15.85Z"/><path class="cls-35" d="M1369.59,589.55c1.09,9.4,3.58,17.06,8.54,21.58q10.83,1.73,21.49,3.36l-8.42,22.89q-37.89-7.56-75.61-17.36l4.87-6.1c20.47.22,37.87,0,49.6-1.25C1371.9,606.24,1370.44,597.82,1369.59,589.55Z"/><path class="cls-36" d="M1369.59,589.55c.85,8.27,2.31,16.69.47,23.12-11.73,1.2-29.13,1.47-49.6,1.25-9.35-.1-19.34-.31-29.73-.59-11.63-.31-23.76-.7-36-1.11-.32-9.35.36-17.14,3.33-21.28Q1317.16,587.94,1369.59,589.55Z"/><path class="cls-37" d="M1369.66,589.55h-.07Q1317.07,588,1258,590.94c53.51-36.19,117.26-48.71,178.75-46.06-36.49,6.87-60.76,20.59-67.09,44.38Z"/><path class="cls-38" d="M1320.46,613.92l-4.87,6.1q-12.45-3.22-24.86-6.69C1301.12,613.61,1311.11,613.82,1320.46,613.92Z"/><path class="cls-39" d="M1315.59,620c-.06.09-.13.19-.18.28-4.33,6.69-8.55,12.14-12.39,13.46-24.48-5.16-40-12.49-48.34-21.54,12.29.41,24.42.8,36,1.11Q1303.15,616.79,1315.59,620Z"/><path class="cls-40" d="M1469.28,715l-18.06,277.55-9.91-3.65,17.24-270.69C1462.77,715.39,1466.35,714.31,1469.28,715Z"/><path class="cls-41" d="M1475.11,625.42,1469.28,715c-2.93-.69-6.51.39-10.73,3.21l6-94Z"/><path class="cls-42" d="M1480.07,549.23l0,.38a49.65,49.65,0,0,0-10.41-1.59h-.23l0-.44,1.07-13.11c1.7-11.76,10.46-7,10.47.1Z"/><path class="cls-43" d="M1157.35,535.07q10.43,2.83,20.68,5.9c-20.91,10.68-40.65,18.17-58.11,19.51-6.19-3.94-8.84-10.87-11.13-18.12-.12-1-.24-2-.39-3h0q24.48-1.83,48.95-4.33Z"/><path class="cls-44" d="M1168.32,515.56c5.49,5.75,8.67,14.28,9.71,25.41q-10.26-3.08-20.68-5.9h0q-33-9-67.7-15.66-28.25-5.5-57.53-9.61c-4-9.26-4.9-18.83-5.61-29.08A910.29,910.29,0,0,1,1168.32,515.56Z"/><path class="cls-45" d="M1089.64,519.4q34.68,6.72,67.7,15.66-24.46,2.51-48.95,4.33Z"/><path class="cls-46" d="M1108.79,542.36c1.24,9.72,1.53,17.57-.8,20.07-32.83,6.59-67.09,7.93-102.69,4.34-3.27-3.81-5.45-11.93-7.16-21.78,0-.25,0-.5,0-.75h0q55.14-.74,110.21-4.84h0C1108.55,540.4,1108.67,541.4,1108.79,542.36Z"/><path class="cls-47" d="M1108.39,539.39q-55.08,4.11-110.21,4.84l-14-35.31q17.64.3,34.56.37a55.55,55.55,0,0,0,7.73-28.58c.71,10.25,1.61,19.82,5.61,29.08q29.27,4.12,57.53,9.61Z"/><path class="cls-48" d="M1168.32,515.56a910.29,910.29,0,0,0-141.82-34.85l.11-.38c-11.94-25.56-41-51.61-97.5-78.42C1038.27,417.51,1132.14,463.27,1168.32,515.56Z"/><path class="cls-49" d="M1026.61,480.33l-.11.38c-84.89-14-180.94-18.84-290.73-12.34l0-.4c6-34.45,38.57-56.91,89.33-71.21a558,558,0,0,1,104,5.15C985.65,428.72,1014.67,454.77,1026.61,480.33Z"/><path class="cls-50" d="M998.14,545c-.72,10.2-1.69,19.34-3.8,24-33,2.1-68.46,1-106-2.76-4.41-3.82-5-13.45-4.88-24.07Q940.8,545,998,544.23C998,544.49,998.09,544.74,998.14,545Z"/><path class="cls-51" d="M1018.77,509.29q-16.92-.06-34.56-.37c-33.1-.59-68.06-1.77-104.56-3.48C848,504,815.1,502.1,781.28,499.9q-15.3-1-30.82-2.06c-7.59-5.78-12.07-16.29-14.79-29.46h.1c109.79-6.5,205.84-1.67,290.73,12.34A55.55,55.55,0,0,1,1018.77,509.29Z"/><path class="cls-52" d="M883.23,542.15c-.3,10.23-1.84,18.63-6,23.14-36.75,1.45-71.58.39-101.76-6.81-3.74-4.73-3.75-13-3.86-21.21.2-1.29.4-2.61.6-3.93h0Q827.77,539.41,883.23,542.15Z"/><path class="cls-53" d="M998,544.23q-57.21.76-114.49-2.07h-.28l-3.58-36.71c36.5,1.71,71.46,2.89,104.56,3.48l14,35.31Z"/><path class="cls-54" d="M879.65,505.44l3.58,36.71q-55.46-2.74-111-8.82l9-33.43C815.1,502.1,848,504,879.65,505.44Z"/><path class="cls-55" d="M663,518.73l-.09-.05c.07-.14.15-.28.21-.42q54.61,9.13,109.15,15.07h0c-.2,1.32-.4,2.64-.6,3.93-1.9,12-3.9,22.42-6.57,21.5-32.06-2.46-68.69-8.48-108.36-16.88C655.68,536.19,659,527.69,663,518.73Z"/><path class="cls-56" d="M735.67,468.38c2.72,13.17,7.2,23.68,14.79,29.46q15.52,1.08,30.82,2.06l-9,33.43q-54.54-5.94-109.15-15.07l6.13-9.24c29-2.25,53.57-4.82,70-8C741,491.7,737.91,480,735.67,468.38Z"/><path class="cls-57" d="M735.67,468.38C737.91,480,741,491.7,739.24,501c-16.45,3.17-41,5.74-70,8-13.24,1-27.39,2-42.13,2.9-16.49,1-33.7,2-51.13,3-1.63-13.19-1.65-24.3,2-30.53Q661.28,472.69,735.67,468.38Z"/><path class="cls-58" d="M735.77,468.37h-.1q-74.49,4.41-157.67,16c71.15-57.9,159.76-83.62,247.08-87.59-50.76,14.3-83.36,36.76-89.33,71.21Z"/><path class="cls-59" d="M669.22,509l-6.13,9.24q-18-3-36-6.34C641.83,511,656,510.05,669.22,509Z"/><path class="cls-60" d="M663.09,518.26c-.06.14-.14.28-.21.42-5.29,10-10.57,18.25-15.83,20.6-35.28-4.23-58.17-12.64-71.09-24.4,17.43-1,34.64-1.94,51.13-3Q645.11,515.28,663.09,518.26Z"/><path class="cls-61" d="M892.44,633.33l9.29,394.9-14.48-3.91-9.58-385.09Q886.09,632.44,892.44,633.33Z"/><path class="cls-62" d="M889.44,505.89l3,127.44q-6.35-.9-14.77,5.9l-3.33-133.78Z"/><path class="cls-63" d="M871.63,396.46l-.13-18.68c.93-16.84,13.92-11.25,14.82-1.17l.57,20.87V398c-3.83-.86-9.14-1-14.92-.94h-.34Z"/></g><g id="Layer_5" data-name="Layer 5"><path class="cls-64" d="M-25.79,933.06C134.37,958.35,2132.44,789.8,1951.5,921.5l-21,225-2006-39Z"/><path class="cls-65" d="M87.81,340.62c2.25,1.92,6.1,1.68,6.1,1.68l7.78-9.4Zm201,35.43,10.53-6.18c-.44-.26-1.78-.12-3.58.27-5.95,1.25-16.92,5.11-16.92,5.11Zm5,.4,8.65,4.71,9.61-7.25ZM81.67,182.81,5.15,260.92l40.93-34.83Zm-3.09-36.37L8.43,245.13,114.86,144.34,92.28,175.63l21.3-15.34L57.51,246.07l94.67-91.7-22.83,34.28L159.51,163l-10.26,15.22,25.61-19L94.38,274.12l118-94.84-.64,8,10.45-5.17-93.91,94.77L235,197.15l-8.42,17.39,24.29-17.94,8.78-6.49-.89,11-25.92,23,38.13-25,14.87,2.2L135.15,328.57,322.44,220.24l-12,12.08,24.65-7L234,297.39l128-69.95L345.6,244.18l15.51-5.78-90.15,73,94.19-59.89,13.66-8.68L373,252.41l16.51-5.7-83.12,60.53,94.28-49.6-6.78,9.49,11.2-2.11-85.87,57.3,102.42-50.95-6.86,10.48,20.49-5.37-54.16,24.73,61.94-22.08c-1.54.82-52.32,27.85-49.3,27.11s44.31-17.85,45.59-18.38l-46.23,26.36L455,293.12,380.4,335.26l83-33.45,9.89,1.8-25.61,19,27.88-9.8,9.13-1.27-65.17,36.89,64-21.94,13.12-.95-45,23.47s57.34-14.45,59.41-15.29-139.36,62.85-141.56,63.84l151.4-49-24.12,13.11,34.45-4.25L458.69,384.7l82.58-16.42L461.63,398,549,385,433.79,419.82l128-19.79-39.16,12.9,50.45-4c-1.35.33-46,11.34-43,11.57s42.27-1.61,42.27-1.61l-58.1,11.38,74.16.95-122.86,18.2L592,448.61,559.21,457l46.17-.29-43.58,5.52,42.86,3.45-48.49,4.12,65.31,11.28-.4,5-56.82-4.57,70.13,13.67s-86-3.91-76-3.11,61.92,16,61.92,16L507.4,490l60.46,59-4.39,4.67L505,494.78l18.22,97.77-16.13-36.41L505,582.06l-2.22-22.25-2.29,40.94-12.17-73.21s-4.92,23.68-3.8,34.81-2.4,4.82-3.15,1.75-2.75-24.64-2.9-26.22c.08,1.24.89,14.91,1.34,33.12.47,19.1-5.76,21.61-6.35,16.54s-2.81-52.39-2.81-52.39-20.48-19.71-15.46-7.26c4.94,12.24,9.36,42.93,9.5,43.88-.34-.83-11.13-27.45-12-27.27s-9.31-35.35-9.84-37.56l7.61,54.68-23.18-61.06-9.73-3.79s-14.48-47.32-3.2,7.26-10.86-5.48-10.86-5.48l-5.23-11.36,17.9,76.68-28.11-74.49,9.09,73.93c-.69-2.37-46.44-159.14-55.07-150.87S380.7,548.37,382.77,554l-40.15-98.36,24.92,89.29L324.49,444.15c.3,1.17,16.7,64.23,22.65,84.86-9.88-27.11-51.27-130.68-52.73-134.35,1.33,4,41.43,122.64,39.28,123.45s-22.43-21.87-22.43-21.87l-14.92,10.83-19.72-16.63-10.59-43L271.55,491l-63-40.18,35.23,35.94-17.62-5.43L192,457.54,221,496l-22.63-17.86a103.65,103.65,0,0,0,6,9.37c-6.81-4.09-14.15-8-14.15-8l-44.41-21.63,21.4,20.78L141.5,461.5s-12.2,2-10.61,7.18-2.71,8.81-2.71,8.81l-7.81-27.72-8.93,11.32-10.52-18.9.47,19.1L78,428.3l1.63,17.19L58.91,415.73l8.2,22.73L29.29,397.29l17.48,44.55-34.26-47.9s16,62.49,12.61,55.19L1.14,398l-1.78,47-22-37.89L-4,175.91l10.18,4.33,34.16-50.43L21.08,181.44l15.84-9.76-11.87,16.6L43.28,173.7l-3.8,9.72Zm407.2,362.84,2-24.92-8.33-8.7ZM480,468.69l9.13-1.27-15.71-4.28,3.29,2.77ZM464.1,479.44l-1.62-17.18-3.4,4.74Zm-17.45-32.5,17.75-8.6-20.95,2.3-5.37.59Zm6.45,19.58.4-5-10.64-4.87,5.05,24.48Zm-12.16,14.07L437.2,452.2l-6.74-3.55ZM422.38,437l16.35-3.7-20.94-1.69-3-.24Zm-7.18-10.61,12.45-5-24.41,4.06Zm4.41,32.46-4-17.28-1.21-5.21-5.22,2.59Zm-1.77-127.55,6.78-9.49L364.32,348Zm-17.27,89.9L410.86,418l-14.95-1.2Zm4.73,28.47-4.45-19.42-6-.48Zm-17.36-33.5,13.52-5.93-21.26,2.3Zm5.88,26.56-6.53-18.59-4-.32ZM374.22,412l10.69-8.17-20.34,3.38ZM372.54,433,364,414.2l-5-.4ZM355,401.44l14.92-10.84-18.51,5.54Zm-12.56-6,13.92-10.91-26.32,2.89,12.88,2Zm-23.36-8.9,11.85-10.08-19.5,5.45Zm-5.79,96.85-18.51-56.67L309.31,483Zm3.42-54.9-15.06-37.33-8.49-6.71Zm-21.8,46.4-3.26-9.3-.72,9ZM237.23,306.69,308,263.22l-82.68,42.5Zm35.89,65.09,11.69-8.09L263.16,371Zm-1.57,32-9-25.8-3.9-1.32Zm-11.9-39.08,15-11.83-21,11.35Zm-3,37.88-9.39-32.86-5-.4.76,3.07Zm-12.9-39.16,11-12.16L233,359.51Zm-3,37.88-23-38-5.82-.47-3.16-.26Zm-24.3-47.11L240.05,334l-35.66,19.2Zm-14,24,1.28-15.95-9.81-2.79Zm-3.06-24.32,5.54-6.58-10.44,5.18Zm-4.32,116-34.43-45.91L175,456.18Zm-7.64-117,13.48-18-26.36,15.93Zm9.15,35.85-25.58-31.15-12-1Zm-28.85-40.44,17.23-14.67-26.2,13.95Zm-7.25-9.61,15.83-9.76-34,11.3Zm-13.77,34,.88-11-11-.89Zm-15.28-59.42,22.42-29.29-36.38,28.17ZM134.76,458,120.47,423.7l-11.72-4Zm-8.2-110,5.95-11.56-9.45,5.26Zm-35.73,20.2,5.62-7.58-11.72-3.95Zm-17-63.57,8.86-10.32-21.81,9.28-.65,8Zm-15,24.88.48-6-17.05,8-4.84,2.28Zm-16.2,26.78,3.31-3.74L40,352Zm-9.74-66,5.51-18.62-8.93,11.32ZM21,350.48l3.63-7.73-6-.48-.24,3Zm-5.28-46.57.4-5L5.45,307.09l-.32,4ZM8,337.4l5.78-9.57-5.22,2.59Z"/><path class="cls-65" d="M1804.5,168.5l-10-7c.46-.23,1.79,0,3.55.55,5.83,1.73,16.45,6.45,16.45,6.45Zm-5,0-9,4-9-8Zm-77,15-147-61,23,15-34-7,70,33-81-23,77,36-86-20,112,44-126-30,38,16-50-8c1.32.44,44.92,15,42,15s-42-5-42-5l57,16-74-5,121,28-126-11,32,11-46-4,43,9h-43l48,8-66,6v5h57l-71,8s86,3,76,3-63,11-63,11l114-9-65,54,4,5,63-54-26,96,19-35v26l4-22-1,41,18-72s3,24,1,35,2,5,3,2,4.71-24.34,5-25.91c-.18,1.23-2.08,14.8-4,32.91-2,19,4,22,5,17s7-52,7-52,22-18,16-6c-5.91,11.81-12.78,42-13,43,.4-.8,13.29-26.47,14.14-26.22s12.11-34.49,12.82-36.65l-12,53.89,28-59,10-3s18.23-46,2.61,7.5,11.26-4.59,11.26-4.59l6.13-10.91-24,75,34-72-15,73c.88-2.31,59-154.9,67-146s-49.4,132.39-51.91,137.82l47.91-94.82-32,87,51-97c-.39,1.14-21.8,62.68-29.38,82.77,12-26.23,61.59-126.15,63.34-129.69-1.65,3.84-51.14,118.92-49.06,119.9s24.11-20,24.11-20l14,12,21-15,14-42-9,43,66-35-38,33,18-4,36-21-32,36,24-16a102.64,102.64,0,0,1-6.74,8.86c7.11-3.53,14.75-6.87,14.75-6.87l46-18-23,19,27-15s12,3,10,8,2,9,2,9l10-27,8,12,12-18-2,19,26-31-3,17,23-28-10,22,41-38-21,43,38-45s-21,61-17,54l28-49-2,47,25-36V-7.5L2102-4l-30-53,15,53-15-11,10.5,17.5-17-16,3,10-36-40,62,104-98-109,20,33-20-17,49,90-87-99,20,36-28-28,9,16-24-21,71,121-110-104v8l-10-6,86,102-100-88,7,18L1856.73-7.33l-8.23-7.17v11l24,25-36-28-15,1,140,139-178-123,11,13-24-9,95,80-122-80,15,18-15-7,84,80-89.08-67.25L1725.5,28.5l5,10-16-7,78,67-90-57,6,10-11-3,81,64-98-59,6,11-20-7,52,29-60-27c1.47.94,49.92,32,47,31s-42.73-21.35-44-22l44,30-60-26,71,48-80-40-10,1,24,21-27-12-9-2,62,42-62-27-13-2,43,27s-56-19-58-20S1720.37,182.33,1722.48,183.49Zm285.24-34.18c-2.4,1.74-6.22,1.19-6.22,1.19l-7-10ZM1597.5,285.5v-25l9-8Zm9-40-9-2,16-3L1610,243Zm15,12,3-17,3,5Zm20-31-17-10,20.7,4,5.3,1Zm-8,19v-5l11-4-7,24Zm11,15,6-28,7-3Zm22-42-16-5h24Zm8-10-12-6,24,6Zm-7,32,5.38-16.9,1.62-5.1,5,3Zm12-127-6-10,58,31Zm10,91-10-4h15Zm-7,28,6-19h6Zm20-32-13-7,21,4Zm-8,26,8-18h4Zm22-29-10-9,20,5Zm0,21,10-18h5Zm20-30-14-12,18,7Zm13-5-13-12,26,5-13,1Zm24-7-11-11,19,7Zm-2,97,23-55-19,55Zm1-55,18-36,9-6Zm18,48,4-9v9Zm71-163-67-49,79,49Zm-41,62-11-9,21,9Zm-1,32,11-25,4-1Zm15-38-14-13,20,13Zm0,38,12-32h5l-1,3Zm16-38-10-13,21,10Zm0,38,26-36h9Zm28-45-22-22,34,22Zm12,25v-16l10-2Zm5-24-5-7,10,6Zm-5,116,38-43-17,31Zm17-116-12-19,25,18Zm-12,35,28-29h12Zm32-38-16-16,25,16Zm8-9-15-11,33,14Zm11,35v-11h11Zm20-58-20-31,34,31Zm-15,144,17-33,12-3Zm17-109-5-12,9,6Zm34,23-5-8,12-3Zm22-62-8-11,21,11v8Zm34-76-32-46,70,84Zm-21,102v-6l16.35,9.34,4.65,2.66Zm14,28-3-4h6Zm15-65-4-19,8,12Zm7,61-3-8h6v3Zm9-46v-5l10,9v4Zm5,34-5-10,5,3Z"/><path class="cls-66" d="M15.35,99.65C17.19,102,21,102.48,21,102.48l9.43-7.74ZM361,368.12c-.16,1.23-2,14.81-5,32.77-3.2,18.83-9.78,20.1-9.4,15s7.29-52,7.29-52-16.33-23.27-13.79-10.1c2.51,13,1,43.93.91,44.9-.16-.88-5.65-29.08-6.54-29.07s-2.35-36.48-2.46-38.75l-3,55.12-11-64.36-8.82-5.59s-5.15-49.21-4.54,6.52-9.6-7.46-9.6-7.46L292,303l2.87,78.7-13.31-78.51-5.25,74.31c-.23-2.46-15.08-165.08-25.13-158.63S263,359.68,264,365.59L243.4,261.36l7.34,92.4L227.81,246.62c.06,1.21,4.08,66.24,6,87.63-4.5-28.5-25.28-138.09-26-142,.56,4.15,17.17,128.31,14.9,128.69s-17.82-25.76-17.82-25.76L188.12,303,172,282.88l-2.16-44.22-2.93,43.83L112.75,231l27.69,42-16.25-8.7-29-29.94,21.11,43.3L97.5,255.8a101.16,101.16,0,0,0,4.1,10.35c-5.89-5.31-12.35-10.59-12.35-10.59L49.81,225.82l17,24.5L44.88,228.59s-12.36-.35-11.79,5-4.35,8.12-4.35,8.12L26.39,213l-10.94,9.39-6.7-20.57-3.2,18.84-16.67-36.87L-12.82,201l-14.59-33.16,3.69,23.88-29.22-47.65,8.62,47.07-24.46-53.59S-65,202-67,194.14L-80.72,139.4l-10.75,45.8-14.36-41.41,62.58-223.4,9.17,6.2L9.11-116.35l-28.74,47,17.41-6.55-14.84,14L3.63-72.71-2-63.89,43.5-92.69-44.26-9.28,79.51-87.8,51.35-61.42l23.85-11L3.74,1.05,114.22-70.81l-29,29.27,34.51-19.4-13,13,28.78-13.74-101,97.36,134-70.47-2.15,7.7,11.24-3.08-110.32,75,120-57.76L175.72,2.5,203-10.45l9.86-4.68-3,10.59L180,13.06,222.25-4.19l14.18,5L64.12,96.9,268.7,26.48,254.6,36l25.54-2.2L167.08,85.24,306.14,41.12,286.84,54.4l16.33-2.69L200.71,106.08,304.62,65.36l15.08-5.91-7.52,8.28,17.3-2.42L236.3,108.78l102-30.6-8.48,8,11.4.08L246,126,356.28,95.67l-8.74,9,21.15-1.34-57.9,13.89,65-9.8c-1.66.51-56.69,17.31-53.58,17.16s46.9-9,48.27-9.3l-50.43,17,64.79-8.85-81.32,27.07,87.83-16.93,9.36,3.66L372,150.94l29.24-4.27,9.2.5-71,23.72,67-9.27,13.06,1.58-48.69,14.4s59-3.19,61.24-3.61-148.82,35-151.17,35.52l158-19.08-26.2,8.24,34.63,2.43L370.9,214l84.21-.3-83.86,13.89,88.21,3.95L339.74,243.69l129.42,5.1L428.25,254l50.28,5.79c-1.39.06-47.3,2.31-44.46,3.11s41.79,6.51,41.79,6.51l-59.2,0,72.6,15.15-124.07-5.68,124.3,23.4-33.78,2,45.37,8.56-43.83-2.94,41.4,11.6-48.37-5.24,61.93,23.58-1.35,4.82L456,329.22l66.2,26.86s-83.62-20.32-74-17.62,57.7,27.59,57.7,27.59L398.54,326.63l48,69.53-5.2,3.74-46.1-69-.86,99.45-8.86-38.83-7,25,2.08-22.27-10.09,39.75,2.09-74.18s-9.37,22.3-10.41,33.43-3.27,4.28-3.43,1.12S360.81,369.71,361,368.12Zm12.65-26.66,6.74-24.08-6.5-10.13Zm2.12-40.95,9.21.5-14.6-7.2,2.7,3.35ZM358.06,308l1.7-17.18-4.24,4Zm-10.89-35.25,19.07-5-21-1.75-5.38-.45Zm2.58,20.46,1.34-4.82-9.51-6.82.27,25ZM335.11,304.7l1.77-28.58L331,271.35Zm-9.86-46.37,16.76-.5-20.22-5.67-2.89-.81Zm-5-11.79L333.42,244l-24.73-.7Zm-1.89,32.7-.63-17.72-.18-5.35-5.62,1.54Zm22.7-125.53,8.48-8-64.22,14.21Zm-34.18,84.93,10.71-1.15-14.44-4.05Zm-.81,28.85-.65-19.91L299.64,246Zm-10.63-36.21,14.41-3.23-21.3-1.81Zm.69,27.2L293.29,239l-3.86-1.08Zm-13.36-33.86,12.06-6-20.61-.58Zm-5.66,20.22-4.78-20-4.81-1.35Zm-11.17-34.29,16.72-7.77-19.22,1.88Zm-11.17-8.32,15.76-8L244.14,192l12.25,4.47ZM233.55,189l13.56-7.63L226.93,183ZM209.31,283,202,223.8l3.46,58.08Zm13.87-53.23-7.62-39.52L208.51,182Zm-4.92-49.15,10.82-5.27-18.41-1ZM192.9,271.1l-1.42-9.75L189.05,270ZM168.51,95l77.73-29.11L157,91.75Zm37.35,78,11.51-4c-.38-.35-1.72-.46-3.56-.43-6.08.09-17.58,1.77-17.58,1.77Zm-14.6-7.2,13-5.7-22.65,3Zm-7.67,31.08-3.85-27-3.58-2Zm-4.19-40.64,17-8.74-22.77,7.12Zm-10.25,36.59-2.93-34.05-4.81-1.35.15,3.16ZM164,151.88l13.14-9.82-22.92,4Zm-10.25,36.59-15.32-41.68-5.62-1.57-3.05-.86Zm-14.82-50.89L166,122.33l-38.68,12Zm-18.3,20.84L124.93,143l-9.09-4.62ZM122.28,134l6.7-5.39-11.25,3.08ZM95.8,247l-25-51.66,8,34.44Zm14.92-116.29,16.68-15.06L98.47,126.25Zm2.12,36.94L93.7,132.18,82.14,129ZM92.27,122.44,112,111.35,83.61,120ZM87,111.61l17.41-6.54-35.55,4.58ZM67,142.35l3-10.59-10.59-3ZM63.35,81.1,91,56.65,49.87,77.33ZM39,223.81l-7.47-36.36-10.74-6.13ZM52,114.27,60,104.06l-10.29,3.35ZM13,127.24l7-6.35L9.27,114.76ZM8.58,61.61l10.67-8.44L-3.94,58.1-6.1,65.8ZM-3.66-20.75,39.57-56.41l-90.07,62ZM-10.95,83.14l1.62-5.78L-27.6,81.94l-5.19,1.31Zm-21,23.18,4-3-5.78-1.62Zm3.1-66.64,9-17.21-10.94,9.39Zm-23.2,56.85L-47,89.64-52.82,88l-.81,2.89Zm3.74-46.72L-47,45l-12.06,6-1.08,3.85Zm-14,31.39,7.51-8.28-5.63,1.54Z"/></g></svg>