<?xml version="1.0" encoding="utf-8"?>
<!-- Generator: Adobe Illustrator 22.0.0, SVG Export Plug-In . SVG Version: 6.00 Build 0)  -->
<svg version="1.1" id="Layer_1" xmlns="http://www.w3.org/2000/svg" xmlns:xlink="http://www.w3.org/1999/xlink" x="0px" y="0px"
	 viewBox="0 0 600 300" style="enable-background:new 0 0 600 300;" xml:space="preserve">
<style type="text/css">
	.st0{fill:#E4F4F6;}
	.st1{fill:#FFFFFF;}
</style>
<g>
	<g id="XMLID_1_">
		<g>
			<path class="st0" d="M552.5,219.7c47.4-12.6,41,49.3,6.7,35.1c-81.1-28.1-394,13.9-523.1-4.7c-43.8-4.5-17.4-58.5,24.6-34.1
				c4.2-16.2,15-20.2,32.2-12.3c58.3,21.9,101.4,13.8,130.3-22.7c13.6,16.3,31.7,13.5,51.2,4.3c42.2,37,75,31.1,98.8-17.1
				c70.2,7.4,85.6-33.7,69.3-102.6c34.9,24.4,51.1,66.2,12.4,110.7C525.3,148.9,581.4,180.9,552.5,219.7z"/>
			<path class="st1" d="M442.5,65.4c16.2,69,0.9,110.1-69.3,102.6c-23.8,48.2-56.6,54.1-98.8,17.1c-19.5,9.3-37.5,12.1-51.2-4.3
				c-28.9,36.5-72,44.7-130.3,22.7c-44.6-87.4,84.8-196.2,165.8-77.7c3.6-13.6,19.2-14.7,24.6-5.7C296.7,30.9,390.4,28.8,442.5,65.4
				z"/>
		</g>
		<g>
		</g>
	</g>
</g>
</svg>
