<?xml version="1.0" encoding="utf-8"?>
<!-- Generator: Adobe Illustrator 22.0.0, SVG Export Plug-In . SVG Version: 6.00 Build 0)  -->
<svg version="1.1" id="Layer_1" xmlns="http://www.w3.org/2000/svg" xmlns:xlink="http://www.w3.org/1999/xlink" x="0px" y="0px"
	 viewBox="0 0 600 300" style="enable-background:new 0 0 600 300;" xml:space="preserve">
<style type="text/css">
	.st0{fill:#E4F4F6;}
	.st1{fill:#FFFFFF;}
</style>
<g>
	<g id="XMLID_2_">
		<g>
			<path class="st0" d="M532.9,204.4c55.2-30.1,75.7,39.8,21.8,38.5c-191.2-18-445.8,45.6-504.3,0c-75.7,0-28.2-88.5,24.4-38.5
				c3.2-15.3,9.9-27,33.4-19.7C69.3,121.5,92,75.1,135.4,49.8c-54.3,103.3,18.9,180.3,125.4,134.1c4.4,31.5,28.7,33.2,65.4,16.7
				c18.3,23,36.7,20.4,55.2,9c81,29.5,105.2-1.3,80.7-52C485.2,157.2,508.7,172.7,532.9,204.4z"/>
			<path class="st1" d="M462.2,157.6c24.5,50.7,0.3,81.5-80.7,52c-18.5,11.4-36.9,14-55.2-9c-36.7,16.5-61.1,14.8-65.4-16.7
				C154.3,230.1,81.2,153.1,135.4,49.8c74.2-43.2,209.2-24.7,201.1,76.7c37.6-3,44.3,18.5,42.3,47.1c10.5-18,28.2-14.1,32.1,11.5
				C427.7,167.1,444.8,157.8,462.2,157.6z"/>
		</g>
		<g>
		</g>
	</g>
</g>
</svg>
