<?xml version="1.0" encoding="utf-8"?>
<!-- Generator: Adobe Illustrator 22.1.0, SVG Export Plug-In . SVG Version: 6.00 Build 0)  -->
<svg version="1.1" id="Layer_5" xmlns="http://www.w3.org/2000/svg" xmlns:xlink="http://www.w3.org/1999/xlink" x="0px" y="0px"
	 viewBox="0 0 300 300" style="enable-background:new 0 0 300 300;" xml:space="preserve">
<style type="text/css">
	.st0{fill:#886640;}
	.st1{fill:#A69078;}
	.st2{fill:#B27431;}
	.st3{fill:#9C745F;}
	.st4{fill:url(#SVGID_1_);}
	.st5{fill:#A77C4C;}
	.st6{fill:#BC8439;}
	.st7{fill:#9C6224;}
	.st8{fill:#8B5826;}
	.st9{fill:#BE8330;}
	.st10{fill:#BE802A;}
	.st11{fill:#B06F29;}
	.st12{fill:#A36C1D;}
	.st13{fill:#735B23;}
	.st14{fill:#D3C698;}
	.st15{fill:#D1D5F5;}
	.st16{fill:#C89036;}
	.st17{fill:#965923;}
	.st18{fill:#A96922;}
	.st19{fill:url(#SVGID_2_);}
	.st20{fill:#98602D;}
	.st21{fill:#B77E40;}
	.st22{fill:#E7BA7C;}
	.st23{fill:#B57B2D;}
	.st24{fill:#BA8B3E;}
	.st25{fill:#C38D3C;}
	.st26{fill:#ECC289;}
	.st27{fill:#DCB67E;}
	.st28{fill:#BC843D;}
	.st29{fill:#B77972;}
	.st30{fill:#8D5C18;}
	.st31{fill:#795E40;}
	.st32{fill:#D6AF6F;}
	.st33{fill:#B88246;}
	.st34{fill:#AF7038;}
	.st35{fill:#CC9F65;}
	.st36{fill:#D5A85D;}
	.st37{fill:#9D8827;}
	.st38{fill:url(#SVGID_3_);}
	.st39{fill:#DCA15F;}
	.st40{fill:#C48B4E;}
	.st41{fill:#AC8648;}
	.st42{fill:#9B662E;}
	.st43{fill:#685231;}
	.st44{fill:#BB7344;}
	.st45{fill:#D8A56D;}
	.st46{fill:#C48336;}
	.st47{fill:#AA5739;}
	.st48{fill:#7F683B;}
	.st49{fill:#9A6224;}
	.st50{fill:#A05938;}
	.st51{fill:#D8A361;}
	.st52{fill:#936832;}
	.st53{fill:#DAB17C;}
	.st54{fill:#CDA262;}
	.st55{fill:#C39449;}
	.st56{fill:#D9A75D;}
	.st57{fill:#9FCAD5;}
	.st58{fill:#F5F6F8;}
	.st59{fill:#AEB5BE;}
	.st60{fill:#B3B9BF;}
	.st61{fill:#BED2D9;}
	.st62{fill:#A3D8E7;}
	.st63{fill:url(#SVGID_4_);}
	.st64{fill:#CED6D6;}
	.st65{fill:#F0BF38;}
	.st66{fill:#DFB031;}
	.st67{fill:#C3BD77;}
	.st68{fill:#C48342;}
	.st69{fill:#D6DEED;}
	.st70{fill:#BBC2C1;}
	.st71{fill:#FFFFFF;}
	.st72{fill:url(#SVGID_5_);}
	.st73{fill:#F1C34E;}
	.st74{fill:#BAC4C9;}
	.st75{fill:#C3CAD0;}
	.st76{fill:#F5F9E7;}
	.st77{fill:#C3CAD3;}
	.st78{fill:#F3A9CC;}
	.st79{fill:#FDDACC;}
	.st80{fill:#E2A0D8;}
	.st81{fill:#E793B9;}
	.st82{fill:#5B2F33;}
	.st83{fill:#D09496;}
	.st84{fill:#F6C2DD;}
	.st85{fill:#EC9ED2;}
	.st86{fill:#FFF0FF;}
	.st87{fill:#FBA7C0;}
	.st88{fill:#E9A174;}
	.st89{fill:#E688BB;}
	.st90{fill:#EBBCDE;}
	.st91{fill:#ED98D5;}
	.st92{fill:#F3B2CC;}
	.st93{fill:#F6A7C6;}
	.st94{fill:#DFBB62;}
	.st95{fill:#E9A9B8;}
	.st96{fill:#EEA3CD;}
	.st97{fill:#EFAACB;}
	.st98{fill:#D98FAD;}
	.st99{fill:#C6A1CC;}
	.st100{fill:#ECA2E0;}
	.st101{fill:#D4928E;}
	.st102{fill:#E284A6;}
	.st103{fill:#EEC9D8;}
	.st104{fill:#F4B8B8;}
	.st105{fill:#E8A3C5;}
	.st106{fill:#E4A2A8;}
	.st107{fill:#F1A9A7;}
	.st108{fill:#DD7FB4;}
	.st109{fill:#F4A1C8;}
	.st110{fill:#E7B2CE;}
	.st111{fill:#FF9FC7;}
	.st112{fill:#F4C1E0;}
	.st113{fill:#EE97BC;}
	.st114{fill:#E592C7;}
	.st115{fill:#DC6EAB;}
	.st116{fill:#FBC6CE;}
	.st117{fill:#BDD7F0;}
	.st118{fill:#62AEE8;}
	.st119{fill:#4888AF;}
	.st120{fill:#74B3DA;}
	.st121{fill:#632915;}
	.st122{fill:#F4CA0D;}
	.st123{fill:#D9AB0F;}
	.st124{fill:#E4D533;}
	.st125{fill:#F4D050;}
	.st126{fill:#EAB743;}
	.st127{fill:#9E7013;}
	.st128{fill:#EBE786;}
	.st129{fill:#F6E43D;}
	.st130{fill:#702533;}
	.st131{fill:#F7EC49;}
	.st132{fill:#EFEEA2;}
	.st133{fill:#CFC127;}
	.st134{fill:#8B831C;}
	.st135{fill:#D7C750;}
	.st136{fill:#FFFFFB;}
	.st137{fill:#F6EB56;}
	.st138{fill:#F0E286;}
	.st139{fill:#F2ED9E;}
</style>
<g>
	<g>
		<g id="XMLID_1_">
			<g>
				<path class="st0" d="M215.4,179.4c1.1,2.3,1.1,2.3,0,5.7c-0.6,1.9-1.6,5.4-2.1,8.3c-0.3-3.2-0.8-7.5-0.1-9.4c1.1-3.4,0-8,0-8
					v-3.4C213.1,172.5,214.3,177.1,215.4,179.4z"/>
				<path class="st1" d="M214.3,152c1.4,0-0.3,4.6-1.2,7.3c-0.9-0.6-2.2-1.8-3.3-5.1c-2.3-6.8-1.1-5.7-1.1-5.7S212,152,214.3,152z"
					/>
				<path class="st2" d="M213,159.4c0.9,0.6,1.3,0.6,0.1,1.8C212.3,162,212.5,161,213,159.4z"/>
				<path class="st2" d="M213.3,193.3c0.2,2.4,0.3,4.2-0.1,4.2C212.6,197.6,212.8,195.7,213.3,193.3z"/>
				<path class="st0" d="M206.3,183.9c1.1,6.8-3.4,2.3-3.4,2.3s-1.1-2.3-1.1-4.6s2.3-3.4,1.1-5.7s-3.4-5.7-3.4-5.7l3.4,2.3l3.4,1.1
					C206.3,173.7,205.2,177.1,206.3,183.9z"/>
				<path class="st3" d="M204,195.3h2.3c0,0-4.6,10.3-3.4,12.5s1.1,1.1,0,5.7c-1.1,4.6,0,0-1.1-2.3c-1-1.9,0.5-4.6,1-7.4
					c0.1-0.6,0.2-1.1,0.2-1.7c0-1.8,0.3-3.6,0.6-4.9C203.8,196.1,204,195.3,204,195.3z"/>
				<linearGradient id="SVGID_1_" gradientUnits="userSpaceOnUse" x1="30.2216" y1="178.4279" x2="220.277" y2="178.4279">
					<stop  offset="0" style="stop-color:#8B7D27"/>
					<stop  offset="0.2538" style="stop-color:#AC7D37"/>
					<stop  offset="0.9231" style="stop-color:#2E0000"/>
				</linearGradient>
				<path class="st4" d="M160.7,212.2c-1.1-2.6-2.2-12.4-1.1-12.4c1.1,0,0-2.3,0-2.3l-1.1-8l-1.1,8c0,0-1.1,5.7,1.1,10.3
					C159.4,209.8,160.2,211.3,160.7,212.2z M169.7,130.8c0,0,0.4-0.1,1.3-0.4c3.4-1.1,3.4-4.6,3.4-5.7s1.1-3.4,0-4.6s-1.1,0-2.3-1.1
					c-0.3-0.3-0.5-0.8-0.7-1.4c-0.1-2.2-0.5-4.2-0.5-4.2s0,2.5,0.5,4.2c0.1,1.8,0.1,3.8-0.5,4.9c-1.1,2.3-1.1,3.4,0,5.7
					C171.8,129.7,169.9,130.7,169.7,130.8z M65.1,219.3c0.2,0.3,1.4,2.2,2.7,4.1c0.3,0.5,0.6,1.1,0.8,1.6c0.6,1.2,1,2.4,1,3.4
					c0,3.4-2.3,1.1,0,4.6c2.3,3.4,3.4,3.4,3.4,3.4s1.1-1.1,0-3.4s0-6.8-1.1-5.7c-0.6,0.6-2.4-1.6-4.1-3.9
					C66.7,221.3,65.3,219.5,65.1,219.3z M99.8,174.6l4-8.9c0,0,1.1-2.3,0-3.4s-3.4-4.6-3.4-4.6l-2.3-2.3c0,0-1.1,1.1-1.1,2.3
					s2.3,8,3.4,10.3s0,3.4,0,4.6C100.4,173.1,100.1,173.9,99.8,174.6z M123.4,227.6C124.4,229.8,124.2,228.9,123.4,227.6
					L123.4,227.6z M123.4,227.6c-0.1-0.1-0.1-0.3-0.2-0.4c-2.3-4.6-3.4-9.1-2.3-10.3s0-5.7,0-5.7s-4.6,4.6-2.3,8s0,4.6,2.3,5.7
					C121.8,225.4,122.7,226.6,123.4,227.6z M192.6,115.6c0.1,0.1,0.6,0.6,1.4,1.1C193.3,116.1,192.7,115.7,192.6,115.6z M99.8,174.7
					l-0.5,1.1C99.4,175.5,99.6,175.1,99.8,174.7z M194,116.7c0.9,0.9,2,2.2,2,3.4c0,2.3,0,4.6,1.1,5.7c1.1,1.1-1.1,5.7,1.1,2.3
					c2.3-3.4,4.6-8,2.3-8s-1.1-2.3-3.4-2.3C196,117.9,194.9,117.3,194,116.7z M128.9,155.4c0.3-0.2,4.5-3.4,4.5-4.5
					c0-1.1,0-5.7,0-6.8s-2.3-4.6-2.3-4.6l-4.6-3.4c0,0,0,1.1,0,3.4s2.3,10.3,2.3,10.3s-1.1,1.1,0,2.3
					C129.9,153.1,128.9,155.3,128.9,155.4z M127.7,125.8v-9.1l-2.3-1.1c0,0-1.1,0,0,4.6c0.6,2.3,1.1,3.1,1.6,3.7
					C127.4,124.4,127.7,124.7,127.7,125.8z M83.3,204.4c0.1,0.3,2.3,4.6,2.3,6.8c0,2.3,0,6.8,2.3,8c2.3,1.1,2.3,1.1,2.3-1.1
					s1.1-2.3,0-4.6c-1.1-2.3-1.1-5.7-2.3-5.7C86.7,207.8,83.5,204.7,83.3,204.4z M138,166.8c2.3,4.6,4.5,10.2,4.5,10.2
					s2.3,10.3,2.3,9.1s4.6-8,2.3-9.1s-5.7-3.4-4.6-4.6C143.6,171.4,138.3,167.1,138,166.8z M161,212.9c0,0.1,0.1,0.1,0.1,0.2
					C161.1,213.1,161.1,213,161,212.9z M152.8,116.7l2.3,5.1l2.3,5.1v1.1c0,0,0,2.3,0,4.6c0,2.3-1.1,5.7,0,6.8c1.1,1.1-1.1,0,0,2.3
					c1.1,2.3,2.3,2.3,2.3,2.3s-1.1-1.1,0-4.6s-1.1-5.7,0-5.7s0-3.4,0-3.4l1.1-4.6c0,0,3.4-1.1,0-2.3
					C157.4,122.4,153,117.1,152.8,116.7z M204,116.7c31.4,64.8,14,104.8-23.9,134.4c-33,15.9-100.2,6.8-111.6-8
					C36,203.9,13.6,163.5,46.1,117.7c13.1,2.9,26,4.8,37.7,1c-0.5,2.6-0.5,2.6-0.5,2.6h2.3c0,0,0.3-1.7,0.6-3.5
					c6.3-2.5,12.1-6.9,17.4-13.9c2,0.6,3.9,1.1,5.9,1.4l3.4,8l2.3-6.8c5.9,2.9,12.5,2.9,19.4,1.1l1.1,3.4l2.3-5.7
					c14.5,4.7,28.4,0,42.1-8L204,116.7z M215.4,185.1c1.1-3.4,1.1-3.4,0-5.7s-2.3-6.8-2.3-6.8v3.4c0,0,1.1,4.6,0,8
					c-0.7,2-0.2,6.2,0.1,9.4c-0.5,2.4-0.6,4.2-0.1,4.2c0.5,0,0.4-1.8,0.1-4.2C213.8,190.5,214.8,186.9,215.4,185.1z M213,159.4
					c0.9-2.8,2.7-7.3,1.2-7.3c-2.3,0-5.7-3.4-5.7-3.4s-1.1-1.1,1.1,5.7C210.8,157.6,212.2,158.8,213,159.4c-0.5,1.6-0.8,2.6,0.1,1.8
					C214.3,160,214,160,213,159.4z M202.9,186.2c0,0,4.6,4.6,3.4-2.3s0-10.3,0-10.3l-3.4-1.1l-3.4-2.3c0,0,2.3,3.4,3.4,5.7
					s-1.1,3.4-1.1,5.7S202.9,186.2,202.9,186.2z M206.3,195.3H204c0,0-0.3,0.8-0.5,1.9c-0.3,1.3-0.6,3.1-0.6,4.9
					c0,0.6-0.1,1.1-0.2,1.7c-0.5,2.8-1.9,5.5-1,7.4c1.1,2.3,0,6.8,1.1,2.3c1.1-4.6,1.1-3.4,0-5.7S206.3,195.3,206.3,195.3z M204,160
					c0,0,0.9-3.6,0.3-5.2c0.3-2.4-1.3-10.8-0.3-10.8c1.1,0,0-1.1,0-2.3s-2.3-5.7-2.3-5.7v8c0,0,1.1,9.1,2.3,10.3
					c0.1,0.1,0.2,0.3,0.3,0.5c0,0.4-0.1,0.6-0.3,0.6C202.9,155.4,204,160,204,160z M192.6,158.9c0-1.1,1.1-2.3,0-3.4s-3.4-8-3.4-8v2
					v8.3c0,0-2.3-1.1,0,1.1S192.6,160,192.6,158.9z M190.3,189.6c0,0,0.6-0.6,0-4.3v-4.8v-8v-3.4l-2.3,6.8l1.1,4.6
					c0.5,1.9,0.9,3.4,1.1,4.6c0,0.1,0,0.1,0,0.2V189.6z M190.3,119c0-1.1,0-5.7,0-5.7l-2.3-2.3v6.8v4.6
					C188.1,122.4,190.3,120.1,190.3,119z M182.4,125.8c0,0,1.1,0,0-1.1v-4.6l-2.3-4.6c0,0,1.1,8,2.3,9.1V125.8z M179,172.5V168
					l-3.4-4.6h-3.4c0,0,2.3,4.6,2.3,9.1c0,4.6-3.4,8-2.3,9.1c0.1,0.1,0.2,0.3,0.2,0.3c-1.6,0.7,0.2,0.7,0,0c0.2-0.1,0.5-0.2,0.9-0.3
					C176.7,180.5,179,172.5,179,172.5z M175.5,147.5c0-1.1,0-4.6,0-4.6l-1.1-4.6l-2.3,8c0,0,1.1,1.1,1.1,3.4s1.1,2.3,1.1,2.3
					S175.5,148.6,175.5,147.5z M158.5,179.4c0-1.1,0-15.9,0-15.9l-1.1-2.3l1.1-5.7V152l-3.4,5.7c0,0-1.1,8,0,9.1s1.1,4.6,2.3,8
					C158.5,178.2,158.5,180.5,158.5,179.4z M147.4,223.1c0.3-1.2-0.7-3.2-1.9-5.2c-0.8-1.6-1.7-3.2-2.9-4.4
					c-1.3-1.3,1.1,1.4,2.9,4.4c0.6,1.3,1.1,2.5,1.6,3.5C147.3,222,147.4,222.6,147.4,223.1c0,0.3-0.1,0.5-0.3,0.6
					c-2.3,2.3,1.1,4.6,0,3.4C146.2,226.3,147.3,224.8,147.4,223.1z M146.6,139C146.8,138.9,146.8,138.5,146.6,139
					c-0.1,0.1-0.4,0-0.7-0.7c-1.1-2.3,0-9.1,0-9.1l-1.1,1.1c0,0-2.3,6.8-2.3,9.1s0,4.6,0,4.6s2.3,6.8,3.4,5.7s-1.1-2.3,0-8
					C146.2,140.2,146.5,139.4,146.6,139z M142.5,117.9c0-1.1,0-1.1,0-2.3s-1.1-3.4-2.3-2.3s0,3.4,0,3.4s0,3.4,0,4.6s0,1.1,0,1.1
					S142.5,119,142.5,117.9z M136.8,195.3c1.1,0,4.6-4.6,3.4-6.8s-3.4-6.8-3.4-6.8s-1.1-1.1,0,3.4s-4.6,8-3.4,10.3s-3.4,2.3,0,3.4
					S135.7,195.3,136.8,195.3z M130,174.8c0-2.3,0-5.7,0-5.7h-2.3c0,0,0,2.3,0,4.6c0,2.3-1.1,8,0,9.1c1.1,1.1,0-1.1,1.1-3.4
					C130,177.1,130,177.1,130,174.8z M120.9,202.1c0,0,5.7,3.4,4.6,2.3s0-13.7,0-13.7s-5.7-1.1-4.6,4.6S120.9,202.1,120.9,202.1z
					 M116.3,145.2c0-1.1,1.1-3.4,0-5.7s-2.3-3.4-2.3-3.4v6.8l2.3,5.7C116.3,148.6,116.3,146.3,116.3,145.2z M116.3,173.7l-2.3-6.8
					v-2.3c0,0-3.4-2.3-2.3,2.3s0,2.3,0,8c0,5.7,1.1,5.7,2.3,4.6S116.3,173.7,116.3,173.7z M108.3,213.5c0,0,1.1-1.1-1.1-8
					c-2.3-6.8,0-5.7,0-10.3s0-5.7,0-5.7l-1.1,5.7c0,0-3.4,5.7-2.3,6.8s1.1,3.4,0,5.7S108.3,213.5,108.3,213.5z M106.1,239.7
					c0,3.4,2.3,0,1.1-3.4s0-3.4-1.1-5.7s-2.3-1.1-2.3-3.4s-1.1-8-1.1-8l-1.1-5.7v2.3c0,0-1.1,4.6-1.1,6.8s1.1,6.8,1.1,6.8
					S106.1,236.3,106.1,239.7z M98.1,127c1.1-2.3,0-6.8,0-6.8s-4.6,8-5.7,10.3s3.4,0,3.4,0S97,129.2,98.1,127z M90.1,244.3
					c4.6,3.4,5.7,5.7,4.6,3.4s-2.3-4.6-2.3-6.8s-1.1-2.3-1.1-4.6s-1.1-9.1-1.1-9.1s-0.3,0.6-0.6,1.6c-0.3,1-0.6,2.4-0.6,4.1
					C89,236.3,85.6,240.9,90.1,244.3z M92.4,198.7c0-2.3,0-6.8,0-8s-1.1-3.4-1.1-3.4l-2.3-6.8c0,0-1.1,2.3,0,5.7
					c1.1,3.4-1.1,5.7,0,8C90.1,196.4,92.4,198.7,92.4,198.7z M89,147.5c1.1-3.4,0-11.4,0-11.4l-2.3,3.4l-3.4,8v2.3v8
					c0-3.4,2.3-3.4,2.3-3.4S87.8,150.9,89,147.5z M83.3,244.3c1.1-4.6,0-10.3,0-10.3s-1.1,2.3-1.1-1.1c0-1.8-0.3-5-0.6-7.6
					c0-1.7-0.5-3.8-0.5-3.8s0.2,1.7,0.5,3.8c0,0.8-0.1,1.5-0.5,1.9c-1.1,1.1-1.1,2.3-1.1,4.6S83.3,244.3,83.3,244.3z M78.5,179.2
					c0.3,0.7,0.9,0.9,0.2,0.2C78.7,179.3,78.6,179.2,78.5,179.2c-0.2-0.5-0.3-1.2,0.2-2.1c1.1-2.3-2.3-13.7-2.3-13.7
					c0,2.3-5.7,3.4-3.4,6.8C75.2,173.5,77.4,177.8,78.5,179.2z M76.4,198.7c1.1-3.4,0-8,0-8l-1.1-4.6c0,0-0.3,0.2-0.8,0.7
					c-0.9,1-2.3,3-1.5,6.2c1.1,4.6,1.1,6.8,2.3,8c0.3,0.3,0.6,0.6,0.7,0.7c0.1,0.4,0.4,0.4,0.4,0.4s0,0-0.4-0.4
					C75.9,201.3,75.9,200.5,76.4,198.7z M75.3,139.5l-1.1-3.4l-1.1-5.7c0,0-3.4-3.4-2.3,1.1c1.1,4.6,0,3.4,1.1,8s0,4.6,1.1,6.8
					S75.3,139.5,75.3,139.5z M70.8,215.8v-4.6l-5.7-11.4c0,0-2.3,3.4,0,5.7c0.9,0.9,1.2,1.7,1.4,2.5c0.3,1.3,0.1,2.5,0.9,3.2
					C68.5,212.4,70.8,215.8,70.8,215.8z M60.5,180.5c2.3,2.3,0-2.3,0-2.3s1.1,0,0-3.4c-1.1-3.4,0-5.7,0-5.7v-4v-1.7l-1.1-5.7
					c0,0,0,6.8-1.1,10.3s-1.1,3.4,0,4.6C59.4,173.7,58.2,178.2,60.5,180.5z M59.4,226.1c0,0,2.3-1.1,0-4.6s-3.4-4.6-3.4-5.7
					s-2.3-4.6-2.3-4.6v4.6c0,0-1.1-1.1,2.3,4.6C59.4,226.1,59.4,226.1,59.4,226.1z M57.1,142.9c1.1-2.3,2.3-1.1,1.1-3.4
					s-3.4-3.4-3.4-3.4s0,1.1,0,3.4s1.1,2.3,0,4.6c-1.1,2.3-1.1,0,0,3.4c1.1,3.4,2.3,0,2.3,0s0-2.3,0-3.4S55.9,145.2,57.1,142.9z
					 M53.7,129.2c1.1-2.3-1.1-6.8-1.1-6.8s-1.1,1.1-2.3,3.4c-1.1,2.3-1.1,2.3-2.3,4.6s-3.4,3.4-2.3,5.7s2.3,0,2.3,0s0-5.7,2.3-5.7
					S52.5,131.5,53.7,129.2z M48,196.4c1.1-2.3,0-10.3,0-11.4s-2.3-3.4-2.3-3.4s-1.1-5.7-1.1-8c0-2.3-3.4-6.8-3.4-6.8v6.8
					c0,0,2.3,6.8,2.3,9.1s-1.1,3.4,0,5.7c1.1,2.3,2.3,8,2.3,8S46.8,198.7,48,196.4z M41.1,154.3c1.1,1.1,0-4.6,0-4.6v-8
					c0,0-2.3,1.1-2.3,3.4s-2.3,4.6,0,6.8S40,153.2,41.1,154.3z"/>
				<path class="st2" d="M204.3,154.8c0.6,1.6-0.3,5.2-0.3,5.2s-1.1-4.6,0-4.6C204.2,155.4,204.3,155.2,204.3,154.8z"/>
				<path class="st5" d="M204,144.1c-1,0,0.6,8.4,0.3,10.8c-0.1-0.2-0.2-0.4-0.3-0.5c-1.1-1.1-2.3-10.3-2.3-10.3v-8
					c0,0,2.3,4.6,2.3,5.7S205.2,144.1,204,144.1z"/>
				<path class="st6" d="M200.6,120.1c2.3,0,0,4.6-2.3,8c-2.3,3.4,0-1.1-1.1-2.3c-1.1-1.1-1.1-3.4-1.1-5.7c0-1.3-1.1-2.5-2-3.4
					c0.9,0.6,2,1.1,3.1,1.1C199.5,117.9,198.3,120.1,200.6,120.1z"/>
				<path class="st7" d="M192.6,155.4c1.1,1.1,0,2.3,0,3.4s-1.1,2.3-3.4,0s0-1.1,0-1.1v-8.3v-2C189.2,147.5,191.5,154.3,192.6,155.4
					z"/>
				<path class="st2" d="M190.3,185.3c0.6,3.7,0,4.3,0,4.3V185.3z"/>
				<path class="st8" d="M190.3,180.5v4.8c0-0.1,0-0.1,0-0.2c-0.2-1.2-0.6-2.7-1.1-4.6l-1.1-4.6l2.3-6.8v3.4V180.5z"/>
				<path class="st9" d="M190.3,113.3c0,0,0,4.6,0,5.7s-2.3,3.4-2.3,3.4v-4.6V111L190.3,113.3z"/>
				<path class="st2" d="M182.4,124.7c1.1,1.1,0,1.1,0,1.1V124.7z"/>
				<path class="st10" d="M182.4,120.1v4.6c-1.1-1.1-2.3-9.1-2.3-9.1L182.4,120.1z"/>
				<path class="st2" d="M179,168v4.6c0,0-2.3,8-5.7,9.1c-0.4,0.1-0.7,0.2-0.9,0.3c0-0.1-0.1-0.2-0.2-0.3c-1.1-1.1,2.3-4.6,2.3-9.1
					c0-4.6-2.3-9.1-2.3-9.1h3.4L179,168z"/>
				<path class="st11" d="M175.5,142.9c0,0,0,3.4,0,4.6s-1.1,4.6-1.1,4.6s-1.1,0-1.1-2.3s-1.1-3.4-1.1-3.4l2.3-8L175.5,142.9z"/>
				<path class="st12" d="M174.4,120.1c1.1,1.1,0,3.4,0,4.6s0,4.6-3.4,5.7c-0.9,0.3-1.3,0.4-1.3,0.4c0.2-0.1,2.1-1.2,1.3-2.7
					c-1.1-2.3-1.1-3.4,0-5.7c0.5-1,0.6-3,0.5-4.9c0.2,0.6,0.4,1.2,0.7,1.4C173.3,120.1,173.3,119,174.4,120.1z"/>
				<path class="st2" d="M172.4,182C172.6,182.7,170.8,182.7,172.4,182L172.4,182z"/>
				<path class="st2" d="M171.4,117.5c-0.5-1.8-0.5-4.2-0.5-4.2S171.3,115.3,171.4,117.5z"/>
				<path class="st13" d="M174.4,96.2c-3,1.8-6.2,3.4-9.5,4.6v0c-1.5-5.5-17.1-8.9-33.8-10.2l0.2-3
					C150.7,89.2,169.2,92.2,174.4,96.2z"/>
				<path class="st14" d="M164.9,100.8c3.3-1.2,6.5-2.8,9.5-4.6c-5.2-4.1-23.7-7.1-43.1-8.6c-0.7-0.1-1.3-0.1-2-0.2l0.1-1.3
					c6.5,0.6,13.1,1,19.9,1c22.7-0.7,29.8,3.8,30.8,10.3c-13.8,8-27.7,12.7-42.1,8l0.3-1.9c8,1.1,15.3,0.6,21.9-1.2
					C161.8,101.9,163.4,101.4,164.9,100.8z"/>
				<path class="st15" d="M164.9,100.8L164.9,100.8c-1.5,0.6-3.1,1.1-4.7,1.5c-5.1-8.4-51.8-11.8-62.1-4.1c-3.2-1.4-6.2-3.1-8.7-5
					c4.5-3.1,23.8-4,41.7-2.6C147.8,91.9,163.4,95.3,164.9,100.8z"/>
				<path class="st16" d="M160.7,123.5c3.4,1.1,0,2.3,0,2.3l-1.1,4.6c0,0,1.1,3.4,0,3.4s1.1,2.3,0,5.7s0,4.6,0,4.6s-1.1,0-2.3-2.3
					c-1.1-2.3,1.1-1.1,0-2.3c-1.1-1.1,0-4.6,0-6.8c0-2.3,0-4.6,0-4.6V127l-2.3-5.1l-2.3-5.1C153,117.1,157.4,122.4,160.7,123.5z"/>
				<path class="st17" d="M159.6,197.6c0,0,1.1,2.3,0,2.3c-1.1,0,0,9.8,1.1,12.4c-0.5-0.9-1.2-2.5-2.2-4.4
					c-2.3-4.6-1.1-10.3-1.1-10.3l1.1-8L159.6,197.6z"/>
				<path class="st18" d="M158.5,163.4c0,0,0,14.8,0,15.9s0-1.1-1.1-4.6c-1.1-3.4-1.1-6.8-2.3-8s0-9.1,0-9.1l3.4-5.7v3.4l-1.1,5.7
					L158.5,163.4z"/>
				<linearGradient id="SVGID_2_" gradientUnits="userSpaceOnUse" x1="98.1122" y1="99.6145" x2="160.1636" y2="99.6145">
					<stop  offset="3.333334e-02" style="stop-color:#7ACECC"/>
					<stop  offset="1" style="stop-color:#C49A6D"/>
				</linearGradient>
				<path class="st19" d="M160.2,102.3c-6.7,1.8-13.9,2.2-21.9,1.2c-0.8-0.1-1.7-0.3-2.6-0.4l-1.1,2.3l-1.1-2.3
					c-5.6,3.2-11.8,2.8-18.2,0l-3.4,2.3l-1.1-3.4c-1.7-0.3-3.3-0.7-4.8-1.1c-2.7-0.7-5.3-1.6-7.7-2.6
					C108.3,90.5,155,93.9,160.2,102.3z"/>
				<path class="st20" d="M147.1,227.2c1.1,1.1-2.3-1.1,0-3.4c0.2-0.2,0.3-0.4,0.3-0.6C147.3,224.8,146.2,226.3,147.1,227.2z"/>
				<path class="st21" d="M147.1,177.1c2.3,1.1-2.3,8-2.3,9.1s-2.3-9.1-2.3-9.1s-2.3-5.7-4.5-10.2c0.3,0.2,5.6,4.6,4.5,5.7
					C141.4,173.7,144.8,175.9,147.1,177.1z"/>
				<path class="st22" d="M145.9,138.4c0.3,0.7,0.6,0.7,0.7,0.7c-0.1,0.4-0.4,1.2-0.7,2.7c-1.1,5.7,1.1,6.8,0,8s-3.4-5.7-3.4-5.7
					s0-2.3,0-4.6s2.3-9.1,2.3-9.1l1.1-1.1C145.9,129.2,144.8,136.1,145.9,138.4z"/>
				<path class="st23" d="M142.5,213.5c1.3,1.3,2.2,2.9,2.9,4.4C143.6,215,141.2,212.2,142.5,213.5z"/>
				<path class="st24" d="M142.5,115.6c0,1.1,0,1.1,0,2.3s-2.3,4.6-2.3,4.6s0,0,0-1.1s0-4.6,0-4.6s-1.1-2.3,0-3.4
					S142.5,114.4,142.5,115.6z"/>
				<path class="st25" d="M140.2,188.5c1.1,2.3-2.3,6.8-3.4,6.8s0,4.6-3.4,3.4s1.1-1.1,0-3.4s4.6-5.7,3.4-10.3s0-3.4,0-3.4
					S139.1,186.2,140.2,188.5z"/>
				<path class="st26" d="M138.2,103.4l-0.3,1.9l-2.3,5.7l-1.1-3.4c-6.9,1.8-13.4,1.8-19.4-1.1l-2.3,6.8l-3.4-8
					c-2-0.3-4-0.8-5.9-1.4c0.8-1,1.5-2.1,2.3-3.2c1.6,0.4,3.2,0.8,4.8,1.1l1.1,3.4l3.4-2.3c6.5,2.8,12.6,3.2,18.2,0l1.1,2.3l1.1-2.3
					C136.5,103.2,137.4,103.3,138.2,103.4z"/>
				<path class="st27" d="M133.4,144.1c0,1.1,0,5.7,0,6.8c0,1.1-4.3,4.3-4.5,4.5c0.1-0.2,1.1-2.3,0-3.4c-1.1-1.1,0-2.3,0-2.3
					s-2.3-8-2.3-10.3s0-3.4,0-3.4l4.6,3.4C131.1,139.5,133.4,142.9,133.4,144.1z"/>
				<path class="st13" d="M131.3,87.6l-0.2,3c-18-1.4-37.2-0.5-41.7,2.6c-2.3-1.8-4.3-3.8-6.1-6c9.3-1.3,27.9-1.1,46,0.3
					C130,87.5,130.7,87.5,131.3,87.6z"/>
				<path class="st28" d="M130,169.1c0,0,0,3.4,0,5.7c0,2.3,0,2.3-1.1,4.6c-1.1,2.3,0,4.6-1.1,3.4c-1.1-1.1,0-6.8,0-9.1
					c0-2.3,0-4.6,0-4.6H130z"/>
				<path class="st29" d="M129.4,86.1l-0.1,1.3c-18.1-1.4-36.7-1.6-46-0.3c1.7,2.3,3.8,4.3,6.1,6c2.6,2,5.5,3.7,8.7,5
					c2.4,1,5,1.9,7.7,2.6c-0.7,1.1-1.5,2.2-2.3,3.2c-9.9-3-19.2-9.3-28.2-16.8C84.7,79.7,105.3,84,129.4,86.1z"/>
				<path class="st30" d="M127.7,116.7v9.1c0-1.1-0.3-1.4-0.7-2c-0.4-0.6-1-1.4-1.6-3.7c-1.1-4.6,0-4.6,0-4.6L127.7,116.7z"/>
				<path class="st23" d="M125.4,204.4c1.1,1.1-4.6-2.3-4.6-2.3s1.1-1.1,0-6.8s4.6-4.6,4.6-4.6S124.3,203.3,125.4,204.4z"/>
				<path class="st31" d="M123.1,227.2c0.1,0.1,0.1,0.3,0.2,0.4c-0.6-1-1.6-2.2-2.5-2.7c-2.3-1.1,0-2.3-2.3-5.7s2.3-8,2.3-8
					s1.1,4.6,0,5.7S120.9,222.6,123.1,227.2z"/>
				<path class="st32" d="M116.3,139.5c1.1,2.3,0,4.6,0,5.7s0,3.4,0,3.4l-2.3-5.7v-6.8C114,136.1,115.2,137.2,116.3,139.5z"/>
				<path class="st33" d="M114,166.8l2.3,6.8c0,0-1.1,4.6-2.3,5.7s-2.3,1.1-2.3-4.6c0-5.7,1.1-3.4,0-8s2.3-2.3,2.3-2.3V166.8z"/>
				<path class="st34" d="M107.2,205.6c2.3,6.8,1.1,8,1.1,8s-5.7-3.4-4.6-5.7s1.1-4.6,0-5.7s2.3-6.8,2.3-6.8l1.1-5.7
					c0,0,0,1.1,0,5.7S104.9,198.7,107.2,205.6z"/>
				<path class="st31" d="M107.2,236.3c1.1,3.4-1.1,6.8-1.1,3.4s-4.6-10.3-4.6-10.3s-1.1-4.6-1.1-6.8s1.1-6.8,1.1-6.8v-2.3l1.1,5.7
					c0,0,1.1,5.7,1.1,8s1.1,1.1,2.3,3.4S106.1,232.9,107.2,236.3z"/>
				<path class="st35" d="M103.8,162.3c1.1,1.1,0,3.4,0,3.4l-4,8.9c0.3-0.7,0.6-1.5,0.6-2.1c0-1.1,1.1-2.3,0-4.6s-3.4-9.1-3.4-10.3
					s1.1-2.3,1.1-2.3l2.3,2.3C100.4,157.7,102.6,161.1,103.8,162.3z"/>
				<path class="st36" d="M98.1,120.1c0,0,1.1,4.6,0,6.8c-1.1,2.3-2.3,3.4-2.3,3.4s-4.6,2.3-3.4,0S98.1,120.1,98.1,120.1z"/>
				<path class="st37" d="M94.7,247.7c1.1,2.3,0,0-4.6-3.4c-4.6-3.4-1.1-8-1.1-11.4c0-1.7,0.3-3.1,0.6-4.1c0.3-1,0.6-1.6,0.6-1.6
					s1.1,6.8,1.1,9.1s1.1,2.3,1.1,4.6S93.5,245.4,94.7,247.7z"/>
				<linearGradient id="SVGID_3_" gradientUnits="userSpaceOnUse" x1="46.0837" y1="103.9557" x2="103.5337" y2="103.9557">
					<stop  offset="0" style="stop-color:#8B7D27"/>
					<stop  offset="6.666667e-02" style="stop-color:#968030"/>
					<stop  offset="0.2513" style="stop-color:#BF8C50"/>
					<stop  offset="0.541" style="stop-color:#AC7D37"/>
				</linearGradient>
				<path class="st38" d="M75.3,87.1c9.1,7.5,18.3,13.8,28.2,16.8c-5.3,7-11.1,11.3-17.4,13.9c0.3-1.9,0.6-3.9,0.6-4.5
					c0-1.1,1.1-10.3,1.1-10.3l-4.6,9.1c1.1,2.3,1,3.9,0.5,6.5c-11.7,3.8-24.6,1.9-37.7-1C53.1,107.8,62.7,97.6,75.3,87.1z
					 M77.6,101.9l2.3-1.1c0,0-2.3-1.1-4.6,1.1c-2.3,2.3-6.8,9.1-5.7,9.1c1.1,0,4.6,2.3,5.7,0s2.3-5.7,2.3-5.7S78.7,103,77.6,101.9z
					 M75.3,96.2c0-2.3,0-2.3,0-2.3l-4.6,1.1v2.3h3.4C74.2,97.4,75.3,98.5,75.3,96.2z M65.1,107.6c0-1.1,0-1.1,0-3.4
					c0-2.3,0-2.3,0-2.3l-3.4,3.4l-4.6,5.7c0,0,3.4,1.1,4.6,0S65.1,108.7,65.1,107.6z"/>
				<path class="st39" d="M92.4,190.7c0,1.1,0,5.7,0,8c0,0-2.3-2.3-3.4-4.6c-1.1-2.3,1.1-4.6,0-8c-1.1-3.4,0-5.7,0-5.7l2.3,6.8
					C91.3,187.3,92.4,189.6,92.4,190.7z"/>
				<path class="st40" d="M90.1,213.5c1.1,2.3,0,2.3,0,4.6s0,2.3-2.3,1.1c-2.3-1.1-2.3-5.7-2.3-8c0-2.2-2.1-6.5-2.3-6.8
					c0.2,0.2,3.5,3.4,4.5,3.4C89,207.8,89,211.2,90.1,213.5z"/>
				<path class="st41" d="M89,136.1c0,0,1.1,8,0,11.4c-1.1,3.4-3.4,6.8-3.4,6.8s-2.3,0-2.3,3.4v-8v-2.3l3.4-8L89,136.1z"/>
				<path class="st42" d="M83.3,112.2l4.6-9.1c0,0-1.1,9.1-1.1,10.3c0,0.6-0.3,2.6-0.6,4.5c-0.8,0.3-1.5,0.6-2.3,0.9
					C84.3,116,84.4,114.4,83.3,112.2z"/>
				<path class="st42" d="M86.1,117.8c-0.3,1.8-0.6,3.5-0.6,3.5h-2.3c0,0,0,0,0.5-2.6C84.6,118.4,85.3,118.1,86.1,117.8z"/>
				<path class="st43" d="M83.3,234c0,0,1.1,5.7,0,10.3c0,0-3.4-10.3-3.4-12.5s0-3.4,1.1-4.6c0.4-0.4,0.5-1.1,0.5-1.9
					c0.3,2.5,0.6,5.7,0.6,7.6C82.1,236.3,83.3,234,83.3,234z"/>
				<path class="st44" d="M79.9,100.8l-2.3,1.1c1.1,1.1,0,3.4,0,3.4s-1.1,3.4-2.3,5.7s-4.6,0-5.7,0c-1.1,0,3.4-6.8,5.7-9.1
					C77.6,99.6,79.9,100.8,79.9,100.8z"/>
				<path class="st45" d="M76.4,163.4c0,0,3.4,11.4,2.3,13.7c-0.4,0.9-0.4,1.6-0.2,2.1c-1.2-1.4-3.3-5.7-5.5-8.9
					C70.8,166.8,76.4,165.7,76.4,163.4z"/>
				<path class="st46" d="M76.4,190.7c0,0,1.1,4.6,0,8c-0.6,1.7-0.6,2.6-0.4,3c-0.2-0.2-0.4-0.4-0.7-0.7c-1.1-1.1-1.1-3.4-2.3-8
					c-0.8-3.1,0.6-5.2,1.5-6.2c0.4-0.5,0.8-0.7,0.8-0.7L76.4,190.7z"/>
				<path class="st47" d="M75.3,93.9c0,0,0,0,0,2.3s-1.1,1.1-1.1,1.1h-3.4v-2.3L75.3,93.9z"/>
				<path class="st41" d="M74.2,136.1l1.1,3.4c0,0-1.1,9.1-2.3,6.8s0-2.3-1.1-6.8s0-3.4-1.1-8c-1.1-4.6,2.3-1.1,2.3-1.1L74.2,136.1z
					"/>
				<path class="st48" d="M73,232.9c1.1,2.3,0,3.4,0,3.4s-1.1,0-3.4-3.4c-2.3-3.4,0-1.1,0-4.6c0-1-0.4-2.2-1-3.4
					c-0.3-0.5-0.5-1.1-0.8-1.6c1.6,2.2,3.5,4.5,4.1,3.9C73,226.1,71.9,230.6,73,232.9z"/>
				<path class="st49" d="M70.8,211.2v4.6c0,0-2.3-3.4-3.4-4.6c-0.7-0.7-0.5-1.9-0.9-3.2c-0.2-0.8-0.6-1.7-1.4-2.5
					c-2.3-2.3,0-5.7,0-5.7L70.8,211.2z"/>
				<path class="st50" d="M65.1,104.2c0,2.3,0,2.3,0,3.4s-2.3,2.3-3.4,3.4s-4.6,0-4.6,0l4.6-5.7l3.4-3.4
					C65.1,101.9,65.1,101.9,65.1,104.2z"/>
				<path class="st51" d="M60.5,178.2c0,0,2.3,4.6,0,2.3s-1.1-6.8-2.3-8c-1.1-1.1-1.1-1.1,0-4.6s1.1-10.3,1.1-10.3l1.1,5.7v1.7v4
					c0,0-1.1,2.3,0,5.7C61.6,178.2,60.5,178.2,60.5,178.2z"/>
				<path class="st52" d="M59.4,221.5c2.3,3.4,0,4.6,0,4.6s0,0-3.4-5.7c-3.4-5.7-2.3-4.6-2.3-4.6v-4.6c0,0,2.3,3.4,2.3,4.6
					S57.1,218.1,59.4,221.5z"/>
				<path class="st53" d="M58.2,139.5c1.1,2.3,0,1.1-1.1,3.4s0,0,0,1.1s0,3.4,0,3.4s-1.1,3.4-2.3,0c-1.1-3.4-1.1-1.1,0-3.4
					c1.1-2.3,0-2.3,0-4.6s0-3.4,0-3.4S57.1,137.2,58.2,139.5z"/>
				<path class="st54" d="M52.5,122.4c0,0,2.3,4.6,1.1,6.8c-1.1,2.3-1.1,1.1-3.4,1.1s-2.3,5.7-2.3,5.7s-1.1,2.3-2.3,0
					s1.1-3.4,2.3-5.7s1.1-2.3,2.3-4.6C51.4,123.5,52.5,122.4,52.5,122.4z"/>
				<path class="st55" d="M48,185.1c0,1.1,1.1,9.1,0,11.4s-2.3,0-2.3,0s-1.1-5.7-2.3-8c-1.1-2.3,0-3.4,0-5.7s-2.3-9.1-2.3-9.1v-6.8
					c0,0,3.4,4.6,3.4,6.8c0,2.3,1.1,8,1.1,8S48,183.9,48,185.1z"/>
				<path class="st56" d="M41.1,149.7c0,0,1.1,5.7,0,4.6s0,0-2.3-2.3s0-4.6,0-6.8s2.3-3.4,2.3-3.4V149.7z"/>
			</g>
			<g>
			</g>
		</g>
	</g>
	<g>
		<g id="XMLID_2_">
			<g>
				<path class="st57" d="M224.5,248.8c12.3,12.4,13.3,23.2,8,33c-4,5.3-9.7,5.5-16.4,2.5c0.2-0.8,0.3-1.7,0.4-2.5
					c1.7-3.4-6.1-15.5-22.3-20.8c-5.3-1.7-11.5-2.8-18.5-2.6c4.4-3,9-5.8,13-9.1c2.6-2.2,5-4.5,7-7.2
					C208.6,237,218,239.7,224.5,248.8z"/>
				<path class="st58" d="M194.2,261.1c16.3,5.3,24,17.4,22.3,20.8c-0.1,0.9-0.2,1.7-0.4,2.5c-2.3-2.3-14.7,1.3-27.4,4.2
					c0,0,0,0,0,0c-10,1-18.7,0.5-24.5-3.1c-3.4-5.5-3.8-11.9-3.4-18.5c1.4,3.7,5.5,5.3,11.1,6c9.5,1.1,23.4-0.5,35.6,0.9
					C207.1,270.2,203.1,266,194.2,261.1z"/>
				<path class="st59" d="M188.7,288.6c12.7-3,25.1-6.6,27.4-4.2c-2.3,11-10,14-19,10c-6.5-2.4-14.8,0-22.8,0
					c-1.6-0.8-3-1.7-4.3-2.6C175.5,291.5,182.1,290.2,188.7,288.6C188.7,288.6,188.7,288.6,188.7,288.6z"/>
				<path class="st60" d="M194.2,261.1c8.9,4.9,12.9,9.1,13.2,12.8c-12.2-1.3-26,0.3-35.6-0.9v0c6.7-3.6,8.6-7.8,1.9-13.2
					c0.6-0.4,1.3-0.9,2-1.3C182.8,258.3,188.9,259.3,194.2,261.1z"/>
				<path class="st61" d="M198.9,207.3c2.2,7.5,3,13.8,2.6,19.1c-6.6-18.5-41.9-25.3-44.4-8.2c-2.9-9.7-4.5-17.9-0.3-22.2
					C170.4,186,190.3,199.8,198.9,207.3z"/>
				<path class="st62" d="M201.5,226.3c-0.5,6.5-2.6,11.6-5.8,15.8c-2,2.7-4.4,5-7,7.2l0,0c2.8-14.2-17.7-22.2-24.5-7.6
					c-0.1,0-0.2-0.1-0.3-0.1c-0.3-1.3-0.6-2.6-0.9-3.8c0,0,0,0,0,0c-1.7-6.7-4-13.4-5.9-19.6C159.6,201,194.9,207.8,201.5,226.3z"/>
				<linearGradient id="SVGID_4_" gradientUnits="userSpaceOnUse" x1="163.8539" y1="248.5423" x2="188.9543" y2="248.5423">
					<stop  offset="0" style="stop-color:#B0C591"/>
					<stop  offset="1" style="stop-color:#F3FF00"/>
				</linearGradient>
				<path class="st63" d="M164.2,241.7c6.8-14.5,27.3-6.5,24.5,7.6l0,0c-4,3.3-8.6,6.2-13,9.1c-0.7,0.4-1.3,0.9-2,1.3
					c-1.5,1.1-3,2.1-4.5,3.2l-0.6-0.6l-4-4c1-5.2,0.4-11-0.9-16.9C163.9,241.6,164,241.7,164.2,241.7z"/>
				<path class="st64" d="M164.2,285.6c5.9,3.5,14.5,4.1,24.5,3.1c-6.6,1.5-13.2,2.9-18.5,3.2h0
					C167.5,289.9,165.6,287.8,164.2,285.6z"/>
				<path class="st65" d="M173.8,259.8c6.7,5.4,4.7,9.6-1.9,13.2v0c-5.6-0.7-9.7-2.3-11.1-6c5.4,1.5,7.5-0.6,8-4.6l0.6,0.6
					C170.7,262,172.2,260.9,173.8,259.8z"/>
				<path class="st66" d="M164.7,258.5l4,4c-0.5,3.9-2.6,6-8,4.6c-0.4,1.2-0.8,2.4-1.2,3.7c-0.4-0.1-0.9-0.2-1.3-0.3
					c-1.8-6.4,5.5-6.8,5.9-12L164.7,258.5z"/>
				<path class="st67" d="M163.9,241.6c1.3,6,1.8,11.8,0.9,16.9l-0.6-0.1c0-0.2,0-0.3,0-0.5c-5.5-4.9-11-9.2-16.5-12.7
					C150.2,240.1,154.4,237.3,163.9,241.6z"/>
				<path class="st68" d="M164.2,257.9c0,0.2,0,0.3,0,0.5c-0.4,5.2-7.7,5.6-5.9,12c-9.1-2-15.5-4.5-19-7.5
					C148.7,264.6,157.3,263.8,164.2,257.9z"/>
				<path class="st69" d="M130.6,237.2c-1.4-0.4-2.8-0.8-4.2-1.1c-4.2-3.5-7.4-13.3-5.4-16.9c0.4-0.4,0.8-0.8,1.3-1.2
					c1.6-1.5,3.5-3,5.4-4.6c15.3-3,25.7,9.2,35.2,24.2c0,0,0,0,0,0c0.3,1.3,0.6,2.6,0.9,3.8c-9.4-4.3-13.7-1.5-16.2,3.7
					C142,241.6,136.3,238.9,130.6,237.2z"/>
				<path class="st70" d="M158.2,270.5c0.4,0.1,0.8,0.2,1.3,0.3c-14,9.2-24.7-7.6-40.8-11.8c6.9-2.4,13.8-4.7,17.4-1
					c0.2,1.8,1.3,3.5,3.1,5.1C142.7,266,149.1,268.4,158.2,270.5z"/>
				<path class="st71" d="M159.5,270.7c-1.6,5-3.4,10.5-5.8,15.1c-9.4-7.9-37.6,11.6-44.8-6.3h0c1.7-8.4,4.5-15.7,9.8-20.6
					C134.8,263.1,145.5,280,159.5,270.7z"/>
				<linearGradient id="SVGID_5_" gradientUnits="userSpaceOnUse" x1="145.0181" y1="251.5982" x2="164.15" y2="251.5982">
					<stop  offset="0" style="stop-color:#B0C591"/>
					<stop  offset="1" style="stop-color:#F3FF00"/>
				</linearGradient>
				<path class="st72" d="M164.2,257.9c-6.1-2.1-11.4-3.5-16.3-4.4c-0.5-0.4-1-0.7-1.5-1c-2.2-3.9-1.9-6.4,1.2-7.3
					C153.2,248.7,158.7,253,164.2,257.9z"/>
				<path class="st73" d="M136.1,257.9c-0.2-1.7,0.3-3.5,1.5-5.4v0c3.1,0,6.5,0.3,10.2,1c4.8,0.9,10.2,2.3,16.3,4.4
					c-6.8,5.9-15.5,6.6-24.9,5C137.4,261.5,136.3,259.8,136.1,257.9z"/>
				<path class="st74" d="M109,279.5c7.2,18,35.4-1.6,44.8,6.3c-2.1,4.2-4.6,7.7-7.8,9.6c-17.2-1.8-32.9,5.6-37.6-12.5
					C108.5,281.8,108.8,280.7,109,279.5L109,279.5z"/>
				<path class="st71" d="M129.5,253.4c-0.6,0.1-1.2,0.3-1.7,0.5c-0.1,0-0.2,0-0.2,0.1c-9.5,2.4-17,2.9-21.5,0.6
					c-0.3-5.7-0.3-11.5,2.3-18h0c12.5,0.1,22.8,1.7,22.8,10c5,0.4,10.1,2.4,15.3,6c0.5,0.3,1,0.7,1.5,1c-3.8-0.7-7.2-1-10.2-1
					C134.6,252.5,131.9,252.8,129.5,253.4z"/>
				<path class="st75" d="M147.7,245.2c-3.1,0.9-3.4,3.4-1.2,7.3c-5.2-3.5-10.4-5.6-15.3-6c0-8.3-10.3-9.9-22.8-10
					c6-1.5,12.1-1.6,18.1-0.3c1.3,1.1,2.8,1.6,4.2,1.1C136.3,238.9,142,241.6,147.7,245.2z"/>
				<path class="st76" d="M137.7,252.5L137.7,252.5c-1.2,1.9-1.8,3.7-1.5,5.4c-3.5-3.8-10.4-1.4-17.4,1c2.4-2.2,5.3-3.9,8.8-5
					c0.1,0,0.1,0,0.2-0.1c0.6-0.1,1.2-0.3,1.7-0.5C131.9,252.8,134.6,252.5,137.7,252.5z"/>
				<path class="st69" d="M130.6,237.2c-1.4,0.5-2.8,0.1-4.2-1.1C127.8,236.5,129.2,236.8,130.6,237.2z"/>
				<path class="st77" d="M121,219.3c-2,3.6,1.2,13.3,5.4,16.9c-6-1.2-12.1-1.2-18.1,0.3C110.4,231.3,114.3,225.7,121,219.3z"/>
			</g>
			<g>
			</g>
		</g>
	</g>
	<g>
		<g id="XMLID_4_">
			<g>
				<path class="st78" d="M94,52.9c-1.5,2.7-3.8,3.3-6.2,3.6h0l-9.3-10.5l3.7-2.1L94,52.9z"/>
				<path class="st79" d="M66.9,29.8c-0.9,1.5-2.3,2.1-4.1,1.4c-3.6-3.1-4.6-6.5-3.4-10.3c0.6-1.9,1.6-2.6,2.8-2.5
					C65.2,22.7,66.6,26.4,66.9,29.8z"/>
				<path class="st80" d="M57.3,66.4L57.1,70c-2.3,2.4-4.9,3.2-8,1.1l0.8-3.4C52.9,68.8,55.4,68.2,57.3,66.4z"/>
				<path class="st81" d="M94.9,53.6c3.3-0.5,6.1-1.5,6.9-4.5h0l3.1,1.5c-1.4,3.9-4,5.5-8,4.6L94.9,53.6z"/>
				<path class="st82" d="M40.6,66.4c1.5,1.6,3.5,1.8,5.7,0.8l-0.5,1.5c-2.2,1.2-4.3,1.2-6.4-0.5L40.6,66.4z"/>
				<path class="st83" d="M76.4,38.1l-4.6,9.1l-6.8-4.6h-1.1C68.6,42.4,73,41.3,76.4,38.1z"/>
				<path class="st84" d="M50.9,53.4l-4.6,13.8c-2.2,1-4.2,0.9-5.7-0.8l9.1-12.9L50.9,53.4z"/>
				<path class="st85" d="M68.5,47.2H53.7l1-1c3.6,0,6.7-1.2,9.3-3.6L68.5,47.2z"/>
				<path class="st82" d="M94.9,53.6c-0.5,1.9-2.5,3.3-6.2,4.1l-1-1.1c2.4-0.3,4.7-0.9,6.2-3.6L94.9,53.6z"/>
				<path class="st86" d="M93.5,33.6l-3.2,2.2C91.2,34.8,93.2,33.8,93.5,33.6z"/>
				<path class="st82" d="M40.6,47.9c16.9-11.7,39.8-16.7,64.5-19.6c1.2,0,2.4,0.1,3.6,0.1c-25.9,3.8-49.6,10.3-69.9,21.1
					C39.4,49,40,48.4,40.6,47.9L40.6,47.9z"/>
				<path class="st83" d="M90,36l-1.7,1.2l-13,8.9l13.1-10.3C89,35.9,89.5,36,90,36z"/>
				<path class="st82" d="M107.8,46.5c-1,1.6-3.1,2.4-6,2.6h0l-1.7-0.9c2.4-0.6,4.7-1.2,5.8-2.5L107.8,46.5z"/>
				<path class="st82" d="M28.7,68.6c1,1.5,3.2,1.8,6.3,1.4c-0.2,0.3-0.4,0.6-0.6,0.8c-3.1,1.5-5.6,1.5-7-0.8L28.7,68.6z"/>
				<path class="st87" d="M88.7,57.7c3.6-0.8,5.7-2.1,6.2-4.1l2.1,1.6c-1.2,3-3.2,4.7-6.4,4.6L88.7,57.7z"/>
				<path class="st82" d="M75.8,60.8c-0.9,1.4-1.7,1.8-2.5,1.4l-0.4-2.4c1,1.4,1.8,1.5,2.4-0.6L75.8,60.8L75.8,60.8z"/>
				<path class="st86" d="M82.1,38.8c-0.2,0-0.4,0.1-0.6,0.1l5.1-4.2L82.1,38.8z"/>
				<path class="st88" d="M73.3,62.1l0.4,2.3l0.5,3.3c-0.7,2-1.4,1.6-2.3,0l-0.6-3.3v0l-0.5-3.1v0l-0.1-0.6L69,51.6l2.6-0.3l1.3,8.5
					L73.3,62.1z"/>
				<path class="st89" d="M101.8,49.1c2.9-0.2,5-1,6-2.6l4.3,1.8c-1.7,2.3-4.1,3.2-7.2,2.4L101.8,49.1z"/>
				<path class="st90" d="M32.4,73.6c-3,1.2-5.7,1.6-7.2-1.3l2.2-2.3c1.5,2.3,4,2.3,7,0.8C33.6,71.9,33,72.8,32.4,73.6L32.4,73.6z"
					/>
				<path class="st91" d="M49.1,71.2c-0.7,2.2-2.4,2.1-4.6,1.1l1.2-3.6c1.6,0.8,3,0.7,4.2-1L49.1,71.2z"/>
				<path class="st92" d="M77.9,58.3L77.9,58.3c-1.3-5-1.9-8.8-1.4-11l1.9-1.1l9.3,10.5C85.3,58.8,81.7,58.7,77.9,58.3L77.9,58.3z"
					/>
				<path class="st82" d="M123.1,30.2c0.8,4.4-0.1,7.3-2.3,9l-2-0.4c2.3-2.3,4-4.8,3-8.6v0C122.3,30.1,122.7,30.1,123.1,30.2
					L123.1,30.2z"/>
				<path class="st93" d="M53.4,53.1l-3,12.7c-1.2,1.6-2.6,1.7-4.1,1.3l4.6-13.8L53.4,53.1z"/>
				<path class="st94" d="M51.4,50.7l15.9-1.1H52.5L51.4,50.7z M117.5,47.2c0.8,2.1,0.2,3-2.3,2.3l-3.1-1.3l-4.3-1.8l-1.9-0.8
					l-15.8-6.5l-3.7,2.2L82.1,44l-3.7,2.1l-1.9,1.1c-0.4,2.2,0.1,6,1.4,11h0c0.1,0.3,0.2,0.6,0.2,1c0.3,1,0.6,2.1,0.9,3.1
					c2.6,9,6.9,20.4,11.1,31.6c-1.1-1.1-2.5-2-4-4l-9.2-26.2l-1.1-3v0l-0.6-1.6l-2.8-8l-0.9,0.1L69,51.6l-6.8,0.7L58,52.7l-4.6,0.5
					v0l-2.5,0.2l-1.2,0.1l-9.1,12.9l-1.3,1.8l-3.8,5.4l-2.3,3.3c-1.2,0.8-1.9,0.3-2.3-1.1c0,0,0.6-0.8,1.5-2.1l0,0
					c0.5-0.8,1.2-1.7,2-2.7c0.2-0.3,0.4-0.5,0.6-0.8c4.5-6.3,11.5-16,14.2-19.9c1.6-0.5,2.7-1.9,3.4-4c0.7,0.1,1.4,0.1,2.1,0.1l-1,1
					h14.8l-4.6-4.6h1.1l6.8,4.6l4.6-9.1c0.3,0.1,0.6,0.3,1,0.4L74.2,45l7.4-6c0.2,0,0.4,0,0.6-0.1L75.3,45l10.5-7.5c0,0,0,0,0,0
					c0.8-0.5,1.5-1,2.3-1.6c0.1,0,0.1,0,0.2,0L75.3,46.1l13-8.9L90,36c0.1,0,0.1,0,0.1,0c-0.3,0.4-0.3,0.7,0,1
					c0.8,0.8,14.2,5.6,22,8.4c0.4,0.1,0.7,0.3,1.1,0.4c1.5,0.5,2.7,0.9,3.4,1.2C117.1,47.1,117.5,47.2,117.5,47.2z"/>
				<path class="st82" d="M94.9,53.6L94,52.9c2.6-0.9,5.2-1.8,6.2-4.7l1.7,0.9C101,52.1,98.1,53.1,94.9,53.6z"/>
				<path class="st95" d="M28.7,68.6l17.5-18.5c1.2,0.3,2.1,0.3,3,0C46.5,54,39.5,63.7,35,70C31.9,70.5,29.7,70.1,28.7,68.6z"/>
				<path class="st96" d="M73.3,62.1c0.8,0.5,1.7,0,2.5-1.4l1.1,3c-0.5,1.8-1.6,2-3.2,0.6L73.3,62.1z"/>
				<path class="st97" d="M70.8,61.3l0.5,3.1v0c-1.9,3.8-4.6,5.5-8.5,3.3c0,0.1,0,0.3-0.1,0.4h0l-0.1-3.6v0
					C66.9,66.7,69.3,65,70.8,61.3z"/>
				<path class="st98" d="M125.3,40.1c-1.2,4.9-4.4,6.3-8.7,6.8c-0.8-0.3-1.9-0.7-3.4-1.2c4.1-1.7,7.9-3.5,7.6-6.6L125.3,40.1z"/>
				<path class="st86" d="M91.3,33.6l-2.8,2.2c-0.1,0-0.1,0-0.2,0L91.3,33.6z"/>
				<path class="st99" d="M90.1,59.8c-2.6,5.7-7.1,4.4-11,2.6l-0.1,0c-0.3-1.1-0.6-2.1-0.9-3.1l0.1,0c4.3,1.3,7.8,0.8,10.5-1.5
					l1.9,2.1C90.4,59.8,90.3,59.8,90.1,59.8z"/>
				<path class="st100" d="M22.3,66.4c-0.6,1.5,0,2.4,1.7,2.7l-2.2,2.1c-1.3-0.2-1.7-1.5-1.1-4C21.2,66.9,21.7,66.6,22.3,66.4z"/>
				<path class="st83" d="M50.3,48.3l2.2-2.2c-0.7,2-1.8,3.5-3.4,4C49.9,49,50.3,48.4,50.3,48.3z"/>
				<path class="st97" d="M57.3,66.4c2.4,1.7,4.1,1.1,5.3-1.8l0.1,3.6h0c-0.5,2.6-2.8,2.6-5.6,1.8L57.3,66.4z"/>
				<polygon class="st101" points="67.3,49.5 51.4,50.7 52.5,49.5 				"/>
				<path class="st102" d="M90.1,39.3l15.8,6.5c-1.2,1.3-3.4,1.9-5.8,2.5l-13.7-6.8L90.1,39.3z"/>
				<path class="st103" d="M38.2,55.6c2.4-1,4.6-2.9,6.4-6.1c0.6,0.3,1.1,0.4,1.6,0.6L28.7,68.6c-1.8,0.8-3,0.6-3.7-0.5L38.2,55.6z"
					/>
				<path class="st82" d="M70.6,60.8l0.1,0.6v0c-1.4,3.7-3.9,5.3-8.2,3.2l0-1.4C66,64.9,68.6,63.6,70.6,60.8z"/>
				<path class="st104" d="M24.9,68.2c-1.8,0.1-2.2-0.8-1.6-2.3c4.6-2.4,8.9-5,11-9.5c1.3,0,2.6-0.2,3.8-0.7L24.9,68.2z"/>
				<path class="st105" d="M58,52.7l-0.6,11.9c-2.1,2-4.5,2.4-7,1.3l3-12.7v0L58,52.7z"/>
				<path class="st106" d="M112.1,45.4c-7.7-2.7-21.2-7.6-22-8.4c-0.3-0.3-0.2-0.6,0-1c2.8,0.2,5.4-0.3,7.5-1.9l21.1,4.6
					C119.1,41.2,115.9,43.3,112.1,45.4z"/>
				<path class="st101" d="M85.9,37.4L75.3,45l6.8-6.1C83.4,38.6,84.6,38.1,85.9,37.4z"/>
				<path class="st82" d="M77.9,58.2c3.8,0.5,7.4,0.6,9.8-1.7h0l1,1.1c-2.7,2.3-6.2,2.8-10.5,1.5l-0.1,0
					C78,58.9,77.9,58.6,77.9,58.2L77.9,58.2z"/>
				<path class="st107" d="M72.5,51.2l2.8,8c-0.6,2.1-1.4,2-2.4,0.6l-1.3-8.5L72.5,51.2z"/>
				<path class="st108" d="M120.8,39.2c2.3-1.7,3.1-4.6,2.3-9v-0.1c1.4-0.1,2.8-0.1,3.9-0.3c3.6,4.5,1.5,7.1-1.6,9.4
					c-0.1,0.3-0.1,0.6-0.2,0.9L120.8,39.2z"/>
				<path class="st82" d="M27.3,70c-1.7,0.3-3.1,0.3-3.4-0.9l0.9-0.9c0.7,1.1,1.9,1.3,3.7,0.5L27.3,70z"/>
				<path class="st109" d="M62.2,52.2l0.4,10.9c-1.4,2.6-3.1,2.7-5.2,1.4L58,52.7L62.2,52.2z"/>
				<path class="st86" d="M108.7,28.4c7.1,0.2,14.2,0.5,21.3,0.6c0.2,0.4-1,0.6-2.9,0.8c-1.1,0.1-2.5,0.2-3.9,0.3
					c-0.4,0-0.9,0-1.3,0c-3.1,0.1-6.2,0.1-7.6,0.1c0,0-0.1-0.1-0.2-0.1c-0.7,0-0.6,0,0.2,0.1c0,0.5-9.8,3.9-13.9,1.1
					c-0.8,1.2-1.7,2.1-2.7,2.8c-2.2,1.6-4.7,2.1-7.5,1.9c0-0.1,0.1-0.2,0.2-0.3l3.2-2.2c-0.3,0.2-2.3,1.2-3.2,2.2L90,36
					c-0.5,0-1-0.1-1.6-0.2l2.8-2.2l-3.1,2.2l-2.3,1.6c0,0,0,0,0,0c-1.2,0.7-2.5,1.2-3.7,1.4l4.6-4.1l-5.1,4.2
					c-1.3,0.1-2.7,0-4.1-0.4l0.2-0.4h-1.1c-3.5,3.2-7.8,4.3-12.5,4.6c-2.6,2.3-5.6,3.6-9.3,3.6l0.1-0.1h-2.3l-2.2,2.2
					c0,0.1-0.4,0.7-1.1,1.7c-0.8,0.3-1.8,0.3-3,0c-0.5-0.1-1-0.3-1.6-0.6c-1.8,3.2-4,5.2-6.4,6.1c-1.2,0.5-2.5,0.7-3.8,0.7
					c-2.1,4.5-6.4,7.1-11,9.5c-0.3,0.2-0.7,0.4-1,0.5c-0.5,0.3-1.1,0.5-1.6,0.8c-0.4,0.2-0.8,0.4-1.2,0.6
					c6.5-6.2,13.1-12.5,19.4-18.3C59.1,38.7,82.8,32.2,108.7,28.4L108.7,28.4z"/>
				<path class="st110" d="M39.3,68.2c2.1,1.7,4.3,1.7,6.4,0.5l-1.2,3.6c-2.1,2.8-5.2,2.9-9.1,1.3L39.3,68.2z"/>
				<path class="st111" d="M67.3,29c-0.1,0.3-0.3,0.6-0.4,0.8c-0.3-3.4-1.8-7.2-4.7-11.3c0.8,0.1,1.8,0.5,2.9,1.4
					c2.5,3.2,3.7,6.3,2.8,9.1v0C67.7,29,67.5,29,67.3,29z"/>
				<path class="st82" d="M24.9,68.2L24,69.1c-1.7-0.3-2.3-1.2-1.7-2.7c0.3-0.2,0.7-0.4,1-0.5C22.8,67.4,23.1,68.3,24.9,68.2z"/>
				<path class="st101" d="M81.6,38.9l-7.4,6l3.2-6.5C78.9,38.9,80.2,39.1,81.6,38.9z"/>
				<path class="st82" d="M49.9,67.7c-1.1,1.6-2.6,1.8-4.2,1l0.5-1.5c1.5,0.4,2.9,0.3,4.1-1.3L49.9,67.7z"/>
				<path class="st112" d="M66.9,29.8c0.1-0.3,0.3-0.5,0.4-0.8c0.2,0,0.3,0,0.5,0c12.5-1,24.9-1,37.3-0.7c-24.7,3-47.7,8-64.5,19.6
					c8.6-7.8,16.4-14.1,22.2-16.6C64.7,31.9,66,31.4,66.9,29.8z"/>
				<path class="st82" d="M57.3,66.4c-1.9,1.8-4.3,2.4-7.4,1.4l0.4-1.9c2.5,1.1,4.9,0.7,7-1.3L57.3,66.4z"/>
				<path class="st82" d="M112.1,45.4c3.8-2.1,7-4.2,6.7-6.6l2,0.4c0.2,3.1-3.5,4.9-7.6,6.6C112.8,45.6,112.5,45.5,112.1,45.4z"/>
				<path class="st113" d="M69,51.6l1.6,9.2c-2,2.9-4.6,4.1-8.1,2.4l-0.4-10.9L69,51.6z"/>
				<path class="st82" d="M62.6,64.5c-1.2,2.9-3,3.5-5.3,1.8l0.1-1.8c2,1.4,3.8,1.2,5.2-1.4L62.6,64.5L62.6,64.5z"/>
				<path class="st114" d="M100.1,48.3c-1,2.9-3.5,3.8-6.2,4.7l-11.9-9l4.3-2.5L100.1,48.3z"/>
				<path class="st115" d="M100.4,31.3c4.1,2.8,13.9-0.6,13.9-1.1c1.3,0,4.5,0,7.6-0.1v0c0.9,3.8-0.7,6.3-3,8.6l-21.1-4.6
					C98.7,33.4,99.6,32.5,100.4,31.3z"/>
				<path class="st116" d="M21.8,71.1l2.2-2.1c0.3,1.2,1.7,1.2,3.4,0.9l-2.2,2.3c-1.2,0.5-2,0.2-2.3-1.1
					C22.5,71.2,22.1,71.2,21.8,71.1z"/>
			</g>
			<g>
			</g>
		</g>
	</g>
	<g>
		<g id="XMLID_3_">
			<g>
				<path class="st117" d="M284.4,29.5l-42.9-16.2l1-1.8L285,28.1h0C284.9,28.6,284.7,29.1,284.4,29.5z"/>
				<path class="st118" d="M242.5,11.5l0.5-0.9l41.9,16.2c0.1,0.5,0.1,0.9,0.1,1.3h0L242.5,11.5z"/>
				<path class="st118" d="M241.5,13.3l42.9,16.2c-0.2,0.2-0.4,0.5-0.6,0.7l-42.1-15.9c-0.2,0-0.4-0.1-0.6-0.1L241.5,13.3z"/>
				<path class="st119" d="M241.5,13.3l-0.5,0.8c-0.4,0-0.8,0-1.1,0.2l-0.5-5.7c0.2,0.1,0.3,0.3,0.5,0.4c1.3-0.5,1.9,0.1,2.3,1.1
					l0.8,0.3l-0.5,0.9L241.5,13.3z"/>
				<path class="st117" d="M237.4,14.7l-1.7-1.1l-1.1-0.7l-1.7-1.1c-0.2-0.8,0.2-1.3,0.9-1.5l4.3,4v0
					C237.7,14.2,237.5,14.4,237.4,14.7L237.4,14.7z"/>
				<path class="st117" d="M238.7,14.7l-2.8-6.1c0.6-0.4,1.2-0.3,1.7,0.4c0.6-0.8,1.2-0.8,1.8-0.4l0.5,5.7c-0.3,0.2-0.5,0.5-0.6,1
					C239.1,15.1,238.9,14.9,238.7,14.7z"/>
				<path class="st120" d="M192.3,67l43.3-53.4l1.7,1.1c-0.1,0.2-0.2,0.5-0.3,0.6l-44.4,54C192.6,68.5,192.5,67.8,192.3,67z"/>
				<path class="st117" d="M235.6,13.6L192.3,67c-0.1-0.6-0.3-1.3-0.5-1.9l42.8-52.1L235.6,13.6z"/>
				<path class="st119" d="M233.8,10.3c0.1-0.1,0.3-0.1,0.4-0.1c-0.5-1.4,0.1-1.5,1.1-1.1c0.2-0.2,0.4-0.3,0.6-0.4l2.8,6.1
					c-0.3-0.2-0.5-0.4-0.6-0.4v0L233.8,10.3z"/>
				<path class="st121" d="M219.5,82.6c0.9-1.7-0.6-2.7-3-3.5c2.5,0.4,5.9,1.9,5-1.9c1.2,0.9,2.2,1.9,3,3.1
					C224.8,82.8,222.5,83.1,219.5,82.6L219.5,82.6z"/>
				<path class="st122" d="M216.5,79.1c2.4,0.8,3.9,1.9,3,3.5v0c-0.2,0-0.5-0.1-0.7-0.1c0.3,4.6-6.2,9.7-12.5,14.8
					c-1.5-1.5-3-2.3-4.6-2.3C208.6,90.8,214.1,85.8,216.5,79.1z"/>
				<path class="st123" d="M206.3,97.4c2.8,8.6,5,16.7,4.6,22.8c-1.3,1.9-2.8,2.3-4.6,0l-1.1-2.3c1.5-5.5,0.5-13-3.4-22.8
					C203.3,95.1,204.8,95.8,206.3,97.4z"/>
				<path class="st124" d="M193.8,105.3c0.8-1.4-0.2-3.6-2.3-6.3c6.1,4.4,10.2,11.3,13.6,18.9c-15.4-1.4-22.7-11.3-25.8-19.3
					C184.2,102.7,189,104.9,193.8,105.3z"/>
				<path class="st118" d="M234.5,12.9l-42.8,52.1c-0.1-0.5-0.3-1-0.5-1.5l41.8-51c-0.1-0.3-0.2-0.5-0.2-0.7L234.5,12.9z"/>
				<path class="st125" d="M186.9,59.8c-0.7-1.4-1.1-3.1-1-5v0c1.8-0.7,2.8,0.8,3.7,2.9c0.2,1.8,1,3.8,1.7,5.9
					c0.2,0.5,0.3,1,0.5,1.5c0.2,0.6,0.4,1.3,0.5,1.9c0.2,0.8,0.3,1.6,0.4,2.3c0.1,1,0.1,2-0.1,3l-1.7,2.6
					C190.7,69.4,189.5,64.3,186.9,59.8z"/>
				<path class="st126" d="M191.5,87.1c-0.8,3.7-2.7,5.9-5.6,6.6c0.6-0.7,0.9-1.7,1.1-3.2c-1.7-0.4-3,0-4.2,1
					C185,87.5,187.9,85.6,191.5,87.1z"/>
				<path class="st127" d="M186.9,49.5c3-0.3,4.4,1,3.4,4.6c-0.8,1-0.9,2.2-0.8,3.5c-0.8-2.1-1.8-3.6-3.7-2.9
					C186,53.1,186.3,51.4,186.9,49.5z"/>
				<path class="st128" d="M216.5,79.1c-2.5,6.6-7.9,11.7-14.8,15.9c-3.5,2.1-11,0.9-18.2,0l0,0c0.9-0.2,1.8-0.6,2.4-1.4
					c2.9-0.7,4.8-2.9,5.6-6.6c8.8-4.9,17.8-10.1,30-9.9C222.4,81.1,219,79.5,216.5,79.1z"/>
				<path class="st129" d="M191.5,99c-2.3-1.7-5-3-8-3.9c7.2,0.9,14.8,2.1,18.2,0c3.9,9.7,4.9,17.3,3.4,22.8
					C201.7,110.3,197.6,103.4,191.5,99z"/>
				<path class="st130" d="M183.5,95.1c-1,0.2-2.2,0.1-3.4,0c0.3-0.5,0.6-1,0.8-1.5c0.5-0.8,1.1-1.6,1.8-2.1c1.2-1,2.5-1.4,4.2-1
					c-0.1,1.4-0.5,2.5-1.1,3.2C185.3,94.5,184.4,94.9,183.5,95.1z"/>
				<path class="st131" d="M191.5,87.1c-3.6-1.5-6.4,0.4-8.8,4.4c-0.6,0.5-1.2,1.3-1.8,2.1l-1.3-0.8L191,74.9l1.7-2.6
					c11.2,0.4,22.6,0.5,28.9,4.9C209.3,77,200.3,82.2,191.5,87.1z"/>
				<path class="st132" d="M178.2,90.3c2.4-3.1,2.5-6.3,0.2-9.4c0,0.1-0.1,0.1-0.1,0.2c0.4-13.3,2.7-24.6,8.7-31.6
					c-0.6,1.9-0.9,3.6-1,5.2v0c-0.1,1.9,0.3,3.6,1,5c2.6,4.6,3.7,9.7,4,15.1l-11.4,17.9l-1.3,2C178.3,93.2,178.3,91.8,178.2,90.3z"
					/>
				<path class="st133" d="M178.4,95.6c0-0.3,0-0.6,0-0.9l1.3-2l1.3,0.8c-0.3,0.5-0.6,0.9-0.8,1.5c1.2,0.1,2.4,0.2,3.4,0l0,0
					c3,0.9,5.7,2.2,8,3.9c2,2.7,3,4.9,2.3,6.3c-4.8-0.4-9.6-2.7-14.4-6.7C179,97.6,178.7,96.6,178.4,95.6z"/>
				<path class="st134" d="M178.4,80.9c2.3,3.1,2.3,6.3-0.2,9.4c-0.1-3.2-0.1-6.2,0-9.2C178.3,81,178.3,81,178.4,80.9z"/>
				<path class="st134" d="M178.2,90.3C178.2,90.3,178.2,90.3,178.2,90.3c-2.1-3-2.1-6.1,0-9.2C178.2,84.1,178.2,87.1,178.2,90.3z"
					/>
				<path class="st135" d="M175.9,93.1c0.7,0.8,1.4,1.5,2.2,2.2l-0.6,0.9c-3.1-1-6.2-2.3-9.3-3.8C170.1,91.1,172.5,90.9,175.9,93.1
					C175.8,93.1,175.8,93.1,175.9,93.1z"/>
				<path class="st136" d="M177.8,60.9c-3.5,5.3-4.8,11.4-4.6,18.2c-2.3-2.3-3-5.4-2.3-9.1C172.6,66,175.2,63.4,177.8,60.9z"/>
				<path class="st137" d="M167,78.6c2.1,6.3,5.3,10.7,8.8,14.5c-3.3-2.1-5.7-1.9-7.7-0.8c-7.2-3.6-14.3-8.4-21.4-13.7
					c4,0.6,9.3,0.8,19.7,0C166.7,78.6,166.8,78.6,167,78.6z"/>
				<path class="st138" d="M177.8,60.9c-2.6,2.5-5.2,5.1-6.8,9.1c-0.8,3.7,0,6.8,2.3,9.1C173,72.3,174.4,66.2,177.8,60.9z
					 M178.2,90.3c0,1.5,0.1,2.9,0.1,4.4l-0.3,0.5c-0.7-0.7-1.4-1.5-2.2-2.2c0,0,0,0,0,0c-3.5-3.8-6.8-8.2-8.8-14.5
					c-0.2,0-0.3,0-0.5,0l-0.1-0.6c3.7-14.2,10.9-23.2,20.5-28.5c-6,6.9-8.2,18.2-8.7,31.6C176.2,84.2,176.1,87.3,178.2,90.3
					C178.2,90.3,178.2,90.3,178.2,90.3z"/>
				<path class="st139" d="M168.2,92.3c3.1,1.5,6.2,2.8,9.3,3.8c-13.8,7.5-24.6,3.2-31-17.6c0.1,0,0.2,0,0.3,0
					C153.9,83.9,161,88.8,168.2,92.3z"/>
			</g>
			<g>
			</g>
		</g>
	</g>
</g>
</svg>
