<?xml version="1.0" encoding="utf-8"?>
<!-- Generator: Adobe Illustrator 22.1.0, SVG Export Plug-In . SVG Version: 6.00 Build 0)  -->
<svg version="1.1" xmlns="http://www.w3.org/2000/svg" xmlns:xlink="http://www.w3.org/1999/xlink" x="0px" y="0px"
	 viewBox="0 0 300 300" style="enable-background:new 0 0 300 300;" xml:space="preserve">
<style type="text/css">
	.st0{fill:url(#SVGID_1_);}
	.st1{fill:url(#SVGID_2_);}
	.st2{fill:url(#SVGID_3_);}
	.st3{fill:url(#SVGID_4_);}
	.st4{fill:url(#SVGID_5_);}
	.st5{fill:url(#SVGID_6_);}
	.st6{fill:url(#SVGID_7_);}
	.st7{fill:url(#SVGID_8_);}
	.st8{fill:url(#SVGID_9_);}
	.st9{fill:url(#SVGID_10_);}
	.st10{fill:url(#SVGID_11_);}
	.st11{fill:url(#SVGID_12_);}
	.st12{fill:url(#SVGID_13_);}
	.st13{fill:url(#SVGID_14_);}
	.st14{fill:url(#SVGID_15_);}
	.st15{fill:url(#SVGID_16_);}
	.st16{fill:none;stroke:url(#SVGID_17_);stroke-miterlimit:10;}
	.st17{fill:none;stroke:url(#SVGID_18_);stroke-miterlimit:10;}
	.st18{fill:none;stroke:url(#SVGID_19_);stroke-miterlimit:10;}
	.st19{fill:none;stroke:url(#SVGID_20_);stroke-miterlimit:10;}
	.st20{fill:#E6BE87;}
	.st21{fill:#AA7242;}
	.st22{fill:#C59662;}
	.st23{fill:#CF9B6D;}
	.st24{fill:#E7CC9C;}
	.st25{fill:#DEBA84;}
	.st26{fill:#C99A64;}
	.st27{fill:#ECC79A;}
	.st28{fill:#BA7D4A;}
	.st29{fill:url(#SVGID_21_);}
	.st30{fill:#925325;}
	.st31{fill:#C08E5D;}
	.st32{fill:url(#SVGID_22_);}
	.st33{fill:url(#SVGID_23_);}
	.st34{fill:#AB6533;}
	.st35{fill:#9B5522;}
	.st36{fill:#9C5B29;}
	.st37{fill:url(#SVGID_24_);}
	.st38{fill:#7E4521;}
	.st39{fill:url(#SVGID_25_);}
	.st40{fill:#CBA16E;}
	.st41{fill:#8F6A45;}
	.st42{fill:url(#SVGID_26_);}
	.st43{fill:#B68857;}
	.st44{fill:#DDBF8D;}
	.st45{fill:#D6AD79;}
	.st46{fill:#AD7545;}
	.st47{fill:#AF7849;}
	.st48{fill:#BD8451;}
	.st49{fill:#B9834E;}
	.st50{fill:url(#SVGID_27_);}
	.st51{fill:#A15C2F;}
	.st52{fill:url(#SVGID_28_);}
	.st53{fill:url(#SVGID_29_);}
	.st54{fill:#CC9A65;}
	.st55{fill:#C59A6A;}
	.st56{fill:#BF8B53;}
	.st57{fill:#D5A475;}
	.st58{fill:#B17545;}
	.st59{fill:#BA8251;}
	.st60{fill:url(#SVGID_30_);}
	.st61{fill:url(#SVGID_31_);}
	.st62{fill:#E1B983;}
	.st63{fill:#CC9C66;}
	.st64{fill:#B78350;}
	.st65{fill:#BA8754;}
	.st66{fill:#BC8B54;}
	.st67{fill:#C0854D;}
	.st68{fill:#AB825C;}
	.st69{fill:#E3C995;}
</style>
<g id="Layer_2">
	<g>
		<g id="XMLID_5_">
			<g>
				<linearGradient id="SVGID_1_" gradientUnits="userSpaceOnUse" x1="294.8982" y1="175.9005" x2="297.608" y2="175.9005">
					<stop  offset="5.641026e-02" style="stop-color:#FFFFFF"/>
					<stop  offset="1" style="stop-color:#B7A8A5"/>
				</linearGradient>
				<path class="st0" d="M296.8,173.5c1.2,1.2,1.1,3.7,0,4.7h-1.9c0.1-1.6,0.1-3.2,0.1-4.7H296.8z"/>
				<linearGradient id="SVGID_2_" gradientUnits="userSpaceOnUse" x1="293.5442" y1="176.2646" x2="295.0069" y2="176.2646">
					<stop  offset="5.641026e-02" style="stop-color:#FFFFFF"/>
					<stop  offset="1" style="stop-color:#B7A8A5"/>
				</linearGradient>
				<path class="st1" d="M294.9,173.5c0.1,1.5,0.1,3.1-0.1,4.7c-0.1,1.8-0.4,3.6-0.7,5.5l-0.6,0c0.8-5,0.9-10,0.1-15l0.6,0
					C294.6,170.2,294.9,171.9,294.9,173.5z"/>
				<linearGradient id="SVGID_3_" gradientUnits="userSpaceOnUse" x1="271.6747" y1="176.2698" x2="294.1885" y2="176.2698">
					<stop  offset="5.641026e-02" style="stop-color:#FFFFFF"/>
					<stop  offset="1" style="stop-color:#B7A8A5"/>
				</linearGradient>
				<path class="st2" d="M293.6,168.8c0.8,5,0.8,10-0.1,15l-21.1-1.1c-1-4.2-1.1-8.2,0-12.2L293.6,168.8z"/>
				<radialGradient id="SVGID_4_" cx="268.6694" cy="144.8249" r="25.29" gradientUnits="userSpaceOnUse">
					<stop  offset="5.641026e-02" style="stop-color:#F06556"/>
					<stop  offset="0.9128" style="stop-color:#BD1E19"/>
				</radialGradient>
				<path class="st3" d="M293.6,168.8l-21.2,1.7c-3.2-15.6-13.2-25.3-28.7-30.3l1.5-21c11,1.8,21.4,7.1,29.8,15.4
					C285.6,145.8,291.8,157.3,293.6,168.8z"/>
				<radialGradient id="SVGID_5_" cx="268.2026" cy="206.7965" r="24.7562" gradientUnits="userSpaceOnUse">
					<stop  offset="5.641026e-02" style="stop-color:#F06556"/>
					<stop  offset="0.9128" style="stop-color:#BD1E19"/>
				</radialGradient>
				<path class="st4" d="M272.4,182.6l21.1,1.1c-1.7,10.3-6.9,20.8-15.5,31.3c-11.1,9.2-22.5,14.3-33.5,15.9l-1.7-21.4
					C256,208.2,267.2,202.3,272.4,182.6z"/>
				<linearGradient id="SVGID_6_" gradientUnits="userSpaceOnUse" x1="229.8749" y1="118.4531" x2="245.2614" y2="118.4531">
					<stop  offset="5.641026e-02" style="stop-color:#FFFFFF"/>
					<stop  offset="1" style="stop-color:#B7A8A5"/>
				</linearGradient>
				<path class="st5" d="M235.5,117.8c1.3-0.1,2.6-0.1,4,0c1.9,0.1,3.8,0.4,5.8,0.8l-0.1,0.7c-5-0.8-10.1-0.9-15.3-0.2l-0.1-0.5
					C231.7,118.1,233.6,117.9,235.5,117.8z"/>
				<linearGradient id="SVGID_7_" gradientUnits="userSpaceOnUse" x1="229.9262" y1="130.1832" x2="245.2101" y2="130.1832">
					<stop  offset="5.641026e-02" style="stop-color:#FFFFFF"/>
					<stop  offset="1" style="stop-color:#B7A8A5"/>
				</linearGradient>
				<path class="st6" d="M245.2,119.2l-1.5,21c-1.5,2-10.6,2.4-11.6,0l-2.2-21.2C235.1,118.3,240.2,118.4,245.2,119.2z"/>
				<linearGradient id="SVGID_8_" gradientUnits="userSpaceOnUse" x1="230.9007" y1="231.6871" x2="244.5741" y2="231.6871">
					<stop  offset="5.641026e-02" style="stop-color:#FFFFFF"/>
					<stop  offset="1" style="stop-color:#B7A8A5"/>
				</linearGradient>
				<path class="st7" d="M244.6,231l0,0.3c-1.7,0.5-3.3,0.8-4.9,1c-1.2,0.1-2.4,0.2-3.6,0.1c-1.9-0.1-3.6-0.5-5.2-1.1l0-0.2
					C235.4,231.6,239.9,231.6,244.6,231z"/>
				<linearGradient id="SVGID_9_" gradientUnits="userSpaceOnUse" x1="230.9109" y1="220.1837" x2="244.5536" y2="220.1837">
					<stop  offset="5.641026e-02" style="stop-color:#FFFFFF"/>
					<stop  offset="1" style="stop-color:#B7A8A5"/>
				</linearGradient>
				<path class="st8" d="M242.9,209.6l1.7,21.4c-4.6,0.6-9.2,0.7-13.6,0.1l1.2-21.5C234.8,208.5,239.5,208.9,242.9,209.6z"/>
				<linearGradient id="SVGID_10_" gradientUnits="userSpaceOnUse" x1="236.1116" y1="233.8913" x2="239.7018" y2="233.8913">
					<stop  offset="5.641026e-02" style="stop-color:#FFFFFF"/>
					<stop  offset="1" style="stop-color:#B7A8A5"/>
				</linearGradient>
				<path class="st9" d="M239.7,232.4v2.3c-1.3,1-2.5,1.1-3.6,0v-2.3v-0.1c1.1,0.1,2.3,0,3.6-0.1L239.7,232.4z"/>
				<linearGradient id="SVGID_11_" gradientUnits="userSpaceOnUse" x1="235.4653" y1="116.4776" x2="239.5787" y2="116.4776">
					<stop  offset="5.641026e-02" style="stop-color:#FFFFFF"/>
					<stop  offset="1" style="stop-color:#B7A8A5"/>
				</linearGradient>
				<path class="st10" d="M239.6,116l-0.2,1.8c-1.3-0.1-2.7-0.1-4,0V116C236.8,114.9,238.4,115,239.6,116z"/>
				<radialGradient id="SVGID_12_" cx="207.0516" cy="144.3069" r="25.1675" gradientUnits="userSpaceOnUse">
					<stop  offset="5.641026e-02" style="stop-color:#F06556"/>
					<stop  offset="0.9128" style="stop-color:#BD1E19"/>
				</radialGradient>
				<path class="st11" d="M229.9,119l2.2,21.2c-20.9,5.5-26.1,17-28.9,29.4l-21.2-2.1c1.3-12.3,6.5-24.7,17.7-34.6
					C209.3,124.9,219.7,120.4,229.9,119z"/>
				<radialGradient id="SVGID_13_" cx="207.1696" cy="205.9759" r="25.0006" gradientUnits="userSpaceOnUse">
					<stop  offset="5.641026e-02" style="stop-color:#F06556"/>
					<stop  offset="0.9128" style="stop-color:#BD1E19"/>
				</radialGradient>
				<path class="st12" d="M232.1,209.6l-1.2,21.5c-14.5-1.8-28.1-9.8-39.2-22.7l-5.1-8.6c-2.1-5.2-3.6-11.1-4.4-17.1l20.9-1.7
					C206.3,194.4,213.8,205.2,232.1,209.6z"/>
				<linearGradient id="SVGID_14_" gradientUnits="userSpaceOnUse" x1="181.6813" y1="175.0132" x2="203.7155" y2="175.0132">
					<stop  offset="5.641026e-02" style="stop-color:#FFFFFF"/>
					<stop  offset="1" style="stop-color:#B7A8A5"/>
				</linearGradient>
				<path class="st13" d="M203.2,169.6c0.7,3.7,0.7,7.4,0,11.3l-20.9,1.7c-0.6-4.9-0.8-10-0.2-15.1L203.2,169.6z"/>
				<linearGradient id="SVGID_15_" gradientUnits="userSpaceOnUse" x1="180.1232" y1="175.0081" x2="182.2486" y2="175.0081">
					<stop  offset="5.641026e-02" style="stop-color:#FFFFFF"/>
					<stop  offset="1" style="stop-color:#B7A8A5"/>
				</linearGradient>
				<path class="st14" d="M182.2,182.6l-1,0.1c-0.4-1.9-0.7-3.7-0.9-5.4c-0.2-1.5-0.2-2.9-0.2-4.2c0.1-2,0.4-3.9,1-5.6l0.9,0.1
					C181.5,172.6,181.6,177.6,182.2,182.6z"/>
				<linearGradient id="SVGID_16_" gradientUnits="userSpaceOnUse" x1="177.5594" y1="175.1363" x2="180.3202" y2="175.1363">
					<stop  offset="5.641026e-02" style="stop-color:#FFFFFF"/>
					<stop  offset="1" style="stop-color:#B7A8A5"/>
				</linearGradient>
				<path class="st15" d="M180.3,177.3L180.3,177.3H178c-0.6-1.5-0.7-2.9,0-4.2h2.1h0C180.1,174.4,180.2,175.8,180.3,177.3z"/>
			</g>
			<g>
			</g>
		</g>
	</g>
	<linearGradient id="SVGID_17_" gradientUnits="userSpaceOnUse" x1="178.434" y1="144.7852" x2="235.4999" y2="144.7852">
		<stop  offset="0" style="stop-color:#FFFFFF"/>
		<stop  offset="0.9846" style="stop-color:#B7A8A5"/>
	</linearGradient>
	<path class="st16" d="M235.5,117c-37.6,2.6-55.1,24.4-56.5,56"/>
	<linearGradient id="SVGID_18_" gradientUnits="userSpaceOnUse" x1="239.4466" y1="145.053" x2="296.3605" y2="145.053">
		<stop  offset="0" style="stop-color:#FFFFFF"/>
		<stop  offset="0.9846" style="stop-color:#B7A8A5"/>
	</linearGradient>
	<path class="st17" d="M239.5,117c23.8,1.9,52.2,9,56.4,56.5"/>
	<linearGradient id="SVGID_19_" gradientUnits="userSpaceOnUse" x1="239.6444" y1="206.2695" x2="296.3616" y2="206.2695">
		<stop  offset="0" style="stop-color:#FFFFFF"/>
		<stop  offset="0.9846" style="stop-color:#B7A8A5"/>
	</linearGradient>
	<path class="st18" d="M295.9,178.3c-2.6,44.3-31.7,52.7-56.2,55.5"/>
	<linearGradient id="SVGID_20_" gradientUnits="userSpaceOnUse" x1="178.4431" y1="205.7238" x2="236.1347" y2="205.7238">
		<stop  offset="0" style="stop-color:#FFFFFF"/>
		<stop  offset="0.9846" style="stop-color:#B7A8A5"/>
	</linearGradient>
	<path class="st19" d="M236.1,233.8c-29.6-1.4-49.6-18.6-57.2-56.5"/>
</g>
<g id="Layer_3">
	<g>
		<g id="XMLID_2_">
			<g>
				<path class="st20" d="M186.7,210.1l31,54.7l-4.6,0l-3.6-5.7h0c-0.1-1.2-0.6-2.2-1.7-2.8L183,211.2L186.7,210.1z"/>
				<polygon class="st21" points="217.6,264.8 215.3,268.2 210.5,268.2 213,264.9 				"/>
				<path class="st22" d="M209.4,259.2l3.6,5.7l-2.6,3.3l-3.7-6.6l2.4-0.3C209.4,260.5,209.4,259.8,209.4,259.2L209.4,259.2z"/>
				<path class="st20" d="M209.4,259.2c0,0.6,0,1.3-0.2,2.1l-2.4,0.3l-99.9,14.5l-2.6-5.3l0.5-0.2l99.2-13.6l3.6-0.5
					C208.8,257,209.3,258,209.4,259.2z"/>
				<polygon class="st23" points="183,211.2 207.6,256.4 204,256.9 180.1,212.1 				"/>
				<polygon class="st24" points="201.2,198.1 201.2,205.6 197.1,204.3 196.1,196.4 				"/>
				<path class="st25" d="M201.2,205.6l-14.6,4.5l-3.6,1.1l-2.9,0.9l-58.7,18.2l0.1-0.2l55.9-19.7c1.6-0.5,2.4-1.7,2.7-3.1h4.7
					c0.2,0,0.3,0,0.5-0.1l0,0l11.8-3L201.2,205.6z"/>
				<path class="st26" d="M196.1,196.4l1,7.9l-11.8,3c1.4-0.7,1.6-4.2-0.5-6.1H183L196.1,196.4z"/>
				<path class="st27" d="M184.8,201.2c2.1,1.9,1.9,5.4,0.5,6.1l0,0l-0.5,0.1h-4.7c0.4-2.1-0.4-4.6-2.1-6.2h5.1H184.8z"/>
				<path class="st28" d="M152.7,146.7l30.3,54.5H178c0,0,0,0,0,0L114.3,85.6c-0.2-0.9-0.6-1.9-1.3-2.8h-0.3l-2.7-4.9h4.4l32.8,58.9
					l2.2,3.9L152.7,146.7z"/>
				<radialGradient id="SVGID_21_" cx="169.5377" cy="206.0426" r="8.919" gradientUnits="userSpaceOnUse">
					<stop  offset="5.641026e-02" style="stop-color:#C81E19"/>
					<stop  offset="0.9128" style="stop-color:#AB261F"/>
				</radialGradient>
				<path class="st29" d="M178,201.2c1.7,1.6,2.5,4.2,2.1,6.2c-0.3,1.4-1.1,2.6-2.7,3.1c-4.1,0.9-8.7,1.7-13.8,2.3
					c0.4-5,0.5-9.8-4.7-11.4l0.5-2.2c4.5,0.9,9,0.9,13.7,0.5c0.4,0,0.9-0.1,1.3-0.1C175.7,199.7,177,200.3,178,201.2L178,201.2
					L178,201.2z"/>
				<path class="st30" d="M114.3,85.6l63.7,115.6c-1-0.9-2.2-1.5-3.6-1.5c-0.4,0-0.9,0.1-1.3,0.1l-23.8-43.6l-3.1-5.7l-2.1-3.9
					l-31.7-58h2.1C114.5,87.6,114.5,86.6,114.3,85.6z"/>
				<path class="st31" d="M177.4,210.5l-55.9,19.7l-4.6,1.6c0.7-3,0.1-4.7-2.1-4.9l5.1-1.8l4.7-1.7l24.8-8.9v0c5-0.5,9.8-1,14.2-1.6
					C168.7,212.1,173.3,211.4,177.4,210.5z"/>
				<linearGradient id="SVGID_22_" gradientUnits="userSpaceOnUse" x1="143.3311" y1="207.4017" x2="163.7587" y2="207.4017">
					<stop  offset="0" style="stop-color:#FFFFFF"/>
					<stop  offset="0" style="stop-color:#FFFFD3"/>
				</linearGradient>
				<path class="st32" d="M158.9,201.5c5.2,1.5,5.1,6.3,4.7,11.4c-4.4,0.6-9.2,1.1-14.2,1.6c-1.1,0.1-2.2,0.2-3.3,0.3
					c2.3-5.9,1.5-9.8-2.1-11.7c-0.2,0-0.4-0.1-0.6-0.1l0.4-2.8c3.8,0.7,7.8,0.9,11.8,0.9C156.9,201,158,201.2,158.9,201.5z"/>
				<radialGradient id="SVGID_23_" cx="124.6416" cy="141.7527" r="48.8275" gradientUnits="userSpaceOnUse">
					<stop  offset="5.641026e-02" style="stop-color:#C81E19"/>
					<stop  offset="0.9128" style="stop-color:#AB261F"/>
				</radialGradient>
				<path class="st33" d="M159.3,199.3l-0.5,2.2c-0.9-0.3-2-0.4-3.3-0.5c-4.1,0.1-8-0.2-11.8-0.9c-12.4-2.3-23-9.6-29.2-29.1
					c-12.9-37-18.2-68.5-24.6-88.2l0-0.7c4.6,0.2,9.2,0.4,13.8,0.7c0.7,2,1.4,3.9,2.1,5.9c7.5,21.7,14.1,44.4,19,69.5
					c2.5,7.5,5.2,13.7,8,18.8c0.9,1.6,1.8,3.1,2.6,4.5c1,1.5,2,3,3.1,4.3v0C145,193.9,152,197.8,159.3,199.3z"/>
				<polygon class="st34" points="151.5,136.8 154.1,140.7 149.4,140.7 147.2,136.8 				"/>
				<polygon class="st35" points="154.1,140.7 152.7,146.7 149.4,140.7 				"/>
				<path class="st36" d="M146.1,150.6l3.1,5.7l-10.7,29.5c-1-1.3-2.1-2.7-3.1-4.3L146.1,150.6z"/>
				<radialGradient id="SVGID_24_" cx="99.9333" cy="149.1045" r="58.2936" gradientUnits="userSpaceOnUse">
					<stop  offset="5.641026e-02" style="stop-color:#C81E19"/>
					<stop  offset="0.9128" style="stop-color:#AB261F"/>
				</radialGradient>
				<path class="st37" d="M143.9,203c3.7,1.9,4.4,5.7,2.1,11.7c-5.9,0.5-12.2,1-18.7,1.4c-1.4,0.1-2.9,0.2-4.4,0.3
					c-1.4,0.1-2.7,0.2-4.1,0.2c1.5-4,1.7-7.8-0.7-10.9c-3.8-0.5-7.5-0.9-11-1.3l0.3-4.6h-5.1l-4.8,2.2h0C87.9,197.4,82,191,77.1,177
					c-7.4-28-15-61.9-24.6-95c7.8-0.3,15.6-0.3,23.3-0.2v0c8.4,29.3,15.3,60.4,23.3,85.4c10.2,36.3,27.7,33.3,44.2,35.8
					C143.5,203,143.7,203,143.9,203z"/>
				<path class="st38" d="M144,146.7l2.1,3.9l-10.6,30.9c-0.9-1.4-1.8-2.9-2.6-4.5L144,146.7L144,146.7z"/>
				<linearGradient id="SVGID_25_" gradientUnits="userSpaceOnUse" x1="75.846" y1="142.3169" x2="143.7722" y2="142.3169">
					<stop  offset="5.641026e-02" style="stop-color:#B39581"/>
					<stop  offset="0.9128" style="stop-color:#FFFFD3"/>
				</linearGradient>
				<path class="st39" d="M143.8,200.1l-0.4,2.8c-16.5-2.5-34,0.5-44.2-35.8c-8-25-14.9-56.1-23.3-85.4v0c4.7,0.1,9.4,0.2,14.1,0.3
					l0,0.7c6.4,19.7,11.7,51.2,24.6,88.2C120.8,190.5,131.4,197.8,143.8,200.1z"/>
				<path class="st40" d="M127.4,216l-2.8,7.3l-4.7,1.7l3.1-8.7C124.5,216.2,126,216.1,127.4,216z"/>
				<path class="st41" d="M123,216.3l-3.1,8.7l-5.1,1.8l4.1-10.3C120.3,216.5,121.7,216.4,123,216.3z"/>
				<polygon class="st40" points="121.4,230.3 119.9,233.8 114.8,235.8 116.9,231.7 				"/>
				<linearGradient id="SVGID_26_" gradientUnits="userSpaceOnUse" x1="104.8136" y1="210.7406" x2="119.9788" y2="210.7406">
					<stop  offset="0" style="stop-color:#FFFFFF"/>
					<stop  offset="0" style="stop-color:#FFFFD3"/>
				</linearGradient>
				<path class="st42" d="M118.1,205.6c2.4,3.2,2.2,6.9,0.7,10.9c-4.6,0.2-9.3,0.5-14.1,0.7c2.1-3.7,0-4.9,0-7.4l2.1-0.9l0.3-4.6
					C110.6,204.7,114.3,205.1,118.1,205.6z"/>
				<path class="st43" d="M114.8,226.9c2.1,0.1,2.7,1.8,2.1,4.9l-4.6,0.4l-25.4,2.3l-2.3-4.8L114.8,226.9z"/>
				<polygon class="st41" points="116.9,231.7 114.8,235.8 112.3,232.2 				"/>
				<path class="st44" d="M114.3,85.6c0.2,1,0.3,2.1,0,3.1h-2.1h-6.4c-0.7-2-1.4-3.9-2.1-5.9h7.2h1.8L114.3,85.6z"/>
				<polygon class="st45" points="106.9,276.1 111,284.6 106.9,284.6 82.9,234.9 86.9,234.5 104.3,270.7 				"/>
				<polygon class="st46" points="111,284.6 108.9,289.7 103.8,289.7 106.9,284.6 				"/>
				<polygon class="st47" points="107.4,199.7 107.1,204.3 106.9,208.9 102.2,207.1 102.2,199.7 				"/>
				<polygon class="st48" points="82.9,234.9 106.9,284.6 103.8,289.7 78.2,235.3 				"/>
				<polygon class="st49" points="106.9,208.9 104.8,209.8 85.9,218 85.9,218 80.1,220.5 78.6,217.5 102.2,207.1 				"/>
				<radialGradient id="SVGID_27_" cx="95.8068" cy="213.8948" r="7.5871" gradientUnits="userSpaceOnUse">
					<stop  offset="5.641026e-02" style="stop-color:#C81E19"/>
					<stop  offset="0.9128" style="stop-color:#AB261F"/>
				</radialGradient>
				<path class="st50" d="M104.8,209.8c0,2.5,2.1,3.7,0,7.4c-6.2,0.3-12.6,0.5-18.9,0.8L104.8,209.8z"/>
				<polygon class="st51" points="102.2,199.7 102.2,207.1 78.6,217.5 75.9,211.7 89.9,205.3 97.4,201.9 97.5,201.9 				"/>
				<linearGradient id="SVGID_28_" gradientUnits="userSpaceOnUse" x1="38.1286" y1="143.6248" x2="97.4486" y2="143.6248">
					<stop  offset="5.641026e-02" style="stop-color:#B39581"/>
					<stop  offset="0.9128" style="stop-color:#FFFFD3"/>
				</linearGradient>
				<path class="st52" d="M97.4,201.9l-7.5,3.4c-8.1-0.3-16.2-2.5-24.1-18.8c-2-4.2-4-9.3-5.9-15.5c-6.8-32.5-13.8-63.7-21.8-88.2
					l0-0.1c4.8-0.3,9.6-0.5,14.4-0.7c9.6,33.1,17.2,67,24.6,95C82,191,87.9,197.4,97.4,201.9z"/>
				<radialGradient id="SVGID_29_" cx="77.0256" cy="199.0674" r="12.7691" gradientUnits="userSpaceOnUse">
					<stop  offset="5.641026e-02" style="stop-color:#C81E19"/>
					<stop  offset="0.9128" style="stop-color:#AB261F"/>
				</radialGradient>
				<path class="st53" d="M89.9,205.3l-14.1,6.4l-11.8-24.4l1.8-0.8C73.7,202.8,81.8,205,89.9,205.3z"/>
				<polygon class="st45" points="86.9,234.5 82.9,234.9 76.6,222 80.1,220.5 84.5,229.7 				"/>
				<polygon class="st48" points="82.9,234.9 78.2,235.3 75.8,230.3 72.7,223.7 76.6,222 				"/>
				<polygon class="st54" points="78.6,217.5 80.1,220.5 76.6,222 75.2,219 				"/>
				<polygon class="st54" points="75.9,211.7 78.6,217.5 75.2,219 72.4,213.2 				"/>
				<polygon class="st55" points="75.8,230.3 78.2,235.3 37,239.1 53.7,231.9 53.7,231.9 				"/>
				<polygon class="st48" points="75.2,219 76.6,222 72.7,223.7 71.3,220.7 				"/>
				<polygon class="st56" points="64.1,187.3 75.9,211.7 72.4,213.2 47.4,161.4 48.4,157.9 49.7,157.3 				"/>
				<polygon class="st48" points="72.4,213.2 75.2,219 71.3,220.7 68.6,215 				"/>
				<polygon class="st57" points="71.3,220.7 72.7,223.7 53.7,231.9 53.7,231.9 37,239.1 23.6,244.9 23.6,244.9 17.9,247.4 
					14.3,245.6 				"/>
				<polygon class="st58" points="72.4,213.2 68.6,215 67.3,212.1 45.8,166.5 47.4,161.4 				"/>
				<polygon class="st59" points="25.4,234.6 68.6,215 71.3,220.7 14.3,245.6 14.3,239.7 15.5,239.1 19.2,237.5 				"/>
				<radialGradient id="SVGID_30_" cx="55.6487" cy="189.3585" r="18.1136" gradientUnits="userSpaceOnUse">
					<stop  offset="5.641026e-02" style="stop-color:#C81E19"/>
					<stop  offset="0.9128" style="stop-color:#AB261F"/>
				</radialGradient>
				<path class="st60" d="M45.8,166.5l21.5,45.6c-5,0.6-11.2-4.5-23.3-39.6L45.8,166.5z"/>
				<radialGradient id="SVGID_31_" cx="43.6677" cy="134.9519" r="40.1973" gradientUnits="userSpaceOnUse">
					<stop  offset="5.641026e-02" style="stop-color:#C81E19"/>
					<stop  offset="0.9128" style="stop-color:#AB261F"/>
				</radialGradient>
				<path class="st61" d="M65.9,186.4l-1.8,0.8l-14.5-30l-20.7-43c-0.5-5.5-0.5-10.2-5.3-24.3c-0.6-1.9-1.4-3.9-2.2-6.1
					c5.5-0.5,11.1-0.9,16.7-1.2l0,0.1c8,24.5,15,55.7,21.8,88.2C61.9,177.2,63.9,182.3,65.9,186.4z"/>
				<polygon class="st62" points="28.9,114.3 49.7,157.3 48.4,157.9 45.1,151.7 43,152.4 8.9,81.7 13.3,81.7 14.3,83.9 17.2,90 				
					"/>
				<polygon class="st63" points="45.1,151.7 48.4,157.9 46.1,158.8 43,152.4 				"/>
				<polygon class="st64" points="48.4,157.9 47.4,161.4 46.1,158.8 				"/>
				<polygon class="st65" points="46.1,158.8 47.4,161.4 45.8,166.5 42.8,160.2 				"/>
				<polygon class="st63" points="46.1,158.8 42.8,160.2 39.6,153.4 43,152.4 				"/>
				<polygon class="st66" points="42.8,160.2 45.8,166.5 44,172.5 25.4,234.6 19.2,237.5 				"/>
				<polygon class="st67" points="43,152.4 39.6,153.4 8.9,88.1 8.9,81.7 				"/>
				<polygon class="st68" points="39.6,153.4 42.8,160.2 19.2,237.5 15.5,239.1 				"/>
				<path class="st69" d="M23.6,90h-6.4l-3-6.1h7.2C22.3,86.1,23,88.1,23.6,90z"/>
				<polygon class="st66" points="23.6,244.9 21.5,249.2 15.5,250.5 17.9,247.4 				"/>
				<polygon class="st68" points="17.9,247.4 15.5,250.5 13,248.7 14.3,245.6 				"/>
			</g>
			<g>
			</g>
		</g>
	</g>
</g>
</svg>
