<?xml version="1.0" encoding="utf-8"?>
<!-- Generator: Adobe Illustrator 22.1.0, SVG Export Plug-In . SVG Version: 6.00 Build 0)  -->
<svg version="1.1" id="Layer_2" xmlns="http://www.w3.org/2000/svg" xmlns:xlink="http://www.w3.org/1999/xlink" x="0px" y="0px"
	 viewBox="0 0 300 300" style="enable-background:new 0 0 300 300;" xml:space="preserve">
<style type="text/css">
	.st0{fill:#FFD48A;}
	.st1{fill:#5C4B2F;}
	.st2{fill:#FADCE8;}
	.st3{fill:#EF649E;}
	.st4{fill:#F6AFCB;}
	.st5{fill:#F396BB;}
	.st6{fill:#F9D3E3;}
	.st7{fill:#FFFFFF;}
	.st8{fill:#262324;}
</style>
<g>
	<g id="XMLID_2_">
		<g>
			<path class="st0" d="M192,38.8c2.2,2.4,6.5,3.5,10.8,4.6c2-0.5,3.3-1,4-1.4l-9.8-9.8C196.1,34.8,194.5,37,192,38.8z"/>
			<path class="st0" d="M197,32.2c5.3,3,10.1,5.4,13.9,5.9c2.1-1.6,3.2-4.2,4.2-6.9c-5.3-4-11.9-6.7-19.3-8.7
				C197.5,25.9,198.1,29.1,197,32.2z"/>
			<path class="st1" d="M202.8,43.4l11.7,7.7l-7.7-9.2C206.1,42.4,204.8,42.9,202.8,43.4z"/>
			<path class="st1" d="M215,31.2c-0.9,2.7-2,5.3-4.2,6.9c2.9,2,5.8,6.6,8.7,11.6C219.3,42.6,218.2,36.1,215,31.2z"/>
		</g>
		<g>
		</g>
	</g>
	<g>
		<g id="XMLID_4_">
			<g>
				<path class="st2" d="M118.7,173c7.8,0.7,18.4-1.2,12.8,24.4c3.9-2.6,7-5.6,7.7-10.3c-0.4-1.6,0.2-5.9-1.2-10.8
					c3.7,6.4,3.3,12.9,2.2,19.4c2.4-2.2,3.9-5.2,4.1-9.5c-0.2-4.2-2.4-8.7-4.6-13.2c4.9,5.8,7.4,11.7,7.6,17.6
					c7.9-15.1-14.3-22.7-16.3-25.7c-0.5,0.2-41.8-32.4-41.8-32.4c0.1-2.1-0.2-4.2-1-6.3c8-5.4,20.8-11.7,34.6-18.3
					c0,0-4.7-1.8-4.7-3.2c0-2-34.6,16.4-35.3,17.3c-8.7,2.1-3.4,19.5,3.5,15.8l37.4,28.3l1.7,1.1C118.8,169.8,116.4,171.8,118.7,173
					z M86.1,136.4c-0.3-2.1,0.4-3.4,2-3.8C87.2,133.5,86.3,134.5,86.1,136.4z"/>
				<path class="st3" d="M88,132.6c-1.6,0.4-2.2,1.7-2,3.8C86.3,134.5,87.2,133.5,88,132.6z"/>
				<path class="st3" d="M138,176.3c1.4,4.9,0.8,9.2,1.2,10.8l0.9,8.6C141.3,189.2,141.7,182.8,138,176.3z"/>
				<path class="st3" d="M139.6,172.9c2.3,4.5,4.4,9.1,4.6,13.2l2.9,4.3C147,184.6,144.5,178.7,139.6,172.9z"/>
			</g>
			<g>
			</g>
		</g>
	</g>
	<g>
		<g id="XMLID_3_">
			<g>
				<path class="st3" d="M58.6,85c-1.3-1.7-2.5-3.6-3.7-5.6c0.5,1.5,1.1,2.9,1.8,4.3C57.4,84.1,58,84.5,58.6,85z"/>
				<path class="st3" d="M68.1,79.3c-1.4,0.4-2.7,0.7-4,1c30,7.7,42.2,0.5,48-14.1C103.9,85,70.3,82.5,68.1,79.3z"/>
				<path class="st4" d="M55,79.4c28.3,22,50.5,16.3,63.6,3.2c-13.3,16.1-37.3,17.8-60,2.4c22.8,29.9,70.5,20,72.2-13.7
					c-10.9-32.5-40,1-62.8,8c2.2,3.3,35.8,5.7,43.9-13.1c-5.8,14.6-18,21.7-48,14.1l0,0C60.8,80.8,57.8,80.6,55,79.4z"/>
				<path class="st3" d="M118.6,82.6c-13.1,13.1-35.3,18.8-63.6-3.2c1.1,2,2.4,3.9,3.7,5.6C81.3,100.3,105.4,98.7,118.6,82.6z"/>
				<path class="st3" d="M58.6,85c-0.6-0.4-1.3-0.9-1.9-1.3c15.2,29.3,79.1,28.9,74.1-12.4C129.2,105,81.4,114.9,58.6,85z"/>
				<path class="st3" d="M166.2,32.4c0.8,2.1,1.9,3.7,3.1,5.1c0.1-0.2,0.2-0.5,0.4-0.7C168.5,35.8,167.3,34.3,166.2,32.4z"/>
				<path class="st4" d="M169.9,10.9c0.6,4.2,2.2,6.5,4.7,7.1c1.3-0.7,2.5-1.2,3.8-1.6l0,0C174.6,15.8,171.8,13.9,169.9,10.9z"/>
				<path class="st5" d="M130.9,71.2c5,41.3-58.9,41.7-74.1,12.4c-0.7-1.4-1.3-2.8-1.8-4.3c2.8,1.2,5.9,1.4,9.1,0.8l0,0
					c1.3-0.2,2.7-0.5,4-1C90.8,72.3,119.9,38.8,130.9,71.2z M49.3,102.4c1.1,26.3-10.3,37.3-8.9,36.7c6.7-2.8,20.1-27.7,24-28.9
					c20.6,6.4,41.6,9.5,64.2-1.2c14,20.5,54.6,25.8,56.7-8.2c-1.6-30-23.7-46.9-15.9-63.4c-1.2-1.3-2.3-3-3.1-5.1
					c1.1,1.8,2.2,3.4,3.5,4.3c13.7,9.9,28.3,3.9,28.5-8.8c-2.1-8.3-7.9-12.6-14.9-12.4c-1.6,0.1-3.2,0.3-4.9,0.9
					c-1.2,0.4-2.5,0.9-3.8,1.6c-2.9,1.5-5.8,3.7-8.5,6.6c-16.8,6.7-16.5,26.8,4,62.7c11.2,20-17.3,31.5-21.6,1.1
					c0.8-28.9-50.3-65-80-38.1c1,1,3.9,0.3,7.6-1C62.1,55.9,54,65,49.3,75.6c-10.5,14-7.8,37.8-14.7,51.4
					C36.7,126.4,41.3,121.2,49.3,102.4z"/>
				<path class="st4" d="M173.4,9.2c1.1,3.4,2.8,5.8,5,7.3l0,0c1.7-0.5,3.3-0.8,4.9-0.9l0,0C177.6,14,174.3,11.9,173.4,9.2z"/>
			</g>
			<g>
			</g>
		</g>
	</g>
	<path class="st3" d="M54.5,108.4"/>
	<g>
		<g id="XMLID_1_">
			<g>
				<path class="st6" d="M186.2,30.8l3.6-2l0-0.5c-1.1,0-2.1-1.2-2.1-2.6c0-0.9,0.3-1.8,0.9-2.2l-0.7-0.3l0,0.1l-4.1,0.7l3,2.8
					L186.2,30.8z"/>
				<path class="st7" d="M190,23.6c-0.3,0.2-0.4,0.7-0.1,1.3c0.3,0.5,0.7,0.9,1.1,0.7c0.3-0.2,0.4-0.7,0.1-1.3
					C190.8,23.7,190.3,23.4,190,23.6z"/>
				<path class="st7" d="M190.7,26c-0.3,0-0.5,0.3-0.5,0.5c0,0.3,0.2,0.5,0.5,0.5s0.5-0.3,0.5-0.5C191.3,26.2,191,26,190.7,26z"/>
				<path class="st6" d="M191.5,23.1l-1.9-3.7l-1.7,3.7l0.7,0.3c0.3-0.3,0.7-0.5,1.1-0.5c0.5,0,1,0.2,1.3,0.6L191.5,23.1z"/>
				<path class="st6" d="M191.5,23.1l-0.5,0.4c0.5,0.5,0.8,1.2,0.8,2.1c0,1.5-0.9,2.7-2,2.7l0,0.5l3.7,1.9l-0.8-4.1l2.9-2.9
					L191.5,23.1z"/>
				<path class="st8" d="M190.7,26c0.3,0,0.5,0.2,0.5,0.5c0,0.3-0.2,0.5-0.5,0.5s-0.5-0.2-0.5-0.5C190.2,26.2,190.4,26,190.7,26z
					 M190,23.6c0.3-0.2,0.8,0.1,1.1,0.7c0.3,0.5,0.2,1.1-0.1,1.3c-0.3,0.2-0.8-0.1-1.1-0.7C189.6,24.3,189.7,23.8,190,23.6z
					 M191,23.5c-0.4-0.4-0.8-0.6-1.3-0.6c-0.4,0-0.8,0.2-1.1,0.5c-0.5,0.5-0.9,1.3-0.9,2.2c0,1.5,1,2.7,2.1,2.6c1.1,0,2-1.2,2-2.7
					C191.8,24.7,191.5,24,191,23.5z"/>
			</g>
			<g>
			</g>
		</g>
	</g>
	<g>
		<g>
			<g id="XMLID_5_">
				<g>
					<path class="st3" d="M63.5,101.5c-3.8,5.3-1.3,6.9,3.5,7.1c1.6,2.9,4.2,3.5,7.8,1.5c3.7,2.1,8.9-1.2,6.9-7.3
						c0.6,4.6-1.9,8.2-7.4,6c-2.4,1.6-4.6,1.5-6.4-1.4C63.4,108,62.1,105.9,63.5,101.5z"/>
					<path class="st3" d="M64,170.5c0.9,1.9,4.4,1.4,4.9-0.1C67.5,171.4,65.8,171.2,64,170.5z"/>
					<path class="st2" d="M64.6,286c6.2-4.7,12.8-13.2,25.8,9.5c1.2-4.5,1.4-8.9-1.2-12.8c-1.4-0.9-3.8-4.5-8.1-7.1
						c7.1,2.3,11.1,7.3,14.6,12.9c0.3-3.2-0.6-6.5-3.4-9.8c-3-2.9-7.6-4.8-12.3-6.7c7.5,1,13.3,3.6,17.4,7.9
						c-4.3-16.5-26.1-6.4-29.4-8c-0.4-0.7-1-0.6-1.7-0.1L69.7,170c1.8-5.7,2.2-10.3-0.3-17.5c-0.6-14.1,1.3-28,5-41.8l0.3-0.6
						c-3.6,2-6.1,1.4-7.8-1.5l-0.5,3.3c-2.3,14.8-3.7,28.5-3.8,40.9c-2.6,6.8-2,12.6,0.3,17.9l0.1,103.6c-0.6,1.1-0.5,2.2,0.4,3.4
						c0.8,0.3,1.5,0.2,2-0.3C62.5,283.6,62.1,286.7,64.6,286z M68.9,170.4c-0.5,1.5-4.1,2-4.9,0.1C65.8,171.2,67.5,171.4,68.9,170.4
						z"/>
					<path class="st3" d="M81.1,275.5c4.3,2.7,6.7,6.3,8.1,7.1l6.5,5.7C92.2,282.8,88.2,277.8,81.1,275.5z"/>
					<path class="st3" d="M80,271.9c4.7,1.8,9.4,3.7,12.3,6.7l5.1,1.2C93.3,275.6,87.5,272.9,80,271.9z"/>
				</g>
				<g>
				</g>
			</g>
		</g>
	</g>
</g>
<g>
	<g id="XMLID_10_">
		<g>
			<path class="st0" d="M182,154.6c0.5,1.4,1.4,2.6,2.7,3.5c-1.1,1.3-3.4,1.9-5.7,2.6c-1-0.2-1.8-0.5-2.1-0.7L182,154.6z"/>
			<path class="st0" d="M182.6,149.5c-0.9,1.8-1.2,3.6-0.6,5.2c-2.8,1.6-5.3,2.9-7.3,3.2c-1.1-0.8-1.7-2.2-2.3-3.6
				C175.2,152.1,178.7,150.6,182.6,149.5z"/>
			<path class="st1" d="M179,160.7l-6.1,4.2l4-4.9C177.2,160.2,178,160.4,179,160.7z"/>
			<path class="st1" d="M172.4,154.3c0.5,1.4,1.1,2.8,2.3,3.6c-1.5,1.1-3,3.5-4.5,6.2C170.2,160.4,170.8,157,172.4,154.3z"/>
		</g>
		<g>
		</g>
	</g>
	<g>
		<g id="XMLID_9_">
			<g>
				<path class="st2" d="M243.5,201.1c4.6,1,2,10.3-1.7,8.4l-19.5,15.4l-0.9,0.6c3.5,1.3,4.8,2.4,3.6,3c-4.1,0.4-9.8-0.4-6.5,13.1
					c-2.1-1.3-3.8-2.9-4.2-5.4c0.2-0.9-0.1-3.1,0.5-5.7c-1.9,3.4-1.6,6.9-0.9,10.3c-1.3-1.1-2.1-2.7-2.3-5c0.1-2.2,1.2-4.6,2.3-7.1
					c-2.5,3.1-3.8,6.3-3.8,9.4c-4.3-7.9,7.4-12.2,8.4-13.8c0.3,0.1,21.8-17.6,21.8-17.6c-0.1-1.1,0.1-2.3,0.4-3.4
					c-4.3-2.8-11.2-6-18.5-9.3c0,0,2.5-1,2.5-1.7C224.5,191.2,243.1,200.6,243.5,201.1z M241.8,208.8c0.1-1.1-0.2-1.8-1.1-2
					C241.2,207.3,241.7,207.8,241.8,208.8z"/>
				<path class="st3" d="M240.8,206.8c0.8,0.2,1.2,0.9,1.1,2C241.7,207.8,241.2,207.3,240.8,206.8z"/>
				<path class="st3" d="M214.7,230.5c-0.7,2.6-0.3,4.9-0.5,5.7l-0.4,4.6C213.1,237.4,212.8,234,214.7,230.5z"/>
				<path class="st3" d="M213.8,228.7c-1.2,2.4-2.3,4.9-2.3,7.1l-1.5,2.3C210,235,211.3,231.9,213.8,228.7z"/>
			</g>
			<g>
			</g>
		</g>
	</g>
	<g>
		<g id="XMLID_8_">
			<g>
				<path class="st3" d="M255.9,181.3c0.7-0.9,1.3-1.9,1.9-3c-0.2,0.8-0.5,1.5-0.9,2.3C256.5,180.8,256.2,181,255.9,181.3z"/>
				<path class="st5" d="M252.9,178.8c-0.7-0.1-1.4-0.3-2.1-0.5c-12.1-3.5-27.9-21-33.4-3.6c-2.2,21.9,31.7,21.5,39.4,5.8
					c0.4-0.7,0.7-1.5,0.9-2.3C256.3,178.9,254.7,179.1,252.9,178.8L252.9,178.8z M246.2,162.5c7.5,3.4,11.9,8.1,14.5,13.7
					c5.7,7.3,4.5,20,8.3,27.1c-1.1-0.3-3.6-3-8-12.9c-0.3,14,5.8,19.7,5.1,19.4c-3.6-1.4-11-14.5-13-15.1c-10.8,3.6-21.9,5.5-34.1,0
					c-7.2,11-28.7,14.2-30.1-3.8c0.5-15.9,12.1-25.1,7.8-33.8c0.6-0.7,1.2-1.6,1.6-2.7c-0.6,1-1.2,1.8-1.8,2.3
					c-7.2,5.4-15,2.4-15.2-4.4c1-4.4,4.1-6.8,7.8-6.7c0.8,0,1.7,0.1,2.6,0.4c0.7,0.2,1.3,0.5,2,0.8h0c1.5,0.8,3.1,1.9,4.6,3.4
					c9,3.4,9,14.1-1.5,33.3c-5.7,10.7,9.5,16.5,11.4,0.4c-0.7-15.3,26-35,42-21C249.7,163.5,248.2,163.2,246.2,162.5z"/>
				<path class="st4" d="M227.4,171.8c3.2,7.7,9.7,11.4,25.6,7h0c1.7,0.2,3.3,0.1,4.8-0.5c-14.8,12-26.6,9.1-33.7,2.3
					c7.2,8.4,20,9,31.8,0.7c-11.8,16.1-37.2,11.3-38.4-6.6c5.5-17.3,21.2,0.1,33.4,3.6C249.6,180.1,231.8,181.7,227.4,171.8z"/>
				<path class="st3" d="M224,180.6c7.1,6.8,18.9,9.6,33.7-2.3c-0.6,1.1-1.2,2.1-1.9,3C244,189.6,231.2,189,224,180.6z"/>
				<path class="st3" d="M250.8,178.3c0.7,0.2,1.4,0.4,2.1,0.5c-15.8,4.4-22.4,0.7-25.6-7C231.8,181.7,249.6,180.1,250.8,178.3z"/>
				<path class="st3" d="M256.9,180.5c-7.8,15.7-41.7,16.1-39.4-5.8c1.2,17.9,26.7,22.6,38.4,6.6C256.2,181,256.5,180.8,256.9,180.5
					z"/>
				<path class="st3" d="M196.5,156.8c0.6-0.5,1.2-1.3,1.8-2.3c-0.4,1.1-0.9,2-1.6,2.7C196.6,157.1,196.6,156.9,196.5,156.8z"/>
				<path class="st4" d="M196.1,143.1c-0.3,2.2-1.1,3.5-2.4,3.8h0c-0.7-0.3-1.4-0.6-2-0.8C193.7,145.7,195.1,144.7,196.1,143.1z"/>
				<path class="st4" d="M194.3,142.2c-0.6,1.8-1.4,3.1-2.6,3.9c-0.9-0.3-1.8-0.4-2.6-0.4v0C192.1,144.8,193.8,143.7,194.3,142.2z"
					/>
			</g>
			<g>
			</g>
		</g>
	</g>
	<path class="st3" d="M258.3,193.6"/>
	<g>
		<g id="XMLID_7_">
			<g>
				<path class="st6" d="M185.7,152.5c0.6,0,1.1-0.6,1.1-1.4c0-0.5-0.2-0.9-0.5-1.2l0.3-0.2l0,0l2.2,0.3l-1.6,1.5l0.4,2.2l-1.9-1
					V152.5z"/>
				<path class="st7" d="M185.6,150c0.2,0.1,0.2,0.4,0.1,0.7c-0.1,0.3-0.4,0.5-0.6,0.4c-0.2-0.1-0.2-0.4-0.1-0.7
					C185.2,150.1,185.4,150,185.6,150z"/>
				<path class="st7" d="M185.2,151.3c0.2,0,0.3,0.1,0.3,0.3c0,0.2-0.1,0.3-0.3,0.3s-0.3-0.1-0.3-0.3
					C184.9,151.4,185.1,151.3,185.2,151.3z"/>
				<path class="st6" d="M184.8,149.8l1-2l1,1.9l-0.3,0.2c-0.2-0.2-0.4-0.2-0.6-0.2c-0.3,0-0.5,0.1-0.7,0.3L184.8,149.8z"/>
				<path class="st6" d="M184.8,149.8l0.3,0.2c-0.2,0.3-0.4,0.7-0.4,1.1c0,0.8,0.5,1.4,1.1,1.4v0.2l-1.9,1l0.4-2.2l-1.6-1.5
					L184.8,149.8z"/>
				<path class="st8" d="M185.2,151.3c-0.2,0-0.3,0.1-0.3,0.3c0,0.2,0.1,0.3,0.3,0.3s0.3-0.1,0.3-0.3
					C185.5,151.4,185.4,151.3,185.2,151.3z M185.7,152.5c-0.6,0-1.1-0.6-1.1-1.4c0-0.4,0.2-0.8,0.4-1.1c0.2-0.2,0.4-0.3,0.7-0.3
					c0.2,0,0.4,0.1,0.6,0.2c0.3,0.3,0.5,0.7,0.5,1.2C186.8,151.9,186.3,152.5,185.7,152.5z M185.6,150c-0.2-0.1-0.4,0.1-0.6,0.4
					c-0.1,0.3-0.1,0.6,0.1,0.7c0.2,0.1,0.4-0.1,0.6-0.4C185.8,150.4,185.8,150.1,185.6,150z"/>
			</g>
			<g>
			</g>
		</g>
	</g>
	<g>
		<g>
			<g id="XMLID_6_">
				<g>
					<path class="st3" d="M253.5,190.1c2.1,2.8,0.7,3.6-1.8,3.8c-0.8,1.6-2.2,1.9-4.1,0.9c-2,1.2-4.7-0.5-3.8-3.8
						c-0.3,2.5,1.1,4.3,4,3.1c1.3,0.8,2.5,0.8,3.4-0.8C253.6,193.5,254.3,192.4,253.5,190.1z"/>
					<path class="st3" d="M253.9,226.7c-0.4,1-2.3,0.8-2.6,0C252.1,227.2,252.9,227.1,253.9,226.7z"/>
					<path class="st2" d="M247.6,194.8c1.9,1,3.3,0.7,4.1-0.9l0.3,1.7c1.4,7.8,2.2,15.1,2.4,21.6c1.5,3.6,1.2,6.6,0,9.5l1,54.9
						c0.3,0.6,0.3,1.2-0.2,1.8c-0.4,0.2-0.8,0.1-1.1-0.1c1.7,3.4,1.9,5,0.6,4.7c-3.3-2.4-6.9-6.9-13.6,5.3c-0.7-2.4-0.8-4.7,0.5-6.8
						c0.7-0.5,2-2.4,4.2-3.9c-3.7,1.3-5.8,4-7.6,7c-0.2-1.7,0.3-3.5,1.7-5.2c1.5-1.6,4-2.6,6.5-3.7c-4,0.6-7,2.1-9.2,4.4
						c2.1-8.8,13.8-3.7,15.5-4.5c0.2-0.4,0.5-0.3,0.9-0.1l-2.8-53.9c-1-3-1.3-5.5,0-9.3c0.2-7.5-0.9-14.8-3.1-22.1L247.6,194.8z
						 M251.3,226.7c0.3,0.8,2.2,1,2.6,0C252.9,227.1,252.1,227.2,251.3,226.7z"/>
					<path class="st3" d="M245.9,282.5c-2.3,1.5-3.5,3.4-4.2,3.9l-3.4,3.1C240,286.5,242.1,283.8,245.9,282.5z"/>
					<path class="st3" d="M246.4,280.6c-2.5,1-4.9,2.1-6.5,3.7l-2.7,0.7C239.4,282.7,242.4,281.2,246.4,280.6z"/>
				</g>
				<g>
				</g>
			</g>
		</g>
	</g>
</g>
</svg>
