<?xml version="1.0" encoding="utf-8"?>
<!-- Generator: Adobe Illustrator 22.1.0, SVG Export Plug-In . SVG Version: 6.00 Build 0)  -->
<svg version="1.1" id="Layer_5" xmlns="http://www.w3.org/2000/svg" xmlns:xlink="http://www.w3.org/1999/xlink" x="0px" y="0px"
	 viewBox="0 0 300 300" style="enable-background:new 0 0 300 300;" xml:space="preserve">
<style type="text/css">
	.st0{fill:#DD838E;}
	.st1{fill:#F7C5C8;}
	.st2{fill:#DF2E4C;}
	.st3{fill:#F09AA1;}
	.st4{fill:#000C0A;}
	.st5{fill:#F4566B;}
	.st6{fill:#F393A3;}
	.st7{fill:#ED858F;}
	.st8{fill:#F7D3D0;}
	.st9{fill:#885751;}
	.st10{fill:#FF9EA5;}
	.st11{fill:#F47D58;}
	.st12{fill:#CF7066;}
	.st13{fill:#D6737E;}
	.st14{fill:#F76264;}
	.st15{fill:#D34D5A;}
	.st16{fill:#E0E053;}
	.st17{fill:#F67773;}
	.st18{fill:#F5DFD6;}
	.st19{fill:#C17476;}
	.st20{fill:#F87789;}
	.st21{fill:#F8B4C6;}
	.st22{fill:#FEBFD0;}
	.st23{fill:#F38D96;}
	.st24{fill:#FEEBEA;}
	.st25{fill:#E44C65;}
	.st26{fill:#F1859A;}
	.st27{fill:#C58486;}
	.st28{fill:#B16D71;}
	.st29{fill:#F9ECE8;}
	.st30{fill:#FB8F9C;}
	.st31{fill:#C51F33;}
	.st32{fill:#F37D89;}
	.st33{fill:#D1798E;}
	.st34{fill:#050705;}
	.st35{fill:#000101;}
	.st36{fill:#C14F62;}
	.st37{fill:#E27988;}
	.st38{fill:#F9C2C7;}
	.st39{fill:#F2DBD1;}
	.st40{fill:#ED6E58;}
	.st41{fill:#F57C8A;}
	.st42{fill:#EFA2A5;}
	.st43{fill:#EE7E83;}
	.st44{fill:#C98682;}
	.st45{fill:#C61B3C;}
	.st46{fill:#F4AAC5;}
	.st47{fill:#E2C7C5;}
	.st48{fill:#FADEDD;}
	.st49{fill:#2C2620;}
	.st50{fill:#8BAAD8;}
	.st51{fill:#758DAA;}
	.st52{fill:#526380;}
</style>
<g>
	<g>
		<g id="XMLID_1_">
			<g>
				<path class="st0" d="M83.7,149.5c-3.2,7.8-6,17.2-8.1,27.8l0,0.2c-0.2,1.1-0.4,2.1-0.6,3.2l-5.9,31.6c-0.9-0.5-1.8-1.1-2.6-1.6
					c-0.3-8.6,0.2-19.3,6.7-43.2l0,0c0.3-0.7,0.7-1.3,1-1.9v0c2.7-5.4,5.6-10.6,8.7-15.8v0C83.2,149.6,83.4,149.6,83.7,149.5z"/>
				<path class="st1" d="M126.7,105c-0.9-1.9-3.8,3.9-3.2,4.2c0.8,0.3-0.4,1.3-2.1,2.4c-2.8,1.9-7,4.4-6.3,6
					c-14-2.7-23.3-3.6-26.9-2.2C77.7,104.2,76,94,96.4,86.2v0c13.4-0.7,26.2,2,33.5,18.6L126.7,105z"/>
				<path class="st2" d="M283,106.3c-2.2-1.2-4.9-0.4-7.7,0.8l-0.2-2.1l0.5-0.3l1.6-0.8l4,0.6c0.1,0.1,0.1,0.3,0.2,0.4
					C282,105.4,282.5,105.8,283,106.3z"/>
				<path class="st3" d="M196.1,181.3l-6.1,37.8c-1.5,0.7-3.1,0-4.7-2v0l5.6-37.4C193,179.3,194.7,179.9,196.1,181.3z"/>
				<path class="st4" d="M159.4,262.9c0,2.1,1.1,1.1,1.1,2.1c0,1.1,0,2.1-1.1,2.1c-1.1,0-1.1-2.1-1.1-3.2c0-1.1-1.1-6.3-1.1-6.3
					s-0.9,0-2.1-0.1l-1.1-2c0,0-3.2-3.2-4.2-4.2c-1.1-1.1-1.1-2.1-2.1-3.2c-1.1-1.1-2.1-1.1-2.1-2.1c0-1.1-3.2-3.2-3.2-3.2
					l-10.1-7.7l0,0c-0.6-0.9-1.5-1.7-2.9-2.3c3.8-0.5,7.8,0,11.9,1.5c1.7,4.6,3,9.3,8.4,12.6l4.2,5.3l2.1,1.1c0,0,2.1,3.2,2.1,4.2
					S159.4,260.8,159.4,262.9z"/>
				<path class="st5" d="M141.6,29.2c0.3-1.6,0.8-3.1,1.5-4.5l2.2,0.5c-0.1,0.1-0.1,0.4,0.4,0.9c1.1,1.1,1.1,1.1,1.1,2.1
					c0,1.1,1.1,1.1,1.1,2.1s1.1,0,0,2.1c-1.1,2.1-1.1,3.2-1.1,3.2l0.4,1c-0.5,0.1-0.9,0.1-1.3,0C143.7,36.1,142.2,34.1,141.6,29.2
					L141.6,29.2z"/>
				<path class="st6" d="M75.1,135.5c1.1,1.1,0,1.1,2.1,2.1c2.1,1.1,2.1,0,2.1,0l7.7,2.9c-7.1,1-13.4-0.6-19.3-3.9
					c-6,1.3-14.5,0.4-24.3-1.5c-0.7-0.2-1.3-0.4-2-0.6c-10.2,2.8-20.2,5.1-27.4,4.2c-0.8,1.9-2.4,3-6.3,2.1l-1.1-3.2l1.3-2.5
					c7.7-0.3,17.2-2.4,28.2-5.9c9.3,1.9,18.8,2.1,28.4,1.1c0.4-0.1,0.8-0.2,1.2-0.5c0,0,1.9,1.6,3,2.6c0,0,2.1,0,4.2,1.1
					C73,133.4,74.1,134.5,75.1,135.5z"/>
				<path class="st7" d="M165.7,31.3c7.9,3.2,13.8,7,14.7,12.6c-1.1,3.2-2.9,4.6-5.2,4.7c-2.9-4.9-6.6-8.2-10.6-11
					c0.2-1.4,0-2.7-0.5-4.1c-0.2-0.6-0.5-1.1-0.8-1.7L165.7,31.3z"/>
				<path class="st8" d="M97.2,128.2c3.5,3.6,8.8,4.9,15.8,4.2c-6.9,6.8-14.2,9.8-22.1,7.4c-1.3,0.3-2.6,0.6-3.9,0.8l-7.7-2.9
					c0,0,0,1.1-2.1,0c-2.1-1.1-1.1-1.1-2.1-2.1c-1.1-1.1-2.1-2.1-2.1-2.1c-2.1-1.1-4.2-1.1-4.2-1.1c-1.1-1.1-3-2.6-3-2.6
					c1.5-1,3-3.5,4.6-7.2c5.4-4.4,10.8-6.1,16.2-2.9l0.5-0.2C88.7,121.7,92,124.5,97.2,128.2z"/>
				<path class="st9" d="M71.7,213.1c0.3,0.3-2.3-0.7-2.6-0.9c0,0,0,0,0,0l5.9-31.6C73.2,190.6,72,201.5,71.7,213.1z"/>
				<path class="st10" d="M160.2,118.8c0.2-0.2,0.4-0.5,0.6-0.7c-4,18.4-20,19.4-37.2,17.5c-2.1-2.3-3.1-4.6,0-7.4
					c-1.3-2.5-1-5.6,1.6-9.5C132.1,132,149.3,132.4,160.2,118.8z"/>
				<path class="st11" d="M260.4,105l3.2,1.1c0,0,2.1-1.1,2.1,0s1.1,0,1.1,0h1.3v0c0.1,0.3,0.3,0.6,0.8,1c1.1,1.1,3.2,1.1,3.2,1.1
					s0,0,1.1,0s1.1,0,1.1,0h1.4l0.2,2l0.5,4.3c-6.1-0.9-11.4-3.7-15.8-8.4V105z"/>
				<path class="st12" d="M190,219.1l-1,6.3c-1.4-1.1-2.9-2.1-4.4-3.3l0.7-5C186.9,219.1,188.4,219.8,190,219.1z"/>
				<path class="st13" d="M8.8,133.4c0,0,2.1-2.1,4.2-3.2c2.1-1.1,2.1,0,3.2-1.1c1.1-1.1,3.2,0,3.2,0s3.2,0,4.2,0
					c1.1,0,1.1-1.1,2.1-1.1s2.1,0,3.2-1.1c1.1-1.1,1.1-1.1,1.1-1.1s3.2,0,4.2,0s2.1-1.1,3.2-2.1c1.1-1.1,0-2.1,0-4.2s3.2,0,4.2,0
					s0,2.1,0,2.1s3.2,0,4.2,0s1.1-1.1,2.1-2.1s0-1.1,0-2.1s2.1-2.1,3.2-4.2s3.2-3.2,6.3-4.2c3.2-1.1,5.3-1.1,5.3,0s-8.4,7.4-8.4,7.4
					s-2.1,2.1-3.2,4.2s2.1,0,2.1,0l3.2-1.1l5.3,2.1c4.2-4.1,8-12.5,13.7-12.6c-1.6,5.3-3.1,9.9-4.7,13.4c-1.6,3.6-3.1,6.1-4.6,7.2
					c-0.4,0.3-0.8,0.5-1.2,0.5c-9.6,1-19.1,0.8-28.4-1.1c-11,3.5-20.5,5.6-28.2,5.9L8.8,133.4z"/>
				<path class="st14" d="M240.5,166.1c8.6,6.7,17.4,10.1,27.8-1.9c-7,16.4-20.6,14.1-30.5,7v0c0.1-1.5-0.1-3.1-0.5-4.7l0.5-0.1
					C238.8,166.5,239.7,166.4,240.5,166.1L240.5,166.1z"/>
				<path d="M205.7,256.6c0,1.1-1.1,3.2-1.1,3.2l-3.2,1.9l2.1-5.1l2.1-4.2C205.7,254.1,205.7,256,205.7,256.6z"/>
				<path class="st15" d="M181.8,164.1l2.8,0.9l-10.9,7.4c3-3.1,4.6-5.9,2.5-8l2.1-1.5L181.8,164.1z"/>
				<path class="st16" d="M161.5,25c0,1.2-0.9,2.1-2.1,2.1c-1.2,0-2.1-0.9-2.1-2.1c0-1.2,0.9-2.1,2.1-2.1
					C160.5,22.9,161.5,23.9,161.5,25z M159.9,25c-0.3,0-0.5,0.2-0.5,0.5s0.2,0.5,0.5,0.5c0.3,0,0.5-0.2,0.5-0.5S160.2,25,159.9,25z"
					/>
				<path class="st17" d="M181.5,146.1c1.1,0,4.2,3.2,4.2,3.2c-10.7,1.3-19.8,1-25.3-3.2c-7.1-0.9-16.7,1.2-26.4,3.4
					c-0.1-0.3-0.9-0.3-0.9-0.3h-4.2l-2.1-1.1c5-2.8,10-5.6,14.9-8.3l0.9,0.9c0-1.1,4.2,1.1,4.2,1.1s2.1-1.1,3.2-2.1
					c1.1-1.1,1.1,1.1,2.1,1.1c1.1,0,4.2,0,5.3,0c1.1,0,2.1,0,2.1,0s3.2-2.1,4.2-3.2c1.1-1.1,0-1.1,0-2.1c0-1.1,3.2-2.1,7.4-3.2
					c4.2-1.1,2.1-2.1,3.2-2.1c1.1,0,5.3,0,6.3,1.1c1.1,1.1,0,2.1,0,3.2c0,1.1-1.1,3.2-3.2,5.3s-3.2,3.2-3.2,3.2s2.1,0,3.2,1.1
					C178.3,145,180.4,146.1,181.5,146.1z"/>
				<path class="st18" d="M160.2,118.8c-0.2-17.1-3.3-37.7-8.5-61c0.1,0.3,0.2,0.6,0.3,0.9c11.2,39.2,10.4,47.3,9.5,54.7
					c-0.2,1.7-0.4,3.2-0.7,4.7C160.6,118.3,160.4,118.6,160.2,118.8L160.2,118.8z"/>
				<path class="st19" d="M54.8,196c0.2-0.5,0.4-1.1,0.7-1.6c1.7,2.2,3.3,3,5,2.2c-0.4,1-0.8,2-1.1,3.1c-0.8,5.1,0.8,8.3,5.3,9.5
					c0.5,0.5,1.2,0.9,1.9,1.4c0.8,0.5,1.7,1.1,2.6,1.6c0,0,0,0,0,0c11.9,6.7,36.7,13.4,58.7,20.1c0.6,0.2,1.2,0.4,1.7,0.6
					c1.4,0.6,2.3,1.3,2.9,2.3l0,0c0.4,0.7,0.6,1.5,0.7,2.4c-3.3-2.1-4.7-1.6-5.3,0c-19.9-6.1-40.1-12.1-56.1-17.9
					c-0.7-0.2-1.3-0.5-1.9-0.7c-1.1-0.4-2.2-0.8-3.3-1.2c-1.3-0.5-2.6-1-3.9-1.5c0,0,0,0,0,0C54,212.2,54.1,204.2,54.8,196z"/>
				<path class="st20" d="M287.8,124c-0.6,3.9-2.9,4.5-5.8,4h0c-0.6-4.9-2.6-9.4-5.8-13.5l-0.5-4.3c1.7,1.6,3.5,1.8,5.3,0.9
					C285.1,114.2,287.9,118.2,287.8,124z"/>
				<path class="st21" d="M141.6,29.2c0.6,4.9,2.1,7,4.1,7.3v0c1.8,1.9,3.5,8.3,5,17.1c0,0.1,0,0.1,0,0.2c0.2,1.4,0.5,2.7,0.9,3.9
					c0,0,0,0.1,0,0.1c5.2,23.3,8.3,43.9,8.5,61l0,0c-10.9,13.6-28.1,13.2-35-0.1c0.4-0.7,0.9-1.4,1.5-2.1c0.8-1.1,1.1-2.7,1-4.9
					c-0.1-1.9-0.4-4.1-1-6.7l3.1-0.2c1.2,2.8,2.3,6,3.2,9.6c8,12.7,18.9,8.4,16.8-23.2c-5.4-19.5-9.2-38.4-8.4-55.8
					C141.1,33.5,141.2,31.3,141.6,29.2z"/>
				<path class="st22" d="M127.8,111.7l-4.2,1.7l-0.2,0.2l-2-2c1.7-1.2,2.9-2.1,2.1-2.4c-0.7-0.3,2.3-6.1,3.2-4.2
					C127.3,107.6,127.7,109.8,127.8,111.7z"/>
				<path class="st23" d="M209.8,160.6c9.8-16.1,16.9-30.9,4.8-37.1c10.1,1.1,18.6,4,24.1,10.2v0c1.6,7-7.1,15.5-16.1,24
					c-2.4-1.1-10.5-0.1-10.5,2.1C211.2,160.1,210.5,160.4,209.8,160.6z"/>
				<path class="st24" d="M88.2,115.4c-2,0.7-2.4,2.1-1,4.1l-0.5,0.2c-5.5-3.3-10.9-1.5-16.2,2.9c1.5-3.5,3.1-8.1,4.7-13.4
					c-5.7,0.2-9.5,8.6-13.7,12.6l-5.3-2.1l-3.2,1.1c0,0-3.2,2.1-2.1,0s3.2-4.2,3.2-4.2s8.4-6.3,8.4-7.4s-2.1-1.1-5.3,0
					c-3.2,1.1-5.3,2.1-6.3,4.2s-3.2,3.2-3.2,4.2s1.1,1.1,0,2.1s-1.1,2.1-2.1,2.1s-4.2,0-4.2,0s1.1-2.1,0-2.1s-4.2-2.1-4.2,0
					s1.1,3.2,0,4.2c-1.1,1.1-2.1,2.1-3.2,2.1s-4.2,0-4.2,0s0,0-1.1,1.1c-1.1,1.1-2.1,1.1-3.2,1.1s-1.1,1.1-2.1,1.1
					c-1.1,0-4.2,0-4.2,0s-2.1-1.1-3.2,0c-1.1,1.1-1.1,0-3.2,1.1c-2.1,1.1-4.2,3.2-4.2,3.2c-3.3,1.7-5.8,2.1-6.3,0
					c12.1-9.8,23.9-18.5,34.7-23.2c10.7-8.1,27.6-21.5,42.1-22.1c5.5-0.7,11.3-1.7,17-2v0C76,94,77.7,104.2,88.2,115.4z"/>
				<path d="M207.8,240.8c0,0-2.1,7.4-2.1,8.4c0,0.5,0,1.8,0,3.2l-3.5-12.6h1.4c-3.3-3.2-5.5-5.7-6.8-7.6l5.8,3.4
					c0,0,3.2,2.1,4.2,2.1C207.8,237.7,207.8,240.8,207.8,240.8z"/>
				<path class="st25" d="M87.1,140.5c1.3-0.2,2.5-0.4,3.9-0.8l-4.2,6.3v1.1l-2.1,2.1c-0.3,0.1-0.6,0.2-0.9,0.3
					c-0.3,0.1-0.5,0.1-0.8,0.2v0c-2.9,0.8-5.7,1.2-7.8,0.2c0,0-1.1-2.8-2.1-3.8c-1.1-1.1,0,0-2.1-2.1c-2.1-2.1-3.2-1.1-3.2-1.1
					l-8.1-1.6h0c-4.5-2.1-9.8-4.1-16.2-6.1c9.8,1.9,18.3,2.7,24.3,1.5C73.7,139.9,80,141.5,87.1,140.5z"/>
				<path class="st7" d="M149.9,35.5c-0.1,6.6,0,13,0.8,18c-1.5-8.8-3.1-15.1-5-17.1v0c0.4,0.1,0.9,0.1,1.3,0
					C148,36.4,148.9,36,149.9,35.5z"/>
				<path class="st16" d="M276.2,102.4c0,0.7-0.4,1.2-1,1.5c-0.2,0.1-0.4,0.1-0.6,0.1c-0.9,0-1.6-0.7-1.6-1.6c0-0.9,0.7-1.6,1.6-1.6
					c0.2,0,0.3,0,0.5,0.1C275.8,101.1,276.2,101.7,276.2,102.4z M275.2,102.4c0-0.3-0.2-0.5-0.5-0.5s-0.5,0.2-0.5,0.5
					c0,0.3,0.2,0.5,0.5,0.5S275.2,102.7,275.2,102.4z"/>
				<path class="st26" d="M130.6,151.9c10.4,0.5,20.2,0.5,26.7-1.6c6.9,5.4,16.7,6.8,27.4,7.4c0.5,1.4,0.5,2.6-0.1,3.7
					c-0.5,1-1.4,1.9-2.8,2.7l-3.5-1.2c-4.7,0.6-8.9,0.2-11.6-3.2l-10.5-4.2c1.3-1.2-19.8-1.1-23.2,0c-2,0.7-1.1-1.1-2.1-1.1
					c-1.1,0-4.2,0-5.3,0s1.1-1.1,2.1-1.1C128.4,153.4,129.4,152.7,130.6,151.9z"/>
				<path class="st27" d="M75.1,149.9c2.1,1,4.9,0.6,7.8-0.2c-3.1,5.2-6,10.5-8.7,15.8c0.3-3.9-0.7-5.8-5.1-2.6
					C71.2,158.3,73.2,153.9,75.1,149.9z"/>
				<path class="st28" d="M70.9,267.1l-1.2-48c0.6,0.2,1.3,0.5,1.9,0.7v0l1.4,47.3H70.9z"/>
				<path class="st5" d="M156.2,28.2l1.1,1.1c1.1,1.1,1.1,0,1.1,0h1.1l1.8-0.3c0.9,1,1.6,1.9,2.2,2.9c0.3,0.6,0.6,1.1,0.8,1.7
					l-6.9-0.1c0,0,0,1.1-2.1-1.1c-2.1-2.1-2.1-2.1-2.1-2.1c0-0.2,0-0.5,0-1.1c0-2.1,0-3.2,0-3.2h2.1c0,1.1,1.1,1.1,1.1,1.1V28.2z"/>
				<path class="st29" d="M255.5,97.5c-4.9,6.9-7.4,15.2-8.8,24.3c-0.1-0.4-0.1-0.7,0-0.9C244.9,113.5,247.5,102.7,255.5,97.5z"/>
				<path class="st30" d="M266.7,106.1c0,0-1.1,1.1-1.1,0s-2.1,0-2.1,0l-3.2-1.1c-4.5-1.1-5.3-4.1-4-8.1c0.9-0.5,1.9-1,2.9-1.4
					c9.9-6.9,16.8-2,21.9,9.1l-4-0.6l-1.6,0.8l-0.5-0.9c0.6-0.2,1-0.8,1-1.5c0-0.7-0.5-1.3-1.1-1.5l0-0.1c0,0,0-1.1-1.1-2.1
					s-4.2-2.1-4.2-2.1h-2.1c0,0,0,1.1-1.1,1.1c-1.1,0-1.1,1.1-1.1,1.1s0,0,0,1.1s0,1.1,1.1,2.1c1.1,1.1,2.1,2.1,2.1,2.1
					c-0.6,1.2-0.8,1.7-0.8,2.1H266.7z"/>
				<path class="st31" d="M153,30.3c0,0,0,0,2.1,2.1c2.1,2.1,2.1,1.1,2.1,1.1l6.9,0.1c0.5,1.4,0.7,2.7,0.5,4.1
					c-4.9,2.1-9.8,1.3-14.7-2.1c-1,0.5-1.9,0.8-2.8,1l-0.4-1c0,0,0-1.1,1.1-3.2c1.1-2.1,0-1.1,0-2.1s-1.1-1.1-1.1-2.1
					c0-1.1,0-1.1-1.1-2.1c-0.5-0.5-0.5-0.8-0.4-0.9c0.1-0.1,0.4-0.1,0.4-0.1l4.2-2.1V25v1.1h2.1h1.1c0,0,0,1.1,0,3.2
					C153,29.7,153,30.1,153,30.3z"/>
				<path class="st32" d="M240.9,136.7c1.3,5.7,1.8,12.5,1.6,19.9c0.1,0.3,0.2,0.6,0.4,0.9l-0.4,0.2c1.2,4.8,0.5,7.6-2.1,8.5h0
					c-0.7,0.3-1.6,0.3-2.7,0.3l-0.5,0.1c-0.9-4.1-3-8.5-5.3-13.1c-0.6-0.9-8,4.9-9.5,4.2c9-8.5,17.7-16.9,16.1-24
					C239.5,134.6,240.2,135.6,240.9,136.7z"/>
				<path class="st33" d="M69.7,219.1l1.2,48h-3.2l-1.4-49.3v0C67.5,218.3,68.6,218.7,69.7,219.1z"/>
				<path class="st34" d="M181.5,59.8c-0.6,1.6-1.3,1.2-2.1,0c-1-4.5-2.4-8.1-4.2-11.1c2.3-0.2,4.2-1.5,5.2-4.7
					c-0.9-5.6-6.8-9.5-14.7-12.6c8.9,3.2,15.3,7,14.7,10.5c1.8,0.7,3.1,0.7,3.2-1.1C184.3,49.5,183.5,55.7,181.5,59.8z"/>
				<path class="st3" d="M192.5,264.6l0.6,5.7l-2.1-0.4l-4.2-40.6c0.8,0.6,1.5,1.2,2.3,1.8L192.5,264.6z"/>
				<path class="st35" d="M283.1,111.5c3.8,2.2,6.4,5.3,5.8,10.4c1.4,0.3,2.5,0.1,3.2-1.1c-1.2,9.2-4.3,13.3-7.4,17.9
					c-0.9,1.3-1.9,1.5-3.2,0v-1.1c0.8-3.4,0.9-6.6,0.5-9.7h0c2.9,0.5,5.2-0.1,5.8-4c0.2-5.8-2.7-9.7-6.8-12.9
					c-0.9-0.7-1.8-1.3-2.7-1.9C280,109.9,281.6,110.6,283.1,111.5z"/>
				<circle class="st34" cx="159.9" cy="25.5" r="0.5"/>
				<path class="st36" d="M188.9,225.5c2.7,2,5.1,4,7.3,5.9c0.2,0.3,0.3,0.5,0.5,0.8c1.3,1.9,3.5,4.4,6.8,7.6h-1.4h-2.8
					c-0.8-0.7-1.6-1.4-2.4-2.1c-2.6-2.2-5.2-4.5-8-6.7c-0.7-0.6-1.5-1.2-2.3-1.8c-0.9-0.7-1.9-1.5-2.9-2.2v0
					c-11.2-8.5-24.1-16.9-38.2-25.1c-0.3-0.2-0.5-0.3-0.8-0.5c-2.5-3.8-3.6-8-1.3-13.2l32.7-23.8c2.1,2.1,0.5,4.9-2.5,8l-24.9,16.8
					c-2.2,3.4-2.5,6.5,0,9.5c13.4,8.3,25.9,16.3,35.7,23.5C186.1,223.3,187.6,224.4,188.9,225.5z"/>
				<path class="st22" d="M113,132.4c-7,0.7-12.3-0.6-15.8-4.2c-5.3-3.6-8.6-6.5-10-8.6c-1.4-2.1-1-3.4,1-4.1
					c3.7-1.3,12.9-0.5,26.9,2.2c-0.7-1.6,3.5-4.1,6.3-6l2,2l-4,4l-1.1,3.2l-2.1,1.1h-5.3h-3.2c0,0,0,1.1-1.1,1.1s-2.1,1.1-2.1,1.1
					s2.1,0,2.1,1.1c0,1.1,3.2,1.1,3.2,2.1c0,1.1,2.1,2.1,3.2,2.1s1.1,1.1,1.1,1.1l1.1,1.1L113,132.4z"/>
				<path class="st1" d="M163.6,26.1c-0.1-3-2.3-4.9-5.7-6.2c-2.2-0.9-5-1.4-8-1.9v0c0.3-0.1,0.7-0.3,1.1-0.4
					c6.3-1.6,12.1-2,14.7,5.3c0.6,0.3,1.1,0.6,1.7,0.9v0C166,23.1,164.7,23.8,163.6,26.1z"/>
				<path class="st37" d="M69.1,162.9c4.4-3.2,5.4-1.3,5.1,2.6v0c-0.3,0.7-0.7,1.3-1,1.9c-4.7,9.5-9,19.2-12.7,29.2
					c-1.7,0.8-3.3,0-5-2.2C60.2,183.1,64.8,172.4,69.1,162.9z"/>
				<path class="st12" d="M187.8,269.2l-4-42.2c1,0.7,1.9,1.5,2.9,2.2l4.2,40.6L187.8,269.2z"/>
				<path class="st6" d="M237.3,166.6c0.4,1.6,0.6,3.2,0.5,4.7c-2.1-1.5-4.1-3.3-5.8-5.2l-7.4-4.2c-8.9,4.3-17.2,7.4-23.2,5.3
					l-3.2,6.3c-0.3,0.2-0.7,0.3-1,0.4c-2.1,0.7-4,0.5-5.3-1.5l2.1-5.3c-4.2,1.1-7.6,0.7-9.5-2.1l-2.8-0.9c1.4-0.8,2.3-1.7,2.8-2.7
					c5.1-3.2,9.9-4.9,13.7-1.6c3.9,1.7,7.7,2,11.4,0.8v0c0.7-0.2,1.5-0.5,2.2-0.8c0-2.2,8.1-3.2,10.5-2.1c1.4,0.7,8.9-5.1,9.5-4.2
					C234.3,158,236.4,162.5,237.3,166.6z"/>
				<path class="st38" d="M256.4,96.9c-1.3,4-0.5,7,4,8.1v1.1c-7.1,1.6-7.8,7.5-5.3,15.8c8.9,12,14.7,23.3,15.8,33.7
					c-0.7,3.4-1.6,6.2-2.7,8.7c-10.4,12-19.2,8.5-27.8,1.9c2.6-0.9,3.3-3.7,2.1-8.5l0.4-0.2c4.7,10.5,19.6,7.1,16.5-7.2
					c2-2.9-11.6-23.3-12.6-28.6c1.4-9,3.9-17.4,8.8-24.3C255.8,97.3,256.1,97.1,256.4,96.9z"/>
				<path class="st9" d="M54.8,196c-0.7,8.2-0.8,16.1,7.7,20.3c-4.4-1.7-8.3-3.4-11.6-5c-0.3-2.9,0.2-5.7,1.1-8.4
					C52.9,200.6,53.9,198.3,54.8,196z"/>
				<path class="st5" d="M145.7,25c0,0-0.3,0-0.4,0.1l-2.2-0.5c1.4-3,3.7-5.4,6.8-6.7v0c3,0.4,5.8,1,8,1.9l-2.8,2v1.1c0,0,0,0,0,1.1
					c0,1.1,0,0,0,1.1c0,1.1,0,0,0,1.1H153H152h-2.1V25v-2.1L145.7,25z"/>
				<path class="st39" d="M285.3,108.7c0.1,1.1-0.7,2.1-2.3,2.8c-1.4-0.8-3.1-1.6-4.8-2.2c0.9,0.6,1.9,1.2,2.7,1.9
					c-1.8,0.9-3.6,0.7-5.3-0.9l-0.2-2l-0.1-1.1c2.8-1.2,5.4-2,7.7-0.8C283.9,107,284.6,107.8,285.3,108.7z"/>
				<path class="st40" d="M163.6,26.1c0.2,1.5-0.4,2.5-3.2,2.1c0.3,0.3,0.5,0.5,0.8,0.8l-1.8,0.3h-1.1c0,0,0,1.1-1.1,0l-1.1-1.1
					v-1.1c0,0-1.1,0-1.1-1.1s0,0,0-1.1c0-1.1,0,0,0-1.1c0-1.1,0-1.1,0-1.1v-1.1l2.8-2C161.2,21.2,163.4,23.1,163.6,26.1z
					 M159.4,27.1c1.2,0,2.1-0.9,2.1-2.1c0-1.2-0.9-2.1-2.1-2.1c-1.2,0-2.1,0.9-2.1,2.1C157.3,26.2,158.2,27.1,159.4,27.1z"/>
				<path class="st41" d="M106.7,122.9c1.1,0,1.1-1.1,1.1-1.1h3.2h5.3l2.1-1.1l1.1-3.2l4-4l0.2-0.2l4.2-1.7c0.1,2.2-0.2,3.8-1,4.9
					c-0.6,0.7-1.1,1.4-1.5,2.1c-2.6,3.9-2.9,7-1.6,9.5c-3.1,2.7-2.1,5.1,0,7.4c-13.3,8.5-26.5,16.6-36.8,11.6v-1.1l4.2-6.3
					c7.9,2.4,15.2-0.6,22.1-7.4l2.1-1.1l-1.1-1.1c0,0,0-1.1-1.1-1.1s-3.2-1.1-3.2-2.1c0-1.1-3.2-1.1-3.2-2.1c0-1.1-2.1-1.1-2.1-1.1
					S105.7,122.9,106.7,122.9z"/>
				<path class="st42" d="M275.4,107.1l0.1,1.1h-1.4c0,0,0,0-1.1,0s-1.1,0-1.1,0s-2.1,0-3.2-1.1c-0.5-0.5-0.7-0.7-0.8-1v0
					c-0.1-0.4,0.2-0.9,0.8-2.1c0,0-1.1-1.1-2.1-2.1c-1.1-1.1-1.1-1.1-1.1-2.1s0-1.1,0-1.1s0-1.1,1.1-1.1c1.1,0,1.1-1.1,1.1-1.1h2.1
					c0,0,3.2,1.1,4.2,2.1s1.1,2.1,1.1,2.1l0,0.1c-0.2-0.1-0.3-0.1-0.5-0.1c-0.9,0-1.6,0.7-1.6,1.6c0,0.9,0.7,1.6,1.6,1.6
					c0.2,0,0.4,0,0.6-0.1l0.5,0.9l-0.5,0.3L275.4,107.1z"/>
				<path class="st25" d="M197.3,173.8l-1.2,7.4c-1.4-1.3-3.1-2-5.2-1.5l1.1-7.4C193.4,174.4,195.2,174.6,197.3,173.8z"/>
				<path class="st43" d="M292,120.8c-0.7,1.1-1.8,1.4-3.2,1.1c0.6-5.1-1.9-8.2-5.8-10.4c1.6-0.7,2.3-1.7,2.3-2.8
					C288.2,112.1,290.3,116.3,292,120.8z"/>
				<path class="st44" d="M143.6,188.2c-2.3,5.1-1.2,9.4,1.3,13.2C138.5,197.1,137.4,192.8,143.6,188.2z"/>
				<path class="st35" d="M149.9,251.3c1.1,1.1,4.2,4.2,4.2,4.2l1.1,2c-1.6-0.1-3.6-0.4-4.2-1c-1.1-1.1-1.1-1.1-1.1-1.1h-2.1
					l-20-17.9c0.5-1.6,1.9-2.1,5.3,0c0-0.9-0.2-1.7-0.7-2.4l10.1,7.7c0,0,3.2,2.1,3.2,3.2c0,1.1,1.1,1.1,2.1,2.1
					C148.8,249.2,148.8,250.3,149.9,251.3z"/>
				<path class="st45" d="M70.9,144c2.1,2.1,1.1,1.1,2.1,2.1c1.1,1.1,2.1,3.8,2.1,3.8c-0.4-0.2-0.7-0.4-1.1-0.7
					c-4.1-2.7-8.7-5.3-14.4-8l8.1,1.6C67.8,142.9,68.8,141.9,70.9,144z"/>
				<path class="st46" d="M225.7,118.7c8.4,2.1,13,8.6,15.2,18c-0.7-1.1-1.4-2.1-2.3-3v0c-5.5-6.2-14-9.2-24.1-10.2c0,0,0,0,0,0
					c-12.6-1.3-27.7,0.2-43,1.8C190.5,117.4,208.8,113.6,225.7,118.7z"/>
				<path class="st47" d="M163.3,31.8c-0.6-1-1.3-1.9-2.2-2.9c-0.2-0.3-0.5-0.5-0.8-0.8c2.8,0.4,3.4-0.6,3.2-2.1
					c1.1-2.3,2.4-3,3.8-2.2v0c7.8,4.6,13.2,10.2,16.2,17c0,1.8-1.3,1.8-3.2,1.1c0.6-3.5-5.8-7.3-14.7-10.5L163.3,31.8z"/>
				<path class="st48" d="M141.6,139.9c10.1-5.5,20.1-10.6,29.9-14.6c15.2-1.6,30.4-3.1,43-1.8c0,0,0,0,0,0
					c12.1,6.2,5,21.1-4.8,37.1v0c-3.8,1.1-7.6,0.8-11.4-0.8c-3.9-3.2-8.7-1.6-13.7,1.6c0.5-1.1,0.6-2.4,0.1-3.7
					c-10.6-0.5-20.5-2-27.4-7.4c-6.5,2.1-16.3,2.1-26.7,1.6c0.8-0.6,1.6-1.2,2.5-1.6c0.8-0.4,1-0.7,0.9-0.8
					c9.8-2.3,19.4-4.4,26.4-3.4c5.5,4.2,14.6,4.5,25.3,3.2c0,0-3.2-3.2-4.2-3.2c-1.1,0-3.2-1.1-4.2-2.1c-1.1-1.1-3.2-1.1-3.2-1.1
					s1.1-1.1,3.2-3.2s3.2-4.2,3.2-5.3c0-1.1,1.1-2.1,0-3.2c-1.1-1.1-5.3-1.1-6.3-1.1c-1.1,0,1.1,1.1-3.2,2.1
					c-4.2,1.1-7.4,2.1-7.4,3.2c0,1.1,1.1,1.1,0,2.1c-1.1,1.1-4.2,3.2-4.2,3.2s-1.1,0-2.1,0c-1.1,0-4.2,0-5.3,0
					c-1.1,0-1.1-2.1-2.1-1.1c-1.1,1.1-3.2,2.1-3.2,2.1s-4.2-2.1-4.2-1.1L141.6,139.9z"/>
				<path class="st49" d="M199.4,262.9c0,0-2.1,5.3-3.2,4.2c-0.8-0.8-1-2.2-1-2.8c0-0.2,0-0.3,0-0.3s3.2-1.1,2.1-2.1
					c-1.1-1.1,0,0,1.1-3.2c1.1-3.2-1.1-1.1,0-3.2c1.1-2.1-1.1-5.3-1.1-5.3l-0.3-12.6c0.8,0.7,1.6,1.4,2.4,2.1h2.8l3.5,12.6l-2.1,4.2
					l-2.1,5.1L199.4,262.9z"/>
				<circle class="st34" cx="274.6" cy="102.4" r="0.5"/>
			</g>
			<g>
			</g>
		</g>
	</g>
	<g>
		<g>
			<g id="XMLID_2_">
				<g>
					<path class="st50" d="M245.8,278.3c20.2-1.7,38.1-1.6,37.8-0.6c0,0-34.7,2.1-36.8,1.1C246.5,278.6,246.1,278.4,245.8,278.3z"/>
					<path class="st50" d="M177.2,274.5c-2.1,0-2.1,1-5.2,3.1c-1.1,0.3-2.5,0.6-3.9,0.9c-1.1-0.3-1.9-0.8-2.4-0.8
						c-1.1,0-5.3,0-8.4,0c-3.2,0-3.2-2.1-11.6-2.1c-0.9,0-1.5,0-2,0.1c-4-0.5-10.1-0.8-17.7-1c-0.9-0.3-2-0.7-3.5-1.2
						c-6.3-2.1-6.3,0-6.3,0s-5.3-1.1-7.4-1.1c-0.7,0-1.3,0-1.8,0c-0.1,0-0.3,0-0.4,0c-1.4,0.2-2.6,0.8-7.9-0.3
						c-0.5-0.3-0.9-0.5-1.4-0.9c-1.1-0.7-2.1-0.8-3.2-0.7c0,0,0,0,0,0c-0.1-0.1-0.3,0-0.9,0.1h0c-0.9,0.1-1.8,0.3-2.9,0.3
						c-0.5-0.1-1-0.3-1.4-0.8c-1-1-2-0.1-2.1,0h0c0,0-13.7-3.2-13.7-2.1c0,1.1-2.1,0-3.2,2.1c-1.1,2.1-3.2,0-7.4,2.1
						c-4.2,2.1,1.1,0-4.2,0s-6.3,0-7.4-2.1c0,0-9.5,0-10.5,0c-0.2,0-0.3,0-0.5,0c-0.7,0-1.9,0-12.2,0c-0.4,0-0.7,0-1.1,0
						c0.3-0.3-0.4-0.4-1.4-0.5c-0.9-1-1.8-2.7-1.8-2.7l-7.9-1.6c6.8-8.2,14.7-6.6,23.2,0c8.3-6.6,13.8-3.8,18.9,0
						c6.9-5,12.8-5.1,17.9-1.1c3.3-1.8,6.9-1.3,10.5,1.1c3.8-2.8,7.7-2.4,11.6,1.1c5.2-1.6,10.2-1.9,14.7,0c1.5-4.1,9.1,0.7,12.6,0
						c4.3-0.9,10.4,1.9,7.4,3.2c9.2-1.1,18.8,1.2,28.4,4.2c-0.2-2.3,13.8-0.8,14.7-4.2c0.4-1.6,9.8-4.5,10.5-1.4
						c-0.1,0.1-0.1,0.2,0,0.3c0-0.1,0-0.2,0-0.3c0.6-0.8,5.8-1.7,7.4-0.7c0.6,0.4-1.2-1.8,4.2,2.1c2.4,1.7,12.4,6.8,11.6,2.1
						c-0.8-4.8,28.3-10.7,33.7-2.1c4.1-2.9,7.5-3.7,9.5,0c4.1-0.9,6.9-0.7,5.3,3.1c0-0.1-0.4-0.2-3.7,0.6c-4.2,1.1-3.2,1.1-5.3,1.1
						s-3.2,1.1-8.4-1.1c-5.3-2.1-3.2-1.1-7.4-3.2c-4.2-2.1-2.1,0-6.3,0s-4.2,1.1-5.3,0c-1.1-1.1-1.1,2.1-2.1,3.2
						c-1.1,1.1-2.1,4.2-4.2,5.3c-0.4,0.2-0.9,0.3-1.4,0.4c-2.9,0.4-8-0.4-8-0.4s-4.2,0-8.4-2.1c-4.1-2-2.2-0.1-5.9-1
						c-0.1,0-0.2-0.1-0.4-0.1c-4.2-1.1-2.1-1.1-2.1-1.1s-7.4,0-9.5,0S179.4,274.5,177.2,274.5C177.2,274.5,177.2,274.5,177.2,274.5z
						"/>
					<path class="st51" d="M238.3,275.6c0,0,4.8,1.6,7.5,2.7c-14,1.2-29.2,3.3-40.1,6.6c-3.9,1.2-7.3,0.7-9.6,0.9
						c-1.6,0.2-2.6,0.3-3,0.3c0.6-0.3-3.3-4.2-3.3-4.2s8.4-1.1-3.2,0c-11.6,1.1-10.5,0-12.6,1.1c-2.1,1.1-4.2-1.1-9.5,0
						c-5.3,1.1-21.1,3.2-22.1,3.2c-1.1,0-5.3,1.1-10.5,0c-5.3-1.1-9.5-1.1-9.5-1.1s-4.2-1.1-6.3-2.1c-2.1-1.1,0,0-6.3-1.1
						c-6.3-1.1-14.7-3.2-14.7-3.2s-5.3-2.1-8.4-2.1c-3.2,0-10.5-1.1-12.6,0c-0.9,0.5-1.9,0.5-2.7,0.7l-0.2-1
						c1.2-0.4,2.3-0.5,2.9-1.8c1.1-2.1,2.1-4.2,2.1-4.2h10.5h0c1.4,0.5,2.5,0.7,3.5,0.8c0.8,0.1,1.7,0,2.9-0.3h0
						c0.3-0.1,0.6-0.1,0.9-0.1c0,0,0,0,0,0c0.3,0.1,0.4,0.7,4.5,1.6c2.7,1.5,5.1,2.1,6,1.3c0.6-0.6,1.2-0.9,2-1c0.1,0,0.3,0,0.4,0
						c0,0,0.1,0,0.1,0c1.7,0-8.8,2.1,9.1,2.1c3.5,0,6.8,0,9.8,0.1c3,1,3.3,1.2,4.9,2c2.1,1.1-2.1,1.1,7.4,1.1c8.5,0,0.9-1.7,5.3-2
						c2.7,0.3,4.5,0.7,5.2,1c2.1,1.1,3.2,1.1,4.2,2.1c1.1,1.1,6.3-1.1,8.4,0c1.1,0.5,3.9,0.2,6.7-0.2c1,0.2,2.3,0.2,3.9-0.8
						c0,0,0,0,0.1,0c0.8-0.2,1.4-0.4,1.7-0.5c1.4-0.5,3.5-2.6,3.5-2.6c2.1,0,0,0,2.1,0c4.2,0,11.6,1.1,11.6,1.1
						c0.1,0,0.3,0.1,0.4,0.1c1.6,0.4,8.2,2.1,9.1,3.1c1.1,1.1,3.2,2.1,3.2,2.1l10.2-1.5L238.3,275.6z"/>
					<path class="st52" d="M213.7,279.1l0,0.2l-10.2,1.5c0,0-2.1-1.1-3.2-2.1c-0.9-0.9-7.5-2.7-9.1-3.1c3.7,0.8,1.9-1.1,5.9,1
						c4.2,2.1,8.4,2.1,8.4,2.1S210.8,279.4,213.7,279.1z"/>
					<path class="st52" d="M179.4,274.5c2.1,0,9.5,0,9.5,0s-2.1,0,2.1,1.1C190.9,275.6,183.6,274.5,179.4,274.5z"/>
					<path class="st52" d="M177.2,274.5C177.2,274.5,177.2,274.5,177.2,274.5c0,0-2.1,2.1-3.5,2.6c-0.3,0.1-0.9,0.3-1.7,0.5
						C175.1,275.5,175.2,274.5,177.2,274.5z"/>
					<path class="st52" d="M172.1,277.6C172,277.6,172,277.7,172.1,277.6c-1.6,1.1-2.9,1.1-3.9,0.9
						C169.6,278.2,171,277.9,172.1,277.6z"/>
					<path class="st52" d="M165.7,277.7c0.5,0,1.4,0.5,2.4,0.8c-2.7,0.5-5.6,0.8-6.7,0.2c-2.1-1.1-7.4,1.1-8.4,0
						c-1.1-1.1-2.1-1.1-4.2-2.1c-0.7-0.3-2.5-0.7-5.2-1c0.5,0,1.2-0.1,2-0.1c8.4,0,8.4,2.1,11.6,2.1
						C160.4,277.7,164.6,277.7,165.7,277.7z"/>
					<path class="st52" d="M143.6,275.6c-4.5,0.3,3.2,2-5.3,2c-9.5,0-5.3,0-7.4-1.1c-1.6-0.8-2-1-4.9-2
						C133.5,274.8,139.6,275.2,143.6,275.6z"/>
					<path class="st52" d="M122.5,273.5c1.5,0.5,2.6,0.9,3.5,1.2c-3-0.1-6.3-0.1-9.8-0.1c-17.9,0-7.4-2.1-9.1-2.1c0,0-0.1,0-0.1,0
						c0.5,0,1.1,0,1.8,0c2.1,0,7.4,1.1,7.4,1.1S116.2,271.3,122.5,273.5z"/>
					<path class="st52" d="M106.6,272.5c-0.8,0.1-1.4,0.4-2,1c-0.9,0.9-3.3,0.3-6-1.3C104,273.3,105.1,272.7,106.6,272.5z"/>
					<path class="st52" d="M97.2,271.3c0.5,0.3,0.9,0.6,1.4,0.9c-4.2-0.9-4.2-1.5-4.5-1.6C95.1,270.5,96.1,270.6,97.2,271.3z"/>
					<path class="st52" d="M93.2,270.8c0.6-0.1,0.8-0.2,0.9-0.1C93.8,270.7,93.5,270.7,93.2,270.8z"/>
					<path class="st52" d="M88.8,270.3c0.4,0.4,0.9,0.7,1.4,0.8c-1,0-2.2-0.2-3.5-0.8C86.8,270.2,87.8,269.3,88.8,270.3z"/>
					<path class="st52" d="M86.7,270.3H76.2c0,0-1.1,2.1-2.1,4.2c-0.7,1.3-1.7,1.4-2.9,1.8c-0.7,0.2-1.5,0.6-2.3,1.4
						c-2.1,2.1-6.3,1.1-10.5,0c-4.2-1.1-3.2-3.2-3.2-3.2s-5.3-1.1-11.6-3.2c-2.1-0.7-3.2-0.9-3.6-0.9v-0.1c0.1,0,0.3,0,0.5,0
						c1.1,0,10.5,0,10.5,0c1.1,2.1,2.1,2.1,7.4,2.1s0,2.1,4.2,0c4.2-2.1,6.3,0,7.4-2.1c1.1-2.1,3.2-1.1,3.2-2.1
						C73,267.1,86.7,270.3,86.7,270.3z"/>
					<path class="st52" d="M71.1,276.3l0.2,1c-1.1,0.2-2,0.7-2.6,2.4c-1.1,3.2,0,3.2-3.2,4.2S54.1,285,54.1,285l-8.4-1.1l-9.5-2.1
						c0,0-6.3-4.2-8.4-3.2c-2.1,1.1-8.4-1.1-8.4-1.1s8.4-3.2,9.5-3.2s3.2-1.1,3.2-1.1s-2.1-2.1,3.2-2.1s5.3,0,5.3,0
						s-1.4-0.9-0.5-0.9c0.5,0,1.5,0.2,3.6,0.9c6.3,2.1,11.6,3.2,11.6,3.2s-1.1,2.1,3.2,3.2c4.2,1.1,8.4,2.1,10.5,0
						C69.6,276.9,70.4,276.5,71.1,276.3z"/>
				</g>
				<g>
				</g>
			</g>
		</g>
	</g>
</g>
</svg>
