<?xml version="1.0" encoding="utf-8"?>
<!-- Generator: Adobe Illustrator 22.1.0, SVG Export Plug-In . SVG Version: 6.00 Build 0)  -->
<svg version="1.1" id="Layer_1" xmlns="http://www.w3.org/2000/svg" xmlns:xlink="http://www.w3.org/1999/xlink" x="0px" y="0px"
	 viewBox="50 0 300 300" style="enable-background:new 0 0 300 300;" xml:space="preserve">
<style type="text/css">
	.st0{fill:#77A323;}
</style>
<g>
	<g id="XMLID_12_">
		<g>
			<path class="st0" d="M56.8,140.2c1,0.9,2.7,0.7,2.7,0.7l3.4-4.2L56.8,140.2z M145.7,155.9l4.7-2.7c-0.2-0.1-0.8-0.1-1.6,0.1
				c-2.6,0.6-7.5,2.3-7.5,2.3L145.7,155.9z M147.9,156.1l3.8,2.1l4.3-3.2L147.9,156.1z M105.7,201.1c0.1,0.1,1.2,2.1,2.7,4.1
				c-3-1.8-6.3-3.6-6.3-3.6l-19.6-9.6l9.5,9.2l-11.4-7.6c0,0-5.4,0.9-4.7,3.2s-1.2,3.9-1.2,3.9l-3.5-12.3l-4,5l-4.7-8.4l0.2,8.4
				L52.4,179l0.7,7.6L44,173.5l3.6,10.1l-16.7-18.2l7.7,19.7l-15.2-21.2c0,0,7.1,27.6,5.6,24.4c-1.5-3.2-10.6-22.6-10.6-22.6
				l-0.8,20.8l-9.7-16.8l8.2-102.3l4.5,1.9L35.8,47l-8.5,22.8l7-4.3L29,72.9l8.1-6.5l-1.7,4.3l17.3-16.4L21.7,98l47.1-44.6l-10,13.8
				l9.4-6.8L43.4,98.4l41.9-40.6L75.2,73l13.3-11.4L84,68.4L95.3,60l-35.6,50.8l52.2-41.9l-0.3,3.5l4.6-2.3L74.7,112l47.2-35.2
				l-3.7,7.7l10.7-7.9l3.9-2.9l-0.4,4.8l-11.5,10.2l16.9-11.1l6.6,1l-66.7,56.3L160.6,87l-5.3,5.3l10.9-3.1l-44.7,31.9l56.6-30.9
				l-7.3,7.4l6.9-2.6l-39.9,32.3l41.7-26.5l6-3.8l-2.6,4.2l7.3-2.5l-36.8,26.8l41.7-21.9l-3,4.2l5-0.9l-38,25.3l45.3-22.5l-3,4.6
				l9.1-2.4l-24,10.9l27.4-9.8c-0.7,0.4-23.1,12.3-21.8,12c1.3-0.3,19.6-7.9,20.2-8.1l-20.4,11.7l27.4-9.3l-33,18.6l36.7-14.8
				l4.4,0.8l-11.3,8.4l12.3-4.3l4-0.6l-28.8,16.3l28.3-9.7l5.8-0.4L217.7,144c0,0,25.4-6.4,26.3-6.8c0.9-0.4-61.6,27.8-62.6,28.2
				l67-21.7l-10.7,5.8l15.2-1.9l-32,12.1l36.5-7.3l-35.2,13.1l38.6-5.8l-50.9,15.4l56.6-8.8l-17.3,5.7l22.3-1.7
				c-0.6,0.1-20.3,5-19,5.1c1.3,0.1,18.7-0.7,18.7-0.7l-25.7,5l32.8,0.4l-54.3,8.1l55.9-0.4l-14.5,3.7l20.4-0.1l-19.3,2.4l19,1.5
				l-21.4,1.8l28.9,5l-0.2,2.2l-25.1-2l31,6c0,0-38-1.7-33.6-1.4c4.4,0.4,27.4,7.1,27.4,7.1l-49.9-8l26.7,26.1l-1.9,2.1l-25.9-26
				l8.1,43.2l-7.1-16.1l-0.9,11.5l-1-9.8l-1,18.1l-5.4-32.4c0,0-2.2,10.5-1.7,15.4s-1.1,2.1-1.4,0.8c-0.3-1.3-1.2-10.9-1.3-11.6
				c0,0.5,0.4,6.6,0.6,14.7c0.2,8.4-2.5,9.6-2.8,7.3c-0.3-2.2-1.2-23.2-1.2-23.2s-9.1-8.7-6.8-3.2c2.2,5.4,4.1,19,4.2,19.4
				c-0.1-0.4-4.9-12.1-5.3-12.1c-0.4,0.1-4.1-15.6-4.4-16.6l3.4,24.2l-10.3-27l-4.3-1.7c0,0-6.4-20.9-1.4,3.2
				c5,24.1-4.8-2.4-4.8-2.4l-2.3-5L202,239L189.6,206l4,32.7c-0.3-1-20.5-70.4-24.4-66.7c-3.8,3.6,17.1,60.1,18,62.6l-17.8-43.5
				l11,39.5l-19-44.6c0.1,0.5,7.4,28.4,10,37.5c-4.4-12-22.7-57.8-23.3-59.4c0.6,1.8,18.3,54.2,17.4,54.6c-1,0.4-9.9-9.7-9.9-9.7
				l-6.6,4.8l-8.7-7.4l-4.7-19l2.4,19.3L110.2,189l15.6,15.9l-7.8-2.4L102.9,192l12.8,17L105.7,201.1z M232.8,214.8l0.9-11L230,200
				L232.8,214.8z M230.3,196.9l4-0.6l-6.9-1.9l1.5,1.2L230.3,196.9z M223.2,201.6l-0.7-7.6l-1.5,2.1L223.2,201.6z M215.5,187.3
				l7.8-3.8l-9.3,1l-2.4,0.3L215.5,187.3z M218.4,195.9l0.2-2.2l-4.7-2.2l2.2,10.8L218.4,195.9z M213,202.1l-1.7-12.6l-3-1.6
				L213,202.1z M204.8,182.9l7.2-1.6l-9.3-0.7l-1.3-0.1L204.8,182.9z M201.6,178.2l5.5-2.2l-10.8,1.8L201.6,178.2z M203.5,192.5
				l-1.8-7.6l-0.5-2.3l-2.3,1.1L203.5,192.5z M202.8,136.1l3-4.2l-26.7,11.6L202.8,136.1z M195.1,175.9l4.6-1.4l-6.6-0.5
				L195.1,175.9z M197.2,188.5l-2-8.6l-2.6-0.2L197.2,188.5z M189.5,173.6l6-2.6l-9.4,1L189.5,173.6z M192.1,185.4l-2.9-8.2
				l-1.8-0.1L192.1,185.4z M183.5,171.8l4.7-3.6l-9,1.5L183.5,171.8z M182.7,181.1l-3.8-8.3l-2.2-0.2L182.7,181.1z M175,167.1
				l6.6-4.8l-8.2,2.4L175,167.1z M169.4,164.5l6.2-4.8l-11.6,1.3l5.7,0.9L169.4,164.5z M159.1,160.5l5.2-4.5l-8.6,2.4L159.1,160.5z
				 M156.5,203.4l-8.2-25.1l6.4,24.9L156.5,203.4z M158,179.1l-6.7-16.5l-3.8-3L158,179.1z M148.4,199.6l-1.4-4.1l-0.3,4
				L148.4,199.6z M122.9,125.2l31.3-19.2l-36.6,18.8L122.9,125.2z M138.8,154l5.2-3.6l-9.6,3.2L138.8,154z M138.1,168.2l-4-11.4
				l-1.7-0.6L138.1,168.2z M132.8,150.9l6.6-5.2l-9.3,5L132.8,150.9z M131.4,167.6l-4.2-14.5l-2.2-0.2l0.3,1.4L131.4,167.6z
				 M125.7,150.3l4.9-5.4l-9.6,3.7L125.7,150.3z M124.4,167.1l-10.2-16.8l-2.6-0.2l-1.4-0.1L124.4,167.1z M113.6,146.2l10.5-8.9
				l-15.8,8.5L113.6,146.2z M107.5,156.8l0.6-7.1l-4.3-1.2L107.5,156.8z M106.1,146.1l2.5-2.9l-4.6,2.3L106.1,146.1z M104.2,197.4
				L89,177.1l6.4,14.3L104.2,197.4z M100.8,145.6l6-8l-11.7,7L100.8,145.6z M104.9,161.5l-11.3-13.8l-5.3-0.4L104.9,161.5z
				 M92.1,143.6l7.6-6.5l-11.6,6.2L92.1,143.6z M88.9,139.4l7-4.3l-15,5L88.9,139.4z M82.8,154.4l0.4-4.8l-4.8-0.4L82.8,154.4z
				 M76.1,128.1l9.9-13l-16.1,12.5L76.1,128.1z M77.6,192.1L71.2,177l-5.2-1.7L77.6,192.1z M73.9,143.5l2.6-5.1l-4.2,2.3L73.9,143.5
				z M58.1,152.4l2.5-3.3l-5.2-1.7L58.1,152.4z M50.6,124.3l3.9-4.6l-9.6,4.1l-0.3,3.5L50.6,124.3z M38.3,89.6l15.7-19.1L20.2,105
				L38.3,89.6z M44,135.3l0.2-2.6l-7.5,3.5l-2.1,1L44,135.3z M36.8,147.1l1.5-1.7l-2.6-0.2L36.8,147.1z M32.5,118l2.4-8.2l-4,5
				L32.5,118z M27.3,144.6l1.6-3.4l-2.6-0.2l-0.1,1.3L27.3,144.6z M24.9,124l0.2-2.2l-4.7,3.6l-0.1,1.8L24.9,124z M21.5,138.8
				l2.6-4.2l-2.3,1.1L21.5,138.8z"/>
		</g>
		<g>
		</g>
	</g>
</g>
</svg>
