<?xml version="1.0" encoding="utf-8"?>
<!-- Generator: Adobe Illustrator 22.1.0, SVG Export Plug-In . SVG Version: 6.00 Build 0)  -->
<svg version="1.1" id="Layer_2" xmlns="http://www.w3.org/2000/svg" xmlns:xlink="http://www.w3.org/1999/xlink" x="0px" y="0px"
	 viewBox="0 0 300 300" style="enable-background:new 0 0 300 300;" xml:space="preserve">
<style type="text/css">
	.st0{fill:url(#SVGID_1_);}
	.st1{fill:url(#SVGID_2_);}
	.st2{fill:url(#SVGID_3_);}
	.st3{fill:url(#SVGID_4_);}
	.st4{fill:url(#SVGID_5_);}
	.st5{fill:url(#SVGID_6_);}
	.st6{fill:url(#SVGID_7_);}
	.st7{fill:url(#SVGID_8_);}
	.st8{fill:url(#SVGID_9_);}
	.st9{fill:url(#SVGID_10_);}
	.st10{fill:url(#SVGID_11_);}
	.st11{fill:url(#SVGID_12_);}
	.st12{fill:url(#SVGID_13_);}
	.st13{fill:url(#SVGID_14_);}
	.st14{fill:url(#SVGID_15_);}
	.st15{fill:url(#SVGID_16_);}
	.st16{fill:url(#SVGID_17_);}
	.st17{fill:url(#SVGID_18_);}
	.st18{fill:url(#SVGID_19_);}
	.st19{fill:url(#SVGID_20_);}
	.st20{fill:url(#SVGID_21_);}
</style>
<g>
	<g>
		<g id="XMLID_6_">
			<g>
				<linearGradient id="SVGID_1_" gradientUnits="userSpaceOnUse" x1="212.7641" y1="61.4621" x2="279.8331" y2="79.6016">
					<stop  offset="3.333334e-02" style="stop-color:#980012"/>
					<stop  offset="1" style="stop-color:#E4001B"/>
				</linearGradient>
				<path class="st0" d="M274.8,71.9c2.3,2.5,3.7,6.1,4.2,10.9c-2.9-0.9-5.9-1.7-8.9-2.5c-9.4-2.6-19.1-4.8-29-6.7l0,0
					c-8.1-1.6-16.3-2.9-24.7-4.1c-1.7-4-2.1-8.1-2.4-12.5C235.9,60.6,256.1,65.6,274.8,71.9z"/>
				<linearGradient id="SVGID_2_" gradientUnits="userSpaceOnUse" x1="249.0832" y1="82.2155" x2="277.0783" y2="89.7871">
					<stop  offset="3.846154e-02" style="stop-color:#ED9B65"/>
					<stop  offset="0.9615" style="stop-color:#E3A26C"/>
				</linearGradient>
				<path class="st1" d="M254,91.2c-2.7-1.7-3.8-4.7-4.8-7.8c-0.1-0.4-0.1-0.8-0.2-1.3c7-0.5,14-1.1,21-1.9l0,0
					c3,0.8,5.9,1.7,8.9,2.5C270,87.4,261.5,90.6,254,91.2z"/>
				<linearGradient id="SVGID_3_" gradientUnits="userSpaceOnUse" x1="240.3994" y1="76.0148" x2="269.148" y2="83.7902">
					<stop  offset="3.846154e-02" style="stop-color:#E9764A"/>
					<stop  offset="0.9615" style="stop-color:#E3A26C"/>
				</linearGradient>
				<path class="st2" d="M270.1,80.3c-7,0.7-14,1.3-21,1.9l-8-8.6C251,75.5,260.7,77.7,270.1,80.3L270.1,80.3z"/>
				<linearGradient id="SVGID_4_" gradientUnits="userSpaceOnUse" x1="202.5854" y1="81.4045" x2="248.6544" y2="93.8643">
					<stop  offset="0" style="stop-color:#DC001E"/>
					<stop  offset="0.9667" style="stop-color:#D2001D"/>
					<stop  offset="1" style="stop-color:#E4001B"/>
				</linearGradient>
				<path class="st3" d="M249.3,83.4c0.5,4.2,0.7,7.5-0.3,8.6c-14.1,2.8-28.8,3.4-44,1.9c-1.4-1.6-2.3-5.1-3.1-9.4
					c0-0.1,0-0.2,0-0.3l0,0c15.8-0.2,31.5-0.9,47.3-2.1C249.2,82.6,249.2,83,249.3,83.4z"/>
				<linearGradient id="SVGID_5_" gradientUnits="userSpaceOnUse" x1="196.2804" y1="67.4435" x2="249.207" y2="81.758">
					<stop  offset="3.333334e-02" style="stop-color:#980012"/>
					<stop  offset="1" style="stop-color:#E4001B"/>
				</linearGradient>
				<path class="st4" d="M249.1,82.1c-15.7,1.2-31.5,1.9-47.3,2.1l-6-15.1c5,0.1,10,0.1,14.8,0.2c2-3.4,3.3-7.4,3.3-12.3
					c0.3,4.4,0.7,8.5,2.4,12.5c8.4,1.2,16.6,2.5,24.7,4.1l0,0L249.1,82.1z"/>
				<linearGradient id="SVGID_6_" gradientUnits="userSpaceOnUse" x1="169.6048" y1="32.7834" x2="277.4949" y2="61.9635">
					<stop  offset="0" style="stop-color:#DD0021"/>
					<stop  offset="1" style="stop-color:#FF7E6D"/>
				</linearGradient>
				<path class="st5" d="M274.8,71.9C256.1,65.6,235.9,60.6,214,57l0-0.2c-5.1-11-17.6-22.1-41.8-33.6
					C219,29.9,259.3,49.5,274.8,71.9z"/>
				<linearGradient id="SVGID_7_" gradientUnits="userSpaceOnUse" x1="152.9851" y1="82.0935" x2="200.2724" y2="94.8829">
					<stop  offset="3.846154e-02" style="stop-color:#ED9B65"/>
					<stop  offset="0.9615" style="stop-color:#E3A26C"/>
				</linearGradient>
				<path class="st6" d="M200.2,94.8c-14.2,0.9-29.4,0.4-45.4-1.2c-1.9-1.6-2.1-5.8-2.1-10.3l0,0c16.4,0.8,32.7,1.1,49.1,0.9
					c0,0.1,0,0.2,0.1,0.3C201.5,88.9,201.1,92.8,200.2,94.8z"/>
				<linearGradient id="SVGID_8_" gradientUnits="userSpaceOnUse" x1="150.4078" y1="69.7583" x2="201.964" y2="83.7022">
					<stop  offset="3.846154e-02" style="stop-color:#E9764A"/>
					<stop  offset="0.9615" style="stop-color:#E3A26C"/>
				</linearGradient>
				<path class="st7" d="M152.5,83.3L151,67.6c15.6,0.7,30.6,1.2,44.8,1.5l6,15.1c0,0-0.1,0-0.1,0c-16.4,0.2-32.7-0.1-49.1-0.9l0,0
					C152.6,83.3,152.6,83.3,152.5,83.3z"/>
				<linearGradient id="SVGID_9_" gradientUnits="userSpaceOnUse" x1="108.0024" y1="68.157" x2="153.3195" y2="80.4135">
					<stop  offset="3.333334e-02" style="stop-color:#980012"/>
					<stop  offset="1" style="stop-color:#E4001B"/>
				</linearGradient>
				<path class="st8" d="M151,67.6l1.5,15.7l0,0c-15.9-0.8-31.7-2-47.6-3.8l3.9-14.3l0,0C123.3,66.1,137.4,66.9,151,67.6z"/>
				<linearGradient id="SVGID_10_" gradientUnits="userSpaceOnUse" x1="104.7591" y1="80.1487" x2="150.9428" y2="92.6395">
					<stop  offset="0" style="stop-color:#DC001E"/>
					<stop  offset="0.9667" style="stop-color:#D2001D"/>
					<stop  offset="1" style="stop-color:#E4001B"/>
				</linearGradient>
				<path class="st9" d="M152.5,83.3c-0.1,4.4-0.8,8-2.6,9.9c-15.8,0.6-30.7,0.2-43.6-2.9c-1.6-2-1.6-5.6-1.7-9.1
					c0.1-0.5,0.2-1.1,0.3-1.7C120.8,81.3,136.7,82.5,152.5,83.3z"/>
				<linearGradient id="SVGID_11_" gradientUnits="userSpaceOnUse" x1="95.5416" y1="27.8996" x2="213.2324" y2="59.7304">
					<stop  offset="0" style="stop-color:#FFF3E4"/>
					<stop  offset="0.9615" style="stop-color:#FFDABF"/>
				</linearGradient>
				<path class="st10" d="M214,57c-36.4-6-77.6-8.1-124.7-5.3l0-0.2c2.6-14.8,16.5-24.4,38.3-30.5c0,0,0,0,0,0
					c15.1-0.7,30.2,0.1,44.6,2.2c24.3,11.5,36.7,22.7,41.8,33.6L214,57z"/>
				<linearGradient id="SVGID_12_" gradientUnits="userSpaceOnUse" x1="91.4494" y1="43.5115" x2="209.8473" y2="75.5335">
					<stop  offset="3.846154e-02" style="stop-color:#FFC395"/>
					<stop  offset="0.9615" style="stop-color:#FFA769"/>
				</linearGradient>
				<path class="st11" d="M210.7,69.2c-4.8,0-9.8-0.1-14.8-0.2c-14.2-0.3-29.2-0.8-44.8-1.5c-13.6-0.6-27.7-1.4-42.2-2.4
					c-4.4-0.3-8.8-0.6-13.2-0.9c-3.3-2.5-5.2-7-6.3-12.6c0,0,0,0,0.1,0C136.4,48.9,177.6,51,214,57
					C213.9,61.8,212.7,65.8,210.7,69.2z"/>
				<linearGradient id="SVGID_13_" gradientUnits="userSpaceOnUse" x1="61.8774" y1="59.183" x2="107.12" y2="71.4194">
					<stop  offset="3.846154e-02" style="stop-color:#E9764A"/>
					<stop  offset="0.9615" style="stop-color:#E3A26C"/>
				</linearGradient>
				<path class="st12" d="M108.8,65.2l-3.9,14.3c-15.6-1.7-31.2-3.9-46.8-6.5l2.6-4c12.4-1,23-2.1,30-3.4c0.8-4-0.6-9-1.5-14
					c1.2,5.7,3.1,10.2,6.3,12.6C100,64.6,104.4,64.9,108.8,65.2L108.8,65.2z"/>
				<linearGradient id="SVGID_14_" gradientUnits="userSpaceOnUse" x1="29.9689" y1="27.6743" x2="119.241" y2="51.8189">
					<stop  offset="0" style="stop-color:#DD0021"/>
					<stop  offset="1" style="stop-color:#FF7E6D"/>
				</linearGradient>
				<path class="st13" d="M89.2,51.7c-21.3,1.3-43.8,3.5-67.6,6.9c30.5-24.8,68.5-35.9,106-37.6c-21.8,6.1-35.7,15.8-38.3,30.5
					L89.2,51.7C89.3,51.7,89.3,51.7,89.2,51.7z"/>
				<linearGradient id="SVGID_15_" gradientUnits="userSpaceOnUse" x1="56.8982" y1="75.0837" x2="103.4455" y2="87.6729">
					<stop  offset="3.846154e-02" style="stop-color:#ED9B65"/>
					<stop  offset="0.9615" style="stop-color:#E3A26C"/>
				</linearGradient>
				<path class="st14" d="M104.7,81.2c-0.8,5.2-1.7,9.6-2.8,9.2c-13.8-1.1-29.5-3.6-46.5-7.2c-0.4-2.4,1-6.1,2.7-9.9l0,0
					c0-0.1,0.1-0.1,0.1-0.2l0,0c15.6,2.6,31.2,4.8,46.8,6.5C104.8,80.1,104.8,80.7,104.7,81.2z"/>
				<linearGradient id="SVGID_16_" gradientUnits="userSpaceOnUse" x1="43.4604" y1="67.4995" x2="59.9751" y2="71.9661">
					<stop  offset="0.7974" style="stop-color:#980012"/>
					<stop  offset="1" style="stop-color:#E4001B"/>
				</linearGradient>
				<path class="st15" d="M60.7,69.1l-2.6,4c-5.1-0.9-10.3-1.8-15.4-2.7C49,70,55.1,69.6,60.7,69.1z"/>
				<linearGradient id="SVGID_17_" gradientUnits="userSpaceOnUse" x1="22.8639" y1="52.9588" x2="89.3532" y2="70.9415">
					<stop  offset="3.333334e-02" style="stop-color:#980012"/>
					<stop  offset="1" style="stop-color:#E4001B"/>
				</linearGradient>
				<path class="st16" d="M42.7,70.4c-7.1,0.4-14.5,0.9-21.9,1.3C20.1,66,20,61.2,21.6,58.5c23.8-3.3,46.3-5.6,67.6-6.9
					c1,5,2.3,10,1.5,14c-7.1,1.4-17.6,2.5-30,3.4C55.1,69.6,49,70,42.7,70.4C42.7,70.4,42.7,70.4,42.7,70.4z"/>
				<linearGradient id="SVGID_18_" gradientUnits="userSpaceOnUse" x1="21.4044" y1="69.1969" x2="56.5949" y2="78.7145">
					<stop  offset="0" style="stop-color:#DC001E"/>
					<stop  offset="0.9667" style="stop-color:#D2001D"/>
					<stop  offset="1" style="stop-color:#E4001B"/>
				</linearGradient>
				<path class="st17" d="M51.2,82.1c-15.1-1.8-24.9-5.4-30.5-10.5c7.5-0.4,14.9-0.8,21.9-1.3c0,0,0,0,0,0c5.1,1,10.3,1.9,15.4,2.7
					l0,0c0,0.1-0.1,0.1-0.1,0.2C55.8,77.5,53.5,81.1,51.2,82.1z"/>
			</g>
			<g>
			</g>
		</g>
	</g>
	<g>
		<g id="XMLID_5_">
			<g>
				<linearGradient id="SVGID_19_" gradientUnits="userSpaceOnUse" x1="99.0547" y1="191.0358" x2="181.6726" y2="213.3807">
					<stop  offset="0.4359" style="stop-color:#EFE6E6"/>
					<stop  offset="1" style="stop-color:#7F797B"/>
				</linearGradient>
				<path class="st18" d="M150.1,125c2.4-1.9,4.5-2.8,6.3-2.5l4,169.4l-6.2-1.7L150.1,125z"/>
				<linearGradient id="SVGID_20_" gradientUnits="userSpaceOnUse" x1="126.5703" y1="89.3" x2="162.7905" y2="99.0961">
					<stop  offset="0.5282" style="stop-color:#7F797B"/>
					<stop  offset="1" style="stop-color:#EFE6E6"/>
				</linearGradient>
				<path class="st19" d="M156.5,122.4c-1.8-0.3-3.9,0.6-6.3,2.5l-1.4-57.4c1.4,0,3.7,0.1,6.5,0.2L156.5,122.4z"/>
				<linearGradient id="SVGID_21_" gradientUnits="userSpaceOnUse" x1="146.9175" y1="14.0682" x2="183.1377" y2="23.8644">
					<stop  offset="5.641026e-02" style="stop-color:#EFE6E6"/>
					<stop  offset="0.6769" style="stop-color:#7F797B"/>
				</linearGradient>
				<path class="st20" d="M154.1,21.5c-1.6-0.4-3.9-0.4-6.4-0.4l-0.1,0l0-0.3l-0.1-8c0.4-7.2,6-4.8,6.4-0.5l0.2,9L154.1,21.5z"/>
			</g>
			<g>
			</g>
		</g>
	</g>
</g>
</svg>
