<?xml version="1.0" encoding="utf-8"?>
<!-- Generator: Adobe Illustrator 22.1.0, SVG Export Plug-In . SVG Version: 6.00 Build 0)  -->
<svg version="1.1" id="Layer_2" xmlns="http://www.w3.org/2000/svg" xmlns:xlink="http://www.w3.org/1999/xlink" x="0px" y="0px"
	 viewBox="-50 50 300 300" style="enable-background:new 0 0 300 300;" xml:space="preserve">
<style type="text/css">
	.st0{fill:#77A323;}
</style>
<g>
	<g id="XMLID_11_">
		<g>
			<path class="st0" d="M158.6,143.4l-4.5-3.1c0.2-0.1,0.8,0,1.6,0.2c2.6,0.8,7.3,2.9,7.3,2.9H158.6z M156.4,143.4l-4,1.8l-4-3.6
				L156.4,143.4z M249.1,134.9c-1.1,0.8-2.8,0.5-2.8,0.5l-3.1-4.5L249.1,134.9z M122.1,150.1l-65.4-27.2l10.2,6.7l-15.1-3.1
				l31.2,14.7l-36.1-10.2l34.3,16l-38.3-8.9l49.9,19.6l-56.1-13.4l16.9,7.1l-22.3-3.6c0.6,0.2,20,6.7,18.7,6.7
				c-1.3,0-18.7-2.2-18.7-2.2l25.4,7.1l-33-2.2l53.9,12.5l-56.1-4.9l14.2,4.9l-20.5-1.8l19.1,4H15.2l21.4,3.6l-29.4,2.7v2.2h25.4
				L1,183.9c0,0,38.3,1.3,33.8,1.3s-28.1,4.9-28.1,4.9l50.8-4l-28.9,24l1.8,2.2l28.1-24l-11.6,42.7l8.5-15.6v11.6l1.8-9.8l-0.4,18.3
				l8-32.1c0,0,1.3,10.7,0.4,15.6c-0.9,4.9,0.9,2.2,1.3,0.9c0.4-1.3,2.1-10.8,2.2-11.5c-0.1,0.5-0.9,6.6-1.8,14.7
				c-0.9,8.5,1.8,9.8,2.2,7.6s3.1-23.2,3.1-23.2s9.8-8,7.1-2.7c-2.6,5.3-5.7,18.7-5.8,19.1c0.2-0.4,5.9-11.8,6.3-11.7
				c0.4,0.1,5.4-15.4,5.7-16.3l-5.3,24l12.5-26.3l4.5-1.3c0,0,8.1-20.5,1.2,3.3c-7,23.8,5-2,5-2l2.7-4.9l-10.7,33.4l15.1-32.1
				l-6.7,32.5c0.4-1,26.3-69,29.8-65c3.5,3.9-22,58.9-23.1,61.4l21.3-42.2l-14.2,38.7l22.7-43.2c-0.2,0.5-9.7,27.9-13.1,36.9
				c5.4-11.7,27.4-56.2,28.2-57.7c-0.7,1.7-22.8,53-21.8,53.4c0.9,0.4,10.7-8.9,10.7-8.9l6.2,5.3l9.4-6.7l6.2-18.7l-4,19.1
				l29.4-15.6l-16.9,14.7l8-1.8l16-9.4l-14.2,16l10.7-7.1c-0.1,0.1-1.4,2.1-3,3.9c3.2-1.6,6.6-3.1,6.6-3.1l20.5-8l-10.2,8.5l12-6.7
				c0,0,5.3,1.3,4.5,3.6c-0.9,2.2,0.9,4,0.9,4l4.5-12l3.6,5.3l5.3-8l-0.9,8.5l11.6-13.8l-1.3,7.6l10.2-12.5l-4.5,9.8l18.3-16.9
				l-9.4,19.1l16.9-20c0,0-9.4,27.2-7.6,24c1.8-3.1,12.5-21.8,12.5-21.8l-0.9,20.9l11.1-16V65l-4.7,1.6L277.7,43l6.7,23.6l-6.7-4.9
				l4.7,7.8l-7.6-7.1l1.3,4.5l-16-17.8l27.6,46.3l-43.6-48.5l8.9,14.7l-8.9-7.6L265.9,94l-38.7-44.1l8.9,16l-12.5-12.5l4,7.1
				L217,51.2l31.6,53.9l-49-46.3v3.6l-4.5-2.7l38.3,45.4l-44.5-39.2l3.1,8l-10.1-8.8l-3.7-3.2v4.9L188.9,78l-16-12.5l-6.7,0.4
				l62.3,61.9l-79.3-54.8l4.9,5.8l-10.7-4l42.3,35.6l-54.3-35.6l6.7,8l-6.7-3.1l37.4,35.6l-39.7-29.9l-5.8-4.3l2.2,4.5l-7.1-3.1
				l34.7,29.8l-40.1-25.4l2.7,4.5L111,90l36.1,28.5l-43.6-26.3l2.7,4.9L97.2,94l23.2,12.9l-26.7-12c0.7,0.4,22.2,14.2,20.9,13.8
				c-1.3-0.4-19-9.5-19.6-9.8l19.6,13.3l-26.7-11.6l31.6,21.4l-35.6-17.8l-4.5,0.4l10.7,9.4l-12-5.3l-4-0.9l27.6,18.7l-27.6-12
				l-5.8-0.9l19.1,12c0,0-24.9-8.5-25.8-8.9C60.7,116.3,121.2,149.6,122.1,150.1z M66.5,195.5v-11.1l4-3.6L66.5,195.5z M70.5,177.7
				l-4-0.9l7.1-1.3l-1.6,1.1L70.5,177.7z M77.1,183l1.3-7.6l1.3,2.2L77.1,183z M86,169.2l-7.6-4.5l9.2,1.8l2.4,0.5L86,169.2z
				 M82.5,177.7v-2.2l4.9-1.8l-3.1,10.7L82.5,177.7z M87.4,184.4l2.7-12.5l3.1-1.3L87.4,184.4z M97.2,165.7l-7.1-2.2h9.4h1.3
				L97.2,165.7z M100.7,161.2l-5.3-2.7l10.7,2.7H100.7z M97.6,175.5l2.4-7.5l0.7-2.3l2.2,1.3L97.6,175.5z M103,118.9l-2.7-4.5
				l25.8,13.8L103,118.9z M107.4,159.4l-4.5-1.8h6.7L107.4,159.4z M104.3,171.9l2.7-8.5h2.7L104.3,171.9z M113.2,157.7l-5.8-3.1
				l9.4,1.8L113.2,157.7z M109.6,169.2l3.6-8h1.8L109.6,169.2z M119.4,156.3l-4.5-4l8.9,2.2L119.4,156.3z M119.4,165.7l4.5-8h2.2
				L119.4,165.7z M128.3,152.3l-6.2-5.3l8,3.1L128.3,152.3z M134.1,150.1l-5.8-5.3l11.6,2.2l-5.8,0.4V150.1z M144.8,147l-4.9-4.9
				l8.5,3.1L144.8,147z M143.9,190.2l10.2-24.5l-8.5,24.5H143.9z M144.4,165.7l8-16l4-2.7L144.4,165.7z M152.4,187l1.8-4v4H152.4z
				 M184,114.5l-29.8-21.8l35.2,21.8H184z M165.8,142.1l-4.9-4l9.4,4H165.8z M165.3,156.3l4.9-11.1l1.8-0.4L165.3,156.3z M172,139.4
				l-6.2-5.8l8.9,5.8H172z M172,156.3l5.3-14.2h2.2l-0.4,1.3L172,156.3z M179.1,139.4l-4.5-5.8l9.4,4.5L179.1,139.4z M179.1,156.3
				l11.6-16h2.6h1.4L179.1,156.3z M191.6,136.3l-9.8-9.8l15.1,9.8H191.6z M196.9,147.4v-7.1l4.5-0.9L196.9,147.4z M199.1,136.7
				l-2.2-3.1l4.5,2.7L199.1,136.7z M196.9,188.4l16.9-19.1l-7.6,13.8L196.9,188.4z M204.5,136.7l-5.3-8.5l11.1,8L204.5,136.7z
				 M199.1,152.3l12.5-12.9h5.3L199.1,152.3z M213.4,135.4l-7.1-7.1l11.1,7.1H213.4z M217,131.4l-6.7-4.9l14.7,6.2L217,131.4z
				 M221.9,147v-4.9h4.9L221.9,147z M230.8,121.1l-8.9-13.8l15.1,13.8H230.8z M224.1,185.3l7.6-14.7l5.3-1.3L224.1,185.3z
				 M231.7,136.7l-2.2-5.3l4,2.7L231.7,136.7z M246.8,147l-2.2-3.6l5.3-1.3L246.8,147z M256.6,119.4l-3.6-4.9l9.4,4.9v3.6
				L256.6,119.4z M271.7,85.5L257.5,65l31.2,37.4L271.7,85.5z M262.4,130.9v-2.7l7.3,4.2l2.1,1.2L262.4,130.9z M268.6,143.4
				l-1.3-1.8h2.7L268.6,143.4z M275.3,114.5l-1.8-8.5l3.6,5.3L275.3,114.5z M278.4,141.6l-1.3-3.6h2.7v1.3L278.4,141.6z
				 M282.4,121.1v-2.2l4.5,4v1.8L282.4,121.1z M284.6,136.3l-2.2-4.5l2.2,1.3V136.3z"/>
		</g>
		<g>
		</g>
	</g>
</g>
</svg>
